<svg id="Ñëîé_1" data-name="Ñëîé 1" xmlns="http://www.w3.org/2000/svg" viewBox="0 0 257.28 287.16"><defs><style>.cls-1{fill:#5793ce;}.cls-2{fill:#396caa;}.cls-3,.cls-8{fill:#d4ecff;}.cls-4{fill:#b2d3ea;}.cls-5{fill:#fafdff;}.cls-6{fill:#173d7a;}.cls-7{fill:#fff;}.cls-8{opacity:0.4;}.cls-9{fill:#274f89;}</style></defs><path class="cls-1" d="M55.31,219.68a.85.85,0,0,1-.38-.09L37.26,210.4a2,2,0,0,1,0-3.49l17.53-9.59a.34.34,0,0,0,.18-.31.33.33,0,0,0-.18-.3l-17.32-9.63a2,2,0,0,1-1-1.7,1.94,1.94,0,0,1,1-1.73L61.75,169a5.94,5.94,0,0,1,6-.08l13.54,7.68a.83.83,0,0,1,.31,1.12.82.82,0,0,1-1.12.3l-13.54-7.67a4.27,4.27,0,0,0-4.3,0L38.22,185.05a.34.34,0,0,0-.17.3.34.34,0,0,0,.18.3l17.32,9.63a2,2,0,0,1,0,3.47L38,208.35a.34.34,0,0,0,0,.6l17.67,9.19a.82.82,0,0,1-.37,1.54Z" transform="translate(-36.19 -3.4)"/><rect class="cls-1" x="52.05" y="214.13" width="4.39" height="9.47" transform="translate(234.9 277.27) rotate(119.83)"/><path class="cls-1" d="M48.59,217.41a3.43,3.43,0,0,1,1.55-2.69c.85-.5,1.55-.1,1.55.89a3.45,3.45,0,0,1-1.54,2.69C49.29,218.8,48.6,218.4,48.59,217.41Z" transform="translate(-36.19 -3.4)"/><rect class="cls-1" x="59.8" y="216.66" width="7.11" height="14.85" transform="translate(253.08 277.2) rotate(119.83)"/><path class="cls-2" d="M58.09,218.54,55.31,217a5.65,5.65,0,0,0-2.18,3.8l2.78,1.6A5.69,5.69,0,0,0,58.09,218.54Z" transform="translate(-36.19 -3.4)"/><path class="cls-1" d="M54.41,221.85a5.54,5.54,0,0,1,2.5-4.36c1.39-.8,2.51-.16,2.52,1.45a5.59,5.59,0,0,1-2.5,4.36C55.54,224.1,54.41,223.46,54.41,221.85Z" transform="translate(-36.19 -3.4)"/><ellipse class="cls-3" cx="51.91" cy="215.97" rx="1.03" ry="0.59" transform="matrix(1, 0, 0, 1, -36.84, -3.24)"/><path class="cls-4" d="M106.68,160.13,63.32,135.41c-1.59-.91-1.39-2.51.44-3.57l24.95-14.4a6.89,6.89,0,0,1,6.19-.26l43.35,24.72c1.59.92,1.39,2.52-.44,3.58l-25,14.4A6.84,6.84,0,0,1,106.68,160.13Z" transform="translate(-36.19 -3.4)"/><path class="cls-2" d="M142.12,133.58h0V32.36L101.88,21.83l-7.41-4.28a7.37,7.37,0,0,0-6.64.28l-6.91,4H59.45l6.36,97.71A1.92,1.92,0,0,0,67,121.3l40.15,30.3a7.37,7.37,0,0,0,6.64-.28l26.76-15.45A2.64,2.64,0,0,0,142.12,133.58Z" transform="translate(-36.19 -3.4)"/><path class="cls-3" d="M91.39,16.89a7.64,7.64,0,0,0-3.56.94l-6.91,4H59.45V123.3a2,2,0,0,0,1.14,1.78L107.1,151.6a6.12,6.12,0,0,0,3.08.66l.48-102.13Z" transform="translate(-36.19 -3.4)"/><path class="cls-1" d="M107.53,151.81a7.59,7.59,0,0,0,5.31-.06V48.92h-5.31Z" transform="translate(-36.19 -3.4)"/><path class="cls-3" d="M107.1,50.14,60.59,23.62c-1.7-1-1.49-2.7.48-3.83L87.83,4.34a7.37,7.37,0,0,1,6.64-.28L141,30.59c1.7,1,1.49,2.69-.48,3.83L113.74,49.87A7.4,7.4,0,0,1,107.1,50.14Z" transform="translate(-36.19 -3.4)"/><path class="cls-5" d="M140.5,32.53,113.74,48a7.4,7.4,0,0,1-6.64.27L60.59,21.74a2.64,2.64,0,0,1-.85-.75,1.78,1.78,0,0,0,.85,2.63L107.1,50.14a7.4,7.4,0,0,0,6.64-.27L140.5,34.42c1.53-.88,2-2.12,1.33-3.08A3.65,3.65,0,0,1,140.5,32.53Z" transform="translate(-36.19 -3.4)"/><path class="cls-6" d="M108.42,39.39l-31-17.95c-.79-.46-.69-1.26.23-1.79L90.2,12.42a3.44,3.44,0,0,1,3.1-.13l31,18c.8.46.7,1.26-.22,1.79l-12.52,7.24A3.46,3.46,0,0,1,108.42,39.39Z" transform="translate(-36.19 -3.4)"/><path class="cls-3" d="M91.7,22.25l-1.79-1c-.11-.06-.1-.17,0-.24l1.73-1a.44.44,0,0,1,.43,0l1.8,1c.11.07.09.18,0,.25l-1.73,1A.47.47,0,0,1,91.7,22.25Z" transform="translate(-36.19 -3.4)"/><path class="cls-3" d="M97.7,25.7l-1.8-1c-.11-.06-.09-.17,0-.25l1.74-1a.5.5,0,0,1,.43,0l1.79,1c.11.06.1.18,0,.25l-1.73,1A.5.5,0,0,1,97.7,25.7Z" transform="translate(-36.19 -3.4)"/><path class="cls-3" d="M103.69,29.14l-1.79-1c-.11-.07-.1-.18,0-.25l1.73-1a.5.5,0,0,1,.43,0l1.79,1c.11.06.1.17,0,.25l-1.73,1A.47.47,0,0,1,103.69,29.14Z" transform="translate(-36.19 -3.4)"/><path class="cls-3" d="M109.69,32.59l-1.8-1c-.11-.06-.09-.17,0-.24l1.74-1a.42.42,0,0,1,.42,0l1.8,1c.11.07.1.18,0,.25l-1.73,1A.47.47,0,0,1,109.69,32.59Z" transform="translate(-36.19 -3.4)"/><path class="cls-1" d="M77.45,21.44l0,0,.19-.12L90.2,14.11A3.44,3.44,0,0,1,93.3,14l30.93,17.93c.74-.53.78-1.24,0-1.67l-31-17.95a3.44,3.44,0,0,0-3.1.13L77.68,19.65C76.76,20.18,76.66,21,77.45,21.44Z" transform="translate(-36.19 -3.4)"/><path class="cls-6" d="M119,70.2l17.6-10.08a4.32,4.32,0,0,0,1.8-3.43v-6.3c0-1.32-.81-1.93-1.8-1.35L119,59.12a4.26,4.26,0,0,0-1.8,3.42v6.3C117.17,70.16,118,70.77,119,70.2Z" transform="translate(-36.19 -3.4)"/><path class="cls-7" d="M137.44,48.85a1.73,1.73,0,0,1,.45,1.31v6.29a4.3,4.3,0,0,1-1.79,3.43L118.49,70a1.32,1.32,0,0,1-.87.19,1.08,1.08,0,0,0,1.35,0l17.6-10.08a4.32,4.32,0,0,0,1.8-3.43v-6.3C138.37,49.49,138,48.94,137.44,48.85Z" transform="translate(-36.19 -3.4)"/><path class="cls-2" d="M124.26,63.36l1.62-.94a.94.94,0,0,0,.39-.74V60c0-.29-.18-.42-.39-.29l-1.62.93a1,1,0,0,0-.39.75v1.72C123.87,63.35,124.05,63.48,124.26,63.36Z" transform="translate(-36.19 -3.4)"/><path class="cls-7" d="M129.66,60.24l1.62-.93a1,1,0,0,0,.39-.75V56.83c0-.28-.18-.42-.39-.29l-1.62.93a1,1,0,0,0-.39.75v1.72C129.27,60.23,129.45,60.36,129.66,60.24Z" transform="translate(-36.19 -3.4)"/><path class="cls-6" d="M119,115.69l17.6-10.08a4.29,4.29,0,0,0,1.8-3.42v-6.3c0-1.32-.81-1.93-1.8-1.36L119,104.61a4.29,4.29,0,0,0-1.8,3.43v6.3C117.17,115.66,118,116.27,119,115.69Z" transform="translate(-36.19 -3.4)"/><path class="cls-7" d="M137.44,94.34a1.75,1.75,0,0,1,.45,1.31V102a4.3,4.3,0,0,1-1.79,3.43l-17.61,10.08a1.32,1.32,0,0,1-.87.19,1.08,1.08,0,0,0,1.35,0l17.6-10.08a4.29,4.29,0,0,0,1.8-3.42v-6.3C138.37,95,138,94.44,137.44,94.34Z" transform="translate(-36.19 -3.4)"/><path class="cls-2" d="M124.26,108.85l1.62-.93a1,1,0,0,0,.39-.75v-1.72c0-.29-.18-.42-.39-.3l-1.62.94a.94.94,0,0,0-.39.74v1.73C123.87,108.85,124.05,109,124.26,108.85Z" transform="translate(-36.19 -3.4)"/><path class="cls-7" d="M129.66,105.74l1.62-.94a.94.94,0,0,0,.39-.74v-1.73c0-.29-.18-.42-.39-.29l-1.62.93a1,1,0,0,0-.39.75v1.72C129.27,105.73,129.45,105.86,129.66,105.74Z" transform="translate(-36.19 -3.4)"/><path class="cls-6" d="M119,138.44l17.6-10.08a4.29,4.29,0,0,0,1.8-3.43v-6.29c0-1.32-.81-1.93-1.8-1.36L119,127.36a4.28,4.28,0,0,0-1.8,3.43v6.3C117.17,138.41,118,139,119,138.44Z" transform="translate(-36.19 -3.4)"/><path class="cls-7" d="M137.44,117.09a1.75,1.75,0,0,1,.45,1.31v6.3a4.31,4.31,0,0,1-1.79,3.43l-17.61,10.08a1.32,1.32,0,0,1-.87.19,1.08,1.08,0,0,0,1.35,0l17.6-10.08a4.29,4.29,0,0,0,1.8-3.43v-6.29C138.37,117.74,138,117.19,137.44,117.09Z" transform="translate(-36.19 -3.4)"/><path class="cls-2" d="M124.26,131.6l1.62-.93a1,1,0,0,0,.39-.75V128.2c0-.29-.18-.42-.39-.3l-1.62.94a.93.93,0,0,0-.39.74v1.73C123.87,131.6,124.05,131.73,124.26,131.6Z" transform="translate(-36.19 -3.4)"/><path class="cls-7" d="M129.66,128.49l1.62-.94a.94.94,0,0,0,.39-.74v-1.73c0-.29-.18-.42-.39-.29l-1.62.93a.94.94,0,0,0-.39.74v1.73C129.27,128.48,129.45,128.61,129.66,128.49Z" transform="translate(-36.19 -3.4)"/><path class="cls-6" d="M119,93l17.6-10.09a4.29,4.29,0,0,0,1.8-3.42v-6.3c0-1.32-.81-1.93-1.8-1.36L119,81.86a4.29,4.29,0,0,0-1.8,3.43v6.3C117.17,92.91,118,93.52,119,93Z" transform="translate(-36.19 -3.4)"/><path class="cls-7" d="M137.44,71.59a1.77,1.77,0,0,1,.45,1.31v6.3a4.3,4.3,0,0,1-1.79,3.43L118.49,92.71a1.32,1.32,0,0,1-.87.19A1.08,1.08,0,0,0,119,93l17.6-10.09a4.29,4.29,0,0,0,1.8-3.42v-6.3C138.37,72.24,138,71.69,137.44,71.59Z" transform="translate(-36.19 -3.4)"/><path class="cls-2" d="M124.26,86.11l1.62-.94a.94.94,0,0,0,.39-.74V82.7c0-.29-.18-.42-.39-.29l-1.62.93a.94.94,0,0,0-.39.74v1.73C123.87,86.1,124.05,86.23,124.26,86.11Z" transform="translate(-36.19 -3.4)"/><path class="cls-7" d="M129.66,83l1.62-.93a1,1,0,0,0,.39-.75V79.58c0-.29-.18-.42-.39-.29l-1.62.93a1,1,0,0,0-.39.75v1.72C129.27,83,129.45,83.11,129.66,83Z" transform="translate(-36.19 -3.4)"/><path class="cls-1" d="M103.72,63.75,63.1,40.3a4,4,0,0,1-1.65-3.15V29.41c0-1.21.74-1.77,1.65-1.25l40.62,23.46a3.92,3.92,0,0,1,1.64,3.14v7.75C105.36,63.72,104.63,64.28,103.72,63.75Z" transform="translate(-36.19 -3.4)"/><path class="cls-8" d="M102.55,61,64.26,38.93a2,2,0,0,1-.83-1.6V31.51c0-.61.37-.9.83-.63L102.55,53a2,2,0,0,1,.84,1.6V60.4C103.39,61,103,61.3,102.55,61Z" transform="translate(-36.19 -3.4)"/><path class="cls-3" d="M72.24,40.59l-5.71-3.3a1.92,1.92,0,0,1-.81-1.55h0c0-.59.36-.87.81-.61l5.71,3.3A1.93,1.93,0,0,1,73.05,40h0C73.05,40.58,72.69,40.85,72.24,40.59Z" transform="translate(-36.19 -3.4)"/><ellipse class="cls-6" cx="76.17" cy="41.78" rx="0.76" ry="1.32" transform="translate(-46.88 40.29) rotate(-30)"/><path class="cls-6" d="M80.41,44.23c0,.6-.41.84-.93.54a2.06,2.06,0,0,1-.94-1.62c0-.6.42-.84.94-.54A2,2,0,0,1,80.41,44.23Z" transform="translate(-36.19 -3.4)"/><path class="cls-3" d="M83.72,46.14c0,.59-.42.84-.94.54a2.07,2.07,0,0,1-.93-1.62c0-.6.41-.84.93-.54A2,2,0,0,1,83.72,46.14Z" transform="translate(-36.19 -3.4)"/><path class="cls-6" d="M87,48.05c0,.59-.42.83-.93.54A2.08,2.08,0,0,1,85.15,47c0-.59.42-.84.94-.54A2.1,2.1,0,0,1,87,48.05Z" transform="translate(-36.19 -3.4)"/><path class="cls-6" d="M100.94,57.79,99,56.68a1.25,1.25,0,0,1-.52-1v-2c0-.38.24-.56.52-.39l1.93,1.11a1.23,1.23,0,0,1,.52,1v2C101.46,57.78,101.23,58,100.94,57.79Z" transform="translate(-36.19 -3.4)"/><path class="cls-1" d="M103.72,77.41,63.1,54a4,4,0,0,1-1.65-3.15V43.07c0-1.22.74-1.77,1.65-1.25l40.62,23.45a4,4,0,0,1,1.64,3.15v7.74C105.36,77.38,104.63,77.93,103.72,77.41Z" transform="translate(-36.19 -3.4)"/><path class="cls-8" d="M102.55,74.69,64.26,52.59a2,2,0,0,1-.83-1.6V45.17c0-.62.37-.9.83-.63l38.29,22.1a2,2,0,0,1,.84,1.6v5.82C103.39,74.68,103,75,102.55,74.69Z" transform="translate(-36.19 -3.4)"/><path class="cls-3" d="M72.24,54.25,66.53,51a1.93,1.93,0,0,1-.81-1.55h0c0-.59.36-.87.81-.61l5.71,3.3a1.93,1.93,0,0,1,.81,1.55h0C73.05,54.24,72.69,54.51,72.24,54.25Z" transform="translate(-36.19 -3.4)"/><path class="cls-7" d="M77.11,56c0,.6-.42.84-.94.54a2.08,2.08,0,0,1-.93-1.62c0-.6.42-.84.93-.54A2.06,2.06,0,0,1,77.11,56Z" transform="translate(-36.19 -3.4)"/><path class="cls-6" d="M80.41,57.89c0,.6-.41.84-.93.54a2.08,2.08,0,0,1-.94-1.62c0-.6.42-.84.94-.54A2,2,0,0,1,80.41,57.89Z" transform="translate(-36.19 -3.4)"/><path class="cls-3" d="M83.72,59.8c0,.59-.42.84-.94.54a2.07,2.07,0,0,1-.93-1.63c0-.59.41-.83.93-.54A2.08,2.08,0,0,1,83.72,59.8Z" transform="translate(-36.19 -3.4)"/><ellipse class="cls-6" cx="86.09" cy="61.16" rx="0.76" ry="1.32" transform="translate(-55.24 47.84) rotate(-30)"/><path class="cls-6" d="M100.94,71.45,99,70.34a1.27,1.27,0,0,1-.52-1v-2c0-.38.24-.56.52-.39L100.94,68a1.23,1.23,0,0,1,.52,1v2C101.46,71.44,101.23,71.62,100.94,71.45Z" transform="translate(-36.19 -3.4)"/><path class="cls-1" d="M103.72,91.07,63.1,67.62a4,4,0,0,1-1.65-3.15V56.73c0-1.22.74-1.77,1.65-1.25l40.62,23.45a4,4,0,0,1,1.64,3.15v7.74C105.36,91,104.63,91.59,103.72,91.07Z" transform="translate(-36.19 -3.4)"/><path class="cls-8" d="M102.55,88.35,64.26,66.25a2,2,0,0,1-.83-1.6V58.83c0-.62.37-.9.83-.63l38.29,22.1a2,2,0,0,1,.84,1.6v5.82C103.39,88.34,103,88.62,102.55,88.35Z" transform="translate(-36.19 -3.4)"/><path class="cls-3" d="M72.24,67.91l-5.71-3.3a1.93,1.93,0,0,1-.81-1.55h0c0-.6.36-.87.81-.61l5.71,3.3a1.93,1.93,0,0,1,.81,1.55h0C73.05,67.89,72.69,68.17,72.24,67.91Z" transform="translate(-36.19 -3.4)"/><path class="cls-7" d="M77.11,69.64c0,.6-.42.84-.94.54a2.08,2.08,0,0,1-.93-1.62c0-.6.42-.84.93-.54A2.06,2.06,0,0,1,77.11,69.64Z" transform="translate(-36.19 -3.4)"/><path class="cls-6" d="M80.41,71.55c0,.59-.41.84-.93.54a2.08,2.08,0,0,1-.94-1.62c0-.6.42-.84.94-.54A2,2,0,0,1,80.41,71.55Z" transform="translate(-36.19 -3.4)"/><path class="cls-3" d="M83.72,73.45c0,.6-.42.84-.94.55a2.07,2.07,0,0,1-.93-1.63c0-.59.41-.84.93-.54A2.08,2.08,0,0,1,83.72,73.45Z" transform="translate(-36.19 -3.4)"/><path class="cls-6" d="M87,75.36c0,.6-.42.84-.93.54a2.06,2.06,0,0,1-.94-1.62c0-.6.42-.84.94-.54A2.08,2.08,0,0,1,87,75.36Z" transform="translate(-36.19 -3.4)"/><path class="cls-6" d="M100.94,85.11,99,84a1.27,1.27,0,0,1-.52-1V81c0-.39.24-.56.52-.4l1.93,1.12a1.23,1.23,0,0,1,.52,1v2C101.46,85.1,101.23,85.28,100.94,85.11Z" transform="translate(-36.19 -3.4)"/><path class="cls-1" d="M103.72,104.73,63.1,81.27a3.93,3.93,0,0,1-1.65-3.14V70.38c0-1.21.74-1.77,1.65-1.24l40.62,23.45a3.94,3.94,0,0,1,1.64,3.15v7.74C105.36,104.69,104.63,105.25,103.72,104.73Z" transform="translate(-36.19 -3.4)"/><path class="cls-8" d="M102.55,102,64.26,79.91a2,2,0,0,1-.83-1.6V72.49c0-.62.37-.9.83-.63L102.55,94a2,2,0,0,1,.84,1.6v5.82C103.39,102,103,102.28,102.55,102Z" transform="translate(-36.19 -3.4)"/><path class="cls-3" d="M72.24,81.57l-5.71-3.3a1.93,1.93,0,0,1-.81-1.55h0c0-.6.36-.87.81-.61l5.71,3.3A1.92,1.92,0,0,1,73.05,81h0C73.05,81.55,72.69,81.83,72.24,81.57Z" transform="translate(-36.19 -3.4)"/><path class="cls-6" d="M77.11,83.3c0,.6-.42.84-.94.54a2.09,2.09,0,0,1-.93-1.62c0-.6.42-.84.93-.54A2,2,0,0,1,77.11,83.3Z" transform="translate(-36.19 -3.4)"/><ellipse class="cls-6" cx="79.48" cy="84.66" rx="0.76" ry="1.32" transform="translate(-67.88 47.69) rotate(-30)"/><path class="cls-3" d="M83.72,87.11c0,.6-.42.84-.94.54A2,2,0,0,1,81.85,86c0-.6.41-.84.93-.54A2.08,2.08,0,0,1,83.72,87.11Z" transform="translate(-36.19 -3.4)"/><path class="cls-6" d="M87,89c0,.6-.42.84-.93.54a2.06,2.06,0,0,1-.94-1.62c0-.6.42-.84.94-.54A2.08,2.08,0,0,1,87,89Z" transform="translate(-36.19 -3.4)"/><path class="cls-3" d="M100.94,98.77,99,97.66a1.27,1.27,0,0,1-.52-1v-2c0-.39.24-.56.52-.4l1.93,1.11a1.25,1.25,0,0,1,.52,1v2C101.46,98.76,101.23,98.93,100.94,98.77Z" transform="translate(-36.19 -3.4)"/><path class="cls-1" d="M103.72,118.38,63.1,94.93a3.93,3.93,0,0,1-1.65-3.14V84c0-1.21.74-1.77,1.65-1.24l40.62,23.45a3.92,3.92,0,0,1,1.64,3.14v7.75C105.36,118.35,104.63,118.91,103.72,118.38Z" transform="translate(-36.19 -3.4)"/><path class="cls-8" d="M102.55,115.67,64.26,93.56A2,2,0,0,1,63.43,92V86.14c0-.61.37-.89.83-.63l38.29,22.11a2,2,0,0,1,.84,1.59V115C103.39,115.65,103,115.94,102.55,115.67Z" transform="translate(-36.19 -3.4)"/><path class="cls-3" d="M72.24,95.23l-5.71-3.3a1.93,1.93,0,0,1-.81-1.55h0c0-.6.36-.87.81-.62l5.71,3.3a2,2,0,0,1,.81,1.55h0C73.05,95.21,72.69,95.49,72.24,95.23Z" transform="translate(-36.19 -3.4)"/><path class="cls-6" d="M77.11,97c0,.59-.42.84-.94.54a2.09,2.09,0,0,1-.93-1.62c0-.6.42-.84.93-.55A2.08,2.08,0,0,1,77.11,97Z" transform="translate(-36.19 -3.4)"/><path class="cls-7" d="M80.41,98.86c0,.6-.41.84-.93.54a2,2,0,0,1-.94-1.62c0-.59.42-.84.94-.54A2.07,2.07,0,0,1,80.41,98.86Z" transform="translate(-36.19 -3.4)"/><path class="cls-3" d="M83.72,100.77c0,.6-.42.84-.94.54a2,2,0,0,1-.93-1.62c0-.6.41-.84.93-.54A2.06,2.06,0,0,1,83.72,100.77Z" transform="translate(-36.19 -3.4)"/><path class="cls-7" d="M87,102.68c0,.6-.42.84-.93.54a2.08,2.08,0,0,1-.94-1.62c0-.6.42-.84.94-.54A2.08,2.08,0,0,1,87,102.68Z" transform="translate(-36.19 -3.4)"/><path class="cls-3" d="M100.94,112.43,99,111.32a1.29,1.29,0,0,1-.52-1v-2c0-.38.24-.56.52-.39l1.93,1.11a1.25,1.25,0,0,1,.52,1v2C101.46,112.42,101.23,112.59,100.94,112.43Z" transform="translate(-36.19 -3.4)"/><path class="cls-1" d="M103.72,132,63.1,108.59a3.93,3.93,0,0,1-1.65-3.14V97.7c0-1.21.74-1.77,1.65-1.24l40.62,23.45a3.92,3.92,0,0,1,1.64,3.14v7.75C105.36,132,104.63,132.57,103.72,132Z" transform="translate(-36.19 -3.4)"/><path class="cls-8" d="M102.55,129.33,64.26,107.22a2,2,0,0,1-.83-1.59V99.8c0-.61.37-.89.83-.63l38.29,22.11a2,2,0,0,1,.84,1.59v5.83C103.39,129.31,103,129.59,102.55,129.33Z" transform="translate(-36.19 -3.4)"/><path class="cls-3" d="M72.24,108.89l-5.71-3.3a2,2,0,0,1-.81-1.55h0c0-.6.36-.88.81-.62l5.71,3.3a1.93,1.93,0,0,1,.81,1.55h0C73.05,108.87,72.69,109.14,72.24,108.89Z" transform="translate(-36.19 -3.4)"/><ellipse class="cls-6" cx="76.17" cy="110.07" rx="0.76" ry="1.32" transform="translate(-81.03 49.44) rotate(-30)"/><path class="cls-6" d="M80.41,112.52c0,.6-.41.84-.93.54a2.06,2.06,0,0,1-.94-1.62c0-.6.42-.84.94-.54A2.07,2.07,0,0,1,80.41,112.52Z" transform="translate(-36.19 -3.4)"/><path class="cls-3" d="M83.72,114.43c0,.6-.42.84-.94.54a2,2,0,0,1-.93-1.62c0-.6.41-.84.93-.54A2.06,2.06,0,0,1,83.72,114.43Z" transform="translate(-36.19 -3.4)"/><path class="cls-6" d="M87,116.34c0,.59-.42.84-.93.54a2.08,2.08,0,0,1-.94-1.62c0-.6.42-.84.94-.54A2.06,2.06,0,0,1,87,116.34Z" transform="translate(-36.19 -3.4)"/><path class="cls-6" d="M100.94,126.08,99,125a1.25,1.25,0,0,1-.52-1v-2c0-.38.24-.56.52-.39l1.93,1.11a1.25,1.25,0,0,1,.52,1v2C101.46,126.07,101.23,126.25,100.94,126.08Z" transform="translate(-36.19 -3.4)"/><path class="cls-1" d="M103.72,145.7,63.1,122.25a3.93,3.93,0,0,1-1.65-3.15v-7.74c0-1.21.74-1.77,1.65-1.25l40.62,23.46a3.92,3.92,0,0,1,1.64,3.14v7.75C105.36,145.67,104.63,146.23,103.72,145.7Z" transform="translate(-36.19 -3.4)"/><path class="cls-8" d="M102.55,143,64.26,120.88a2,2,0,0,1-.83-1.6v-5.82c0-.61.37-.9.83-.63l38.29,22.11a2,2,0,0,1,.84,1.59v5.82C103.39,143,103,143.25,102.55,143Z" transform="translate(-36.19 -3.4)"/><path class="cls-3" d="M72.24,122.54l-5.71-3.3a1.92,1.92,0,0,1-.81-1.54h0c0-.6.36-.88.81-.62l5.71,3.3a1.93,1.93,0,0,1,.81,1.55h0C73.05,122.53,72.69,122.8,72.24,122.54Z" transform="translate(-36.19 -3.4)"/><path class="cls-7" d="M78.15,125c0,1.13-.79,1.59-1.76,1A3.89,3.89,0,0,1,74.62,123c0-1.13.79-1.59,1.77-1A3.9,3.9,0,0,1,78.15,125Z" transform="translate(-36.19 -3.4)"/><path class="cls-6" d="M85,129c0,.59-.42.84-.94.54a2.08,2.08,0,0,1-.94-1.62c0-.6.42-.84.94-.55A2.08,2.08,0,0,1,85,129Z" transform="translate(-36.19 -3.4)"/><path class="cls-3" d="M88.3,130.92c0,.6-.42.84-.93.55a2.08,2.08,0,0,1-.94-1.63c0-.59.42-.84.94-.54A2.09,2.09,0,0,1,88.3,130.92Z" transform="translate(-36.19 -3.4)"/><path class="cls-6" d="M91.61,132.83c0,.6-.42.84-.94.54a2.06,2.06,0,0,1-.94-1.62c0-.6.42-.84.94-.54A2.06,2.06,0,0,1,91.61,132.83Z" transform="translate(-36.19 -3.4)"/><path class="cls-3" d="M100.94,139.74,99,138.63a1.25,1.25,0,0,1-.52-1v-2c0-.38.24-.56.52-.39l1.93,1.11a1.23,1.23,0,0,1,.52,1v2C101.46,139.73,101.23,139.91,100.94,139.74Z" transform="translate(-36.19 -3.4)"/><path class="cls-1" d="M101,180a.8.8,0,0,1-.4-.11L54.44,153.65a1.79,1.79,0,0,1,0-3.1l19.81-11.69a2.31,2.31,0,0,0,1.14-2V124A.82.82,0,1,1,77,124v12.89a4,4,0,0,1-1.93,3.39L55.25,152a.14.14,0,0,0-.08.13.16.16,0,0,0,.08.14l46.17,26.24a.8.8,0,0,1,.31,1.11A.82.82,0,0,1,101,180Z" transform="translate(-36.19 -3.4)"/><rect class="cls-1" x="87.02" y="167.82" width="4.39" height="9.47" transform="translate(247.08 177.59) rotate(119.83)"/><path class="cls-1" d="M83.55,171.09a3.45,3.45,0,0,1,1.55-2.69c.85-.49,1.55-.09,1.55.89a3.47,3.47,0,0,1-1.54,2.7C84.25,172.48,83.56,172.08,83.55,171.09Z" transform="translate(-36.19 -3.4)"/><rect class="cls-1" x="94.77" y="170.35" width="7.11" height="14.85" transform="translate(265.26 177.51) rotate(119.83)"/><path class="cls-2" d="M93.06,172.23l-2.78-1.6a5.71,5.71,0,0,0-2.19,3.81L90.87,176A5.66,5.66,0,0,0,93.06,172.23Z" transform="translate(-36.19 -3.4)"/><path class="cls-1" d="M89.37,175.54a5.58,5.58,0,0,1,2.5-4.36c1.39-.81,2.51-.16,2.52,1.44a5.56,5.56,0,0,1-2.5,4.36C90.5,177.79,89.38,177.14,89.37,175.54Z" transform="translate(-36.19 -3.4)"/><path class="cls-3" d="M86.15,170.08c-.41-.23-.41-.61,0-.84a1.63,1.63,0,0,1,1.46,0c.4.24.4.61,0,.84A1.58,1.58,0,0,1,86.15,170.08Z" transform="translate(-36.19 -3.4)"/><rect class="cls-1" x="77.03" y="173.85" width="4.39" height="9.47" transform="translate(237.36 195.29) rotate(119.83)"/><path class="cls-1" d="M73.57,177.13a3.45,3.45,0,0,1,1.54-2.69c.86-.5,1.55-.1,1.56.89A3.43,3.43,0,0,1,75.12,178C74.27,178.52,73.57,178.12,73.57,177.13Z" transform="translate(-36.19 -3.4)"/><rect class="cls-1" x="84.78" y="176.39" width="7.11" height="14.85" transform="translate(255.54 195.21) rotate(119.83)"/><path class="cls-2" d="M83.07,178.26l-2.78-1.59a5.65,5.65,0,0,0-2.18,3.8l2.78,1.6A5.69,5.69,0,0,0,83.07,178.26Z" transform="translate(-36.19 -3.4)"/><path class="cls-1" d="M79.39,181.57a5.54,5.54,0,0,1,2.5-4.36c1.38-.8,2.51-.16,2.51,1.45A5.54,5.54,0,0,1,81.9,183C80.52,183.82,79.39,183.18,79.39,181.57Z" transform="translate(-36.19 -3.4)"/><path class="cls-3" d="M76.16,176.11c-.4-.23-.4-.6,0-.84a1.61,1.61,0,0,1,1.45,0c.4.23.41.61,0,.84A1.61,1.61,0,0,1,76.16,176.11Z" transform="translate(-36.19 -3.4)"/><path class="cls-1" d="M241.81,106.5a.55.55,0,0,1-.18,0,.82.82,0,0,1-.61-1l8-34.64a.82.82,0,1,1,1.59.36l-8,34.65A.81.81,0,0,1,241.81,106.5Z" transform="translate(-36.19 -3.4)"/><path class="cls-1" d="M231.21,104.06l-.19,0a.82.82,0,0,1-.61-1l8-34.65a.82.82,0,0,1,1.6.37l-8,34.65A.83.83,0,0,1,231.21,104.06Z" transform="translate(-36.19 -3.4)"/><path class="cls-1" d="M220.6,101.62l-.18,0a.83.83,0,0,1-.62-1l8-34.64a.82.82,0,0,1,1.6.37l-8,34.64A.83.83,0,0,1,220.6,101.62Z" transform="translate(-36.19 -3.4)"/><rect class="cls-1" x="223.42" y="74.64" width="4.39" height="9.47" transform="translate(-12.13 -52.79) rotate(13.19)"/><path class="cls-1" d="M225.84,85.2a3.41,3.41,0,0,1-3-.71c-.73-.67-.54-1.45.4-1.74a3.43,3.43,0,0,1,3,.71C227,84.14,226.78,84.92,225.84,85.2Z" transform="translate(-36.19 -3.4)"/><rect class="cls-1" x="224.45" y="61.72" width="7.11" height="14.85" transform="translate(-14.39 -53.61) rotate(13.19)"/><path class="cls-2" d="M224.2,75.78l-.73,3.12a5.69,5.69,0,0,0,4.27,1l.73-3.12A5.65,5.65,0,0,0,224.2,75.78Z" transform="translate(-36.19 -3.4)"/><path class="cls-1" d="M228.43,78.36a5.57,5.57,0,0,1-4.9-1.15c-1.16-1.1-.87-2.36.67-2.83a5.55,5.55,0,0,1,4.89,1.15C230.26,76.63,230,77.89,228.43,78.36Z" transform="translate(-36.19 -3.4)"/><path class="cls-3" d="M224.12,83c-.11.45-.47.56-.8.24a1.61,1.61,0,0,1-.43-1.39.45.45,0,0,1,.81-.24A1.59,1.59,0,0,1,224.12,83Z" transform="translate(-36.19 -3.4)"/><rect class="cls-1" x="233.25" y="80.49" width="4.39" height="9.47" transform="translate(-10.53 -54.88) rotate(13.19)"/><path class="cls-1" d="M235.67,91.06a3.41,3.41,0,0,1-3-.71c-.72-.68-.54-1.46.41-1.74a3.41,3.41,0,0,1,3,.71C236.8,90,236.62,90.77,235.67,91.06Z" transform="translate(-36.19 -3.4)"/><rect class="cls-1" x="234.29" y="67.58" width="7.11" height="14.85" transform="translate(-12.8 -55.7) rotate(13.19)"/><path class="cls-2" d="M234,81.63l-.73,3.12a5.66,5.66,0,0,0,4.27,1l.73-3.12A5.68,5.68,0,0,0,234,81.63Z" transform="translate(-36.19 -3.4)"/><path class="cls-1" d="M238.26,84.21a5.55,5.55,0,0,1-4.89-1.14c-1.17-1.1-.87-2.37.66-2.83a5.57,5.57,0,0,1,4.9,1.15C240.09,82.48,239.8,83.75,238.26,84.21Z" transform="translate(-36.19 -3.4)"/><path class="cls-3" d="M234,88.87c-.1.45-.46.56-.8.24a1.59,1.59,0,0,1-.42-1.39c.11-.45.47-.56.8-.24A1.58,1.58,0,0,1,234,88.87Z" transform="translate(-36.19 -3.4)"/><rect class="cls-1" x="243.2" y="86.3" width="4.39" height="9.47" transform="translate(-8.94 -57) rotate(13.19)"/><path class="cls-1" d="M245.61,96.87a3.42,3.42,0,0,1-3-.71.94.94,0,0,1,.41-1.74,3.41,3.41,0,0,1,3,.71C246.74,95.8,246.56,96.58,245.61,96.87Z" transform="translate(-36.19 -3.4)"/><rect class="cls-1" x="244.23" y="73.39" width="7.11" height="14.85" transform="translate(-11.21 -57.82) rotate(13.19)"/><path class="cls-2" d="M244,87.44l-.73,3.12a5.65,5.65,0,0,0,4.27,1l.73-3.12A5.69,5.69,0,0,0,244,87.44Z" transform="translate(-36.19 -3.4)"/><path class="cls-1" d="M248.21,90a5.56,5.56,0,0,1-4.9-1.14c-1.16-1.1-.87-2.36.67-2.83a5.55,5.55,0,0,1,4.89,1.15C250,88.3,249.74,89.56,248.21,90Z" transform="translate(-36.19 -3.4)"/><path class="cls-3" d="M243.9,94.68c-.11.45-.47.56-.8.24a1.62,1.62,0,0,1-.43-1.39.45.45,0,0,1,.81-.24A1.58,1.58,0,0,1,243.9,94.68Z" transform="translate(-36.19 -3.4)"/><path class="cls-4" d="M176.71,259.21l-95-54.87c-2.69-1.55-2.35-4.26.76-6.05l64.7-37.35c3.11-1.79,7.8-2,10.49-.43l95,54.86c2.69,1.55,2.35,4.26-.75,6.06L187.2,258.77C184.09,260.56,179.4,260.76,176.71,259.21Z" transform="translate(-36.19 -3.4)"/><path class="cls-6" d="M274.92,118.18l-95-54.87a3.86,3.86,0,0,0-3.22-.39h0l-.17.06,0,0L173,64.3l3.08,1.51-.05.17-15.48,70.46c-.77,3.53.78,7.64,3.47,9.19l92.74,53.55-.33,3.93,3.75-1.46a5.23,5.23,0,0,0,2.69-3.82l15.48-70.46C279.16,123.85,277.6,119.73,274.92,118.18Z" transform="translate(-36.19 -3.4)"/><path class="cls-2" d="M274.92,118.18l-95-54.87a3.86,3.86,0,0,0-3.22-.39h0l-.17.06,0,0L173,64.3l3.08,1.51-.05.17-10.2,46.44,46.5,36.22L277.92,122A7.36,7.36,0,0,0,274.92,118.18Z" transform="translate(-36.19 -3.4)"/><path class="cls-9" d="M271.33,129l7.24-3.08a9.07,9.07,0,0,0-2.93-7.24l-11.45,4.81Z" transform="translate(-36.19 -3.4)"/><path class="cls-3" d="M253.16,202.74l-95-54.87c-2.69-1.55-4.24-5.67-3.46-9.19l15.48-70.46c.77-3.53,3.58-5.13,6.27-3.58l95,54.87c2.69,1.55,4.24,5.67,3.47,9.19l-15.48,70.46C258.66,202.69,255.85,204.29,253.16,202.74Z" transform="translate(-36.19 -3.4)"/><path class="cls-7" d="M251.1,197.49l-89.37-51.57c-2.46-1.42-3.88-5.19-3.17-8.41L172.72,73c.71-3.22,3.28-4.69,5.74-3.27l89.37,51.58c2.46,1.42,3.88,5.18,3.17,8.41l-14.16,64.47C256.13,197.45,253.56,198.91,251.1,197.49Z" transform="translate(-36.19 -3.4)"/><path class="cls-7" d="M251.1,197.49l-89.37-51.57c-2.46-1.42-3.88-5.19-3.17-8.41L172.72,73c.71-3.22,3.28-4.69,5.74-3.27l89.37,51.58c2.46,1.42,3.88,5.18,3.17,8.41l-14.16,64.47C256.13,197.45,253.56,198.91,251.1,197.49Z" transform="translate(-36.19 -3.4)"/><path class="cls-6" d="M254.47,205.12l-13-1.71L157.63,155c-2.69-1.55-7.38-1.36-10.49.43L87.73,189.72l-7.86-1v4.45h0a3,3,0,0,0,1.8,2.75l95,54.86c2.69,1.55,7.38,1.36,10.49-.43L251.91,213c1.74-1,2.61-2.31,2.56-3.53h0Z" transform="translate(-36.19 -3.4)"/><path class="cls-2" d="M191.47,174.53l-6-3.43H120L87.73,189.72l-7.86-1v4.45h0a3,3,0,0,0,1.8,2.75l95,54.86a9.85,9.85,0,0,0,5.41,1Z" transform="translate(-36.19 -3.4)"/><path class="cls-1" d="M83.36,189.15l-3.49-.46v4.45h0a3,3,0,0,0,1.8,2.75l1.68,1Z" transform="translate(-36.19 -3.4)"/><path class="cls-9" d="M177.67,251.21a12.2,12.2,0,0,0,8.91-.56v-9.94h-8.91Z" transform="translate(-36.19 -3.4)"/><path class="cls-3" d="M176.71,246.31l-95-54.86c-2.69-1.56-2.35-4.27.76-6.06l64.7-37.34c3.11-1.8,7.8-2,10.49-.44l95,54.87c2.69,1.55,2.35,4.26-.75,6.05L187.2,245.88C184.09,247.67,179.4,247.86,176.71,246.31Z" transform="translate(-36.19 -3.4)"/><path class="cls-7" d="M251.91,206.9,187.2,244.25c-3.11,1.79-7.8,2-10.49.43l-95-54.86A3.53,3.53,0,0,1,80,188c-.42,1.27.12,2.56,1.67,3.46l95,54.86c2.69,1.55,7.38,1.36,10.49-.43l64.71-37.35c2.08-1.2,2.91-2.82,2.42-4.23A5.06,5.06,0,0,1,251.91,206.9Z" transform="translate(-36.19 -3.4)"/><path class="cls-6" d="M122.1,173.28l-4.3-2.48c-.35-.2-.3-.55.1-.78l5.07-2.93a1.5,1.5,0,0,1,1.35-.05l4.3,2.48c.34.2.3.55-.1.78l-5.07,2.93A1.5,1.5,0,0,1,122.1,173.28Z" transform="translate(-36.19 -3.4)"/><path class="cls-6" d="M128.74,177.12l-4.3-2.49c-.35-.19-.3-.54.1-.77l5.07-2.93a1.5,1.5,0,0,1,1.35-.06l4.3,2.48c.34.2.3.55-.1.78l-5.07,2.93A1.5,1.5,0,0,1,128.74,177.12Z" transform="translate(-36.19 -3.4)"/><path class="cls-6" d="M135.38,181l-4.3-2.48c-.35-.2-.3-.55.1-.78l5.07-2.93a1.53,1.53,0,0,1,1.35-.06l4.3,2.49c.34.2.3.54-.1.77l-5.07,2.93A1.5,1.5,0,0,1,135.38,181Z" transform="translate(-36.19 -3.4)"/><path class="cls-6" d="M144.56,177.78l-4.3-2.48c-.34-.2-.3-.55.1-.78l4.26-2.46A1.5,1.5,0,0,1,146,172l4.3,2.48c.34.2.3.55-.1.78l-4.26,2.46A1.5,1.5,0,0,1,144.56,177.78Z" transform="translate(-36.19 -3.4)"/><path class="cls-6" d="M151.2,181.62l-4.3-2.48c-.34-.2-.3-.55.1-.78l4.26-2.46a1.5,1.5,0,0,1,1.35-.06l4.3,2.49c.34.19.3.54-.1.77l-4.26,2.46A1.5,1.5,0,0,1,151.2,181.62Z" transform="translate(-36.19 -3.4)"/><path class="cls-6" d="M157.84,185.45l-4.3-2.48c-.34-.2-.3-.55.1-.78l4.26-2.46a1.5,1.5,0,0,1,1.35,0l4.3,2.48c.34.2.3.55-.1.78l-4.26,2.46A1.5,1.5,0,0,1,157.84,185.45Z" transform="translate(-36.19 -3.4)"/><path class="cls-6" d="M164.48,189.29l-4.3-2.49c-.34-.2-.3-.54.1-.77l4.26-2.46a1.5,1.5,0,0,1,1.35-.06l4.3,2.48c.34.2.3.55-.1.78l-4.26,2.46A1.53,1.53,0,0,1,164.48,189.29Z" transform="translate(-36.19 -3.4)"/><path class="cls-6" d="M171.12,193.12l-4.3-2.48c-.34-.2-.3-.55.1-.78l4.26-2.46a1.5,1.5,0,0,1,1.35-.06l4.3,2.49c.34.2.3.54-.1.77l-4.26,2.46A1.5,1.5,0,0,1,171.12,193.12Z" transform="translate(-36.19 -3.4)"/><path class="cls-6" d="M177.76,197l-4.3-2.48c-.34-.2-.3-.55.1-.78l4.26-2.46a1.5,1.5,0,0,1,1.35,0l4.3,2.48c.34.2.3.55-.1.78l-4.26,2.46A1.5,1.5,0,0,1,177.76,197Z" transform="translate(-36.19 -3.4)"/><path class="cls-6" d="M184.4,200.79l-4.3-2.49c-.34-.2-.3-.54.1-.77l4.26-2.46a1.5,1.5,0,0,1,1.35-.06l4.3,2.48c.34.2.3.55-.1.78l-4.26,2.46A1.5,1.5,0,0,1,184.4,200.79Z" transform="translate(-36.19 -3.4)"/><path class="cls-6" d="M191,204.62l-4.3-2.48c-.34-.2-.3-.55.1-.78l4.26-2.46a1.5,1.5,0,0,1,1.35-.06l4.3,2.49c.34.2.3.54-.1.77l-4.26,2.46A1.5,1.5,0,0,1,191,204.62Z" transform="translate(-36.19 -3.4)"/><path class="cls-6" d="M197.68,208.45l-4.3-2.48c-.34-.2-.3-.55.1-.78l4.26-2.46a1.5,1.5,0,0,1,1.35,0l4.3,2.48c.34.2.3.55-.1.78L199,208.4A1.5,1.5,0,0,1,197.68,208.45Z" transform="translate(-36.19 -3.4)"/><path class="cls-6" d="M204.32,212.29,200,209.8c-.34-.19-.3-.54.1-.77l4.26-2.46a1.5,1.5,0,0,1,1.35-.06L210,209c.34.2.3.55-.1.78l-4.26,2.46A1.5,1.5,0,0,1,204.32,212.29Z" transform="translate(-36.19 -3.4)"/><path class="cls-2" d="M154.35,176l-4.3-2.48c-.35-.2-.31-.55.09-.78l4.26-2.46a1.5,1.5,0,0,1,1.35-.06l4.3,2.49c.35.2.3.54-.1.77l-4.26,2.46A1.48,1.48,0,0,1,154.35,176Z" transform="translate(-36.19 -3.4)"/><path class="cls-2" d="M147.61,172.08l-4.3-2.48c-.35-.2-.3-.55.09-.78l4.26-2.46a1.5,1.5,0,0,1,1.35-.06l4.3,2.49c.35.2.3.54-.1.77L149,172A1.48,1.48,0,0,1,147.61,172.08Z" transform="translate(-36.19 -3.4)"/><path class="cls-6" d="M140.86,168.18l-9.26-5.34c-.35-.2-.3-.55.09-.78L136,159.6a1.5,1.5,0,0,1,1.35-.06l9.26,5.35c.35.2.3.55-.1.78l-4.26,2.46A1.48,1.48,0,0,1,140.86,168.18Z" transform="translate(-36.19 -3.4)"/><path class="cls-6" d="M145.58,163.44l-7.52-4.34c-.34-.2-.3-.54.1-.77l4.26-2.46a1.48,1.48,0,0,1,1.34-.06l7.52,4.34c.34.2.3.55-.1.78l-4.26,2.46A1.48,1.48,0,0,1,145.58,163.44Z" transform="translate(-36.19 -3.4)"/><path class="cls-2" d="M161,179.8l-4.3-2.48c-.35-.2-.31-.55.09-.78l4.26-2.46a1.5,1.5,0,0,1,1.35-.05l4.3,2.48c.35.2.3.55-.1.78l-4.26,2.46A1.48,1.48,0,0,1,161,179.8Z" transform="translate(-36.19 -3.4)"/><path class="cls-6" d="M167.63,183.64l-4.3-2.49c-.35-.19-.31-.54.09-.77l4.26-2.46a1.5,1.5,0,0,1,1.35-.06l4.3,2.48c.35.2.3.55-.1.78L169,183.58A1.48,1.48,0,0,1,167.63,183.64Z" transform="translate(-36.19 -3.4)"/><path class="cls-6" d="M174.27,187.47,170,185c-.35-.2-.31-.55.09-.78l4.26-2.46a1.54,1.54,0,0,1,1.35-.06l4.3,2.49c.35.2.3.54-.1.77l-4.26,2.46A1.48,1.48,0,0,1,174.27,187.47Z" transform="translate(-36.19 -3.4)"/><path class="cls-6" d="M180.91,191.3l-4.3-2.48c-.35-.2-.31-.55.09-.78l4.26-2.46a1.5,1.5,0,0,1,1.35-.05l4.3,2.48c.35.2.3.55-.1.78l-4.26,2.46A1.48,1.48,0,0,1,180.91,191.3Z" transform="translate(-36.19 -3.4)"/><path class="cls-6" d="M187.55,195.14l-4.3-2.48c-.35-.2-.31-.55.09-.78l4.26-2.46a1.5,1.5,0,0,1,1.35-.06l4.3,2.48c.35.2.3.55-.1.78l-4.26,2.46A1.48,1.48,0,0,1,187.55,195.14Z" transform="translate(-36.19 -3.4)"/><path class="cls-6" d="M194.19,199l-4.3-2.48c-.35-.2-.31-.55.09-.78l4.26-2.46a1.5,1.5,0,0,1,1.35-.05l4.3,2.48c.35.2.3.55-.1.78l-4.26,2.46A1.48,1.48,0,0,1,194.19,199Z" transform="translate(-36.19 -3.4)"/><path class="cls-6" d="M200.83,202.8l-4.3-2.48c-.35-.2-.31-.55.09-.78l4.26-2.46a1.5,1.5,0,0,1,1.35-.05l4.3,2.48c.35.2.3.55-.1.78l-4.26,2.46A1.48,1.48,0,0,1,200.83,202.8Z" transform="translate(-36.19 -3.4)"/><path class="cls-6" d="M207.47,206.64l-4.3-2.48c-.35-.2-.31-.55.09-.78l4.26-2.46a1.5,1.5,0,0,1,1.35-.06l4.3,2.49c.35.19.3.54-.1.77l-4.26,2.46A1.48,1.48,0,0,1,207.47,206.64Z" transform="translate(-36.19 -3.4)"/><path class="cls-6" d="M214.11,210.47l-4.3-2.48c-.35-.2-.31-.55.09-.78l4.26-2.46a1.5,1.5,0,0,1,1.35-.05l4.3,2.48c.35.2.3.55-.1.78l-4.26,2.46A1.48,1.48,0,0,1,214.11,210.47Z" transform="translate(-36.19 -3.4)"/><path class="cls-6" d="M225.91,217.29l-9.38-5.42c-.35-.2-.3-.55.1-.78l4.26-2.46a1.48,1.48,0,0,1,1.34,0l9.38,5.41c.35.2.31.55-.09.78l-4.26,2.46A1.5,1.5,0,0,1,225.91,217.29Z" transform="translate(-36.19 -3.4)"/><path class="cls-6" d="M238.84,209.82l-7.92-4.57c-.35-.2-.3-.55.1-.78l4.26-2.46a1.48,1.48,0,0,1,1.34,0l7.92,4.57c.35.2.3.55-.1.78l-4.26,2.46A1.48,1.48,0,0,1,238.84,209.82Z" transform="translate(-36.19 -3.4)"/><path class="cls-6" d="M172.61,179.05l-4.3-2.48c-.34-.2-.3-.55.1-.78l4.26-2.46a1.5,1.5,0,0,1,1.35-.05l4.3,2.48c.34.2.3.55-.1.78L174,179A1.5,1.5,0,0,1,172.61,179.05Z" transform="translate(-36.19 -3.4)"/><path class="cls-6" d="M165.81,175.12l-4.3-2.48c-.35-.2-.3-.55.1-.78l4.26-2.46a1.48,1.48,0,0,1,1.34-.05l4.3,2.48c.35.2.31.55-.09.78l-4.26,2.46A1.5,1.5,0,0,1,165.81,175.12Z" transform="translate(-36.19 -3.4)"/><path class="cls-2" d="M159,171.2l-4.3-2.49c-.34-.2-.3-.54.1-.77l4.26-2.46a1.5,1.5,0,0,1,1.35-.06l4.3,2.48c.34.2.3.55-.1.78l-4.26,2.46A1.53,1.53,0,0,1,159,171.2Z" transform="translate(-36.19 -3.4)"/><path class="cls-6" d="M152.2,167.27l-4.3-2.49c-.35-.2-.3-.54.1-.77l4.26-2.46a1.48,1.48,0,0,1,1.34-.06l4.3,2.48c.35.2.3.55-.09.78l-4.26,2.46A1.5,1.5,0,0,1,152.2,167.27Z" transform="translate(-36.19 -3.4)"/><path class="cls-6" d="M179.25,182.89,175,180.4c-.34-.2-.3-.54.1-.77l4.26-2.46a1.5,1.5,0,0,1,1.35-.06l4.3,2.48c.34.2.3.55-.1.78l-4.26,2.46A1.5,1.5,0,0,1,179.25,182.89Z" transform="translate(-36.19 -3.4)"/><path class="cls-6" d="M185.89,186.72l-4.3-2.48c-.34-.2-.3-.55.1-.78L186,181a1.53,1.53,0,0,1,1.35-.06l4.3,2.49c.34.2.3.54-.1.77l-4.26,2.46A1.5,1.5,0,0,1,185.89,186.72Z" transform="translate(-36.19 -3.4)"/><path class="cls-6" d="M192.53,190.55l-4.3-2.48c-.34-.2-.3-.55.1-.78l4.26-2.46a1.5,1.5,0,0,1,1.35-.05l4.3,2.48c.34.2.3.55-.1.78l-4.26,2.46A1.5,1.5,0,0,1,192.53,190.55Z" transform="translate(-36.19 -3.4)"/><path class="cls-6" d="M199.17,194.39l-4.3-2.48c-.34-.2-.3-.55.1-.78l4.26-2.46a1.5,1.5,0,0,1,1.35-.06l4.3,2.48c.34.2.3.55-.1.78l-4.26,2.46A1.5,1.5,0,0,1,199.17,194.39Z" transform="translate(-36.19 -3.4)"/><path class="cls-6" d="M205.81,198.22l-4.3-2.48c-.34-.2-.3-.55.1-.78l4.26-2.46a1.5,1.5,0,0,1,1.35-.05l4.3,2.48c.34.2.3.55-.1.78l-4.26,2.46A1.5,1.5,0,0,1,205.81,198.22Z" transform="translate(-36.19 -3.4)"/><path class="cls-6" d="M212.45,202.05l-4.3-2.48c-.34-.2-.3-.55.1-.78l4.26-2.46a1.5,1.5,0,0,1,1.35-.05l4.3,2.48c.34.2.3.55-.1.78L213.8,202A1.5,1.5,0,0,1,212.45,202.05Z" transform="translate(-36.19 -3.4)"/><path class="cls-6" d="M219.09,205.89l-4.3-2.48c-.34-.2-.3-.55.1-.78l4.26-2.46a1.5,1.5,0,0,1,1.35-.06l4.3,2.49c.34.19.3.54-.1.77l-4.26,2.46A1.5,1.5,0,0,1,219.09,205.89Z" transform="translate(-36.19 -3.4)"/><path class="cls-6" d="M225.73,209.72l-4.3-2.48c-.34-.2-.3-.55.1-.78l4.26-2.46a1.5,1.5,0,0,1,1.35-.05l4.3,2.48c.34.2.3.55-.1.78l-4.26,2.46A1.5,1.5,0,0,1,225.73,209.72Z" transform="translate(-36.19 -3.4)"/><path class="cls-6" d="M232.37,213.56l-4.3-2.49c-.34-.2-.3-.54.1-.77l4.26-2.46a1.5,1.5,0,0,1,1.35-.06l4.3,2.48c.34.2.3.55-.1.78l-4.26,2.46A1.53,1.53,0,0,1,232.37,213.56Z" transform="translate(-36.19 -3.4)"/><path class="cls-6" d="M169.12,169.57l-4.3-2.48c-.35-.2-.3-.55.1-.78l4.26-2.46a1.48,1.48,0,0,1,1.34,0l4.3,2.48c.35.2.3.55-.09.78l-4.26,2.46A1.5,1.5,0,0,1,169.12,169.57Z" transform="translate(-36.19 -3.4)"/><path class="cls-6" d="M162.51,165.76l-4.3-2.49c-.34-.2-.3-.54.1-.77l4.26-2.46a1.5,1.5,0,0,1,1.35-.06l4.3,2.48c.34.2.3.55-.1.78l-4.26,2.46A1.5,1.5,0,0,1,162.51,165.76Z" transform="translate(-36.19 -3.4)"/><path class="cls-6" d="M155.9,161.94l-4.3-2.48c-.34-.2-.3-.55.1-.78l4.26-2.46a1.5,1.5,0,0,1,1.35-.05l4.3,2.48c.34.2.3.55-.1.78l-4.26,2.46A1.5,1.5,0,0,1,155.9,161.94Z" transform="translate(-36.19 -3.4)"/><path class="cls-6" d="M149.3,158.13l-4.3-2.48c-.35-.2-.3-.55.09-.78l4.26-2.46a1.5,1.5,0,0,1,1.35-.06l4.3,2.48c.35.2.3.55-.1.78l-4.26,2.46A1.48,1.48,0,0,1,149.3,158.13Z" transform="translate(-36.19 -3.4)"/><path class="cls-6" d="M156.09,154.21l-4.3-2.49c-.34-.2-.3-.54.1-.77l1.41-.82a1.48,1.48,0,0,1,1.34,0l4.3,2.48c.35.2.31.55-.09.78l-1.41.81A1.53,1.53,0,0,1,156.09,154.21Z" transform="translate(-36.19 -3.4)"/><path class="cls-6" d="M164.71,159.18l-4.3-2.48c-.34-.2-.3-.55.1-.78l1.41-.81a1.5,1.5,0,0,1,1.35-.06l4.3,2.49c.34.2.3.54-.1.77l-1.41.82A1.5,1.5,0,0,1,164.71,159.18Z" transform="translate(-36.19 -3.4)"/><path class="cls-6" d="M171.29,163,167,160.5c-.34-.2-.3-.55.1-.78l1.41-.81a1.48,1.48,0,0,1,1.34-.06l4.3,2.49c.35.19.31.54-.09.77l-1.41.82A1.5,1.5,0,0,1,171.29,163Z" transform="translate(-36.19 -3.4)"/><path class="cls-6" d="M177.87,166.78l-4.3-2.48c-.34-.2-.3-.55.1-.78l1.41-.81a1.48,1.48,0,0,1,1.34-.06l4.3,2.48c.35.2.31.55-.09.78l-1.41.81A1.5,1.5,0,0,1,177.87,166.78Z" transform="translate(-36.19 -3.4)"/><path class="cls-6" d="M184.45,170.58l-4.3-2.48c-.34-.2-.3-.55.1-.78l1.41-.81a1.48,1.48,0,0,1,1.34-.06l4.3,2.48c.35.2.31.55-.09.78l-1.41.81A1.5,1.5,0,0,1,184.45,170.58Z" transform="translate(-36.19 -3.4)"/><path class="cls-6" d="M221.18,191.79l-4.3-2.49c-.34-.2-.3-.54.1-.77l1.41-.82a1.5,1.5,0,0,1,1.35-.05l4.3,2.48c.34.2.3.55-.1.78l-1.41.81A1.5,1.5,0,0,1,221.18,191.79Z" transform="translate(-36.19 -3.4)"/><path class="cls-6" d="M227.76,195.58l-4.3-2.48c-.34-.2-.3-.55.1-.78l1.41-.81a1.48,1.48,0,0,1,1.34,0l4.3,2.48c.35.2.31.55-.09.78l-1.41.81A1.5,1.5,0,0,1,227.76,195.58Z" transform="translate(-36.19 -3.4)"/><path class="cls-6" d="M234.34,199.38,230,196.9c-.34-.2-.3-.55.1-.78l1.41-.81a1.48,1.48,0,0,1,1.34-.06l4.3,2.49c.35.2.31.54-.09.77l-1.41.82A1.5,1.5,0,0,1,234.34,199.38Z" transform="translate(-36.19 -3.4)"/><path class="cls-6" d="M240.92,203.18l-4.3-2.48c-.34-.2-.3-.55.1-.78l1.41-.81a1.48,1.48,0,0,1,1.34-.06l4.3,2.49c.35.19.31.54-.09.77l-1.41.82A1.5,1.5,0,0,1,240.92,203.18Z" transform="translate(-36.19 -3.4)"/><path class="cls-6" d="M175.76,173.4l-4.3-2.48c-.35-.2-.3-.55.1-.78l4.26-2.46a1.48,1.48,0,0,1,1.34-.05l4.3,2.48c.35.2.3.55-.09.78l-4.27,2.46A1.48,1.48,0,0,1,175.76,173.4Z" transform="translate(-36.19 -3.4)"/><path class="cls-6" d="M182.4,177.24l-4.3-2.48c-.35-.2-.3-.55.1-.78l4.26-2.46a1.48,1.48,0,0,1,1.34-.06l4.3,2.49c.35.19.3.54-.09.77l-4.27,2.46A1.48,1.48,0,0,1,182.4,177.24Z" transform="translate(-36.19 -3.4)"/><path class="cls-6" d="M189,181.07l-4.3-2.48c-.35-.2-.3-.55.1-.78l4.26-2.46a1.48,1.48,0,0,1,1.34,0l4.3,2.48c.35.2.3.55-.09.78L190.38,181A1.48,1.48,0,0,1,189,181.07Z" transform="translate(-36.19 -3.4)"/><path class="cls-6" d="M195.68,184.91l-4.3-2.49c-.35-.2-.3-.54.09-.77l4.27-2.46a1.48,1.48,0,0,1,1.34-.06l4.3,2.48c.35.2.3.55-.09.78L197,184.85A1.51,1.51,0,0,1,195.68,184.91Z" transform="translate(-36.19 -3.4)"/><path class="cls-6" d="M202.32,188.74l-4.3-2.48c-.35-.2-.3-.55.09-.78l4.27-2.46a1.48,1.48,0,0,1,1.34-.06l4.3,2.49c.35.2.3.54-.1.77l-4.26,2.46A1.48,1.48,0,0,1,202.32,188.74Z" transform="translate(-36.19 -3.4)"/><path class="cls-6" d="M209,192.57l-4.3-2.48c-.35-.2-.3-.55.09-.78l4.27-2.46a1.48,1.48,0,0,1,1.34,0l4.3,2.48c.35.2.3.55-.1.78l-4.26,2.46A1.48,1.48,0,0,1,209,192.57Z" transform="translate(-36.19 -3.4)"/><path class="cls-6" d="M215.6,196.41l-4.3-2.49c-.35-.2-.3-.54.09-.77l4.27-2.46a1.48,1.48,0,0,1,1.34-.06l4.3,2.48c.35.2.3.55-.1.78l-4.26,2.46A1.48,1.48,0,0,1,215.6,196.41Z" transform="translate(-36.19 -3.4)"/><path class="cls-6" d="M222.24,200.24l-4.3-2.48c-.35-.2-.3-.55.09-.78l4.27-2.46a1.48,1.48,0,0,1,1.34-.06l4.3,2.49c.35.2.3.54-.1.77l-4.26,2.46A1.48,1.48,0,0,1,222.24,200.24Z" transform="translate(-36.19 -3.4)"/><path class="cls-6" d="M228.88,204.07l-4.3-2.48c-.35-.2-.3-.55.09-.78l4.26-2.46a1.5,1.5,0,0,1,1.35,0l4.3,2.48c.35.2.3.55-.1.78L230.22,204A1.48,1.48,0,0,1,228.88,204.07Z" transform="translate(-36.19 -3.4)"/><path class="cls-6" d="M137.8,173.88l-12.67-7.31c-.34-.2-.3-.55.1-.78l4.26-2.46a1.5,1.5,0,0,1,1.35-.06l12.66,7.31c.35.2.3.55-.1.78l-4.26,2.46A1.48,1.48,0,0,1,137.8,173.88Z" transform="translate(-36.19 -3.4)"/><path class="cls-6" d="M219.37,221l-12.66-7.31c-.35-.2-.31-.54.09-.77l4.26-2.46a1.5,1.5,0,0,1,1.35-.06l12.66,7.31c.35.2.31.55-.09.78l-4.26,2.46A1.5,1.5,0,0,1,219.37,221Z" transform="translate(-36.19 -3.4)"/><path class="cls-6" d="M192.82,214.11l-4.3-2.48c-.35-.2-.31-.55.09-.78l5.08-2.93a1.48,1.48,0,0,1,1.34,0l4.3,2.48c.35.2.31.55-.09.78l-5.08,2.93A1.48,1.48,0,0,1,192.82,214.11Z" transform="translate(-36.19 -3.4)"/><path class="cls-6" d="M144.6,186.27l-6.88-4c-.35-.2-.3-.55.1-.78l5.07-2.93a1.5,1.5,0,0,1,1.35-.05l6.87,4c.35.2.31.55-.09.78l-5.08,2.93A1.48,1.48,0,0,1,144.6,186.27Z" transform="translate(-36.19 -3.4)"/><path class="cls-6" d="M186.42,210.42l-6.88-4c-.34-.2-.3-.55.1-.78l5.07-2.93a1.5,1.5,0,0,1,1.35-.06l6.88,4c.34.2.3.55-.1.78l-5.08,2.93A1.48,1.48,0,0,1,186.42,210.42Z" transform="translate(-36.19 -3.4)"/><path class="cls-6" d="M154.18,191.8l-6.88-4c-.35-.2-.3-.54.1-.77l5.07-2.94a1.5,1.5,0,0,1,1.35-.05l6.87,4c.35.2.31.55-.09.78l-5.08,2.93A1.48,1.48,0,0,1,154.18,191.8Z" transform="translate(-36.19 -3.4)"/><path class="cls-6" d="M153.87,184.1l29.89,17.26a.41.41,0,0,1,0,.77l-5.17,3a1.53,1.53,0,0,1-1.35,0l-29.89-17.26Z" transform="translate(-36.19 -3.4)"/><path class="cls-6" d="M211.37,221.06l4.79,2.77c.29.16.25.45-.08.63l-2.07,1.2a1.25,1.25,0,0,1-1.11.05l-4.79-2.77c-.28-.16-.24-.45.08-.63l2.08-1.2A1.23,1.23,0,0,1,211.37,221.06Z" transform="translate(-36.19 -3.4)"/><path class="cls-6" d="M204.68,217.2l4.79,2.76c.28.17.25.45-.08.64l-2.08,1.2a1.19,1.19,0,0,1-1.1,0l-4.79-2.76c-.28-.17-.25-.45.08-.64l2.07-1.2A1.21,1.21,0,0,1,204.68,217.2Z" transform="translate(-36.19 -3.4)"/><path class="cls-6" d="M198,213.36l4.79,2.77c.28.16.25.45-.08.64L200.67,218a1.23,1.23,0,0,1-1.1,0l-4.79-2.77c-.28-.16-.25-.44.08-.63l2.07-1.2A1.25,1.25,0,0,1,198,213.36Z" transform="translate(-36.19 -3.4)"/><path class="cls-6" d="M208.34,215.08l4.79,2.76c.29.17.25.45-.07.64l-2.08,1.2a1.23,1.23,0,0,1-1.1,0L205.09,217c-.29-.16-.25-.45.07-.64l2.08-1.19A1.23,1.23,0,0,1,208.34,215.08Z" transform="translate(-36.19 -3.4)"/><path class="cls-3" d="M199.55,97.57l-6.36-3.67a1.81,1.81,0,0,1-.77-1.88h0a.88.88,0,0,1,1.36-.65L200.13,95a1.82,1.82,0,0,1,.78,1.88h0A.88.88,0,0,1,199.55,97.57Z" transform="translate(-36.19 -3.4)"/><path class="cls-3" d="M214.68,106.31l-9.37-5.41a1.81,1.81,0,0,1-.77-1.88h0a.88.88,0,0,1,1.36-.65l9.37,5.41a1.81,1.81,0,0,1,.77,1.88h0A.88.88,0,0,1,214.68,106.31Z" transform="translate(-36.19 -3.4)"/><path class="cls-3" d="M188.47,127.23l-6.35-3.67a1.82,1.82,0,0,1-.78-1.88h0a.88.88,0,0,1,1.36-.65l6.36,3.67a1.81,1.81,0,0,1,.77,1.88h0A.88.88,0,0,1,188.47,127.23Z" transform="translate(-36.19 -3.4)"/><path class="cls-3" d="M202,135l-9.37-5.41a1.81,1.81,0,0,1-.77-1.88h0a.88.88,0,0,1,1.36-.65l9.37,5.41a1.81,1.81,0,0,1,.77,1.88h0A.88.88,0,0,1,202,135Z" transform="translate(-36.19 -3.4)"/><path class="cls-3" d="M180.8,92.76l-4-2.3a1.81,1.81,0,0,1-.77-1.88h0a.88.88,0,0,1,1.36-.65l4,2.3a1.81,1.81,0,0,1,.77,1.88h0A.88.88,0,0,1,180.8,92.76Z" transform="translate(-36.19 -3.4)"/><path class="cls-3" d="M193,105.83l-12.13-7a1.83,1.83,0,0,1-.78-1.89h0a.88.88,0,0,1,1.36-.64l12.13,7a1.82,1.82,0,0,1,.78,1.88h0A.88.88,0,0,1,193,105.83Z" transform="translate(-36.19 -3.4)"/><path class="cls-3" d="M182.43,111.72l-4-2.29a1.8,1.8,0,0,1-.77-1.88h0a.88.88,0,0,1,1.36-.65l4,2.29a1.82,1.82,0,0,1,.78,1.88h0A.88.88,0,0,1,182.43,111.72Z" transform="translate(-36.19 -3.4)"/><path class="cls-3" d="M204,148.21l-10.61-6.12a1.81,1.81,0,0,1-.77-1.88h0a.88.88,0,0,1,1.36-.65l10.6,6.12a1.83,1.83,0,0,1,.78,1.89h0A.88.88,0,0,1,204,148.21Z" transform="translate(-36.19 -3.4)"/><path class="cls-3" d="M178.56,121.51,176,120a1.83,1.83,0,0,1-.77-1.89h0a.88.88,0,0,1,1.36-.65l2.55,1.48a1.81,1.81,0,0,1,.77,1.88h0A.88.88,0,0,1,178.56,121.51Z" transform="translate(-36.19 -3.4)"/><path class="cls-3" d="M176.73,132.47l-3.16-1.83a1.82,1.82,0,0,1-.78-1.88h0a.88.88,0,0,1,1.36-.65l3.16,1.83a1.82,1.82,0,0,1,.78,1.88h0A.88.88,0,0,1,176.73,132.47Z" transform="translate(-36.19 -3.4)"/><path class="cls-3" d="M189,139.57l-8.34-4.81a1.82,1.82,0,0,1-.78-1.88h0a.88.88,0,0,1,1.36-.65l8.34,4.81a1.82,1.82,0,0,1,.78,1.88h0A.88.88,0,0,1,189,139.57Z" transform="translate(-36.19 -3.4)"/><path class="cls-3" d="M178.34,139.41l-6-3.47a1.81,1.81,0,0,1-.77-1.88h0a.88.88,0,0,1,1.36-.65l6,3.46a1.83,1.83,0,0,1,.78,1.89h0A.89.89,0,0,1,178.34,139.41Z" transform="translate(-36.19 -3.4)"/><path class="cls-3" d="M213.1,153.49l-3.85-2.22a1.8,1.8,0,0,1-.77-1.88h0a.88.88,0,0,1,1.35-.65l3.86,2.22a1.81,1.81,0,0,1,.77,1.88h0A.88.88,0,0,1,213.1,153.49Z" transform="translate(-36.19 -3.4)"/><path class="cls-3" d="M197.2,120.25l-10.61-6.12a1.83,1.83,0,0,1-.77-1.89h0a.88.88,0,0,1,1.36-.64l10.6,6.12a1.82,1.82,0,0,1,.78,1.88h0A.89.89,0,0,1,197.2,120.25Z" transform="translate(-36.19 -3.4)"/><path class="cls-3" d="M198.16,114.8l-18.47-10.67a1.82,1.82,0,0,1-.78-1.88h0a.88.88,0,0,1,1.36-.65l18.48,10.67a1.81,1.81,0,0,1,.77,1.88h0A.88.88,0,0,1,198.16,114.8Z" transform="translate(-36.19 -3.4)"/><path class="cls-3" d="M187.84,120.85l-10.6-6.12a1.82,1.82,0,0,1-.78-1.88h0a.88.88,0,0,1,1.36-.65l10.6,6.12a1.82,1.82,0,0,1,.78,1.88h0A.88.88,0,0,1,187.84,120.85Z" transform="translate(-36.19 -3.4)"/><path class="cls-3" d="M205.24,124.89l-3.86-2.22a1.84,1.84,0,0,1-.77-1.89h0a.88.88,0,0,1,1.36-.64l3.85,2.22a1.82,1.82,0,0,1,.78,1.88h0A.89.89,0,0,1,205.24,124.89Z" transform="translate(-36.19 -3.4)"/><path class="cls-3" d="M243.26,122.81l-22.81-13.17a1.82,1.82,0,0,1-.78-1.88h0a.89.89,0,0,1,1.36-.65l22.81,13.17a1.82,1.82,0,0,1,.78,1.88h0A.88.88,0,0,1,243.26,122.81Z" transform="translate(-36.19 -3.4)"/><path class="cls-3" d="M187.53,132.7l-12.74-7.36a1.82,1.82,0,0,1-.78-1.88h0a.89.89,0,0,1,1.36-.65l12.75,7.35a1.83,1.83,0,0,1,.77,1.89h0A.88.88,0,0,1,187.53,132.7Z" transform="translate(-36.19 -3.4)"/><path class="cls-3" d="M187.43,90.57l-9.37-5.41a1.82,1.82,0,0,1-.78-1.88h0a.88.88,0,0,1,1.36-.65L188,88a1.82,1.82,0,0,1,.78,1.88h0A.88.88,0,0,1,187.43,90.57Z" transform="translate(-36.19 -3.4)"/><path class="cls-3" d="M176.67,144.45l-10.85-6.26a1.84,1.84,0,0,1-.78-1.89h0a.88.88,0,0,1,1.36-.65l10.85,6.27a1.82,1.82,0,0,1,.78,1.88h0A.88.88,0,0,1,176.67,144.45Z" transform="translate(-36.19 -3.4)"/><path class="cls-3" d="M250.11,167.32l-6.36-3.67a1.8,1.8,0,0,1-.77-1.88h0a.88.88,0,0,1,1.36-.65l6.35,3.67a1.8,1.8,0,0,1,.77,1.88h0A.88.88,0,0,1,250.11,167.32Z" transform="translate(-36.19 -3.4)"/><path class="cls-3" d="M254.67,145.92l-12.13-7a1.81,1.81,0,0,1-.77-1.88h0a.88.88,0,0,1,1.36-.65l12.12,7a1.82,1.82,0,0,1,.78,1.88h0A.88.88,0,0,1,254.67,145.92Z" transform="translate(-36.19 -3.4)"/><path class="cls-3" d="M244.06,151.82l-4-2.3a1.83,1.83,0,0,1-.77-1.88h0a.88.88,0,0,1,1.36-.65l4,2.29a1.83,1.83,0,0,1,.77,1.89h0A.89.89,0,0,1,244.06,151.82Z" transform="translate(-36.19 -3.4)"/><path class="cls-3" d="M240.19,161.6l-2.54-1.47a1.82,1.82,0,0,1-.78-1.88h0a.88.88,0,0,1,1.36-.65l2.55,1.47a1.8,1.8,0,0,1,.77,1.88h0A.88.88,0,0,1,240.19,161.6Z" transform="translate(-36.19 -3.4)"/><path class="cls-3" d="M258.83,160.34l-10.6-6.12a1.82,1.82,0,0,1-.78-1.88h0a.88.88,0,0,1,1.36-.65l10.6,6.12a1.82,1.82,0,0,1,.78,1.88h0A.88.88,0,0,1,258.83,160.34Z" transform="translate(-36.19 -3.4)"/><path class="cls-3" d="M259.8,154.89l-18.48-10.67a1.82,1.82,0,0,1-.78-1.88h0a.88.88,0,0,1,1.36-.65l18.48,10.67a1.82,1.82,0,0,1,.78,1.88h0A.89.89,0,0,1,259.8,154.89Z" transform="translate(-36.19 -3.4)"/><path class="cls-3" d="M249.47,161l-10.6-6.12a1.81,1.81,0,0,1-.77-1.89h0a.88.88,0,0,1,1.36-.64l10.6,6.12a1.81,1.81,0,0,1,.77,1.88h0A.88.88,0,0,1,249.47,161Z" transform="translate(-36.19 -3.4)"/><path class="cls-3" d="M249.17,172.79l-12.75-7.36a1.81,1.81,0,0,1-.77-1.88h0a.88.88,0,0,1,1.36-.65l12.74,7.36a1.82,1.82,0,0,1,.78,1.88h0A.88.88,0,0,1,249.17,172.79Z" transform="translate(-36.19 -3.4)"/><polygon class="cls-1" points="241.5 93.05 251.51 89.06 249.26 74.33 244.4 78.64 241.5 93.05"/><path class="cls-1" d="M210.68,27.77l24.19-9.67-4.47,9.67s-12.92,3-12.92,3Z" transform="translate(-36.19 -3.4)"/><path class="cls-1" d="M286.54,67.85a10.66,10.66,0,0,0-3.92-1.35c1.33-8.9-2.51-18.3-9.89-22.56a16.07,16.07,0,0,0-6.92-2.18c2.89-10.79-1.58-23-10.68-28.31a16.74,16.74,0,0,0-14.43-1.39h0l-.22.09-.35.14-7.58,3,3,2.6a15.32,15.32,0,0,0-9.51,9.5c-3.45,9,.09,20,7.91,24.54l46.48,39.19c5.87,3.39,9.44,2,12-4.81S292.41,71.24,286.54,67.85Z" transform="translate(-36.19 -3.4)"/><path class="cls-1" d="M228.17,23.38,254.25,13a16.66,16.66,0,0,0-13.55-.91h0l-.22.09-.35.14-7.58,3,3,2.6A14.49,14.49,0,0,0,228.17,23.38Z" transform="translate(-36.19 -3.4)"/><path class="cls-1" d="M264.47,62.47l17.22-6.86a20.72,20.72,0,0,0-9.06-11.73c-.58-.33-1.16-.62-1.74-.88l-23.72,9.48Z" transform="translate(-36.19 -3.4)"/><path class="cls-3" d="M237.84,16.34l7.39,4.27,12.82-5.1a19.72,19.72,0,0,0-2.92-2.06,18.13,18.13,0,0,0-5-2Z" transform="translate(-36.19 -3.4)"/><path class="cls-3" d="M280.55,52.74l-12.39,4.93,3.66,5.14,10.63-4.23A23.63,23.63,0,0,0,280.55,52.74Z" transform="translate(-36.19 -3.4)"/><path class="cls-3" d="M278.25,71.11a10.66,10.66,0,0,0-3.92-1.35c1.34-8.9-2.61-18.36-10-22.62A15.56,15.56,0,0,0,257.52,45C260.41,34.23,256,22,246.84,16.7c-9.79-5.65-21.24-1.07-25.56,10.25-.14.38-.28.77-.41,1.16-7.47-3.33-15.73.42-19,8.91-3.45,9,.09,20,7.91,24.54l59.05,34.12c5.88,3.39,12.74.64,15.33-6.15S284.12,74.5,278.25,71.11Z" transform="translate(-36.19 -3.4)"/><path class="cls-7" d="M279.47,70.43a10.66,10.66,0,0,0-3.92-1.35c1.33-8.91-2.61-18.36-10-22.63a15.68,15.68,0,0,0-6.82-2.11c2.89-10.79-1.58-23.06-10.68-28.32a16.69,16.69,0,0,0-17.45.08,16.69,16.69,0,0,1,16.23.6C256,22,260.41,34.23,257.52,45a15.56,15.56,0,0,1,6.82,2.12c7.38,4.26,11.33,13.72,10,22.62a10.66,10.66,0,0,1,3.92,1.35c5.87,3.39,8.53,11.64,5.94,18.42a12.07,12.07,0,0,1-4.62,5.93,11.77,11.77,0,0,0,5.84-6.61C288,82.07,285.34,73.82,279.47,70.43Z" transform="translate(-36.19 -3.4)"/><path class="cls-7" d="M220.87,28.11c.11-.34.24-.68.36-1a13.16,13.16,0,0,0-11.73,1.2A13.19,13.19,0,0,1,220.87,28.11Z" transform="translate(-36.19 -3.4)"/><path class="cls-2" d="M214.2,29.87a7.72,7.72,0,0,0-3.11.63A11.31,11.31,0,0,0,205.52,37c-3,7.93.21,18,7.08,22L271.66,93.1a6.13,6.13,0,0,0,5.27.75,7.26,7.26,0,0,0,3.64-4.32c2.19-5.73-.15-13-5.11-15.85a7.64,7.64,0,0,0-2.81-1l-2.4-.32.31-2.06c1.23-8.21-2.56-16.87-9-20.6A12.39,12.39,0,0,0,256.11,48l-3-.19.67-2.49c2.65-9.9-1.64-21.33-9.76-26-3.78-2.19-7.76-2.63-11.21-1.25s-6.27,4.55-7.93,8.92q-.19.51-.36,1L223,32.86l-4.63-2.06A10.15,10.15,0,0,0,214.2,29.87Z" transform="translate(-36.19 -3.4)"/><polygon class="cls-1" points="206.95 64.43 208.98 63.61 207.4 62.39 206.95 64.43"/><polygon class="cls-1" points="205.93 42.38 207.91 41.58 207.77 42.41 205.93 42.38"/><polygon class="cls-1" points="213.34 59.27 215.4 58.44 212.39 55.41 213.34 59.27"/><path class="cls-1" d="M244.64,67l-7.88-4.55a1.3,1.3,0,0,1-.54-1.3l1.89-9,9.33,5.39-1.89,8.94A.6.6,0,0,1,244.64,67Z" transform="translate(-36.19 -3.4)"/><path class="cls-1" d="M244.08,45l-10.65,5.37c-.45.23-.3,1.08.24,1.4l8.7,5,8.69,5c.55.32,1-.19.72-.83l-6.32-15.17C245.19,45.14,244.54,44.76,244.08,45Z" transform="translate(-36.19 -3.4)"/><path class="cls-3" d="M242.57,67.79l-7.88-4.55a1.28,1.28,0,0,1-.54-1.3L236,53l9.33,5.38-1.89,8.95A.59.59,0,0,1,242.57,67.79Z" transform="translate(-36.19 -3.4)"/><path class="cls-3" d="M242,45.83,231.36,51.2c-.45.22-.3,1.07.25,1.39l8.69,5,8.7,5c.54.31,1-.2.71-.84L243.4,46.63C243.13,46,242.47,45.59,242,45.83Z" transform="translate(-36.19 -3.4)"/><path class="cls-4" d="M42.65,246.1,74.16,228c2.49-1.43,6.82-1.24,9.69.42l64.61,37.49c2.87,1.66,3.17,4.17.69,5.59l-31.51,18.11c-2.49,1.42-6.82,1.24-9.68-.42L43.34,251.7C40.48,250,40.17,247.53,42.65,246.1Z" transform="translate(-36.19 -3.4)"/><path class="cls-2" d="M118.89,283.62l32.27-18.54a3.74,3.74,0,0,0,2.16-3h0l0-5.55-1,1.78a8,8,0,0,0-2-1.63L85.31,219c-3.68-2.14-9.26-2.38-12.45-.54L40.59,237a5.75,5.75,0,0,0-.9.64L38.45,236l0,5.22h0c0,1.43,1,3,3,4.15l65,37.7C110.12,285.22,115.7,285.46,118.89,283.62Z" transform="translate(-36.19 -3.4)"/><path class="cls-3" d="M40.61,232.83l32.27-18.54c3.2-1.84,8.77-1.6,12.45.54l65,37.7c3.68,2.13,4.07,5.35.88,7.19l-32.27,18.54c-3.19,1.83-8.77,1.59-12.45-.55L41.49,240C37.81,237.88,37.42,234.66,40.61,232.83Z" transform="translate(-36.19 -3.4)"/><path class="cls-7" d="M151.19,259.72l-32.27,18.54c-3.19,1.83-8.77,1.59-12.45-.55L41.49,240a5.54,5.54,0,0,1-3-3.59c-.26,1.55.76,3.24,3,4.54l65,37.7c3.68,2.13,9.26,2.37,12.45.54l32.27-18.54c1.64-.95,2.33-2.26,2.11-3.61A3.9,3.9,0,0,1,151.19,259.72Z" transform="translate(-36.19 -3.4)"/><path class="cls-7" d="M42.65,233.57l31.51-18.1c2.49-1.43,6.82-1.24,9.69.42l64.61,37.49c2.87,1.66,3.17,4.16.69,5.59l-31.51,18.11c-2.49,1.42-6.82,1.23-9.68-.43L43.34,239.17C40.48,237.5,40.17,235,42.65,233.57Z" transform="translate(-36.19 -3.4)"/><path class="cls-4" d="M93.42,240.16l-11.67-6.73c-.43-.25-.37-.69.12-1h0a1.88,1.88,0,0,1,1.69-.07l11.67,6.74c.43.24.37.68-.12,1h0A1.88,1.88,0,0,1,93.42,240.16Z" transform="translate(-36.19 -3.4)"/><path class="cls-4" d="M82.36,237.88l-4.16-2.4c-.43-.25-.38-.69.12-1h0a1.88,1.88,0,0,1,1.69-.07l4.16,2.4c.43.25.38.69-.12,1h0A1.88,1.88,0,0,1,82.36,237.88Z" transform="translate(-36.19 -3.4)"/><path class="cls-2" d="M89.34,241.91l-4.16-2.4c-.43-.25-.37-.69.12-1h0a1.91,1.91,0,0,1,1.69-.07l4.16,2.41c.44.25.38.68-.12,1h0A1.87,1.87,0,0,1,89.34,241.91Z" transform="translate(-36.19 -3.4)"/><path class="cls-4" d="M103.46,250.06l-11.29-6.52c-.44-.25-.38-.69.12-1h0a1.92,1.92,0,0,1,1.68-.07l11.3,6.53c.43.25.38.68-.12,1h0A1.87,1.87,0,0,1,103.46,250.06Z" transform="translate(-36.19 -3.4)"/><path class="cls-4" d="M89.22,245.94l-14.57-8.41c-.43-.25-.38-.69.12-1h0a1.87,1.87,0,0,1,1.69-.07L91,244.9c.43.25.38.68-.12,1h0A1.88,1.88,0,0,1,89.22,245.94Z" transform="translate(-36.19 -3.4)"/><path class="cls-2" d="M106.75,260.16,71.1,239.58c-.44-.25-.38-.69.12-1h0a1.89,1.89,0,0,1,1.68-.07l35.66,20.59c.43.25.38.69-.12,1h0A1.88,1.88,0,0,1,106.75,260.16Z" transform="translate(-36.19 -3.4)"/><path class="cls-4" d="M117.15,253.86,96.64,242c-.43-.25-.38-.69.12-1h0a1.91,1.91,0,0,1,1.69-.07L119,252.82c.43.25.38.68-.12,1h0A1.87,1.87,0,0,1,117.15,253.86Z" transform="translate(-36.19 -3.4)"/><path class="cls-3" d="M92,273.2l-3-1.73a1.28,1.28,0,0,1-.54-1h0c0-.4.24-.58.54-.41l3,1.73a1.29,1.29,0,0,1,.54,1h0C92.56,273.19,92.32,273.38,92,273.2Z" transform="translate(-36.19 -3.4)"/><path class="cls-3" d="M96.74,275.94l-3-1.73a1.31,1.31,0,0,1-.54-1h0c0-.39.24-.58.54-.41l3,1.74a1.28,1.28,0,0,1,.54,1h0C97.28,275.93,97,276.11,96.74,275.94Z" transform="translate(-36.19 -3.4)"/></svg>