<svg id="Ñëîé_1" data-name="Ñëîé 1" xmlns="http://www.w3.org/2000/svg" viewBox="0 0 319.54 350.97"><defs><style>.cls-1{fill:#5793ce;}.cls-2{fill:#396caa;}.cls-3,.cls-8{fill:#d4ecff;}.cls-4{fill:#b2d3ea;}.cls-5{fill:#fafdff;}.cls-6{fill:#173d7a;}.cls-7{fill:#fff;}.cls-8{opacity:0.4;}.cls-9{fill:#274f89;}</style></defs><path class="cls-1" d="M29.6,268.51a1,1,0,0,1-.46-.11L7.55,257.17a2.42,2.42,0,0,1,0-4.27l21.43-11.72a.42.42,0,0,0,0-.74L7.76,228.66a2.42,2.42,0,0,1-.07-4.18l29.79-17.9a7.24,7.24,0,0,1,7.27-.09l16.55,9.38a1,1,0,1,1-1,1.74l-16.56-9.38a5.19,5.19,0,0,0-5.25.07L8.72,226.19a.43.43,0,0,0,0,.73L29.9,238.69a2.42,2.42,0,0,1,0,4.24L8.46,254.66a.41.41,0,0,0-.22.37.4.4,0,0,0,.23.37l21.6,11.22a1,1,0,0,1,.42,1.35A1,1,0,0,1,29.6,268.51Z" transform="translate(-6.24 -4.17)"/><rect class="cls-1" x="25.63" y="261.73" width="5.36" height="11.57" transform="translate(268.22 371.86) rotate(119.83)"/><path class="cls-1" d="M21.4,265.73a4.18,4.18,0,0,1,1.89-3.28c1-.61,1.89-.12,1.89,1.08a4.17,4.17,0,0,1-1.88,3.29C22.25,267.43,21.4,266.94,21.4,265.73Z" transform="translate(-6.24 -4.17)"/><rect class="cls-1" x="35.1" y="264.82" width="8.69" height="18.15" transform="translate(290.43 371.76) rotate(119.83)"/><path class="cls-2" d="M33,267.12l-3.4-1.95A7,7,0,0,0,27,269.82l3.39,1.95A6.94,6.94,0,0,0,33,267.12Z" transform="translate(-6.24 -4.17)"/><path class="cls-1" d="M28.51,271.17a6.76,6.76,0,0,1,3.06-5.33c1.69-1,3.07-.2,3.07,1.76a6.77,6.77,0,0,1-3.05,5.33C29.89,273.92,28.51,273.13,28.51,271.17Z" transform="translate(-6.24 -4.17)"/><ellipse class="cls-3" cx="25.45" cy="263.98" rx="1.26" ry="0.73" transform="translate(-7.04 -4.09) rotate(-0.17)"/><path class="cls-4" d="M97.49,195.73l-53-30.22c-1.94-1.12-1.7-3.07.54-4.36l30.49-17.61c2.24-1.29,5.62-1.43,7.56-.31l53,30.21c1.94,1.12,1.69,3.08-.54,4.37l-30.49,17.6C102.81,196.7,99.42,196.85,97.49,195.73Z" transform="translate(-6.24 -4.17)"/><path class="cls-2" d="M140.8,163.27h0V39.57L91.62,26.69l-9.05-5.23c-2.08-1.2-5.71-1.05-8.12.34L66,26.68l-26.23,0,7.77,119.43a2.35,2.35,0,0,0,1.39,2.17l49.08,37c2.08,1.2,5.71,1.05,8.11-.33l32.71-18.89C140.21,165.27,140.88,164.24,140.8,163.27Z" transform="translate(-6.24 -4.17)"/><path class="cls-3" d="M78.8,20.66a9.42,9.42,0,0,0-4.35,1.14L66,26.68l-26.23,0V150.71a2.36,2.36,0,0,0,1.39,2.17L98,185.29a7.36,7.36,0,0,0,3.76.81l.59-124.82Z" transform="translate(-6.24 -4.17)"/><path class="cls-1" d="M98.53,185.55a9.25,9.25,0,0,0,6.49-.08V59.81H98.53Z" transform="translate(-6.24 -4.17)"/><path class="cls-3" d="M98,61.3,41.16,28.88c-2.07-1.2-1.81-3.3.59-4.68L74.45,5.31c2.41-1.38,6-1.53,8.12-.33l56.84,32.41c2.08,1.2,1.82,3.3-.58,4.69L106.12,61C103.72,62.34,100.09,62.5,98,61.3Z" transform="translate(-6.24 -4.17)"/><path class="cls-5" d="M138.83,39.78,106.12,58.66c-2.4,1.38-6,1.54-8.11.33L41.16,26.58a3.12,3.12,0,0,1-1-.92c-.72,1.15-.39,2.4,1,3.22L98,61.3c2.08,1.2,5.71,1,8.11-.34l32.71-18.88c1.86-1.08,2.43-2.59,1.62-3.77A4.6,4.6,0,0,1,138.83,39.78Z" transform="translate(-6.24 -4.17)"/><path class="cls-6" d="M99.62,48.16,61.77,26.22c-1-.56-.85-1.54.27-2.19l15.31-8.84a4.23,4.23,0,0,1,3.8-.16L119,37c1,.56.85,1.55-.27,2.19L103.41,48A4.21,4.21,0,0,1,99.62,48.16Z" transform="translate(-6.24 -4.17)"/><path class="cls-3" d="M79.19,27.2,77,25.94c-.13-.08-.11-.21,0-.3l2.12-1.23a.56.56,0,0,1,.52,0l2.2,1.27c.13.08.11.21,0,.3l-2.12,1.22A.56.56,0,0,1,79.19,27.2Z" transform="translate(-6.24 -4.17)"/><path class="cls-3" d="M86.51,31.42l-2.19-1.27c-.13-.08-.12-.21,0-.3l2.12-1.22a.6.6,0,0,1,.52,0l2.19,1.27c.14.08.12.21,0,.3L87,31.4A.59.59,0,0,1,86.51,31.42Z" transform="translate(-6.24 -4.17)"/><path class="cls-3" d="M93.84,35.63l-2.19-1.27c-.14-.07-.12-.21,0-.3l2.12-1.22a.59.59,0,0,1,.53,0l2.19,1.26c.14.08.12.22,0,.31l-2.11,1.22A.59.59,0,0,1,93.84,35.63Z" transform="translate(-6.24 -4.17)"/><path class="cls-3" d="M101.17,39.84,99,38.58c-.13-.08-.11-.22,0-.31l2.12-1.22a.56.56,0,0,1,.52,0l2.2,1.27c.13.07.11.21,0,.3l-2.12,1.22A.56.56,0,0,1,101.17,39.84Z" transform="translate(-6.24 -4.17)"/><path class="cls-1" d="M61.77,26.22l0,0,.22-.16,15.31-8.84a4.23,4.23,0,0,1,3.8-.16L119,39c.89-.64.94-1.52,0-2L81.15,15a4.23,4.23,0,0,0-3.8.16L62,24C60.92,24.68,60.8,25.66,61.77,26.22Z" transform="translate(-6.24 -4.17)"/><path class="cls-6" d="M112.51,85.8,134,73.48a5.23,5.23,0,0,0,2.19-4.19V61.6c0-1.61-1-2.36-2.19-1.66L112.51,72.26a5.26,5.26,0,0,0-2.19,4.19v7.7C110.32,85.76,111.3,86.5,112.51,85.8Z" transform="translate(-6.24 -4.17)"/><path class="cls-7" d="M135.09,59.71a2.14,2.14,0,0,1,.55,1.6V69a5.26,5.26,0,0,1-2.19,4.19L111.93,85.52a1.62,1.62,0,0,1-1.06.23,1.3,1.3,0,0,0,1.64,0L134,73.48a5.23,5.23,0,0,0,2.19-4.19V61.6C136.22,60.5,135.76,59.82,135.09,59.71Z" transform="translate(-6.24 -4.17)"/><path class="cls-2" d="M119,77.45l2-1.14a1.16,1.16,0,0,0,.48-.92V73.28c0-.35-.21-.51-.48-.36l-2,1.14a1.15,1.15,0,0,0-.48.92v2.1C118.5,77.44,118.72,77.6,119,77.45Z" transform="translate(-6.24 -4.17)"/><path class="cls-7" d="M125.58,73.63l2-1.14a1.12,1.12,0,0,0,.48-.91V69.47c0-.35-.21-.51-.48-.36l-2,1.14a1.15,1.15,0,0,0-.48.91v2.11C125.1,73.63,125.32,73.79,125.58,73.63Z" transform="translate(-6.24 -4.17)"/><path class="cls-6" d="M112.51,141.41,134,129.09a5.25,5.25,0,0,0,2.19-4.19v-7.69c0-1.62-1-2.36-2.19-1.66l-21.52,12.32a5.25,5.25,0,0,0-2.19,4.19v7.69C110.32,141.37,111.3,142.11,112.51,141.41Z" transform="translate(-6.24 -4.17)"/><path class="cls-7" d="M135.09,115.32a2.14,2.14,0,0,1,.55,1.6v7.69a5.25,5.25,0,0,1-2.19,4.19l-21.52,12.32a1.51,1.51,0,0,1-1.06.23,1.3,1.3,0,0,0,1.64.06L134,129.09a5.25,5.25,0,0,0,2.19-4.19v-7.69C136.22,116.11,135.76,115.43,135.09,115.32Z" transform="translate(-6.24 -4.17)"/><path class="cls-2" d="M119,133.05l2-1.14a1.12,1.12,0,0,0,.48-.91v-2.11c0-.35-.21-.51-.48-.36l-2,1.14a1.15,1.15,0,0,0-.48.91v2.11C118.5,133,118.72,133.2,119,133.05Z" transform="translate(-6.24 -4.17)"/><path class="cls-7" d="M125.58,129.24l2-1.14a1.12,1.12,0,0,0,.48-.91v-2.11c0-.35-.21-.51-.48-.36l-2,1.14a1.15,1.15,0,0,0-.48.91v2.11C125.1,129.23,125.32,129.39,125.58,129.24Z" transform="translate(-6.24 -4.17)"/><path class="cls-6" d="M112.51,169.21,134,156.89a5.23,5.23,0,0,0,2.19-4.18V145c0-1.61-1-2.36-2.19-1.66l-21.52,12.32a5.26,5.26,0,0,0-2.19,4.19v7.7C110.32,169.17,111.3,169.91,112.51,169.21Z" transform="translate(-6.24 -4.17)"/><path class="cls-7" d="M135.09,143.12a2.14,2.14,0,0,1,.55,1.6v7.7a5.26,5.26,0,0,1-2.19,4.19l-21.52,12.32a1.62,1.62,0,0,1-1.06.23,1.3,1.3,0,0,0,1.64.05L134,156.89a5.23,5.23,0,0,0,2.19-4.18V145C136.22,143.91,135.76,143.23,135.09,143.12Z" transform="translate(-6.24 -4.17)"/><path class="cls-2" d="M119,160.86l2-1.14a1.16,1.16,0,0,0,.48-.92v-2.11c0-.35-.21-.51-.48-.36l-2,1.14a1.15,1.15,0,0,0-.48.92v2.1C118.5,160.85,118.72,161,119,160.86Z" transform="translate(-6.24 -4.17)"/><path class="cls-7" d="M125.58,157l2-1.14A1.12,1.12,0,0,0,128,155v-2.11c0-.35-.21-.51-.48-.36l-2,1.14a1.15,1.15,0,0,0-.48.91v2.11C125.1,157,125.32,157.2,125.58,157Z" transform="translate(-6.24 -4.17)"/><path class="cls-6" d="M112.51,113.61,134,101.29a5.26,5.26,0,0,0,2.19-4.19V89.4c0-1.61-1-2.35-2.19-1.65l-21.52,12.32a5.25,5.25,0,0,0-2.19,4.19V112C110.32,113.56,111.3,114.31,112.51,113.61Z" transform="translate(-6.24 -4.17)"/><path class="cls-7" d="M135.09,87.51a2.15,2.15,0,0,1,.55,1.6v7.7a5.26,5.26,0,0,1-2.19,4.19l-21.52,12.32a1.56,1.56,0,0,1-1.06.23,1.3,1.3,0,0,0,1.64.06L134,101.29a5.26,5.26,0,0,0,2.19-4.19V89.4C136.22,88.31,135.76,87.63,135.09,87.51Z" transform="translate(-6.24 -4.17)"/><path class="cls-2" d="M119,105.25l2-1.14a1.12,1.12,0,0,0,.48-.91v-2.11c0-.35-.21-.52-.48-.36l-2,1.14a1.15,1.15,0,0,0-.48.91v2.11C118.5,105.24,118.72,105.4,119,105.25Z" transform="translate(-6.24 -4.17)"/><path class="cls-7" d="M125.58,101.44l2-1.14a1.12,1.12,0,0,0,.48-.91V97.28c0-.36-.21-.52-.48-.36l-2,1.13a1.19,1.19,0,0,0-.48.92v2.11C125.1,101.43,125.32,101.59,125.58,101.44Z" transform="translate(-6.24 -4.17)"/><path class="cls-1" d="M93.87,77.93,44.23,49.26a4.79,4.79,0,0,1-2-3.84V36c0-1.48.9-2.16,2-1.52L93.87,63.1a4.81,4.81,0,0,1,2,3.84v9.47C95.88,77.89,95,78.57,93.87,77.93Z" transform="translate(-6.24 -4.17)"/><path class="cls-8" d="M92.44,74.61l-46.79-27a2.45,2.45,0,0,1-1-2V38.52c0-.75.46-1.09,1-.77l46.79,27a2.43,2.43,0,0,1,1,2v7.12C93.47,74.59,93,74.93,92.44,74.61Z" transform="translate(-6.24 -4.17)"/><path class="cls-3" d="M55.4,49.62l-7-4a2.35,2.35,0,0,1-1-1.89h0c0-.73.44-1.07,1-.75l7,4a2.36,2.36,0,0,1,1,1.89h0C56.39,49.6,56,49.94,55.4,49.62Z" transform="translate(-6.24 -4.17)"/><ellipse class="cls-6" cx="60.21" cy="51.08" rx="0.93" ry="1.62" transform="translate(-23.72 32.78) rotate(-30)"/><path class="cls-6" d="M65.39,54.07c0,.73-.51,1-1.14.66a2.52,2.52,0,0,1-1.15-2c0-.73.51-1,1.15-.66A2.52,2.52,0,0,1,65.39,54.07Z" transform="translate(-6.24 -4.17)"/><path class="cls-3" d="M69.43,56.4c0,.73-.51,1-1.15.66a2.52,2.52,0,0,1-1.14-2c0-.73.51-1,1.14-.66A2.5,2.5,0,0,1,69.43,56.4Z" transform="translate(-6.24 -4.17)"/><path class="cls-6" d="M73.47,58.73c0,.73-.52,1-1.15.66a2.52,2.52,0,0,1-1.14-2c0-.73.51-1,1.14-.66A2.53,2.53,0,0,1,73.47,58.73Z" transform="translate(-6.24 -4.17)"/><path class="cls-6" d="M90.48,70.64l-2.36-1.35a1.54,1.54,0,0,1-.63-1.22V65.58c0-.47.28-.68.63-.48l2.36,1.36a1.52,1.52,0,0,1,.63,1.22v2.48C91.11,70.63,90.83,70.85,90.48,70.64Z" transform="translate(-6.24 -4.17)"/><path class="cls-1" d="M93.87,94.62,44.23,66a4.8,4.8,0,0,1-2-3.85V52.65c0-1.48.9-2.17,2-1.52L93.87,79.79a4.81,4.81,0,0,1,2,3.84V93.1C95.88,94.58,95,95.26,93.87,94.62Z" transform="translate(-6.24 -4.17)"/><path class="cls-8" d="M92.44,91.3l-46.79-27a2.43,2.43,0,0,1-1-2V55.22c0-.75.46-1.1,1-.77l46.79,27a2.44,2.44,0,0,1,1,2v7.12C93.47,91.28,93,91.63,92.44,91.3Z" transform="translate(-6.24 -4.17)"/><path class="cls-3" d="M55.4,66.32l-7-4a2.35,2.35,0,0,1-1-1.89h0c0-.73.44-1.06,1-.75l7,4a2.38,2.38,0,0,1,1,1.9h0C56.39,66.3,56,66.63,55.4,66.32Z" transform="translate(-6.24 -4.17)"/><path class="cls-7" d="M61.35,68.43c0,.73-.51,1-1.14.66a2.53,2.53,0,0,1-1.15-2c0-.73.52-1,1.15-.66A2.52,2.52,0,0,1,61.35,68.43Z" transform="translate(-6.24 -4.17)"/><path class="cls-6" d="M65.39,70.76c0,.73-.51,1-1.14.66a2.5,2.5,0,0,1-1.15-2c0-.73.51-1,1.15-.66A2.52,2.52,0,0,1,65.39,70.76Z" transform="translate(-6.24 -4.17)"/><path class="cls-3" d="M69.43,73.09c0,.73-.51,1-1.15.66a2.52,2.52,0,0,1-1.14-2c0-.73.51-1,1.14-.66A2.52,2.52,0,0,1,69.43,73.09Z" transform="translate(-6.24 -4.17)"/><ellipse class="cls-6" cx="72.32" cy="74.76" rx="0.93" ry="1.62" transform="translate(-33.94 42.01) rotate(-30)"/><path class="cls-6" d="M90.48,87.34,88.12,86a1.52,1.52,0,0,1-.63-1.22V82.28c0-.47.28-.69.63-.49l2.36,1.36a1.54,1.54,0,0,1,.63,1.22v2.49C91.11,87.33,90.83,87.54,90.48,87.34Z" transform="translate(-6.24 -4.17)"/><path class="cls-1" d="M93.87,111.31,44.23,82.65a4.79,4.79,0,0,1-2-3.84V69.34c0-1.48.9-2.16,2-1.52L93.87,96.48a4.82,4.82,0,0,1,2,3.85v9.46C95.88,111.27,95,112,93.87,111.31Z" transform="translate(-6.24 -4.17)"/><path class="cls-8" d="M92.44,108,45.65,81a2.46,2.46,0,0,1-1-2V71.91c0-.75.46-1.1,1-.77l46.79,27a2.41,2.41,0,0,1,1,2v7.11C93.47,108,93,108.32,92.44,108Z" transform="translate(-6.24 -4.17)"/><path class="cls-3" d="M55.4,83l-7-4a2.38,2.38,0,0,1-1-1.9h0c0-.73.44-1.06,1-.75l7,4a2.35,2.35,0,0,1,1,1.89h0C56.39,83,56,83.33,55.4,83Z" transform="translate(-6.24 -4.17)"/><path class="cls-7" d="M61.35,85.12c0,.73-.51,1-1.14.67a2.56,2.56,0,0,1-1.15-2c0-.73.52-1,1.15-.66A2.53,2.53,0,0,1,61.35,85.12Z" transform="translate(-6.24 -4.17)"/><path class="cls-6" d="M65.39,87.46c0,.73-.51,1-1.14.66a2.54,2.54,0,0,1-1.15-2c0-.73.51-1,1.15-.66A2.55,2.55,0,0,1,65.39,87.46Z" transform="translate(-6.24 -4.17)"/><path class="cls-3" d="M69.43,89.79c0,.73-.51,1-1.15.66a2.53,2.53,0,0,1-1.14-2c0-.73.51-1,1.14-.67A2.54,2.54,0,0,1,69.43,89.79Z" transform="translate(-6.24 -4.17)"/><path class="cls-6" d="M73.47,92.12c0,.73-.52,1-1.15.66a2.53,2.53,0,0,1-1.14-2c0-.73.51-1,1.14-.66A2.53,2.53,0,0,1,73.47,92.12Z" transform="translate(-6.24 -4.17)"/><path class="cls-6" d="M90.48,104l-2.36-1.36a1.5,1.5,0,0,1-.63-1.21V99c0-.47.28-.68.63-.48l2.36,1.36a1.5,1.5,0,0,1,.63,1.21v2.49C91.11,104,90.83,104.23,90.48,104Z" transform="translate(-6.24 -4.17)"/><path class="cls-1" d="M93.87,128,44.23,99.34a4.79,4.79,0,0,1-2-3.84V86c0-1.48.9-2.16,2-1.52l49.64,28.67a4.81,4.81,0,0,1,2,3.84v9.47C95.88,128,95,128.65,93.87,128Z" transform="translate(-6.24 -4.17)"/><path class="cls-8" d="M92.44,124.69l-46.79-27a2.45,2.45,0,0,1-1-2V88.6c0-.75.46-1.09,1-.77l46.79,27a2.43,2.43,0,0,1,1,2v7.12C93.47,124.67,93,125,92.44,124.69Z" transform="translate(-6.24 -4.17)"/><path class="cls-3" d="M55.4,99.7l-7-4a2.35,2.35,0,0,1-1-1.89h0c0-.73.44-1.07,1-.75l7,4a2.36,2.36,0,0,1,1,1.89h0C56.39,99.68,56,100,55.4,99.7Z" transform="translate(-6.24 -4.17)"/><path class="cls-6" d="M61.35,101.82c0,.73-.51,1-1.14.66a2.54,2.54,0,0,1-1.15-2c0-.73.52-1,1.15-.67A2.55,2.55,0,0,1,61.35,101.82Z" transform="translate(-6.24 -4.17)"/><ellipse class="cls-6" cx="64.25" cy="103.49" rx="0.93" ry="1.62" transform="translate(-49.38 41.83) rotate(-30)"/><path class="cls-3" d="M69.43,106.48c0,.73-.51,1-1.15.66a2.52,2.52,0,0,1-1.14-2c0-.73.51-1,1.14-.66A2.5,2.5,0,0,1,69.43,106.48Z" transform="translate(-6.24 -4.17)"/><path class="cls-6" d="M73.47,108.81c0,.73-.52,1-1.15.66a2.52,2.52,0,0,1-1.14-2c0-.73.51-1,1.14-.66A2.53,2.53,0,0,1,73.47,108.81Z" transform="translate(-6.24 -4.17)"/><path class="cls-3" d="M90.48,120.72l-2.36-1.35a1.54,1.54,0,0,1-.63-1.22v-2.49c0-.47.28-.68.63-.48l2.36,1.36a1.52,1.52,0,0,1,.63,1.21v2.49C91.11,120.71,90.83,120.93,90.48,120.72Z" transform="translate(-6.24 -4.17)"/><path class="cls-1" d="M93.87,144.7,44.23,116a4.81,4.81,0,0,1-2-3.85v-9.46c0-1.48.9-2.17,2-1.52l49.64,28.66a4.81,4.81,0,0,1,2,3.84v9.47C95.88,144.66,95,145.34,93.87,144.7Z" transform="translate(-6.24 -4.17)"/><path class="cls-8" d="M92.44,141.38l-46.79-27a2.43,2.43,0,0,1-1-2V105.3c0-.75.46-1.1,1-.77l46.79,27a2.44,2.44,0,0,1,1,2v7.12C93.47,141.36,93,141.71,92.44,141.38Z" transform="translate(-6.24 -4.17)"/><path class="cls-3" d="M55.4,116.4l-7-4a2.35,2.35,0,0,1-1-1.89h0c0-.73.44-1.06,1-.75l7,4a2.38,2.38,0,0,1,1,1.9h0C56.39,116.38,56,116.71,55.4,116.4Z" transform="translate(-6.24 -4.17)"/><path class="cls-6" d="M61.35,118.51c0,.73-.51,1-1.14.66a2.53,2.53,0,0,1-1.15-2c0-.73.52-1,1.15-.66A2.52,2.52,0,0,1,61.35,118.51Z" transform="translate(-6.24 -4.17)"/><path class="cls-7" d="M65.39,120.84c0,.73-.51,1-1.14.66a2.5,2.5,0,0,1-1.15-2c0-.73.51-1,1.15-.66A2.52,2.52,0,0,1,65.39,120.84Z" transform="translate(-6.24 -4.17)"/><path class="cls-3" d="M69.43,123.17c0,.73-.51,1-1.15.66a2.52,2.52,0,0,1-1.14-2c0-.73.51-1,1.14-.66A2.52,2.52,0,0,1,69.43,123.17Z" transform="translate(-6.24 -4.17)"/><path class="cls-7" d="M73.47,125.5c0,.73-.52,1-1.15.67a2.55,2.55,0,0,1-1.14-2c0-.73.51-1,1.14-.66A2.54,2.54,0,0,1,73.47,125.5Z" transform="translate(-6.24 -4.17)"/><path class="cls-3" d="M90.48,137.42l-2.36-1.36a1.52,1.52,0,0,1-.63-1.22v-2.48c0-.47.28-.69.63-.49l2.36,1.36a1.54,1.54,0,0,1,.63,1.22v2.49C91.11,137.41,90.83,137.62,90.48,137.42Z" transform="translate(-6.24 -4.17)"/><path class="cls-1" d="M93.87,161.39,44.23,132.73a4.79,4.79,0,0,1-2-3.84v-9.47c0-1.48.9-2.16,2-1.52l49.64,28.66a4.82,4.82,0,0,1,2,3.85v9.46C95.88,161.35,95,162,93.87,161.39Z" transform="translate(-6.24 -4.17)"/><path class="cls-8" d="M92.44,158.07l-46.79-27a2.46,2.46,0,0,1-1-1.95V122c0-.75.46-1.1,1-.77l46.79,27a2.41,2.41,0,0,1,1,1.95v7.11C93.47,158.05,93,158.4,92.44,158.07Z" transform="translate(-6.24 -4.17)"/><path class="cls-3" d="M55.4,133.09l-7-4a2.38,2.38,0,0,1-1-1.9h0c0-.73.44-1.06,1-.75l7,4a2.35,2.35,0,0,1,1,1.89h0C56.39,133.07,56,133.41,55.4,133.09Z" transform="translate(-6.24 -4.17)"/><ellipse class="cls-6" cx="60.21" cy="134.54" rx="0.93" ry="1.62" transform="translate(-65.45 43.97) rotate(-30)"/><path class="cls-6" d="M65.39,137.54c0,.72-.51,1-1.14.66a2.54,2.54,0,0,1-1.15-2c0-.73.51-1,1.15-.66A2.55,2.55,0,0,1,65.39,137.54Z" transform="translate(-6.24 -4.17)"/><path class="cls-3" d="M69.43,139.87c0,.73-.51,1-1.15.66a2.55,2.55,0,0,1-1.14-2c0-.73.51-1,1.14-.66A2.54,2.54,0,0,1,69.43,139.87Z" transform="translate(-6.24 -4.17)"/><path class="cls-6" d="M73.47,142.2c0,.73-.52,1-1.15.66a2.53,2.53,0,0,1-1.14-2c0-.73.51-1,1.14-.66A2.53,2.53,0,0,1,73.47,142.2Z" transform="translate(-6.24 -4.17)"/><path class="cls-6" d="M90.48,154.11l-2.36-1.36a1.5,1.5,0,0,1-.63-1.21v-2.49c0-.47.28-.69.63-.48l2.36,1.36a1.5,1.5,0,0,1,.63,1.21v2.49C91.11,154.1,90.83,154.31,90.48,154.11Z" transform="translate(-6.24 -4.17)"/><path class="cls-1" d="M93.87,178.09,44.23,149.42a4.79,4.79,0,0,1-2-3.84v-9.47c0-1.48.9-2.16,2-1.52l49.64,28.66a4.85,4.85,0,0,1,2,3.85v9.47C95.88,178.05,95,178.73,93.87,178.09Z" transform="translate(-6.24 -4.17)"/><path class="cls-8" d="M92.44,174.77l-46.79-27a2.46,2.46,0,0,1-1-1.95v-7.12c0-.75.46-1.09,1-.77l46.79,27a2.43,2.43,0,0,1,1,1.95V174C93.47,174.75,93,175.09,92.44,174.77Z" transform="translate(-6.24 -4.17)"/><path class="cls-3" d="M55.4,149.78l-7-4a2.36,2.36,0,0,1-1-1.89h0c0-.73.44-1.07,1-.75l7,4a2.36,2.36,0,0,1,1,1.89h0C56.39,149.76,56,150.1,55.4,149.78Z" transform="translate(-6.24 -4.17)"/><path class="cls-7" d="M62.63,152.8c0,1.38-1,1.94-2.16,1.25a4.77,4.77,0,0,1-2.16-3.75c0-1.37,1-1.93,2.16-1.24A4.78,4.78,0,0,1,62.63,152.8Z" transform="translate(-6.24 -4.17)"/><path class="cls-6" d="M71,157.69c0,.73-.51,1-1.14.67a2.56,2.56,0,0,1-1.15-2c0-.73.52-1,1.15-.66A2.53,2.53,0,0,1,71,157.69Z" transform="translate(-6.24 -4.17)"/><path class="cls-3" d="M75,160c0,.73-.51,1-1.14.66a2.54,2.54,0,0,1-1.15-2c0-.73.51-1,1.15-.66A2.55,2.55,0,0,1,75,160Z" transform="translate(-6.24 -4.17)"/><path class="cls-6" d="M79.07,162.36c0,.73-.51,1-1.15.66a2.53,2.53,0,0,1-1.14-2c0-.73.51-1,1.14-.67A2.54,2.54,0,0,1,79.07,162.36Z" transform="translate(-6.24 -4.17)"/><path class="cls-3" d="M90.48,170.8l-2.36-1.35a1.54,1.54,0,0,1-.63-1.22v-2.49c0-.47.28-.68.63-.48l2.36,1.36a1.52,1.52,0,0,1,.63,1.21v2.49C91.11,170.79,90.83,171,90.48,170.8Z" transform="translate(-6.24 -4.17)"/><path class="cls-1" d="M90.57,220a1,1,0,0,1-.49-.13L33.65,187.8a2.19,2.19,0,0,1,0-3.79l24.21-14.29a2.81,2.81,0,0,0,1.39-2.42V151.55a1,1,0,0,1,2,0V167.3a4.86,4.86,0,0,1-2.37,4.15L34.63,185.73a.2.2,0,0,0-.09.17.18.18,0,0,0,.09.16l56.44,32.07a1,1,0,0,1-.5,1.87Z" transform="translate(-6.24 -4.17)"/><rect class="cls-1" x="73.46" y="205.11" width="5.36" height="11.57" transform="translate(290.73 245.59) rotate(119.83)"/><path class="cls-1" d="M69.23,209.12a4.19,4.19,0,0,1,1.89-3.29c1-.6,1.89-.12,1.89,1.09a4.18,4.18,0,0,1-1.88,3.29C70.08,210.82,69.23,210.33,69.23,209.12Z" transform="translate(-6.24 -4.17)"/><rect class="cls-1" x="82.93" y="208.21" width="8.69" height="18.15" transform="translate(312.94 245.49) rotate(119.83)"/><path class="cls-2" d="M80.84,210.5l-3.4-1.94a6.94,6.94,0,0,0-2.66,4.65l3.39,1.95A6.94,6.94,0,0,0,80.84,210.5Z" transform="translate(-6.24 -4.17)"/><path class="cls-1" d="M76.34,214.55a6.79,6.79,0,0,1,3-5.33c1.7-1,3.08-.19,3.08,1.77a6.79,6.79,0,0,1-3,5.33C77.72,217.3,76.34,216.51,76.34,214.55Z" transform="translate(-6.24 -4.17)"/><path class="cls-3" d="M72.4,207.88a.54.54,0,0,1,0-1,2,2,0,0,1,1.78,0,.54.54,0,0,1,0,1A1.94,1.94,0,0,1,72.4,207.88Z" transform="translate(-6.24 -4.17)"/><rect class="cls-1" x="61.25" y="212.49" width="5.36" height="11.57" transform="translate(278.85 267.22) rotate(119.83)"/><path class="cls-1" d="M57,216.5a4.18,4.18,0,0,1,1.88-3.29c1.05-.61,1.9-.12,1.9,1.09a4.19,4.19,0,0,1-1.89,3.29C57.88,218.19,57,217.71,57,216.5Z" transform="translate(-6.24 -4.17)"/><rect class="cls-1" x="70.73" y="215.59" width="8.69" height="18.15" transform="translate(301.06 267.12) rotate(119.83)"/><path class="cls-2" d="M68.64,217.88l-3.4-1.95a6.94,6.94,0,0,0-2.67,4.65l3.4,1.95A6.94,6.94,0,0,0,68.64,217.88Z" transform="translate(-6.24 -4.17)"/><path class="cls-1" d="M64.13,221.93a6.81,6.81,0,0,1,3.06-5.33c1.69-1,3.07-.19,3.08,1.76a6.81,6.81,0,0,1-3.06,5.33C65.52,224.68,64.14,223.89,64.13,221.93Z" transform="translate(-6.24 -4.17)"/><path class="cls-3" d="M60.19,215.26c-.49-.29-.49-.75,0-1a2,2,0,0,1,1.78,0,.54.54,0,0,1,0,1A2,2,0,0,1,60.19,215.26Z" transform="translate(-6.24 -4.17)"/><path class="cls-1" d="M262.65,130.18a.83.83,0,0,1-.22,0,1,1,0,0,1-.75-1.2l9.75-42.34a1,1,0,1,1,1.95.45l-9.75,42.34A1,1,0,0,1,262.65,130.18Z" transform="translate(-6.24 -4.17)"/><path class="cls-1" d="M249.69,127.19l-.23,0a1,1,0,0,1-.75-1.2l9.76-42.34a1,1,0,0,1,1.2-.75,1,1,0,0,1,.75,1.19l-9.76,42.35A1,1,0,0,1,249.69,127.19Z" transform="translate(-6.24 -4.17)"/><path class="cls-1" d="M236.73,124.21a.91.91,0,0,1-.23,0,1,1,0,0,1-.75-1.2l9.75-42.34a1,1,0,0,1,1.2-.75,1,1,0,0,1,.75,1.2l-9.75,42.34A1,1,0,0,1,236.73,124.21Z" transform="translate(-6.24 -4.17)"/><rect class="cls-1" x="240.17" y="91.23" width="5.36" height="11.57" transform="translate(22.3 -57.03) rotate(13.19)"/><path class="cls-1" d="M243.12,104.15a4.22,4.22,0,0,1-3.69-.87,1.15,1.15,0,0,1,.5-2.13,4.2,4.2,0,0,1,3.69.86A1.16,1.16,0,0,1,243.12,104.15Z" transform="translate(-6.24 -4.17)"/><rect class="cls-1" x="241.43" y="75.44" width="8.69" height="18.15" transform="translate(19.53 -58.03) rotate(13.19)"/><path class="cls-2" d="M241.12,92.62l-.89,3.82a7,7,0,0,0,5.22,1.22l.89-3.81A6.93,6.93,0,0,0,241.12,92.62Z" transform="translate(-6.24 -4.17)"/><path class="cls-1" d="M246.29,95.78a6.81,6.81,0,0,1-6-1.4c-1.43-1.34-1.07-2.89.81-3.46a6.79,6.79,0,0,1,6,1.41C248.53,93.67,248.17,95.21,246.29,95.78Z" transform="translate(-6.24 -4.17)"/><path class="cls-3" d="M241,101.47c-.13.55-.57.68-1,.29a2,2,0,0,1-.51-1.7.54.54,0,0,1,1-.3A2,2,0,0,1,241,101.47Z" transform="translate(-6.24 -4.17)"/><rect class="cls-1" x="252.19" y="98.39" width="5.36" height="11.57" transform="translate(24.25 -59.58) rotate(13.19)"/><path class="cls-1" d="M255.14,111.3a4.21,4.21,0,0,1-3.69-.86,1.15,1.15,0,0,1,.5-2.13,4.17,4.17,0,0,1,3.69.86A1.15,1.15,0,0,1,255.14,111.3Z" transform="translate(-6.24 -4.17)"/><rect class="cls-1" x="253.45" y="82.6" width="8.69" height="18.15" transform="translate(21.48 -60.58) rotate(13.19)"/><path class="cls-2" d="M253.14,99.78l-.89,3.81a6.93,6.93,0,0,0,5.22,1.23l.89-3.82A7,7,0,0,0,253.14,99.78Z" transform="translate(-6.24 -4.17)"/><path class="cls-1" d="M258.31,102.94a6.82,6.82,0,0,1-6-1.41c-1.43-1.34-1.07-2.88.81-3.45a6.78,6.78,0,0,1,6,1.4C260.55,100.82,260.19,102.37,258.31,102.94Z" transform="translate(-6.24 -4.17)"/><path class="cls-3" d="M253.05,108.62c-.13.56-.57.69-1,.3a2,2,0,0,1-.51-1.7c.13-.55.57-.69,1-.3A2,2,0,0,1,253.05,108.62Z" transform="translate(-6.24 -4.17)"/><rect class="cls-1" x="264.34" y="105.49" width="5.36" height="11.57" transform="translate(26.2 -62.17) rotate(13.19)"/><path class="cls-1" d="M267.3,118.41a4.21,4.21,0,0,1-3.69-.87c-.89-.83-.66-1.78.5-2.13a4.22,4.22,0,0,1,3.69.86A1.16,1.16,0,0,1,267.3,118.41Z" transform="translate(-6.24 -4.17)"/><rect class="cls-1" x="265.61" y="89.7" width="8.69" height="18.15" transform="translate(23.42 -63.17) rotate(13.19)"/><path class="cls-2" d="M265.3,106.88l-.9,3.82a7,7,0,0,0,5.22,1.22l.9-3.81A7,7,0,0,0,265.3,106.88Z" transform="translate(-6.24 -4.17)"/><path class="cls-1" d="M270.47,110a6.83,6.83,0,0,1-6-1.4c-1.42-1.34-1.06-2.89.81-3.46a6.83,6.83,0,0,1,6,1.4C272.7,107.93,272.34,109.47,270.47,110Z" transform="translate(-6.24 -4.17)"/><path class="cls-3" d="M265.2,115.73c-.13.55-.57.68-1,.29a1.94,1.94,0,0,1-.52-1.7c.13-.55.57-.68,1-.3A2,2,0,0,1,265.2,115.73Z" transform="translate(-6.24 -4.17)"/><path class="cls-4" d="M183.08,316.81,66.94,249.76c-3.28-1.9-2.87-5.21.92-7.4L147,196.71c3.79-2.19,9.53-2.43,12.81-.53l116.15,67.05c3.28,1.9,2.87,5.21-.92,7.4L195.9,316.28C192.11,318.47,186.37,318.71,183.08,316.81Z" transform="translate(-6.24 -4.17)"/><path class="cls-6" d="M303.11,144.45,187,77.39a4.68,4.68,0,0,0-3.94-.48h0l-.21.08-.05,0-4.2,1.6,3.77,1.85-.06.2-18.92,86.12c-.94,4.31.95,9.34,4.24,11.23L281,243.45l-.41,4.8,4.59-1.78a6.45,6.45,0,0,0,3.29-4.67l18.91-86.11C308.29,151.38,306.39,146.35,303.11,144.45Z" transform="translate(-6.24 -4.17)"/><path class="cls-2" d="M303.11,144.45,187,77.39a4.68,4.68,0,0,0-3.94-.48h0l-.21.08-.05,0-4.2,1.6,3.77,1.85-.06.2-12.47,56.76,56.83,44.27,80.13-32.6A9,9,0,0,0,303.11,144.45Z" transform="translate(-6.24 -4.17)"/><path class="cls-9" d="M298.73,157.69l8.84-3.77a11.07,11.07,0,0,0-3.58-8.85L290,151Z" transform="translate(-6.24 -4.17)"/><path class="cls-3" d="M276.52,247.79l-116.14-67c-3.29-1.9-5.19-6.93-4.24-11.24l18.92-86.11c.95-4.31,4.38-6.27,7.66-4.37l116.14,67.05c3.29,1.9,5.19,6.93,4.24,11.24l-18.92,86.11C283.23,247.73,279.8,249.69,276.52,247.79Z" transform="translate(-6.24 -4.17)"/><path class="cls-7" d="M274,241.39l-109.23-63c-3-1.73-4.74-6.34-3.87-10.28l17.31-78.8c.86-3.94,4-5.73,7-4l109.23,63c3,1.73,4.74,6.34,3.87,10.28L281,237.39C280.15,241.33,277,243.12,274,241.39Z" transform="translate(-6.24 -4.17)"/><path class="cls-7" d="M274,241.39l-109.23-63c-3-1.73-4.74-6.34-3.87-10.28l17.31-78.8c.86-3.94,4-5.73,7-4l109.23,63c3,1.73,4.74,6.34,3.87,10.28L281,237.39C280.15,241.33,277,243.12,274,241.39Z" transform="translate(-6.24 -4.17)"/><path class="cls-6" d="M278.12,250.71l-15.87-2.09L159.76,189.45c-3.28-1.9-9-1.66-12.81.53L74.33,231.89l-9.6-1.27v5.45h0a3.73,3.73,0,0,0,2.2,3.37l116.14,67.05c3.29,1.9,9,1.66,12.82-.53L275,260.31c2.13-1.23,3.19-2.81,3.13-4.31h0Z" transform="translate(-6.24 -4.17)"/><path class="cls-2" d="M201.12,213.33l-7.28-4.21h-80L74.33,231.89l-9.6-1.27v5.45h0a3.73,3.73,0,0,0,2.2,3.37l116.14,67.05a12.08,12.08,0,0,0,6.62,1.24Z" transform="translate(-6.24 -4.17)"/><path class="cls-1" d="M69,231.19l-4.26-.57v5.45h0a3.73,3.73,0,0,0,2.2,3.37l2,1.18Z" transform="translate(-6.24 -4.17)"/><path class="cls-9" d="M184.25,307a14.87,14.87,0,0,0,10.89-.67V294.21H184.25Z" transform="translate(-6.24 -4.17)"/><path class="cls-3" d="M183.08,301.05,66.94,234c-3.28-1.9-2.87-5.22.92-7.41L147,181c3.79-2.19,9.53-2.43,12.81-.53l116.15,67.05c3.28,1.9,2.87,5.21-.92,7.4L195.9,300.52C192.11,302.71,186.37,303,183.08,301.05Z" transform="translate(-6.24 -4.17)"/><path class="cls-7" d="M275,252.88,195.9,298.53c-3.79,2.19-9.53,2.43-12.82.53L66.94,232a4.32,4.32,0,0,1-2-2.24c-.51,1.56.14,3.13,2,4.23l116.14,67.05c3.29,1.9,9,1.66,12.82-.53L275,254.87c2.55-1.47,3.56-3.45,3-5.16A6.22,6.22,0,0,1,275,252.88Z" transform="translate(-6.24 -4.17)"/><path class="cls-6" d="M116.34,211.8l-5.26-3c-.42-.24-.37-.67.12-.95l6.2-3.58a1.85,1.85,0,0,1,1.65-.07l5.26,3c.42.24.36.67-.12,1L118,211.73A1.83,1.83,0,0,1,116.34,211.8Z" transform="translate(-6.24 -4.17)"/><path class="cls-6" d="M124.45,216.48l-5.25-3c-.42-.25-.37-.67.12-.95l6.2-3.58a1.79,1.79,0,0,1,1.65-.07l5.25,3c.42.25.37.67-.12,1l-6.2,3.58A1.82,1.82,0,0,1,124.45,216.48Z" transform="translate(-6.24 -4.17)"/><path class="cls-6" d="M132.57,221.17l-5.26-3c-.42-.24-.37-.67.12-.95l6.2-3.58a1.85,1.85,0,0,1,1.65-.07l5.26,3c.42.24.36.67-.12,1l-6.2,3.58A1.85,1.85,0,0,1,132.57,221.17Z" transform="translate(-6.24 -4.17)"/><path class="cls-6" d="M143.79,217.3l-5.25-3c-.42-.24-.37-.67.12-.95l5.2-3a1.85,1.85,0,0,1,1.65-.07l5.25,3c.43.25.37.67-.11.95l-5.21,3A1.85,1.85,0,0,1,143.79,217.3Z" transform="translate(-6.24 -4.17)"/><path class="cls-6" d="M151.91,222l-5.26-3c-.42-.24-.37-.67.12-.95l5.21-3a1.83,1.83,0,0,1,1.64-.07l5.26,3c.42.24.37.67-.12.95l-5.21,3A1.77,1.77,0,0,1,151.91,222Z" transform="translate(-6.24 -4.17)"/><path class="cls-6" d="M160,226.67l-5.25-3c-.42-.24-.37-.66.12-.95l5.2-3a1.85,1.85,0,0,1,1.65-.07l5.25,3c.43.25.37.67-.11,1l-5.21,3A1.85,1.85,0,0,1,160,226.67Z" transform="translate(-6.24 -4.17)"/><path class="cls-6" d="M168.14,231.35l-5.26-3c-.42-.24-.37-.67.12-.95l5.21-3a1.83,1.83,0,0,1,1.64-.07l5.26,3c.42.24.37.67-.12.95l-5.21,3A1.8,1.8,0,0,1,168.14,231.35Z" transform="translate(-6.24 -4.17)"/><path class="cls-6" d="M176.25,236,171,233c-.42-.24-.37-.66.12-.95l5.2-3A1.85,1.85,0,0,1,178,229l5.25,3c.43.25.37.67-.11,1l-5.21,3A1.85,1.85,0,0,1,176.25,236Z" transform="translate(-6.24 -4.17)"/><path class="cls-6" d="M184.37,240.72l-5.26-3c-.42-.24-.37-.67.12-.95l5.21-3a1.82,1.82,0,0,1,1.65-.06l5.25,3c.42.24.37.67-.12,1l-5.2,3A1.82,1.82,0,0,1,184.37,240.72Z" transform="translate(-6.24 -4.17)"/><path class="cls-6" d="M192.48,245.41l-5.25-3c-.42-.25-.37-.67.12-.95l5.2-3a1.85,1.85,0,0,1,1.65-.07l5.26,3c.42.25.36.67-.12,1l-5.21,3A1.85,1.85,0,0,1,192.48,245.41Z" transform="translate(-6.24 -4.17)"/><path class="cls-6" d="M200.6,250.09l-5.26-3c-.42-.24-.36-.67.12-.95l5.21-3a1.82,1.82,0,0,1,1.65-.06l5.25,3c.42.24.37.67-.12,1l-5.2,3A1.82,1.82,0,0,1,200.6,250.09Z" transform="translate(-6.24 -4.17)"/><path class="cls-6" d="M208.71,254.78l-5.25-3c-.42-.25-.37-.67.12-.95l5.2-3a1.85,1.85,0,0,1,1.65-.07l5.26,3c.42.24.36.66-.12,1l-5.21,3A1.85,1.85,0,0,1,208.71,254.78Z" transform="translate(-6.24 -4.17)"/><path class="cls-6" d="M216.83,259.47l-5.26-3c-.42-.24-.36-.67.12-1l5.21-3a1.82,1.82,0,0,1,1.65-.06l5.25,3c.42.24.37.67-.12.95l-5.2,3A1.85,1.85,0,0,1,216.83,259.47Z" transform="translate(-6.24 -4.17)"/><path class="cls-2" d="M155.75,215.08l-5.25-3c-.43-.25-.37-.67.11-1l5.21-3a1.85,1.85,0,0,1,1.65-.07l5.25,3c.42.25.37.67-.12.95l-5.2,3A1.85,1.85,0,0,1,155.75,215.08Z" transform="translate(-6.24 -4.17)"/><path class="cls-2" d="M147.51,210.32l-5.25-3c-.42-.24-.37-.67.12-.95l5.2-3a1.82,1.82,0,0,1,1.65-.06l5.25,3c.43.24.37.67-.11.95l-5.21,3A1.82,1.82,0,0,1,147.51,210.32Z" transform="translate(-6.24 -4.17)"/><path class="cls-6" d="M139.26,205.56,128,199c-.43-.25-.37-.67.11-.95l5.21-3a1.85,1.85,0,0,1,1.65-.07l11.31,6.54c.43.24.37.67-.11,1l-5.21,3A1.85,1.85,0,0,1,139.26,205.56Z" transform="translate(-6.24 -4.17)"/><path class="cls-6" d="M145,199.77l-9.18-5.3c-.43-.25-.37-.67.11-.95l5.21-3a1.85,1.85,0,0,1,1.65-.07l9.18,5.3c.42.25.37.67-.12.95l-5.2,3A1.85,1.85,0,0,1,145,199.77Z" transform="translate(-6.24 -4.17)"/><path class="cls-2" d="M163.87,219.76l-5.26-3c-.42-.24-.37-.67.12-.95l5.21-3a1.8,1.8,0,0,1,1.64-.06l5.26,3c.42.24.37.67-.12.95l-5.21,3A1.8,1.8,0,0,1,163.87,219.76Z" transform="translate(-6.24 -4.17)"/><path class="cls-6" d="M172,224.45l-5.25-3c-.43-.25-.37-.67.11-.95l5.21-3a1.85,1.85,0,0,1,1.65-.07l5.25,3c.42.24.37.66-.12.95l-5.2,3A1.85,1.85,0,0,1,172,224.45Z" transform="translate(-6.24 -4.17)"/><path class="cls-6" d="M180.1,229.14l-5.26-3c-.42-.24-.37-.67.12-.95l5.21-3a1.8,1.8,0,0,1,1.64-.06l5.26,3c.42.24.37.67-.12.95l-5.21,3A1.83,1.83,0,0,1,180.1,229.14Z" transform="translate(-6.24 -4.17)"/><path class="cls-6" d="M188.21,233.82l-5.25-3c-.43-.25-.37-.67.11-.95l5.21-3a1.85,1.85,0,0,1,1.65-.07l5.25,3c.42.24.37.66-.12.95l-5.2,3A1.85,1.85,0,0,1,188.21,233.82Z" transform="translate(-6.24 -4.17)"/><path class="cls-6" d="M196.33,238.51l-5.26-3c-.42-.24-.37-.67.12-.95l5.21-3a1.77,1.77,0,0,1,1.64-.07l5.26,3c.42.24.37.67-.12,1l-5.21,3A1.83,1.83,0,0,1,196.33,238.51Z" transform="translate(-6.24 -4.17)"/><path class="cls-6" d="M204.44,243.19l-5.25-3c-.43-.25-.37-.67.11-.95l5.21-3a1.85,1.85,0,0,1,1.65-.07l5.25,3c.42.24.37.67-.12,1l-5.2,3A1.85,1.85,0,0,1,204.44,243.19Z" transform="translate(-6.24 -4.17)"/><path class="cls-6" d="M212.56,247.88l-5.26-3c-.42-.24-.37-.67.12-1l5.21-3a1.77,1.77,0,0,1,1.64-.07l5.26,3c.42.25.37.67-.12,1l-5.21,3A1.83,1.83,0,0,1,212.56,247.88Z" transform="translate(-6.24 -4.17)"/><path class="cls-6" d="M220.67,252.56l-5.25-3c-.42-.25-.37-.67.12-.95l5.2-3a1.85,1.85,0,0,1,1.65-.07l5.25,3c.43.24.37.67-.12,1l-5.2,3A1.82,1.82,0,0,1,220.67,252.56Z" transform="translate(-6.24 -4.17)"/><path class="cls-6" d="M228.79,257.25l-5.26-3c-.42-.24-.37-.67.12-1l5.21-3a1.8,1.8,0,0,1,1.64-.07l5.26,3c.42.25.37.67-.12.95l-5.21,3A1.83,1.83,0,0,1,228.79,257.25Z" transform="translate(-6.24 -4.17)"/><path class="cls-6" d="M243.21,265.58,231.75,259c-.42-.25-.37-.67.12-.95l5.2-3a1.85,1.85,0,0,1,1.65-.07l11.47,6.62c.42.25.36.67-.12.95l-5.21,3A1.85,1.85,0,0,1,243.21,265.58Z" transform="translate(-6.24 -4.17)"/><path class="cls-6" d="M259,256.45l-9.67-5.58c-.43-.25-.37-.67.11-1l5.21-3a1.85,1.85,0,0,1,1.65-.07l9.67,5.59c.43.24.37.67-.11.95l-5.21,3A1.82,1.82,0,0,1,259,256.45Z" transform="translate(-6.24 -4.17)"/><path class="cls-6" d="M178.08,218.85l-5.26-3c-.42-.24-.37-.67.12-.95l5.21-3a1.83,1.83,0,0,1,1.64-.07l5.26,3c.42.25.37.67-.12,1l-5.21,3A1.83,1.83,0,0,1,178.08,218.85Z" transform="translate(-6.24 -4.17)"/><path class="cls-6" d="M169.76,214.05l-5.26-3c-.42-.24-.36-.67.12-.95l5.21-3a1.79,1.79,0,0,1,1.65-.07l5.25,3c.42.24.37.67-.12.95l-5.2,3A1.85,1.85,0,0,1,169.76,214.05Z" transform="translate(-6.24 -4.17)"/><path class="cls-2" d="M161.44,209.24l-5.25-3c-.42-.24-.37-.67.12-1l5.2-3a1.82,1.82,0,0,1,1.65-.06l5.25,3c.43.24.37.67-.11.95l-5.21,3A1.82,1.82,0,0,1,161.44,209.24Z" transform="translate(-6.24 -4.17)"/><path class="cls-6" d="M153.13,204.44l-5.26-3c-.42-.25-.37-.67.12-.95l5.21-3a1.83,1.83,0,0,1,1.64-.07l5.26,3c.42.24.37.67-.12,1l-5.21,3A1.77,1.77,0,0,1,153.13,204.44Z" transform="translate(-6.24 -4.17)"/><path class="cls-6" d="M186.19,223.53l-5.25-3c-.42-.24-.37-.67.12-.95l5.2-3a1.85,1.85,0,0,1,1.65-.07l5.25,3c.43.24.37.67-.12,1l-5.2,3A1.79,1.79,0,0,1,186.19,223.53Z" transform="translate(-6.24 -4.17)"/><path class="cls-6" d="M194.31,228.22l-5.26-3c-.42-.24-.37-.66.12-1l5.21-3a1.83,1.83,0,0,1,1.64-.07l5.26,3c.42.25.37.67-.12.95l-5.21,3A1.83,1.83,0,0,1,194.31,228.22Z" transform="translate(-6.24 -4.17)"/><path class="cls-6" d="M202.42,232.9l-5.25-3c-.42-.24-.37-.67.12-1l5.2-3a1.82,1.82,0,0,1,1.65-.06l5.25,3c.43.24.37.67-.11,1l-5.21,3A1.82,1.82,0,0,1,202.42,232.9Z" transform="translate(-6.24 -4.17)"/><path class="cls-6" d="M210.54,237.59l-5.26-3c-.42-.25-.37-.67.12-1l5.21-3a1.83,1.83,0,0,1,1.64-.07l5.26,3c.42.25.37.67-.12.95l-5.21,3A1.83,1.83,0,0,1,210.54,237.59Z" transform="translate(-6.24 -4.17)"/><path class="cls-6" d="M218.65,242.27l-5.25-3c-.42-.24-.37-.67.12-1l5.2-3a1.82,1.82,0,0,1,1.65-.06l5.25,3c.43.24.37.67-.11.95l-5.21,3A1.82,1.82,0,0,1,218.65,242.27Z" transform="translate(-6.24 -4.17)"/><path class="cls-6" d="M226.77,247l-5.26-3c-.42-.25-.37-.67.12-1l5.21-3a1.83,1.83,0,0,1,1.64-.07l5.26,3c.42.24.37.66-.12.95l-5.21,3A1.83,1.83,0,0,1,226.77,247Z" transform="translate(-6.24 -4.17)"/><path class="cls-6" d="M234.88,251.65l-5.25-3c-.42-.24-.37-.67.12-1l5.2-3a1.82,1.82,0,0,1,1.65-.06l5.25,3c.43.24.37.67-.11.95l-5.21,3A1.85,1.85,0,0,1,234.88,251.65Z" transform="translate(-6.24 -4.17)"/><path class="cls-6" d="M243,256.33l-5.26-3c-.42-.25-.37-.67.12-1l5.21-3a1.83,1.83,0,0,1,1.64-.07l5.26,3c.42.24.37.66-.12.95l-5.21,3A1.83,1.83,0,0,1,243,256.33Z" transform="translate(-6.24 -4.17)"/><path class="cls-6" d="M251.11,261l-5.25-3c-.42-.24-.37-.67.12-1l5.2-3a1.79,1.79,0,0,1,1.65-.07l5.26,3c.42.24.36.67-.12.95l-5.21,3A1.85,1.85,0,0,1,251.11,261Z" transform="translate(-6.24 -4.17)"/><path class="cls-6" d="M173.8,207.26l-5.25-3c-.42-.24-.37-.66.12-.95l5.2-3a1.85,1.85,0,0,1,1.65-.07l5.25,3c.43.25.37.67-.11,1l-5.21,3A1.85,1.85,0,0,1,173.8,207.26Z" transform="translate(-6.24 -4.17)"/><path class="cls-6" d="M165.73,202.6l-5.26-3c-.42-.24-.37-.67.12-.95l5.21-3a1.8,1.8,0,0,1,1.64-.07l5.26,3c.42.25.37.67-.12,1l-5.21,3A1.83,1.83,0,0,1,165.73,202.6Z" transform="translate(-6.24 -4.17)"/><path class="cls-6" d="M157.65,197.93l-5.25-3c-.42-.24-.37-.67.12-1l5.2-3a1.82,1.82,0,0,1,1.65-.06l5.26,3c.42.24.36.67-.12,1l-5.21,3A1.82,1.82,0,0,1,157.65,197.93Z" transform="translate(-6.24 -4.17)"/><path class="cls-6" d="M149.58,193.27l-5.26-3c-.42-.24-.36-.67.12-1l5.21-3a1.85,1.85,0,0,1,1.65-.07l5.25,3c.42.24.37.67-.12.95l-5.2,3A1.79,1.79,0,0,1,149.58,193.27Z" transform="translate(-6.24 -4.17)"/><path class="cls-6" d="M157.88,188.48l-5.25-3c-.42-.24-.37-.66.12-.95l1.72-1a1.83,1.83,0,0,1,1.64-.07l5.26,3c.42.24.37.67-.12.95l-1.72,1A1.85,1.85,0,0,1,157.88,188.48Z" transform="translate(-6.24 -4.17)"/><path class="cls-6" d="M168.42,194.56l-5.25-3c-.43-.24-.37-.67.11-.95l1.72-1a1.82,1.82,0,0,1,1.65-.06l5.26,3c.42.24.36.67-.12.95l-1.72,1A1.79,1.79,0,0,1,168.42,194.56Z" transform="translate(-6.24 -4.17)"/><path class="cls-6" d="M176.46,199.21l-5.25-3c-.43-.24-.37-.67.11-.95l1.73-1a1.83,1.83,0,0,1,1.64-.07l5.26,3c.42.25.37.67-.12.95l-1.72,1A1.85,1.85,0,0,1,176.46,199.21Z" transform="translate(-6.24 -4.17)"/><path class="cls-6" d="M184.5,203.85l-5.25-3c-.42-.24-.37-.67.12-.95l1.72-1a1.83,1.83,0,0,1,1.64-.07l5.26,3c.42.24.37.66-.12.95l-1.72,1A1.85,1.85,0,0,1,184.5,203.85Z" transform="translate(-6.24 -4.17)"/><path class="cls-6" d="M192.54,208.49l-5.25-3c-.42-.25-.37-.67.12-1l1.72-1a1.83,1.83,0,0,1,1.64-.07l5.26,3c.42.24.37.67-.12,1l-1.72,1A1.85,1.85,0,0,1,192.54,208.49Z" transform="translate(-6.24 -4.17)"/><path class="cls-6" d="M237.44,234.41l-5.26-3c-.42-.25-.37-.67.12-.95l1.72-1a1.85,1.85,0,0,1,1.65-.07l5.25,3c.42.24.37.67-.12.95l-1.72,1A1.83,1.83,0,0,1,237.44,234.41Z" transform="translate(-6.24 -4.17)"/><path class="cls-6" d="M245.48,239.05l-5.26-3c-.42-.25-.37-.67.12-1l1.72-1a1.82,1.82,0,0,1,1.65-.06l5.25,3c.43.24.37.67-.11,1l-1.73,1A1.77,1.77,0,0,1,245.48,239.05Z" transform="translate(-6.24 -4.17)"/><path class="cls-6" d="M253.52,243.69l-5.26-3c-.42-.24-.36-.67.12-.95l1.72-1a1.82,1.82,0,0,1,1.65-.07l5.25,3c.43.25.37.67-.11.95l-1.72,1A1.82,1.82,0,0,1,253.52,243.69Z" transform="translate(-6.24 -4.17)"/><path class="cls-6" d="M261.56,248.34l-5.25-3c-.43-.24-.37-.67.11-1l1.72-1a1.85,1.85,0,0,1,1.65-.07l5.26,3c.42.25.36.67-.12,1l-1.72,1A1.85,1.85,0,0,1,261.56,248.34Z" transform="translate(-6.24 -4.17)"/><path class="cls-6" d="M181.92,211.94l-5.26-3c-.42-.24-.37-.67.12-.95l5.21-3a1.82,1.82,0,0,1,1.65-.06l5.25,3c.42.24.37.67-.12,1l-5.2,3A1.82,1.82,0,0,1,181.92,211.94Z" transform="translate(-6.24 -4.17)"/><path class="cls-6" d="M190,216.63l-5.25-3c-.42-.25-.37-.67.12-.95l5.2-3a1.85,1.85,0,0,1,1.65-.07l5.26,3c.42.25.36.67-.12,1l-5.21,3A1.85,1.85,0,0,1,190,216.63Z" transform="translate(-6.24 -4.17)"/><path class="cls-6" d="M198.15,221.31l-5.26-3c-.42-.24-.36-.67.12-.95l5.21-3a1.82,1.82,0,0,1,1.65-.06l5.25,3c.42.24.37.67-.12,1l-5.2,3A1.82,1.82,0,0,1,198.15,221.31Z" transform="translate(-6.24 -4.17)"/><path class="cls-6" d="M206.26,226,201,223c-.42-.25-.37-.67.12-.95l5.2-3a1.85,1.85,0,0,1,1.65-.07l5.26,3c.42.24.36.66-.12,1l-5.21,3A1.85,1.85,0,0,1,206.26,226Z" transform="translate(-6.24 -4.17)"/><path class="cls-6" d="M214.38,230.69l-5.26-3c-.42-.24-.36-.67.12-1l5.21-3a1.79,1.79,0,0,1,1.65-.07l5.25,3c.42.24.37.67-.12,1l-5.2,3A1.85,1.85,0,0,1,214.38,230.69Z" transform="translate(-6.24 -4.17)"/><path class="cls-6" d="M222.5,235.37l-5.26-3c-.42-.25-.37-.67.12-1l5.21-3a1.83,1.83,0,0,1,1.64-.07l5.26,3c.42.24.37.67-.12,1l-5.21,3A1.83,1.83,0,0,1,222.5,235.37Z" transform="translate(-6.24 -4.17)"/><path class="cls-6" d="M230.61,240.06l-5.25-3c-.43-.24-.37-.67.11-1l5.21-3a1.79,1.79,0,0,1,1.65-.07l5.25,3c.42.25.37.67-.12.95l-5.2,3A1.85,1.85,0,0,1,230.61,240.06Z" transform="translate(-6.24 -4.17)"/><path class="cls-6" d="M238.73,244.74l-5.26-3c-.42-.25-.37-.67.12-1l5.21-3a1.83,1.83,0,0,1,1.64-.07l5.26,3c.42.24.37.67-.12.95l-5.21,3A1.8,1.8,0,0,1,238.73,244.74Z" transform="translate(-6.24 -4.17)"/><path class="cls-6" d="M246.84,249.43l-5.25-3c-.43-.24-.37-.67.11-.95l5.21-3a1.82,1.82,0,0,1,1.65-.07l5.25,3c.42.25.37.67-.12.95l-5.2,3A1.85,1.85,0,0,1,246.84,249.43Z" transform="translate(-6.24 -4.17)"/><path class="cls-6" d="M135.52,212.52l-15.47-8.93c-.43-.25-.37-.67.11-1l5.21-3a1.85,1.85,0,0,1,1.65-.07l15.47,8.94c.43.24.37.67-.11.95l-5.21,3A1.79,1.79,0,0,1,135.52,212.52Z" transform="translate(-6.24 -4.17)"/><path class="cls-6" d="M235.22,270.08l-15.48-8.93c-.42-.25-.36-.67.12-.95l5.21-3a1.85,1.85,0,0,1,1.65-.07l15.47,8.94c.42.24.37.67-.12.95l-5.2,3A1.79,1.79,0,0,1,235.22,270.08Z" transform="translate(-6.24 -4.17)"/><path class="cls-6" d="M202.77,261.7l-5.26-3c-.42-.24-.37-.67.12-1l6.2-3.58a1.85,1.85,0,0,1,1.65-.07l5.25,3c.43.24.37.66-.11.95l-6.21,3.58A1.83,1.83,0,0,1,202.77,261.7Z" transform="translate(-6.24 -4.17)"/><path class="cls-6" d="M143.83,227.67l-8.4-4.85c-.42-.25-.37-.67.12-.95l6.2-3.58a1.82,1.82,0,0,1,1.65-.07l8.4,4.85c.42.24.37.67-.12,1l-6.2,3.58A1.85,1.85,0,0,1,143.83,227.67Z" transform="translate(-6.24 -4.17)"/><path class="cls-6" d="M195,257.18l-8.41-4.85c-.42-.24-.37-.67.12-1l6.2-3.58a1.85,1.85,0,0,1,1.65-.07l8.4,4.85c.43.24.37.67-.11.95l-6.21,3.58A1.83,1.83,0,0,1,195,257.18Z" transform="translate(-6.24 -4.17)"/><path class="cls-6" d="M155.54,234.43l-8.4-4.85c-.42-.25-.37-.67.12-1l6.2-3.58a1.8,1.8,0,0,1,1.64-.07l8.41,4.85c.42.24.37.67-.12.95l-6.2,3.58A1.85,1.85,0,0,1,155.54,234.43Z" transform="translate(-6.24 -4.17)"/><path class="cls-6" d="M155.16,225l36.54,21.1a.5.5,0,0,1,0,.94l-6.32,3.66a1.84,1.84,0,0,1-1.65,0l-36.54-21.1Z" transform="translate(-6.24 -4.17)"/><path class="cls-6" d="M225.45,270.19l5.85,3.38c.35.2.3.55-.1.78l-2.53,1.46a1.5,1.5,0,0,1-1.35.06l-5.86-3.38c-.34-.2-.3-.55.1-.78l2.54-1.46A1.5,1.5,0,0,1,225.45,270.19Z" transform="translate(-6.24 -4.17)"/><path class="cls-6" d="M217.26,265.47l5.86,3.38c.34.2.3.54-.1.77l-2.54,1.47a1.5,1.5,0,0,1-1.35.06l-5.85-3.38c-.34-.2-.3-.55.1-.78l2.54-1.47A1.48,1.48,0,0,1,217.26,265.47Z" transform="translate(-6.24 -4.17)"/><path class="cls-6" d="M209.15,260.78l5.85,3.38c.35.2.31.55-.09.78l-2.54,1.46a1.5,1.5,0,0,1-1.35.06l-5.85-3.38c-.35-.2-.31-.55.09-.78l2.54-1.46A1.5,1.5,0,0,1,209.15,260.78Z" transform="translate(-6.24 -4.17)"/><path class="cls-6" d="M221.75,262.88l5.85,3.38c.35.2.3.55-.1.78L225,268.5a1.5,1.5,0,0,1-1.35.06l-5.86-3.38c-.34-.2-.3-.55.1-.78l2.54-1.47A1.5,1.5,0,0,1,221.75,262.88Z" transform="translate(-6.24 -4.17)"/><path class="cls-3" d="M211,119.26l-7.76-4.48a2.22,2.22,0,0,1-.95-2.3h0a1.08,1.08,0,0,1,1.66-.8l7.77,4.49a2.23,2.23,0,0,1,.95,2.3h0A1.09,1.09,0,0,1,211,119.26Z" transform="translate(-6.24 -4.17)"/><path class="cls-3" d="M229.49,129.94,218,123.33a2.24,2.24,0,0,1-.95-2.3h0a1.09,1.09,0,0,1,1.67-.8l11.45,6.62a2.2,2.2,0,0,1,.94,2.3h0A1.08,1.08,0,0,1,229.49,129.94Z" transform="translate(-6.24 -4.17)"/><path class="cls-3" d="M197.46,155.51,189.69,151a2.23,2.23,0,0,1-.95-2.3h0a1.09,1.09,0,0,1,1.67-.79l7.76,4.49a2.2,2.2,0,0,1,1,2.29h0A1.08,1.08,0,0,1,197.46,155.51Z" transform="translate(-6.24 -4.17)"/><path class="cls-3" d="M214,165l-11.45-6.61a2.22,2.22,0,0,1-.95-2.3h0a1.08,1.08,0,0,1,1.66-.8l11.45,6.62a2.21,2.21,0,0,1,1,2.3h0A1.08,1.08,0,0,1,214,165Z" transform="translate(-6.24 -4.17)"/><path class="cls-3" d="M188.09,113.38l-4.86-2.8a2.22,2.22,0,0,1-.94-2.3h0a1.08,1.08,0,0,1,1.66-.8l4.85,2.8a2.24,2.24,0,0,1,.95,2.3h0A1.08,1.08,0,0,1,188.09,113.38Z" transform="translate(-6.24 -4.17)"/><path class="cls-3" d="M203,129.35l-14.83-8.55a2.22,2.22,0,0,1-.94-2.3h0a1.08,1.08,0,0,1,1.66-.8l14.82,8.56a2.22,2.22,0,0,1,.95,2.3h0A1.08,1.08,0,0,1,203,129.35Z" transform="translate(-6.24 -4.17)"/><path class="cls-3" d="M190.07,136.56l-4.85-2.8a2.22,2.22,0,0,1-.94-2.3h0a1.08,1.08,0,0,1,1.66-.8l4.85,2.8a2.24,2.24,0,0,1,1,2.3h0A1.09,1.09,0,0,1,190.07,136.56Z" transform="translate(-6.24 -4.17)"/><path class="cls-3" d="M216.44,181.16l-12.95-7.48a2.22,2.22,0,0,1-1-2.3h0a1.08,1.08,0,0,1,1.66-.8l13,7.48a2.22,2.22,0,0,1,.94,2.3h0A1.08,1.08,0,0,1,216.44,181.16Z" transform="translate(-6.24 -4.17)"/><path class="cls-3" d="M185.35,148.51l-3.12-1.79a2.24,2.24,0,0,1-.95-2.3h0a1.09,1.09,0,0,1,1.67-.8l3.11,1.8a2.24,2.24,0,0,1,.95,2.3h0A1.07,1.07,0,0,1,185.35,148.51Z" transform="translate(-6.24 -4.17)"/><path class="cls-3" d="M183.11,161.91l-3.87-2.23a2.22,2.22,0,0,1-1-2.3h0a1.08,1.08,0,0,1,1.66-.8l3.87,2.24a2.21,2.21,0,0,1,1,2.3h0A1.08,1.08,0,0,1,183.11,161.91Z" transform="translate(-6.24 -4.17)"/><path class="cls-3" d="M198.15,170.6,188,164.71a2.21,2.21,0,0,1-1-2.3h0a1.08,1.08,0,0,1,1.66-.79l10.19,5.88a2.22,2.22,0,0,1,.95,2.3h0A1.08,1.08,0,0,1,198.15,170.6Z" transform="translate(-6.24 -4.17)"/><path class="cls-3" d="M185.07,170.39l-7.33-4.23a2.22,2.22,0,0,1-.94-2.3h0a1.07,1.07,0,0,1,1.66-.79l7.33,4.23a2.23,2.23,0,0,1,1,2.3h0A1.09,1.09,0,0,1,185.07,170.39Z" transform="translate(-6.24 -4.17)"/><path class="cls-3" d="M227.56,187.61l-4.71-2.72a2.22,2.22,0,0,1-.94-2.3h0a1.08,1.08,0,0,1,1.66-.79l4.7,2.72a2.2,2.2,0,0,1,.95,2.29h0A1.08,1.08,0,0,1,227.56,187.61Z" transform="translate(-6.24 -4.17)"/><path class="cls-3" d="M208.12,147l-13-7.49a2.22,2.22,0,0,1-.95-2.29h0a1.09,1.09,0,0,1,1.67-.8l13,7.48a2.22,2.22,0,0,1,.95,2.3h0A1.08,1.08,0,0,1,208.12,147Z" transform="translate(-6.24 -4.17)"/><path class="cls-3" d="M209.3,140.31l-22.58-13a2.22,2.22,0,0,1-.95-2.3h0a1.08,1.08,0,0,1,1.66-.8l22.59,13a2.22,2.22,0,0,1,.94,2.3h0A1.07,1.07,0,0,1,209.3,140.31Z" transform="translate(-6.24 -4.17)"/><path class="cls-3" d="M196.68,147.72l-13-7.48a2.22,2.22,0,0,1-.95-2.3h0a1.08,1.08,0,0,1,1.66-.8l13,7.48a2.24,2.24,0,0,1,.95,2.3h0A1.09,1.09,0,0,1,196.68,147.72Z" transform="translate(-6.24 -4.17)"/><path class="cls-3" d="M218,152.65l-4.71-2.72a2.21,2.21,0,0,1-1-2.3h0a1.08,1.08,0,0,1,1.66-.79l4.71,2.72a2.21,2.21,0,0,1,1,2.3h0A1.08,1.08,0,0,1,218,152.65Z" transform="translate(-6.24 -4.17)"/><path class="cls-3" d="M264.42,150.1,236.54,134a2.22,2.22,0,0,1-.95-2.3h0a1.07,1.07,0,0,1,1.66-.79L265.13,147a2.22,2.22,0,0,1,.95,2.3h0A1.08,1.08,0,0,1,264.42,150.1Z" transform="translate(-6.24 -4.17)"/><path class="cls-3" d="M196.31,162.19l-15.57-9a2.21,2.21,0,0,1-1-2.3h0a1.08,1.08,0,0,1,1.66-.8l15.57,9a2.19,2.19,0,0,1,.95,2.3h0A1.08,1.08,0,0,1,196.31,162.19Z" transform="translate(-6.24 -4.17)"/><path class="cls-3" d="M196.18,110.71l-11.45-6.61a2.24,2.24,0,0,1-.95-2.3h0a1.08,1.08,0,0,1,1.66-.8l11.45,6.61a2.21,2.21,0,0,1,1,2.3h0A1.08,1.08,0,0,1,196.18,110.71Z" transform="translate(-6.24 -4.17)"/><path class="cls-3" d="M183,176.56l-13.26-7.66a2.24,2.24,0,0,1-1-2.3h0a1.09,1.09,0,0,1,1.67-.79l13.26,7.65a2.24,2.24,0,0,1,.95,2.3h0A1.09,1.09,0,0,1,183,176.56Z" transform="translate(-6.24 -4.17)"/><path class="cls-3" d="M272.78,204.51,265,200a2.22,2.22,0,0,1-.95-2.3h0a1.08,1.08,0,0,1,1.66-.8l7.77,4.49a2.23,2.23,0,0,1,.95,2.3h0A1.09,1.09,0,0,1,272.78,204.51Z" transform="translate(-6.24 -4.17)"/><path class="cls-3" d="M278.36,178.35l-14.82-8.55a2.24,2.24,0,0,1-1-2.3h0a1.09,1.09,0,0,1,1.67-.8l14.82,8.56a2.24,2.24,0,0,1,.95,2.3h0A1.09,1.09,0,0,1,278.36,178.35Z" transform="translate(-6.24 -4.17)"/><path class="cls-3" d="M265.4,185.56l-4.85-2.8a2.24,2.24,0,0,1-.95-2.3h0a1.08,1.08,0,0,1,1.66-.8l4.86,2.8a2.22,2.22,0,0,1,.94,2.3h0A1.08,1.08,0,0,1,265.4,185.56Z" transform="translate(-6.24 -4.17)"/><path class="cls-3" d="M260.67,197.52l-3.11-1.8a2.22,2.22,0,0,1-.95-2.3h0a1.08,1.08,0,0,1,1.66-.8l3.12,1.8a2.22,2.22,0,0,1,.94,2.3h0A1.08,1.08,0,0,1,260.67,197.52Z" transform="translate(-6.24 -4.17)"/><path class="cls-3" d="M283.45,196l-13-7.48a2.24,2.24,0,0,1-.95-2.3h0a1.08,1.08,0,0,1,1.66-.8l13,7.48a2.22,2.22,0,0,1,.95,2.3h0A1.08,1.08,0,0,1,283.45,196Z" transform="translate(-6.24 -4.17)"/><path class="cls-3" d="M284.63,189.32l-22.58-13a2.22,2.22,0,0,1-.95-2.3h0a1.08,1.08,0,0,1,1.66-.8l22.58,13a2.22,2.22,0,0,1,1,2.3h0A1.08,1.08,0,0,1,284.63,189.32Z" transform="translate(-6.24 -4.17)"/><path class="cls-3" d="M272,196.72l-13-7.48a2.22,2.22,0,0,1-.94-2.3h0a1.08,1.08,0,0,1,1.66-.8l13,7.49a2.2,2.2,0,0,1,.94,2.3h0A1.08,1.08,0,0,1,272,196.72Z" transform="translate(-6.24 -4.17)"/><path class="cls-3" d="M271.64,211.19l-15.58-9a2.22,2.22,0,0,1-.94-2.3h0a1.07,1.07,0,0,1,1.66-.79l15.57,9a2.21,2.21,0,0,1,.95,2.3h0A1.08,1.08,0,0,1,271.64,211.19Z" transform="translate(-6.24 -4.17)"/><polygon class="cls-1" points="300.26 113.72 312.5 108.85 309.74 90.85 303.8 96.11 300.26 113.72"/><path class="cls-1" d="M224.59,34l29.57-11.82L248.7,34s-15.78,3.65-15.78,3.65Z" transform="translate(-6.24 -4.17)"/><path class="cls-1" d="M317.31,82.94a12.91,12.91,0,0,0-4.79-1.65c1.63-10.88-3.07-22.37-12.09-27.58A19.62,19.62,0,0,0,292,51.05c3.53-13.19-1.93-28.18-13.06-34.61a20.5,20.5,0,0,0-17.63-1.69h0l-.27.1-.43.17-9.26,3.65L255,21.84c-5,1.58-9.34,5.63-11.63,11.61-4.21,11,.11,24.48,9.67,30l56.81,47.88c7.18,4.15,11.53,2.42,14.7-5.87S324.49,87.08,317.31,82.94Z" transform="translate(-6.24 -4.17)"/><path class="cls-1" d="M246,28.59l31.87-12.73a20.33,20.33,0,0,0-16.56-1.11h0l-.27.1-.43.17-9.26,3.65L255,21.84A17.68,17.68,0,0,0,246,28.59Z" transform="translate(-6.24 -4.17)"/><path class="cls-1" d="M290.34,76.37,311.39,68a25.38,25.38,0,0,0-11.08-14.33,20.06,20.06,0,0,0-2.12-1.07l-29,11.58Z" transform="translate(-6.24 -4.17)"/><path class="cls-3" d="M257.79,20l9,5.21L282.5,19a26.48,26.48,0,0,0-3.58-2.52A22.52,22.52,0,0,0,272.8,14Z" transform="translate(-6.24 -4.17)"/><path class="cls-3" d="M310,64.47l-15.15,6,4.47,6.28,13-5.17A29.26,29.26,0,0,0,310,64.47Z" transform="translate(-6.24 -4.17)"/><path class="cls-3" d="M307.18,86.92a12.91,12.91,0,0,0-4.79-1.65c1.63-10.88-3.19-22.44-12.21-27.65A19,19,0,0,0,281.85,55c3.53-13.19-1.93-28.17-13.06-34.6-12-6.92-26-1.31-31.23,12.52-.18.46-.35.94-.5,1.41-9.13-4.06-19.23.52-23.19,10.89-4.22,11,.11,24.47,9.66,30L295.71,117c7.18,4.14,15.56.78,18.73-7.51S314.36,91.06,307.18,86.92Z" transform="translate(-6.24 -4.17)"/><path class="cls-7" d="M308.67,86.08a13.07,13.07,0,0,0-4.79-1.64c1.63-10.88-3.19-22.44-12.21-27.65a19,19,0,0,0-8.33-2.59C286.87,41,281.41,26,270.28,19.59a20.38,20.38,0,0,0-21.32.1,20.37,20.37,0,0,1,19.83.74c11.13,6.43,16.59,21.41,13.06,34.6a19,19,0,0,1,8.33,2.59c9,5.21,13.84,16.77,12.21,27.65a13.09,13.09,0,0,1,4.79,1.65c7.18,4.14,10.43,14.23,7.26,22.52a14.85,14.85,0,0,1-5.64,7.24,14.45,14.45,0,0,0,7.13-8.07C319.1,100.31,315.85,90.23,308.67,86.08Z" transform="translate(-6.24 -4.17)"/><path class="cls-7" d="M237.06,34.36c.13-.41.28-.82.43-1.24a16.06,16.06,0,0,0-14.33,1.47A16.13,16.13,0,0,1,237.06,34.36Z" transform="translate(-6.24 -4.17)"/><path class="cls-2" d="M228.9,36.52a9.49,9.49,0,0,0-3.8.77c-2.87,1.25-5.35,4.15-6.8,8-3.71,9.7.25,22,8.65,26.85l72.18,41.7a7.52,7.52,0,0,0,6.44.91c1.82-.73,3.44-2.65,4.44-5.27,2.68-7-.18-15.88-6.24-19.38a9.27,9.27,0,0,0-3.43-1.2l-2.93-.4.37-2.51c1.51-10-3.13-20.63-11-25.19a15.4,15.4,0,0,0-6.64-2.11l-3.64-.23.82-3.05c3.24-12.09-2-26.06-11.93-31.8-4.62-2.67-9.48-3.21-13.7-1.52S244,27.61,242,33c-.16.41-.31.83-.44,1.25l-2,6-5.66-2.51A12.38,12.38,0,0,0,228.9,36.52Z" transform="translate(-6.24 -4.17)"/><polygon class="cls-1" points="258.03 78.74 260.52 77.74 258.58 76.25 258.03 78.74"/><polygon class="cls-1" points="256.79 51.8 259.2 50.82 259.03 51.83 256.79 51.8"/><polygon class="cls-1" points="265.84 72.44 268.36 71.43 264.68 67.73 265.84 72.44"/><path class="cls-1" d="M266.1,81.84l-9.63-5.56a1.57,1.57,0,0,1-.66-1.59l2.31-10.93,11.41,6.59-2.31,10.93A.73.73,0,0,1,266.1,81.84Z" transform="translate(-6.24 -4.17)"/><path class="cls-1" d="M265.42,55l-13,6.56c-.55.28-.37,1.32.3,1.71l10.63,6.13L274,75.54c.67.38,1.21-.24.88-1L267.11,56C266.78,55.18,266,54.72,265.42,55Z" transform="translate(-6.24 -4.17)"/><path class="cls-3" d="M263.58,82.86,254,77.3a1.55,1.55,0,0,1-.66-1.59l2.31-10.93L267,71.37,264.69,82.3A.72.72,0,0,1,263.58,82.86Z" transform="translate(-6.24 -4.17)"/><path class="cls-3" d="M262.89,56l-13,6.56c-.56.28-.37,1.32.3,1.71l10.62,6.13,10.63,6.13c.67.39,1.2-.23.88-1L264.59,57C264.25,56.2,263.45,55.74,262.89,56Z" transform="translate(-6.24 -4.17)"/><path class="cls-4" d="M19.24,300.8l38.51-22.13c3-1.74,8.34-1.51,11.83.52l79,45.81c3.5,2,3.87,5.09.83,6.84L110.89,354c-3,1.75-8.34,1.52-11.84-.51l-79-45.82C16.58,305.6,16.2,302.54,19.24,300.8Z" transform="translate(-6.24 -4.17)"/><path class="cls-2" d="M112.42,346.65,151.85,324a4.54,4.54,0,0,0,2.64-3.7h0l0-6.79-1.27,2.18a9.67,9.67,0,0,0-2.47-2L71.37,267.62c-4.5-2.61-11.31-2.91-15.21-.66L16.72,289.61a7.37,7.37,0,0,0-1.1.78l-1.51-1.94,0,6.39h0c-.06,1.76,1.2,3.63,3.71,5.09L97.2,346C101.7,348.6,108.51,348.9,112.42,346.65Z" transform="translate(-6.24 -4.17)"/><path class="cls-3" d="M16.75,284.57l39.43-22.66c3.91-2.24,10.72-2,15.22.66l79.41,46.08c4.5,2.61,5,6.54,1.08,8.79l-39.44,22.65c-3.9,2.25-10.72,2-15.22-.66L17.82,293.36C13.32,290.75,12.84,286.81,16.75,284.57Z" transform="translate(-6.24 -4.17)"/><path class="cls-7" d="M151.89,317.44l-39.44,22.65c-3.9,2.25-10.72,2-15.22-.66L17.82,293.36c-2.18-1.27-3.4-2.84-3.66-4.38-.31,1.88.93,4,3.66,5.54l79.41,46.07c4.5,2.61,11.32,2.91,15.22.67l39.44-22.66c2-1.16,2.85-2.77,2.58-4.41A4.79,4.79,0,0,1,151.89,317.44Z" transform="translate(-6.24 -4.17)"/><path class="cls-7" d="M19.24,285.48l38.51-22.12c3-1.75,8.34-1.52,11.83.51l79,45.82c3.5,2,3.87,5.09.83,6.83l-38.5,22.13c-3,1.74-8.34,1.51-11.84-.52l-79-45.81C16.58,290.29,16.2,287.23,19.24,285.48Z" transform="translate(-6.24 -4.17)"/><path class="cls-4" d="M81.28,293.53,67,285.3c-.53-.3-.46-.84.15-1.19h0a2.31,2.31,0,0,1,2.06-.09l14.25,8.23c.53.31.47.84-.14,1.2h0A2.3,2.3,0,0,1,81.28,293.53Z" transform="translate(-6.24 -4.17)"/><path class="cls-4" d="M67.77,290.74l-5.08-2.93c-.53-.31-.47-.84.14-1.19h0a2.3,2.3,0,0,1,2.07-.09L70,289.47c.53.3.46.84-.15,1.19h0A2.28,2.28,0,0,1,67.77,290.74Z" transform="translate(-6.24 -4.17)"/><path class="cls-2" d="M76.31,295.67l-5.09-2.94c-.53-.3-.46-.83.15-1.19h0a2.28,2.28,0,0,1,2.06-.08l5.09,2.93c.52.31.46.84-.15,1.2h0A2.28,2.28,0,0,1,76.31,295.67Z" transform="translate(-6.24 -4.17)"/><path class="cls-4" d="M93.56,305.63l-13.81-8c-.52-.3-.46-.84.15-1.19h0a2.28,2.28,0,0,1,2.06-.08l13.81,8c.53.3.46.84-.15,1.19h0A2.28,2.28,0,0,1,93.56,305.63Z" transform="translate(-6.24 -4.17)"/><path class="cls-4" d="M76.16,300.6,58.34,290.31c-.52-.3-.46-.83.15-1.19h0a2.28,2.28,0,0,1,2.06-.08l17.82,10.28c.52.31.46.84-.15,1.19h0A2.31,2.31,0,0,1,76.16,300.6Z" transform="translate(-6.24 -4.17)"/><path class="cls-2" d="M97.58,318,54,292.82c-.53-.3-.46-.84.15-1.19h0a2.31,2.31,0,0,1,2.06-.09L99.79,316.7c.53.31.46.84-.15,1.2h0A2.28,2.28,0,0,1,97.58,318Z" transform="translate(-6.24 -4.17)"/><path class="cls-4" d="M110.29,310.28,85.22,295.8c-.53-.3-.46-.83.15-1.19h0a2.28,2.28,0,0,1,2.06-.08L112.5,309c.53.31.46.84-.15,1.19h0A2.28,2.28,0,0,1,110.29,310.28Z" transform="translate(-6.24 -4.17)"/><path class="cls-3" d="M79.58,333.92l-3.67-2.12a1.58,1.58,0,0,1-.66-1.26h0c0-.49.3-.71.66-.5l3.67,2.11a1.62,1.62,0,0,1,.66,1.27h0C80.24,333.9,79.94,334.13,79.58,333.92Z" transform="translate(-6.24 -4.17)"/><path class="cls-3" d="M85.35,337.26l-3.67-2.12a1.58,1.58,0,0,1-.66-1.26h0c0-.49.3-.71.66-.5l3.67,2.12a1.58,1.58,0,0,1,.66,1.26h0C86,337.24,85.71,337.47,85.35,337.26Z" transform="translate(-6.24 -4.17)"/></svg>