<svg id="Ñëîé_1" data-name="Ñëîé 1" xmlns="http://www.w3.org/2000/svg" viewBox="0 0 287.55 294.25"><defs><style>.cls-1{fill:#c4d9e8;opacity:0.5;}.cls-2{fill:#396caa;}.cls-3{fill:#5793ce;}.cls-4{fill:#d4ecff;}.cls-5{fill:#721bd5;}.cls-6{fill:#983be9;}.cls-7{fill:#b45ef4;}.cls-8{fill:#7e23dc;}.cls-9{fill:#8a2ae3;}.cls-10{fill:#6614cf;}.cls-11{fill:#ff2c9c;}.cls-12{fill:#c285f9;}.cls-13{fill:#173d7a;}.cls-14{fill:#b2d3ea;}.cls-15{fill:#274f89;}.cls-16{fill:#ffc2b0;}.cls-17{fill:#fff;}</style></defs><path class="cls-1" d="M232.88,217.88l-35.17-20.31c-2.16-1.24-1.89-3.42.6-4.86l34-19.61c2.5-1.44,6.27-1.59,8.43-.35l35.17,20.31c2.16,1.25,1.89,3.43-.61,4.86l-34,19.61C238.81,219,235,219.13,232.88,217.88Z" transform="translate(0 0.62)"/><path class="cls-2" d="M287.54,177.59h0V162.4l-34.08,0-11.78-6.8c-2.7-1.56-7.42-1.37-10.54.44l-11,6.34-34.11,0V178a3.05,3.05,0,0,0,1.81,2.83l44,25.42c2.71,1.57,7.43,1.37,10.55-.43L285,181.23C286.77,180.19,287.64,178.85,287.54,177.59Z" transform="translate(0 0.62)"/><path class="cls-2" d="M236.79,154.53a12.13,12.13,0,0,0-5.65,1.49l-11,6.34-34.11,0V178a3.05,3.05,0,0,0,1.81,2.83l44,25.42a9.61,9.61,0,0,0,4.9,1.05Z" transform="translate(0 0.62)"/><path class="cls-3" d="M189.9,162.34H186V178a3.05,3.05,0,0,0,1.81,2.83L189.9,182Z" transform="translate(0 0.62)"/><path class="cls-3" d="M232.57,206.56a12,12,0,0,0,8.43-.1V188.71h-8.43Z" transform="translate(0 0.62)"/><path class="cls-4" d="M231.89,190.65l-44-25.43c-2.7-1.56-2.36-4.28.76-6.09l42.53-24.55c3.12-1.8,7.84-2,10.54-.44l44.05,25.43c2.7,1.56,2.36,4.29-.76,6.09l-42.53,24.55C239.32,192,234.6,192.21,231.89,190.65Z" transform="translate(0 0.62)"/><path class="cls-3" d="M232.69,186.07l-36.91-21.3c-2.27-1.31-2-3.6.63-5.11l35.64-20.57c2.62-1.51,6.57-1.68,8.84-.37L277.8,160c2.26,1.31,2,3.59-.64,5.1l-35.64,20.58C238.91,187.22,235,187.38,232.69,186.07Z" transform="translate(0 0.62)"/><path class="cls-4" d="M271.34,181.61a4,4,0,0,1-1.78,3.08c-1,.56-1.78.1-1.78-1a3.93,3.93,0,0,1,1.78-3.08C270.54,180,271.34,180.47,271.34,181.61Z" transform="translate(0 0.62)"/><path class="cls-4" d="M277.06,178.3a3.93,3.93,0,0,1-1.78,3.08c-1,.57-1.78.11-1.78-1a4,4,0,0,1,1.78-3.08C276.26,176.71,277.06,177.17,277.06,178.3Z" transform="translate(0 0.62)"/><path class="cls-4" d="M282.78,175a3.92,3.92,0,0,1-1.78,3.08c-1,.56-1.77.1-1.77-1A3.94,3.94,0,0,1,281,174C282,173.4,282.78,173.86,282.78,175Z" transform="translate(0 0.62)"/><path class="cls-2" d="M287.54,153.31h0v-15.2l-34.08,0-11.78-6.8c-2.7-1.56-7.42-1.36-10.54.44l-11,6.34H186v15.62a3.05,3.05,0,0,0,1.81,2.83l44,25.43c2.71,1.56,7.43,1.36,10.55-.44L285,157C286.77,155.91,287.64,154.56,287.54,153.31Z" transform="translate(0 0.62)"/><path class="cls-2" d="M236.79,130.25a12.12,12.12,0,0,0-5.65,1.48l-11,6.34H186v15.62a3.05,3.05,0,0,0,1.81,2.83l44,25.43a9.51,9.51,0,0,0,4.9,1Z" transform="translate(0 0.62)"/><path class="cls-3" d="M189.9,138.06H186v15.62a3.05,3.05,0,0,0,1.81,2.83l2.05,1.18Z" transform="translate(0 0.62)"/><path class="cls-3" d="M232.57,182.27a12.06,12.06,0,0,0,8.43-.09V164.43h-8.43Z" transform="translate(0 0.62)"/><path class="cls-4" d="M231.89,166.37l-44-25.43c-2.7-1.56-2.36-4.29.76-6.09l42.53-24.55c3.12-1.81,7.84-2,10.54-.44l44.05,25.43c2.7,1.56,2.36,4.28-.76,6.09l-42.53,24.55C239.32,167.73,234.6,167.93,231.89,166.37Z" transform="translate(0 0.62)"/><path class="cls-3" d="M232.69,161.79l-36.91-21.31c-2.27-1.31-2-3.59.63-5.1l35.64-20.58c2.62-1.51,6.57-1.67,8.84-.36l36.91,21.3c2.26,1.31,2,3.6-.64,5.11l-35.64,20.57C238.91,162.93,235,163.1,232.69,161.79Z" transform="translate(0 0.62)"/><path class="cls-4" d="M271.34,157.32a4,4,0,0,1-1.78,3.08c-1,.57-1.78.11-1.78-1a4,4,0,0,1,1.78-3.08C270.54,155.73,271.34,156.19,271.34,157.32Z" transform="translate(0 0.62)"/><path class="cls-4" d="M277.06,154a4,4,0,0,1-1.78,3.08c-1,.56-1.78.1-1.78-1a3.93,3.93,0,0,1,1.78-3.08C276.26,152.42,277.06,152.88,277.06,154Z" transform="translate(0 0.62)"/><path class="cls-4" d="M282.78,150.71a3.92,3.92,0,0,1-1.78,3.08c-1,.57-1.77.11-1.77-1a3.94,3.94,0,0,1,1.77-3.08C282,149.12,282.78,149.58,282.78,150.71Z" transform="translate(0 0.62)"/><path class="cls-2" d="M287.54,129h0V113.83l-34.08,0L241.68,107c-2.7-1.56-7.42-1.37-10.54.43l-11,6.35-34.11,0V129.4a3,3,0,0,0,1.81,2.82l44,25.43c2.71,1.56,7.43,1.37,10.55-.43L285,132.66C286.77,131.62,287.64,130.28,287.54,129Z" transform="translate(0 0.62)"/><path class="cls-2" d="M236.79,106a12.24,12.24,0,0,0-5.65,1.48l-11,6.35-34.11,0V129.4a3,3,0,0,0,1.81,2.82l44,25.43a9.61,9.61,0,0,0,4.9,1Z" transform="translate(0 0.62)"/><path class="cls-3" d="M189.9,113.77H186V129.4a3,3,0,0,0,1.81,2.82l2.05,1.19Z" transform="translate(0 0.62)"/><path class="cls-3" d="M232.57,158a12.06,12.06,0,0,0,8.43-.1V140.14h-8.43Z" transform="translate(0 0.62)"/><path class="cls-4" d="M231.89,142.08l-44-25.43c-2.7-1.56-2.36-4.28.76-6.09L231.14,86c3.12-1.8,7.84-2,10.54-.44L285.73,111c2.7,1.56,2.36,4.29-.76,6.09l-42.53,24.55C239.32,143.45,234.6,143.64,231.89,142.08Z" transform="translate(0 0.62)"/><path class="cls-4" d="M271.34,133a4,4,0,0,1-1.78,3.09c-1,.56-1.78.1-1.78-1a3.92,3.92,0,0,1,1.78-3.08C270.54,131.44,271.34,131.9,271.34,133Z" transform="translate(0 0.62)"/><path class="cls-4" d="M277.06,129.73a4,4,0,0,1-1.78,3.08c-1,.57-1.78.11-1.78-1a4,4,0,0,1,1.78-3.08C276.26,128.14,277.06,128.59,277.06,129.73Z" transform="translate(0 0.62)"/><path class="cls-4" d="M282.78,126.42a3.92,3.92,0,0,1-1.78,3.09c-1,.56-1.77.1-1.77-1A3.92,3.92,0,0,1,281,125.4C282,124.83,282.78,125.29,282.78,126.42Z" transform="translate(0 0.62)"/><path class="cls-3" d="M234.5,126.32l-20.61-11.9c-1.27-.73-1.11-2,.35-2.85l19.9-11.49a5.48,5.48,0,0,1,4.94-.21l20.61,11.9c1.26.73,1.11,2-.36,2.85l-19.9,11.49A5.49,5.49,0,0,1,234.5,126.32Z" transform="translate(0 0.62)"/><path class="cls-4" d="M236.47,116.35l-2.85-1.64c-.17-.11-.15-.28,0-.4l2.75-1.59a.8.8,0,0,1,.69,0l2.85,1.65c.17.1.15.28-.05.39l-2.76,1.59A.75.75,0,0,1,236.47,116.35Z" transform="translate(0 0.62)"/><path class="cls-2" d="M213.89,114.42l.06,0a2.11,2.11,0,0,1,.29-.2l19.9-11.49a5.48,5.48,0,0,1,4.94-.21l20.55,11.87c1.17-.84,1.23-2,.06-2.65l-20.61-11.9a5.48,5.48,0,0,0-4.94.21l-19.9,11.49C212.78,112.41,212.62,113.69,213.89,114.42Z" transform="translate(0 0.62)"/><path class="cls-1" d="M172.51,255.34,137.33,235c-2.16-1.25-1.88-3.42.61-4.86l34-19.61c2.49-1.44,6.26-1.6,8.42-.35l35.17,20.31c2.16,1.24,1.89,3.42-.6,4.86l-34,19.61C178.43,256.43,174.66,256.58,172.51,255.34Z" transform="translate(0 0.62)"/><path class="cls-5" d="M227.16,215.05h0v-15.2l-34.07,0L181.31,193c-2.71-1.56-7.43-1.36-10.55.44l-11,6.34h-34.1v15.62a3.05,3.05,0,0,0,1.81,2.83l44,25.43c2.7,1.56,7.42,1.36,10.55-.44l42.52-24.55C226.39,217.65,227.26,216.3,227.16,215.05Z" transform="translate(0 0.62)"/><path class="cls-6" d="M176.41,192a12.15,12.15,0,0,0-5.65,1.48l-11,6.34h-34.1v15.62a3.05,3.05,0,0,0,1.81,2.83l44,25.43a9.47,9.47,0,0,0,4.89,1Z" transform="translate(0 0.62)"/><path class="cls-7" d="M129.53,199.8h-3.86v15.62a3.05,3.05,0,0,0,1.81,2.83l2,1.18Z" transform="translate(0 0.62)"/><path class="cls-8" d="M172.2,244a12.06,12.06,0,0,0,8.43-.09V226.17H172.2Z" transform="translate(0 0.62)"/><path class="cls-9" d="M171.52,228.11l-44-25.43c-2.71-1.56-2.37-4.29.75-6.09L170.76,172c3.12-1.81,7.84-2,10.55-.44l44,25.43c2.7,1.56,2.37,4.28-.76,6.09l-42.52,24.55C178.94,229.47,174.22,229.67,171.52,228.11Z" transform="translate(0 0.62)"/><path class="cls-10" d="M172.31,223.53,135.4,202.22c-2.26-1.31-2-3.59.64-5.1l35.64-20.58c2.61-1.51,6.57-1.67,8.83-.36l36.91,21.3c2.27,1.31,2,3.6-.63,5.11l-35.64,20.57C178.53,224.67,174.58,224.84,172.31,223.53Z" transform="translate(0 0.62)"/><path class="cls-11" d="M211,219.06a3.92,3.92,0,0,1-1.78,3.08c-1,.57-1.78.11-1.78-1a4,4,0,0,1,1.78-3.08C210.17,217.47,211,217.93,211,219.06Z" transform="translate(0 0.62)"/><path class="cls-11" d="M216.69,215.76a4,4,0,0,1-1.78,3.08c-1,.56-1.78.1-1.78-1a3.91,3.91,0,0,1,1.78-3.08C215.89,214.16,216.69,214.62,216.69,215.76Z" transform="translate(0 0.62)"/><path class="cls-11" d="M222.41,212.45a3.93,3.93,0,0,1-1.78,3.08c-1,.57-1.78.11-1.78-1a4,4,0,0,1,1.78-3.08C221.61,210.86,222.41,211.32,222.41,212.45Z" transform="translate(0 0.62)"/><path class="cls-5" d="M227.16,190.4h0V175.21l-34.07,0-11.78-6.8c-2.71-1.56-7.43-1.37-10.55.43l-11,6.35-34.1,0v15.63a3,3,0,0,0,1.81,2.82l44,25.43c2.7,1.56,7.42,1.37,10.55-.43L224.59,194C226.39,193,227.26,191.66,227.16,190.4Z" transform="translate(0 0.62)"/><path class="cls-6" d="M176.41,167.34a12.27,12.27,0,0,0-5.65,1.48l-11,6.35-34.1,0v15.63a3,3,0,0,0,1.81,2.82l44,25.43a9.58,9.58,0,0,0,4.89,1.05Z" transform="translate(0 0.62)"/><path class="cls-7" d="M129.53,175.15h-3.86v15.63a3,3,0,0,0,1.81,2.82l2,1.19Z" transform="translate(0 0.62)"/><path class="cls-8" d="M172.2,219.37a12.06,12.06,0,0,0,8.43-.1V201.52H172.2Z" transform="translate(0 0.62)"/><path class="cls-9" d="M171.52,203.46l-44-25.43c-2.71-1.56-2.37-4.29.75-6.09l42.53-24.55c3.12-1.8,7.84-2,10.55-.44l44,25.43c2.7,1.56,2.37,4.29-.76,6.09L182.07,203C178.94,204.83,174.22,205,171.52,203.46Z" transform="translate(0 0.62)"/><path class="cls-10" d="M172.31,198.88,135.4,177.57c-2.26-1.3-2-3.59.64-5.1l35.64-20.57c2.61-1.51,6.57-1.68,8.83-.37l36.91,21.31c2.27,1.31,2,3.59-.63,5.1l-35.64,20.58C178.53,200,174.58,200.19,172.31,198.88Z" transform="translate(0 0.62)"/><path class="cls-11" d="M211,194.41a3.89,3.89,0,0,1-1.78,3.08c-1,.57-1.78.11-1.78-1a3.92,3.92,0,0,1,1.78-3.08C210.17,192.82,211,193.28,211,194.41Z" transform="translate(0 0.62)"/><path class="cls-11" d="M216.69,191.11a4,4,0,0,1-1.78,3.08c-1,.57-1.78.11-1.78-1a3.92,3.92,0,0,1,1.78-3.08C215.89,189.51,216.69,190,216.69,191.11Z" transform="translate(0 0.62)"/><path class="cls-11" d="M222.41,187.8a4,4,0,0,1-1.78,3.09c-1,.56-1.78.1-1.78-1a3.92,3.92,0,0,1,1.78-3.08C221.61,186.21,222.41,186.67,222.41,187.8Z" transform="translate(0 0.62)"/><path class="cls-5" d="M227.16,165.76h0v-15.2l-34.07,0-11.78-6.8c-2.71-1.56-7.43-1.36-10.55.44l-11,6.34-34.1,0v15.63a3.05,3.05,0,0,0,1.81,2.83l44,25.43c2.7,1.56,7.42,1.36,10.55-.44l42.52-24.55C226.39,168.36,227.26,167,227.16,165.76Z" transform="translate(0 0.62)"/><path class="cls-6" d="M176.41,142.7a12,12,0,0,0-5.65,1.48l-11,6.34-34.1,0v15.63a3.05,3.05,0,0,0,1.81,2.83l44,25.43a9.47,9.47,0,0,0,4.89,1Z" transform="translate(0 0.62)"/><path class="cls-7" d="M129.53,150.51h-3.86v15.63a3.05,3.05,0,0,0,1.81,2.83l2,1.18Z" transform="translate(0 0.62)"/><path class="cls-8" d="M172.2,194.72a12,12,0,0,0,8.43-.1V176.88H172.2Z" transform="translate(0 0.62)"/><path class="cls-9" d="M171.52,178.81l-44-25.42c-2.71-1.57-2.37-4.29.75-6.09l42.53-24.56c3.12-1.8,7.84-2,10.55-.43l44,25.42c2.7,1.57,2.37,4.29-.76,6.09l-42.52,24.56C178.94,180.18,174.22,180.38,171.52,178.81Z" transform="translate(0 0.62)"/><path class="cls-7" d="M224.59,150.83l-42.52,24.56c-3.13,1.8-7.85,2-10.55.43l-44-25.42a4,4,0,0,1-1.35-1.2c-.93,1.49-.51,3.11,1.35,4.19l44,25.42c2.7,1.57,7.42,1.37,10.55-.43l42.52-24.56c2.43-1.4,3.17-3.35,2.11-4.89A5.84,5.84,0,0,1,224.59,150.83Z" transform="translate(0 0.62)"/><path class="cls-11" d="M211,169.77a3.92,3.92,0,0,1-1.78,3.08c-1,.57-1.78.11-1.78-1a4,4,0,0,1,1.78-3.08C210.17,168.17,211,168.63,211,169.77Z" transform="translate(0 0.62)"/><path class="cls-11" d="M216.69,166.46a3.92,3.92,0,0,1-1.78,3.08c-1,.57-1.78.11-1.78-1a3.89,3.89,0,0,1,1.78-3.08C215.89,164.87,216.69,165.33,216.69,166.46Z" transform="translate(0 0.62)"/><path class="cls-11" d="M222.41,163.16a4,4,0,0,1-1.78,3.08c-1,.57-1.78.11-1.78-1a4,4,0,0,1,1.78-3.08C221.61,161.56,222.41,162,222.41,163.16Z" transform="translate(0 0.62)"/><path class="cls-10" d="M174.12,163.73l-20.61-11.9c-1.26-.73-1.1-2,.36-2.85l19.9-11.49a5.46,5.46,0,0,1,4.93-.21l20.61,11.9c1.27.73,1.11,2-.35,2.85l-19.9,11.49A5.51,5.51,0,0,1,174.12,163.73Z" transform="translate(0 0.62)"/><path class="cls-11" d="M176.1,153.76l-2.85-1.64c-.18-.11-.16-.28,0-.4l2.76-1.59a.75.75,0,0,1,.68,0l2.85,1.65c.18.1.16.28-.05.39l-2.75,1.59A.75.75,0,0,1,176.1,153.76Z" transform="translate(0 0.62)"/><path class="cls-7" d="M153.51,151.83l.06,0a3.13,3.13,0,0,1,.3-.2l19.9-11.49a5.46,5.46,0,0,1,4.93-.21l20.56,11.87c1.16-.84,1.22-2,.05-2.65l-20.61-11.9a5.46,5.46,0,0,0-4.93.21L153.87,149C152.41,149.82,152.25,151.1,153.51,151.83Z" transform="translate(0 0.62)"/><path class="cls-10" d="M158.36,206.67l-17.83-10.29a4.78,4.78,0,0,1-2-3.81h0c0-1.46.89-2.13,2-1.5l17.83,10.29a4.78,4.78,0,0,1,2,3.81h0C160.35,206.63,159.46,207.31,158.36,206.67Z" transform="translate(0 0.62)"/><path class="cls-7" d="M160,205.69,142.12,195.4a4.78,4.78,0,0,1-2-3.81,2.71,2.71,0,0,1,.08-.66c-1-.35-1.67.32-1.67,1.64a4.78,4.78,0,0,0,2,3.81l17.83,10.29a1.19,1.19,0,0,0,1.91-.84A2.22,2.22,0,0,1,160,205.69Z" transform="translate(0 0.62)"/><path class="cls-1" d="M112.13,292.79,77,272.48c-2.16-1.24-1.89-3.42.6-4.86l34-19.61c2.49-1.44,6.26-1.59,8.42-.35L155.12,268c2.16,1.25,1.89,3.42-.6,4.86l-34,19.61C118.06,293.88,114.29,294,112.13,292.79Z" transform="translate(0 0.62)"/><path class="cls-5" d="M166.79,252.5h0V237.31l-34.08,0-11.78-6.8c-2.7-1.56-7.42-1.37-10.54.43l-11,6.35-34.11,0v15.63a3.05,3.05,0,0,0,1.81,2.83l44.05,25.42c2.7,1.56,7.42,1.37,10.54-.43l42.53-24.56C166,255.1,166.89,253.76,166.79,252.5Z" transform="translate(0 0.62)"/><path class="cls-6" d="M116,229.44a12.24,12.24,0,0,0-5.65,1.48l-11,6.35-34.11,0v15.63a3.05,3.05,0,0,0,1.81,2.83l44.05,25.42a9.55,9.55,0,0,0,4.89,1.05Z" transform="translate(0 0.62)"/><path class="cls-7" d="M69.15,237.25H65.29v15.63a3.05,3.05,0,0,0,1.81,2.83l2.05,1.18Z" transform="translate(0 0.62)"/><path class="cls-8" d="M111.82,281.47a12.06,12.06,0,0,0,8.43-.1V263.62h-8.43Z" transform="translate(0 0.62)"/><path class="cls-9" d="M111.15,265.56,67.1,240.13c-2.7-1.56-2.36-4.28.76-6.09l42.53-24.55c3.12-1.8,7.84-2,10.54-.44l44,25.43c2.7,1.56,2.36,4.29-.76,6.09l-42.53,24.55C118.57,266.93,113.85,267.12,111.15,265.56Z" transform="translate(0 0.62)"/><path class="cls-10" d="M111.94,261,75,239.67c-2.27-1.3-2-3.59.63-5.1L111.3,214c2.62-1.51,6.57-1.68,8.84-.37l36.91,21.31c2.26,1.31,2,3.59-.64,5.1l-35.63,20.58C118.16,262.13,114.2,262.29,111.94,261Z" transform="translate(0 0.62)"/><path class="cls-11" d="M150.59,256.51a4,4,0,0,1-1.78,3.09c-1,.56-1.78.1-1.78-1a3.92,3.92,0,0,1,1.78-3.08C149.79,254.92,150.59,255.38,150.59,256.51Z" transform="translate(0 0.62)"/><path class="cls-11" d="M156.31,253.21a4,4,0,0,1-1.78,3.08c-1,.57-1.78.11-1.78-1a4,4,0,0,1,1.78-3.08C155.51,251.62,156.31,252.08,156.31,253.21Z" transform="translate(0 0.62)"/><path class="cls-11" d="M162,249.91a3.94,3.94,0,0,1-1.77,3.08c-1,.56-1.78.1-1.78-1a3.91,3.91,0,0,1,1.78-3.08C161.24,248.31,162,248.77,162,249.91Z" transform="translate(0 0.62)"/><path class="cls-5" d="M166.79,227.86h0v-15.2l-34.08,0-11.78-6.8c-2.7-1.56-7.42-1.36-10.54.44l-11,6.34-34.11,0v15.63a3.05,3.05,0,0,0,1.81,2.83l44.05,25.43c2.7,1.56,7.42,1.36,10.54-.44l42.53-24.55C166,230.46,166.89,229.11,166.79,227.86Z" transform="translate(0 0.62)"/><path class="cls-6" d="M116,204.8a12,12,0,0,0-5.65,1.48l-11,6.34-34.11,0v15.63a3.05,3.05,0,0,0,1.81,2.83l44.05,25.43a9.45,9.45,0,0,0,4.89,1Z" transform="translate(0 0.62)"/><path class="cls-7" d="M69.15,212.61H65.29v15.63a3.05,3.05,0,0,0,1.81,2.83l2.05,1.18Z" transform="translate(0 0.62)"/><path class="cls-8" d="M111.82,256.82a12,12,0,0,0,8.43-.1V239h-8.43Z" transform="translate(0 0.62)"/><path class="cls-9" d="M111.15,240.91,67.1,215.49c-2.7-1.56-2.36-4.29.76-6.09l42.53-24.56c3.12-1.8,7.84-2,10.54-.43l44,25.43c2.7,1.56,2.36,4.28-.76,6.08l-42.53,24.56C118.57,242.28,113.85,242.48,111.15,240.91Z" transform="translate(0 0.62)"/><path class="cls-10" d="M111.94,236.34,75,215c-2.27-1.31-2-3.59.63-5.1l35.64-20.58c2.62-1.51,6.57-1.67,8.84-.37l36.91,21.31c2.26,1.31,2,3.6-.64,5.11L120.78,236C118.16,237.48,114.2,237.65,111.94,236.34Z" transform="translate(0 0.62)"/><path class="cls-11" d="M150.59,231.87a4,4,0,0,1-1.78,3.08c-1,.57-1.78.11-1.78-1a4,4,0,0,1,1.78-3.08C149.79,230.27,150.59,230.73,150.59,231.87Z" transform="translate(0 0.62)"/><path class="cls-11" d="M156.31,228.56a3.92,3.92,0,0,1-1.78,3.08c-1,.57-1.78.11-1.78-1a3.92,3.92,0,0,1,1.78-3.08C155.51,227,156.31,227.43,156.31,228.56Z" transform="translate(0 0.62)"/><path class="cls-11" d="M162,225.26a3.94,3.94,0,0,1-1.77,3.08c-1,.57-1.78.11-1.78-1a3.92,3.92,0,0,1,1.78-3.08C161.24,223.66,162,224.12,162,225.26Z" transform="translate(0 0.62)"/><path class="cls-5" d="M166.79,203.21h0V188H132.71l-11.78-6.8c-2.7-1.57-7.42-1.37-10.54.43L99.4,188l-34.11,0v15.63a3,3,0,0,0,1.81,2.82l44.05,25.43c2.7,1.56,7.42,1.37,10.54-.44l42.53-24.55C166,205.81,166.89,204.47,166.79,203.21Z" transform="translate(0 0.62)"/><path class="cls-6" d="M116,180.15a12.24,12.24,0,0,0-5.65,1.48L99.4,188l-34.11,0v15.63a3,3,0,0,0,1.81,2.82l44.05,25.43a9.55,9.55,0,0,0,4.89,1Z" transform="translate(0 0.62)"/><path class="cls-7" d="M69.15,188H65.29v15.63a3,3,0,0,0,1.81,2.82l2.05,1.19Z" transform="translate(0 0.62)"/><path class="cls-8" d="M111.82,232.17a12,12,0,0,0,8.43-.09V214.33h-8.43Z" transform="translate(0 0.62)"/><path class="cls-9" d="M111.15,216.27,67.1,190.84c-2.7-1.56-2.36-4.29.76-6.09l42.53-24.55c3.12-1.8,7.84-2,10.54-.44l44,25.43c2.7,1.56,2.36,4.29-.76,6.09l-42.53,24.55C118.57,217.63,113.85,217.83,111.15,216.27Z" transform="translate(0 0.62)"/><path class="cls-7" d="M164.22,188.29l-42.53,24.55c-3.12,1.8-7.84,2-10.54.44L67.1,187.85a4.22,4.22,0,0,1-1.35-1.2c-.93,1.5-.5,3.12,1.35,4.19l44.05,25.43c2.7,1.56,7.42,1.36,10.54-.44l42.53-24.55c2.42-1.4,3.16-3.36,2.11-4.89A6,6,0,0,1,164.22,188.29Z" transform="translate(0 0.62)"/><path class="cls-11" d="M150.59,207.22a3.92,3.92,0,0,1-1.78,3.08c-1,.57-1.78.11-1.78-1a3.92,3.92,0,0,1,1.78-3.08C149.79,205.63,150.59,206.09,150.59,207.22Z" transform="translate(0 0.62)"/><path class="cls-11" d="M156.31,203.92a4,4,0,0,1-1.78,3.08c-1,.57-1.78.11-1.78-1a4,4,0,0,1,1.78-3.08C155.51,202.32,156.31,202.78,156.31,203.92Z" transform="translate(0 0.62)"/><path class="cls-11" d="M162,200.61a3.91,3.91,0,0,1-1.77,3.08c-1,.57-1.78.11-1.78-1a3.89,3.89,0,0,1,1.78-3.08C161.24,199,162,199.48,162,200.61Z" transform="translate(0 0.62)"/><path class="cls-10" d="M113.75,201.18l-20.61-11.9c-1.27-.73-1.11-2,.35-2.85l19.9-11.49a5.51,5.51,0,0,1,4.94-.2l20.61,11.9c1.27.73,1.11,2-.35,2.85L118.68,201A5.49,5.49,0,0,1,113.75,201.18Z" transform="translate(0 0.62)"/><path class="cls-11" d="M115.72,191.22l-2.85-1.65c-.17-.1-.15-.28,0-.39l2.75-1.59a.77.77,0,0,1,.69,0l2.85,1.64c.17.11.15.28,0,.4l-2.75,1.59A.8.8,0,0,1,115.72,191.22Z" transform="translate(0 0.62)"/><path class="cls-7" d="M93.14,189.28l.06,0c.09-.06.18-.14.29-.2l19.9-11.49a5.51,5.51,0,0,1,4.94-.2l20.55,11.86c1.17-.83,1.23-2,.06-2.64l-20.61-11.9a5.51,5.51,0,0,0-4.94.2l-19.9,11.49C92,187.27,91.87,188.55,93.14,189.28Z" transform="translate(0 0.62)"/><polygon class="cls-6" points="61.38 130.97 37.26 117.1 60.66 104.28 64.42 110.42 61.38 130.97"/><path class="cls-7" d="M170.43,32.39l-24-13.8s.9,13.77.9,13.8,13.77,4.26,13.77,4.26Z" transform="translate(0 0.62)"/><path class="cls-6" d="M48.11,80.44a15,15,0,0,1,5.18-1.92c2.42-12.7,11.26-26.19,21.79-32.27a21.36,21.36,0,0,1,8.92-3c1.44-15.4,12.14-32.89,25.14-40.39,6.79-3.92,13-4.39,17.5-2h0l.22.13.34.2,23.23,13.37-4.69,3.71c4.21,1.84,6.88,6.57,6.88,13.56,0,12.89-9.05,28.56-20.21,35l-84.3,48.67c-8.39,4.84-15.18.91-15.18-8.76S39.72,85.28,48.11,80.44Z" transform="translate(0 0.62)"/><path class="cls-7" d="M151.92,26.14l-41.54-24c6.3-3.28,12-3.55,16.26-1.3h0l.22.13.34.2,23.23,13.37-4.69,3.71C148.69,19.54,150.87,22.24,151.92,26.14Z" transform="translate(0 0.62)"/><path class="cls-7" d="M92,81.89,59.25,63c4.06-7,9.65-13.16,15.83-16.73A25.52,25.52,0,0,1,77.51,45l39.2,22.63Z" transform="translate(0 0.62)"/><path class="cls-12" d="M143.77,16.09l-10.55,6.09L104.8,5.78a37.24,37.24,0,0,1,4.34-2.94A26.62,26.62,0,0,1,115.89,0Z" transform="translate(0 0.62)"/><path class="cls-12" d="M61.86,58.89l28,16.16-6.57,7.33L57,67.22A54,54,0,0,1,61.86,58.89Z" transform="translate(0 0.62)"/><path class="cls-12" d="M72,94.21a15.13,15.13,0,0,1,5.19-1.92C79.65,79.59,88.48,66.1,99,60a21.36,21.36,0,0,1,8.92-3c1.44-15.4,12.14-32.89,25.14-40.4,14-8.07,25.31-1.52,25.31,14.62,0,.54,0,1.1,0,1.65,10.22-4.74,18.21.6,18.21,12.71,0,12.89-9.05,28.56-20.21,35L72,129.26c-8.38,4.84-15.17.91-15.17-8.76S63.66,99.05,72,94.21Z" transform="translate(0 0.62)"/><path class="cls-5" d="M160.13,36.72l-6.34,2.93.33-7c0-.49,0-1,0-1.46,0-6.23-1.88-10.75-5.29-12.72s-8.27-1.34-13.66,1.77c-11.6,6.7-21.72,23-23,37.12L111.82,61l-3.56.27a17.12,17.12,0,0,0-7.12,2.47C91.93,69,83.62,81.37,81.39,93.08L80.83,96l-2.94.46a11.06,11.06,0,0,0-3.73,1.41C67.08,102,61.1,112.32,61.1,120.5c0,3,.85,5.3,2.33,6.15s3.85.47,6.5-1.06l84.3-48.67c9.8-5.66,18.09-20,18.09-31.34,0-4.44-1.31-7.83-3.6-9.29a6.14,6.14,0,0,0-3.36-.9A12.7,12.7,0,0,0,160.13,36.72Z" transform="translate(0 0.62)"/><path class="cls-11" d="M116.34,80a4.65,4.65,0,0,1-2.11,3.65c-1.16.67-2.11.13-2.11-1.22a4.67,4.67,0,0,1,2.11-3.65C115.4,78.09,116.34,78.63,116.34,80Z" transform="translate(0 0.62)"/><path class="cls-11" d="M123.13,76.06A4.65,4.65,0,0,1,121,79.71c-1.16.67-2.11.13-2.11-1.22A4.67,4.67,0,0,1,121,74.84C122.19,74.17,123.13,74.71,123.13,76.06Z" transform="translate(0 0.62)"/><path class="cls-11" d="M129.92,72.14a4.65,4.65,0,0,1-2.11,3.65c-1.16.68-2.11.13-2.11-1.22a4.67,4.67,0,0,1,2.11-3.65C129,70.25,129.92,70.79,129.92,72.14Z" transform="translate(0 0.62)"/><path class="cls-1" d="M22,243.66l-16.1-9.37c-1.36-.78-1.19-2.15.38-3.06l15.34-8.94a5.86,5.86,0,0,1,5.3-.22L43,231.44c1.36.78,1.19,2.15-.38,3.06l-15.34,8.94A5.92,5.92,0,0,1,22,243.66Z" transform="translate(0 0.62)"/><path class="cls-13" d="M48.85,213.88h0v-4H27.52a7.39,7.39,0,0,0-6.65.28l.64-.27H0v4.32a1.93,1.93,0,0,0,1.14,1.78l20.19,11.74a7.36,7.36,0,0,0,6.65-.27l19.24-11.21C48.37,215.52,48.92,214.67,48.85,213.88Z" transform="translate(0 0.62)"/><path class="cls-2" d="M24.44,209.16a7.68,7.68,0,0,0-3.57.94l.64-.27H0v4.32a1.93,1.93,0,0,0,1.14,1.78l20.19,11.74a5.93,5.93,0,0,0,3.09.66Z" transform="translate(0 0.62)"/><path class="cls-14" d="M2.44,209.82H0v4.32a1.93,1.93,0,0,0,1.14,1.78l1.29.74Z" transform="translate(0 0.62)"/><path class="cls-15" d="M21.77,227.87a7.53,7.53,0,0,0,5.31-.06v-5.65H21.77Z" transform="translate(0 0.62)"/><path class="cls-4" d="M21.34,223.38,1.15,211.64c-1.7-1-1.49-2.71.48-3.84l19.24-11.22a7.42,7.42,0,0,1,6.65-.27l20.19,11.75c1.7,1,1.49,2.7-.48,3.83L28,223.11A7.39,7.39,0,0,1,21.34,223.38Z" transform="translate(0 0.62)"/><path class="cls-2" d="M20.68,206.71a4.56,4.56,0,0,1-4.12,0,1.26,1.26,0,0,1,0-2.38,4.56,4.56,0,0,1,4.12,0A1.26,1.26,0,0,1,20.68,206.71Z" transform="translate(0 0.62)"/><path class="cls-2" d="M27.29,210.57a4.56,4.56,0,0,1-4.12,0,1.26,1.26,0,0,1,0-2.38,4.56,4.56,0,0,1,4.12,0A1.26,1.26,0,0,1,27.29,210.57Z" transform="translate(0 0.62)"/><path class="cls-2" d="M33.9,214.43a4.56,4.56,0,0,1-4.12,0,1.26,1.26,0,0,1,0-2.38,4.56,4.56,0,0,1,4.12,0A1.26,1.26,0,0,1,33.9,214.43Z" transform="translate(0 0.62)"/><path class="cls-1" d="M233.9,283.58l-16.1-9.37c-1.36-.78-1.19-2.15.38-3.06l15.34-8.94a5.94,5.94,0,0,1,5.31-.22l16.09,9.37c1.36.78,1.19,2.15-.38,3.06l-15.34,8.94A5.89,5.89,0,0,1,233.9,283.58Z" transform="translate(0 0.62)"/><path class="cls-13" d="M260.78,253.81h0v-4.05H239.45a7.39,7.39,0,0,0-6.65.28l.64-.27h-21.5v4.32a1.92,1.92,0,0,0,1.14,1.78l20.19,11.75a7.39,7.39,0,0,0,6.65-.28l19.24-11.21C260.3,255.44,260.85,254.6,260.78,253.81Z" transform="translate(0 0.62)"/><path class="cls-2" d="M236.37,249.08a7.71,7.71,0,0,0-3.57.94l.64-.27h-21.5v4.32a1.92,1.92,0,0,0,1.14,1.78l20.19,11.75a6.13,6.13,0,0,0,3.09.66Z" transform="translate(0 0.62)"/><path class="cls-14" d="M214.37,249.74h-2.43v4.32a1.92,1.92,0,0,0,1.14,1.78l1.29.75Z" transform="translate(0 0.62)"/><path class="cls-15" d="M233.7,267.8a7.59,7.59,0,0,0,5.31-.06v-5.66H233.7Z" transform="translate(0 0.62)"/><path class="cls-4" d="M233.27,263.31l-20.19-11.75c-1.7-1-1.49-2.7.48-3.84l19.24-11.21a7.39,7.39,0,0,1,6.65-.28L259.64,248c1.71,1,1.49,2.7-.48,3.84L239.92,263A7.39,7.39,0,0,1,233.27,263.31Z" transform="translate(0 0.62)"/><path class="cls-2" d="M232.61,246.63a4.56,4.56,0,0,1-4.12,0,1.26,1.26,0,0,1,0-2.38,4.56,4.56,0,0,1,4.12,0A1.26,1.26,0,0,1,232.61,246.63Z" transform="translate(0 0.62)"/><path class="cls-2" d="M239.22,250.49a4.56,4.56,0,0,1-4.12,0,1.26,1.26,0,0,1,0-2.38,4.56,4.56,0,0,1,4.12,0A1.26,1.26,0,0,1,239.22,250.49Z" transform="translate(0 0.62)"/><path class="cls-2" d="M245.83,254.35a4.56,4.56,0,0,1-4.12,0,1.26,1.26,0,0,1,0-2.38,4.56,4.56,0,0,1,4.12,0A1.26,1.26,0,0,1,245.83,254.35Z" transform="translate(0 0.62)"/><path class="cls-1" d="M208.5,87.19l-16.1-9.37c-1.36-.78-1.19-2.15.38-3.06l15.34-8.94a5.88,5.88,0,0,1,5.31-.22L229.53,75c1.35.78,1.18,2.15-.39,3.06L213.8,87A5.92,5.92,0,0,1,208.5,87.19Z" transform="translate(0 0.62)"/><path class="cls-13" d="M235.38,57.41h0v-4H214.05a7.39,7.39,0,0,0-6.65.28l.64-.27h-21.5v4.32a1.92,1.92,0,0,0,1.14,1.78L207.87,71.2a7.39,7.39,0,0,0,6.65-.28l19.25-11.21C234.9,59.05,235.45,58.2,235.38,57.41Z" transform="translate(0 0.62)"/><path class="cls-2" d="M211,52.69a7.71,7.71,0,0,0-3.57.94l.64-.27h-21.5v4.32a1.92,1.92,0,0,0,1.14,1.78L207.87,71.2a6,6,0,0,0,3.09.65Z" transform="translate(0 0.62)"/><path class="cls-14" d="M189,53.35h-2.43v4.32a1.92,1.92,0,0,0,1.14,1.78l1.29.74Z" transform="translate(0 0.62)"/><path class="cls-15" d="M208.3,71.4a7.54,7.54,0,0,0,5.31-.06V65.69H208.3Z" transform="translate(0 0.62)"/><path class="cls-4" d="M207.87,66.91,187.68,55.17c-1.7-1-1.49-2.71.48-3.84L207.4,40.12a7.39,7.39,0,0,1,6.65-.28l20.19,11.75c1.71,1,1.49,2.7-.48,3.84L214.52,66.64A7.39,7.39,0,0,1,207.87,66.91Z" transform="translate(0 0.62)"/><path class="cls-2" d="M207.21,50.24a4.56,4.56,0,0,1-4.12,0,1.26,1.26,0,0,1,0-2.38,4.56,4.56,0,0,1,4.12,0A1.26,1.26,0,0,1,207.21,50.24Z" transform="translate(0 0.62)"/><path class="cls-2" d="M213.82,54.1a4.56,4.56,0,0,1-4.12,0,1.26,1.26,0,0,1,0-2.38,4.56,4.56,0,0,1,4.12,0A1.26,1.26,0,0,1,213.82,54.1Z" transform="translate(0 0.62)"/><path class="cls-2" d="M220.43,58a4.56,4.56,0,0,1-4.12,0,1.26,1.26,0,0,1,0-2.38,4.56,4.56,0,0,1,4.12,0A1.26,1.26,0,0,1,220.43,58Z" transform="translate(0 0.62)"/><path class="cls-13" d="M95.61,235.08s-2.81-1.42-4.53.69-4.18,7.08-4.26,10.44,2.66,3.13,4.28,2.33,6.38-7.68,6.66-9A4.7,4.7,0,0,0,97,236C96.51,235.62,95.61,235.08,95.61,235.08Z" transform="translate(0 0.62)"/><path class="cls-4" d="M96.22,234.4l.13,2.91a1.68,1.68,0,0,1-.82,1.51,3.26,3.26,0,0,1-2.17.34c-2.11-.34-2.3-.95-2.45-3.85S96.22,234.4,96.22,234.4Z" transform="translate(0 0.62)"/><path class="cls-13" d="M85.34,229.49s-2.8-1.41-4.53.69-4.18,7.08-4.26,10.44,2.66,3.13,4.29,2.34,6.37-7.69,6.66-9a4.66,4.66,0,0,0-.8-3.53C86.25,230,85.34,229.49,85.34,229.49Z" transform="translate(0 0.62)"/><path class="cls-4" d="M86,228.82l.13,2.9a1.63,1.63,0,0,1-.82,1.51,3.24,3.24,0,0,1-2.16.34c-2.11-.34-2.3-.94-2.45-3.85S86,228.82,86,228.82Z" transform="translate(0 0.62)"/><path class="cls-11" d="M111,175.48c-.83-13.51-14.62,2-14.62,2l-9.44,9.25-8.5,9.34a8.39,8.39,0,0,0-2.12,6.73L79.73,229a2.58,2.58,0,0,0,2.58,2.24,10.88,10.88,0,0,0,1.28-.11,3.2,3.2,0,0,0,2.84-3.4l-.63-24.49,17.86-10.77S111.8,189,111,175.48Z" transform="translate(0 0.62)"/><path class="cls-11" d="M121.24,180.62c-.83-13.5-14.63,2-14.63,2l-9.44,9.26-8.5,9.33a8.4,8.4,0,0,0-2.11,6.74L90,234.13a2.57,2.57,0,0,0,2.58,2.23,7.69,7.69,0,0,0,1.27-.11,3.2,3.2,0,0,0,2.85-3.39l-.63-24.5,17.85-10.76S122.07,194.13,121.24,180.62Z" transform="translate(0 0.62)"/><path class="cls-6" d="M113.08,137.28c10.46,4.33,10.25,10.51,10.25,10.51s-2,22.67-1.35,37.8c.29,6.33-33.62,6.81-28.56-10.07,6-19.9,3.72-36,6.52-38.45S110.37,136.15,113.08,137.28Z" transform="translate(0 0.62)"/><circle class="cls-16" cx="109.13" cy="129.8" r="8.05" transform="translate(-58.1 158.56) rotate(-59.5)"/><path class="cls-16" d="M116.44,142.76c-.54,2.12-3.33,3.24-6.21,2.5s-4.78-3.07-4.23-5.19,3.32-3.25,6.21-2.5S117,140.63,116.44,142.76Z" transform="translate(0 0.62)"/><path class="cls-16" d="M108.89,136.8a25.69,25.69,0,0,1-.1,3.74c-.05,1,3.6,2,4.54,1.07s.56-1.92.79-5.47S108.89,136.8,108.89,136.8Z" transform="translate(0 0.62)"/><path class="cls-11" d="M102.56,130.6s3.87-1.64,7.25-1a3.54,3.54,0,0,1,2,1.22,1.3,1.3,0,0,0,.62.45c.6.13,1.58-2.36,2.75-2.42s2,.77,1,2.31-.63,3.24-.19,3.49,5.11-3.33,1-11.5-14.59-3.76-16.22-2.11c0,0-1.71,1.5-3.11.17C97.69,121.25,96.13,133,102.56,130.6Z" transform="translate(0 0.62)"/><path class="cls-16" d="M117.46,164.35v6.13a2.51,2.51,0,0,1-.81,1.84l-12.58,11.47,1.42,2.19,16.62-10.69a3.37,3.37,0,0,0,1.38-2.38l1.12-12Z" transform="translate(0 0.62)"/><path class="cls-6" d="M122.44,144.73s3.82,5.74,5.24,20.85c0,0-6.52,2.11-10.22.91S122.44,144.73,122.44,144.73Z" transform="translate(0 0.62)"/><path class="cls-10" d="M116.76,152a107.86,107.86,0,0,0-1.58,11.75,2.4,2.4,0,0,0,1.58,2.32h0Z" transform="translate(0 0.62)"/><path class="cls-13" d="M113.5,191.75l-2.78-.36L92.77,181a2.49,2.49,0,0,0-2.25.1l-12.71,7.34-1.69-.23v1.68h0a.64.64,0,0,0,.38.59l20.34,11.74a2.52,2.52,0,0,0,2.25-.09l13.85-8a.9.9,0,0,0,.55-.75h0Z" transform="translate(0 0.62)"/><path class="cls-2" d="M100,185.21l-1.27-.74h-14l-6.91,4-1.69-.23v1.68h0a.64.64,0,0,0,.38.59l20.34,11.74a2.07,2.07,0,0,0,1.16.22Z" transform="translate(0 0.62)"/><path class="cls-3" d="M76.87,188.33l-.75-.1v1.68h0a.64.64,0,0,0,.38.59l.36.2Z" transform="translate(0 0.62)"/><path class="cls-15" d="M97.06,202.34a2.65,2.65,0,0,0,1.91-.12v-2.85H97.06Z" transform="translate(0 0.62)"/><path class="cls-17" d="M96.85,200.57,76.51,188.83c-.57-.34-.5-.92.16-1.3l13.85-8a2.52,2.52,0,0,1,2.25-.09l20.34,11.75c.58.33.5.91-.16,1.29l-13.85,8A2.52,2.52,0,0,1,96.85,200.57Z" transform="translate(0 0.62)"/><path class="cls-4" d="M96.51,198.79,79.6,189c-.48-.27-.42-.75.13-1.07l7.42-4.18A2.06,2.06,0,0,1,89,183.7l16.91,9.76c.48.28.42.76-.13,1.08l-7.42,4.17A2.07,2.07,0,0,1,96.51,198.79Z" transform="translate(0 0.62)"/><path class="cls-16" d="M91.31,179.15l-.21,1.4a10.36,10.36,0,0,0,.09,3.6l.25,1.24a1.73,1.73,0,0,0,1.4,1.36h0a1,1,0,0,0,1.12-.83l.34-3s.76,1,1.14,1-.42-3-1.26-4.7S91.31,179.15,91.31,179.15Z" transform="translate(0 0.62)"/><path class="cls-16" d="M98.21,156.84,96,161.16a8.53,8.53,0,0,0-.89,3.28l-.95,14.78-2.87-.07L90,162.55a6,6,0,0,1,.07-1.53l1.49-8.41Z" transform="translate(0 0.62)"/><path class="cls-13" d="M96.33,201.62l-1.71-2.23L76.69,189a2.47,2.47,0,0,1-1-2V172.33l-1-1.35,1-.56h0a.64.64,0,0,1,.7,0l20.33,11.77a2.49,2.49,0,0,1,1,2l0,16a.89.89,0,0,1-.38.85h0Z" transform="translate(0 0.62)"/><path class="cls-2" d="M83.92,193.19l-1.27-.73-7-12.15v-8l-1-1.35,1-.56h0a.64.64,0,0,1,.7,0l20.33,11.77a2.09,2.09,0,0,1,.77.9Z" transform="translate(0 0.62)"/><path class="cls-3" d="M75.09,171.58l-.46-.6,1-.56h0a.64.64,0,0,1,.7,0l.36.21Z" transform="translate(0 0.62)"/><path class="cls-15" d="M96.82,182.36a2.63,2.63,0,0,1,.85,1.71l-2,1.15-1-1.65Z" transform="translate(0 0.62)"/><path class="cls-17" d="M95.66,182.79,75.34,171c-.58-.33-1,0-1,.79v16a2.47,2.47,0,0,0,1,2l20.32,11.77c.58.34,1,0,1-.78v-16A2.49,2.49,0,0,0,95.66,182.79Z" transform="translate(0 0.62)"/><path class="cls-16" d="M105.49,186l-.32.67a4.54,4.54,0,0,1-1.7,1.88l-2,1.25a2,2,0,0,1-2.06.05l-.07-.05a1.21,1.21,0,0,1-.17-1.86l2.11-2.17s-1.19.91-1.52.54,1.15-1.57,2.22-1.62a4.23,4.23,0,0,0,2.11-.88Z" transform="translate(0 0.62)"/><path class="cls-6" d="M100.14,137s-7.73,8.42-10.85,16.14a15.76,15.76,0,0,0,9.12,6.64C104.88,161.69,100.14,137,100.14,137Z" transform="translate(0 0.62)"/><path class="cls-10" d="M97,159.32l1.26-12.11-3,11.34A17.78,17.78,0,0,0,97,159.32Z" transform="translate(0 0.62)"/><path class="cls-17" d="M105.94,135.34l-2.08-.57a5,5,0,0,0,2.44,2c1.45.4,1.67-.83,1.67-.83Z" transform="translate(0 0.62)"/></svg>