<svg id="Ñëîé_1" data-name="Ñëîé 1" xmlns="http://www.w3.org/2000/svg" viewBox="0 0 159.07 305.21"><defs><style>.cls-1{fill:#efefef;}.cls-2{fill:#5793ce;}.cls-3{fill:#173d7a;}.cls-4{fill:#d4ecff;}.cls-5,.cls-8{fill:#fff;}.cls-6{fill:#e9f6ff;}.cls-7{fill:#aedeed;}.cls-8{opacity:0.4;}.cls-9{fill:#b2d3ea;}.cls-10{fill:#396caa;}.cls-11{fill:#ffc2b0;}.cls-12{fill:#d3008d;}.cls-13{fill:#ff2c9c;}</style></defs><path class="cls-1" d="M132.91,304.09,50.66,256.61c-2.86-1.66-2.5-4.54.8-6.45h0c3.3-1.9,8.29-2.11,11.15-.46l82.25,47.49c2.86,1.65,2.51,4.53-.8,6.44h0C140.76,305.54,135.77,305.74,132.91,304.09Z"/><path class="cls-2" d="M147.8,52.52,59.18,1.34C56.26-.34,53.62-.38,51.62.88v0L40.5,7.3,48,8.69c0,.38,0,.77,0,1.17v209c0,8.3,5,17.94,11.27,21.53l87.38,50.46c-.8,2.5-2.49,7.75-2.49,7.75l10.87-6.31h0c2.52-1.3,4.13-4.55,4.13-9.24v-209C159.07,65.75,154,56.11,147.8,52.52Z"/><path class="cls-3" d="M47.91,218.89c0,8.3,5,17.94,11.27,21.53l87.38,50.46c-.8,2.5-2.49,7.75-2.49,7.75l10.87-6.31h0c2.52-1.3,4.13-4.55,4.13-9.24v-209a28,28,0,0,0-3.58-13L47.91,123.14Z"/><path class="cls-4" d="M136.62,298.08,48,246.9c-6.23-3.59-11.27-13.23-11.27-21.53v-209c0-8.3,5-12.11,11.27-8.52L136.62,59c6.22,3.59,11.27,13.23,11.27,21.53v209C147.89,297.86,142.84,301.67,136.62,298.08Z"/><path class="cls-5" d="M137.78,58.25,49.15,7.08C45.94,5.22,43.05,5.35,41,7c1.92-.93,4.35-.75,7,.78L136.62,59c6.22,3.59,11.27,13.23,11.27,21.53v209c0,4-1.19,7-3.12,8.55,2.6-1.25,4.28-4.52,4.28-9.29v-209C149.05,71.49,144,61.85,137.78,58.25Z"/><path class="cls-5" d="M135,291.16,49.81,242c-4.62-2.67-8.37-9.84-8.37-16V19.92c0-6.17,3.75-9,8.37-6.34L135,62.76c4.63,2.67,8.38,9.84,8.38,16V284.82C143.35,291,139.6,293.83,135,291.16Z"/><path class="cls-2" d="M135.67,290.87,50.51,241.69c-4.62-2.67-8.37-9.83-8.37-16V19.63c0-3.46,1.18-5.87,3-6.85-2.25.7-3.73,3.26-3.73,7.14V226c0,6.16,3.75,13.33,8.37,16L135,291.16c2,1.17,3.89,1.28,5.34.51A5.78,5.78,0,0,1,135.67,290.87Z"/><path class="cls-1" d="M100.14,227.87,58.33,203.74V102.12L78,113.49a44.23,44.23,0,0,1,22.11,38.29Z"/><path class="cls-4" d="M43.39,92.29h0c-4.21-2.51-10.08-2.2-16.55,1.54C14,101.24,3.6,119.3,3.6,134.1v10.68h0L4,145l41.87,24.63.64-12.78.52-5,2.22-7.71.25-1.18,4.77-9.59,3.75-4.69,3-3.62,7.4-5.84.66-.48,3.64-1.57L77.7,116h3.82l4.27.75Z"/><path class="cls-4" d="M48.73,191.07l1.35-.79V141.63a10,10,0,0,0-1.35,3.44Z"/><polygon class="cls-4" points="91.04 215.45 48.73 191.07 49.16 145 50.78 140.35 55.68 131.93 61.47 125.05 66.7 120.88 72.35 117.45 82.59 116.27 88.02 119.34 91.04 123.98 92 131.09 91.67 208.09 91.04 215.45"/><path class="cls-2" d="M43.39,92.3c-3.53-2.1-8.21-2.22-13.43,0l43.11,24.89L77.7,116h3.82l4.27.75L43.39,92.29Z"/><path class="cls-6" d="M31,91.89a25.92,25.92,0,0,0-4.13,2,33.07,33.07,0,0,0-2.79,1.81l43,24.81,1.47-1.16.66-.48,3.64-1.57,1.45-.38Z"/><path class="cls-5" d="M61.46,124.85l5.85-4.61-43-24.8a40.45,40.45,0,0,0-5.59,4.75Z"/><path class="cls-2" d="M92.4,214.66l-1.36.79v-83c0-13.93-9.82-19.6-21.88-12.64s-21.89,24-21.89,37.91v11.2l-1.36.78V158.48c0-14.8,10.43-32.86,23.25-40.26s23.24-1.38,23.24,13.42Z"/><polygon class="cls-7" points="16.43 126.16 14.05 135.89 15.24 151.63 12.22 149.85 8.36 141.3 11.74 130.49 16.43 126.16"/><path class="cls-8" d="M85.67,188.47a1.59,1.59,0,0,1-.79-.23L54.1,170.47a3.78,3.78,0,0,1-1.61-3V143.22a1.68,1.68,0,0,1,.72-1.54,1.35,1.35,0,0,1,1.39.07l30.77,17.77a3.76,3.76,0,0,1,1.62,3v24.22a1.67,1.67,0,0,1-.72,1.53A1.17,1.17,0,0,1,85.67,188.47Zm-31.86-46a.2.2,0,0,0-.11,0c-.1.06-.22.27-.22.68v24.21a2.8,2.8,0,0,0,1.12,2.19l30.77,17.76c.08.05.28.15.4.08s.23-.28.23-.68V162.56a2.79,2.79,0,0,0-1.12-2.18L54.1,142.61A.7.7,0,0,0,53.81,142.51Z"/><path class="cls-9" d="M63.66,171.46l-.22-.13A3.47,3.47,0,0,1,62,168.56V157c0-1.07.65-1.56,1.45-1.1l.22.13a3.47,3.47,0,0,1,1.45,2.77v11.54C65.11,171.43,64.46,171.92,63.66,171.46Z"/><path class="cls-9" d="M69.85,175l-.22-.12a3.5,3.5,0,0,1-1.45-2.78v-6.75c0-1.07.65-1.56,1.45-1.1l.22.13a3.47,3.47,0,0,1,1.45,2.77v6.76C71.3,175,70.65,175.5,69.85,175Z"/><path class="cls-10" d="M76,178.61l-.21-.13a3.47,3.47,0,0,1-1.45-2.77V159.63c0-1.07.65-1.56,1.45-1.1l.21.13a3.45,3.45,0,0,1,1.46,2.77v16.08C77.49,178.58,76.84,179.07,76,178.61Z"/><path class="cls-1" d="M7.75,298.13c10.34,6,27.11,6,37.45,0s10.34-15.65,0-21.61-27.11-6-37.44,0S-2.58,292.16,7.75,298.13Z"/><path class="cls-3" d="M10.25,279.22a5.08,5.08,0,0,0-2.85,5.06,8.36,8.36,0,0,0,.42,2.47c.58,1.23,2.51,2.92,5.58,1.71s9.89-7.62,10.14-11.82C24,268.85,15.11,277.15,10.25,279.22Z"/><path class="cls-3" d="M28.29,292.11s-.73,4.49-.38,5.31,2.5,2.58,5.65,2.2,12.24-3.51,14.27-9.5c3.13-9.27-17.53.7-17.53.7Z"/><path class="cls-4" d="M37.17,220.31l.7,70.11a4.9,4.9,0,0,1-3.82,4.86c-.27.05-.55.08-.85.11A4.37,4.37,0,0,1,29,293.67a5.26,5.26,0,0,1-.94-2.83l-.89-29.93-4.47-26.77-6.18,47.37a4.1,4.1,0,0,1-1.7,3.12,4.72,4.72,0,0,1-2.82.76,5.16,5.16,0,0,1-3.75-1.85A3.78,3.78,0,0,1,7.39,281l2.45-28.5.91-36.35Z"/><path class="cls-11" d="M28.09,157.55,27,163.94a2.92,2.92,0,0,0,2.39,2.78c2.44.61,3.19-1,3.19-1l1.1-7.19Z"/><path class="cls-11" d="M41.5,154.05c-1.73,5.47-7.07,8.65-11.94,7.09s-7.42-7.25-5.69-12.72,7.08-8.65,11.94-7.1S43.23,148.58,41.5,154.05Z"/><path class="cls-2" d="M28.38,164.05c-.17-.06-10.33-6.6-14.08.24-6.13,11.16-1.65,24-3.83,51.74-.37,4.65,6.25,7.48,9.38,9.27A18.85,18.85,0,0,0,29,227.89c3.17,0,9.26-2.8,9-6.95-1-19.08.68-35.17,2.23-50.78C40.23,170.16,38.29,168.07,28.38,164.05Z"/><path class="cls-10" d="M22.73,234.14l-6.18,47.37a4.1,4.1,0,0,1-1.7,3.12,5.25,5.25,0,0,1-.53.29c1.28-1,5-40.71,5.73-45.13S22.73,234.14,22.73,234.14Z"/><polygon class="cls-11" points="61.31 169.84 69.82 152.96 67.15 151.27 58.34 164.13 61.31 169.84"/><polygon class="cls-11" points="5.22 151.91 9.36 133.09 12.65 133.13 11.41 148.74 5.22 151.91"/><path class="cls-2" d="M40.23,170.16s9.52,3.75,17.69-6.56a1.57,1.57,0,0,1,2.62.18c.74,1.69,1.66,4.24.54,6.64-4.94,10.6-21.79,10.23-25.85,16.17S40.23,170.16,40.23,170.16Z"/><path class="cls-2" d="M21.93,161.71s-7.85.6-9-6.2a51.9,51.9,0,0,1-.79-6.79,1.37,1.37,0,0,0-1.54-1.33c-1.88.23-4.79.79-5.19,2.05-.59,1.88-1.7,11.12,6.06,25.28C16.57,184,21.93,161.71,21.93,161.71Z"/><path class="cls-11" d="M9.34,133.14,9.42,131a4.31,4.31,0,0,1,.64-2.14l2.17-3.57.57-.72a1.65,1.65,0,0,1,2.17-.37l.5.31a2.06,2.06,0,0,1,1,1.88l-1.12,3.05,1.42-.28a.51.51,0,0,1,.59.41h0a.5.5,0,0,1-.31.56l-2.32.94-2.11,3Z"/><path class="cls-11" d="M69.88,153.06l1-1.9a4.35,4.35,0,0,0,.51-2.18l-.13-4.18-.14-.9a1.65,1.65,0,0,0-1.71-1.4l-.59,0a2,2,0,0,0-1.75,1.15l-.53,3.21-1.1-.94a.51.51,0,0,0-.72.06h0a.51.51,0,0,0,0,.64l1.56,2,.4,4.09Z"/><path class="cls-10" d="M34,184.46c-.82,3.77,4.16,32.21-1.38,42.61,2.77-1.12,5.5-3.32,5.35-6.13a261,261,0,0,1,.94-37.26c4.73-2.4,12.13-3.83,17.37-7.66C50.7,178.09,34.77,181.1,34,184.46Z"/><path class="cls-5" d="M24.72,162.25l1.41-1.45s2.32,2.37,4.19,2.78a21.1,21.1,0,0,0,3.34.69l.91,2.51S27.18,166.25,24.72,162.25Z"/><path class="cls-3" d="M34.87,154.22a1.21,1.21,0,0,0,1-.5c.38-.56.14-3.13,1.33-3.55,1.85-.67,6.26,1.66,6.73-5,.25-3.49-1.45-4.41-1.44-6.32,0,0,.15,1-8.82.36s-11.87,7.36-12.08,11.16,1.62,10,7.74,10.87c1,.14,5.29-3.29,5.18-3.73S32.77,157,33,155.73A1.68,1.68,0,0,1,34.87,154.22Z"/><path class="cls-1" d="M89.82,251.67,62.74,236a5.24,5.24,0,0,1-2.18-4.16V211.74c0-1.6,1-2.34,2.18-1.64l27.08,15.63A5.22,5.22,0,0,1,92,229.89V250C92,251.63,91,252.37,89.82,251.67Z"/><path class="cls-3" d="M87.14,219.73,60.06,204.1a1.38,1.38,0,0,0-1.4-.11v0L56,205.49l1.84.67v19.72A5.22,5.22,0,0,0,60.06,230L85.94,245v2.32l2.66-1.53h0a2,2,0,0,0,.74-1.74V223.89A5.24,5.24,0,0,0,87.14,219.73Z"/><path class="cls-2" d="M84.47,247.22,57.39,231.58a5.21,5.21,0,0,1-2.18-4.16V207.29c0-1.61,1-2.34,2.18-1.65l27.08,15.63a5.23,5.23,0,0,1,2.17,4.17v20.13C86.64,247.17,85.67,247.91,84.47,247.22Z"/><path class="cls-5" d="M84.47,221.27,57.39,205.64a1.3,1.3,0,0,0-1.69.11,1.67,1.67,0,0,1,1,.25l27.08,15.63a5.24,5.24,0,0,1,2.18,4.16v20.14a2.2,2.2,0,0,1-.49,1.53c.72-.06,1.21-.75,1.21-1.89V225.44A5.23,5.23,0,0,0,84.47,221.27Z"/><path class="cls-5" d="M66.49,224.65c0,1.16-.81,1.63-1.82,1a4,4,0,0,1-1.83-3.16c0-1.17.82-1.64,1.83-1.06A4,4,0,0,1,66.49,224.65Z"/><path class="cls-5" d="M72,227.84c0,1.17-.82,1.64-1.83,1.06a4.05,4.05,0,0,1-1.83-3.17c0-1.16.82-1.64,1.83-1A4,4,0,0,1,72,227.84Z"/><path class="cls-5" d="M77.56,231c0,1.16-.81,1.63-1.82,1.05a4,4,0,0,1-1.83-3.16c0-1.17.82-1.64,1.83-1.06A4,4,0,0,1,77.56,231Z"/><path class="cls-1" d="M134.73,277.6,107.65,262a5.24,5.24,0,0,1-2.18-4.16V212.49c0-1.6,1-2.34,2.18-1.64l27.08,15.63a5.24,5.24,0,0,1,2.18,4.16V276C136.91,277.56,135.93,278.3,134.73,277.6Z"/><path class="cls-12" d="M132.05,220.48,105,204.85a1.38,1.38,0,0,0-1.4-.11v0L101,206.24l1.84.67v44.9A5.22,5.22,0,0,0,105,256l25.88,14.94v2.32l2.66-1.53h0a1.91,1.91,0,0,0,.74-1.73V224.65A5.24,5.24,0,0,0,132.05,220.48Z"/><path class="cls-13" d="M129.38,273.15,102.3,257.51a5.19,5.19,0,0,1-2.18-4.16V208c0-1.61,1-2.34,2.18-1.65L129.38,222a5.2,5.2,0,0,1,2.17,4.16V271.5C131.55,273.1,130.58,273.84,129.38,273.15Z"/><path class="cls-5" d="M129.38,222,102.3,206.39a1.3,1.3,0,0,0-1.69.11,1.67,1.67,0,0,1,1,.25l27.08,15.63a5.24,5.24,0,0,1,2.18,4.17v45.31a2.2,2.2,0,0,1-.49,1.53c.72-.06,1.21-.75,1.21-1.89V226.19A5.2,5.2,0,0,0,129.38,222Z"/><path class="cls-5" d="M119.79,228.17c0,2.51-1.77,3.54-4,2.28a8.72,8.72,0,0,1-4-6.85c0-2.51,1.76-3.54,4-2.28A8.75,8.75,0,0,1,119.79,228.17Z"/><path class="cls-5" d="M121.43,235.29s0-.08,0-.12c-.17-1.06-1.18-2-1.84-1.76a4.48,4.48,0,0,1-3.74-.63,11.76,11.76,0,0,1-3.75-3.69c-.66-1-1.66-1.23-1.83-.36a.29.29,0,0,0,0,.09l-1.87,11.9,14.94,8.63Z"/><polygon class="cls-5" points="124.36 258.4 106.22 247.93 106.22 246.62 124.36 257.09 124.36 258.4"/><polygon class="cls-5" points="118.89 260.95 106.22 253.64 106.22 252.33 118.89 259.64 118.89 260.95"/><polygon class="cls-5" points="117.18 257.11 106.22 250.78 106.22 249.48 117.18 255.8 117.18 257.11"/><polygon class="cls-5" points="124.36 261.26 118.89 258.1 118.89 256.79 124.36 259.95 124.36 261.26"/><path class="cls-1" d="M134.73,213.51l-27.08-15.63a5.22,5.22,0,0,1-2.18-4.16V148.41c0-1.61,1-2.35,2.18-1.65l27.08,15.63a5.24,5.24,0,0,1,2.18,4.16v45.32C136.91,213.47,135.93,214.21,134.73,213.51Z"/><path class="cls-2" d="M132.05,156.39,105,140.76a1.38,1.38,0,0,0-1.4-.11v0L101,142.15l1.84.67v44.9a5.22,5.22,0,0,0,2.18,4.16l25.88,15v2.31l2.66-1.53h0a2,2,0,0,0,.74-1.74V160.56A5.24,5.24,0,0,0,132.05,156.39Z"/><path class="cls-4" d="M129.38,209.06,102.3,193.42a5.18,5.18,0,0,1-2.18-4.16V144c0-1.6,1-2.34,2.18-1.65l27.08,15.64a5.21,5.21,0,0,1,2.17,4.16v45.31C131.55,209,130.58,209.75,129.38,209.06Z"/><path class="cls-5" d="M129.38,157.94,102.3,142.3a1.29,1.29,0,0,0-1.69.12,1.58,1.58,0,0,1,1,.24l27.08,15.63a5.24,5.24,0,0,1,2.18,4.17v45.31a2.2,2.2,0,0,1-.49,1.53c.72-.06,1.21-.75,1.21-1.89V162.1A5.2,5.2,0,0,0,129.38,157.94Z"/><polygon class="cls-2" points="124.41 168.17 106.27 157.7 106.27 156.39 124.41 166.86 124.41 168.17"/><polygon class="cls-2" points="118.93 170.72 106.27 163.41 106.27 162.1 118.93 169.41 118.93 170.72"/><polygon class="cls-2" points="117.22 166.88 106.27 160.55 106.27 159.25 117.22 165.57 117.22 166.88"/><polygon class="cls-2" points="124.41 171.03 118.93 167.86 118.93 166.56 124.41 169.72 124.41 171.03"/><polygon class="cls-2" points="124.41 179.2 106.27 168.73 106.27 167.42 124.41 177.89 124.41 179.2"/><polygon class="cls-2" points="118.93 181.75 106.27 174.44 106.27 173.13 118.93 180.44 118.93 181.75"/><polygon class="cls-2" points="117.22 177.91 106.27 171.59 106.27 170.28 117.22 176.6 117.22 177.91"/><polygon class="cls-2" points="124.41 182.06 118.93 178.9 118.93 177.59 124.41 180.75 124.41 182.06"/><polygon class="cls-2" points="124.41 190.23 106.27 179.76 106.27 178.45 124.41 188.93 124.41 190.23"/><polygon class="cls-2" points="118.93 192.78 106.27 185.47 106.27 184.17 118.93 191.48 118.93 192.78"/><polygon class="cls-2" points="117.22 188.94 106.27 182.62 106.27 181.31 117.22 187.63 117.22 188.94"/><polygon class="cls-2" points="124.41 193.09 118.93 189.93 118.93 188.62 124.41 191.78 124.41 193.09"/><polygon class="cls-5" points="67.24 187.23 54.3 179.76 54.3 178.55 67.24 186.02 67.24 187.23"/><polygon class="cls-5" points="75.26 191.86 69.74 188.67 69.74 187.46 75.26 190.65 75.26 191.86"/><polygon class="cls-5" points="67.69 190.12 62.16 186.93 62.16 185.72 67.69 188.91 67.69 190.12"/><polygon class="cls-5" points="79.66 197.03 69.74 191.3 69.74 190.09 79.66 195.82 79.66 197.03"/><polygon class="cls-5" points="86.45 203.58 71.78 195.11 71.78 193.9 86.45 202.37 86.45 203.58"/><polygon class="cls-5" points="83.17 196.43 77.64 193.24 77.64 192.03 83.17 195.22 83.17 196.43"/><polygon class="cls-5" points="59.83 185.58 54.3 182.39 54.3 181.18 59.83 184.37 59.83 185.58"/><polygon class="cls-5" points="69.41 193.74 54.28 185 54.28 183.8 69.41 192.53 69.41 193.74"/><polygon class="cls-5" points="63.58 193.01 54.45 187.74 54.45 186.53 63.58 191.8 63.58 193.01"/><path class="cls-1" d="M131.24,130,60.43,89.09c-4.58-2.64-8.3-9.75-8.3-15.86h0c0-6.11,3.72-8.92,8.3-6.27l70.81,40.88c4.59,2.64,8.3,9.75,8.3,15.86h0C139.54,129.81,135.83,132.62,131.24,130Z"/><path class="cls-12" d="M137.8,119.68c0-6.11-3.72-13.22-8.3-15.86L58.69,62.94c-2.13-1.23-4.07-1.27-5.54-.36v0l-3.48,2,1.6.18a10.21,10.21,0,0,0-.88,4.43h0c0,6.12,3.72,13.22,8.3,15.87L129.5,126a7.25,7.25,0,0,0,2.57.93l-.43,1.42,3.44-2h0C136.73,125.26,137.8,123,137.8,119.68Z"/><path class="cls-13" d="M126.11,127.93,55.3,87.05C50.72,84.4,47,77.3,47,71.19h0c0-6.12,3.72-8.93,8.3-6.28l70.81,40.88c4.58,2.65,8.3,9.75,8.3,15.86h0C134.41,127.77,130.69,130.58,126.11,127.93Z"/><path class="cls-5" d="M126.81,105.33,56,64.45c-2.34-1.34-4.44-1.27-5.95-.08,1.43-.73,3.25-.61,5.24.54l70.81,40.88c4.58,2.65,8.3,9.75,8.3,15.86,0,3-.9,5.21-2.35,6.36,1.86-.95,3.06-3.35,3.06-6.81C135.12,115.08,131.4,108,126.81,105.33Z"/><path class="cls-1" d="M104.66,80.93,60.79,55.62C56.2,53,52.48,45.88,52.48,39.76h0c0-6.11,3.72-8.92,8.31-6.27l43.87,25.3c4.58,2.64,8.3,9.75,8.3,15.86h0C113,80.76,109.24,83.57,104.66,80.93Z"/><path class="cls-2" d="M110.86,70.61c0-6.11-3.71-13.21-8.3-15.86L58.69,29.45c-2.13-1.23-4.07-1.27-5.54-.36v0l-3.48,2,1.6.18a10.24,10.24,0,0,0-.88,4.43h0c0,6.12,3.72,13.22,8.3,15.87l43.87,25.3a7.25,7.25,0,0,0,2.57.93l-.43,1.42,3.44-2h0C109.8,76.19,110.86,73.88,110.86,70.61Z"/><path class="cls-4" d="M99.17,78.86,55.3,53.56C50.72,50.91,47,43.81,47,37.7h0c0-6.12,3.72-8.93,8.3-6.28l43.87,25.3c4.59,2.65,8.3,9.75,8.3,15.86h0C107.47,78.7,103.76,81.51,99.17,78.86Z"/><path class="cls-5" d="M99.88,56.27,56,31c-2.34-1.34-4.44-1.27-5.95-.08,1.43-.73,3.25-.61,5.24.54l43.87,25.3c4.59,2.65,8.3,9.75,8.3,15.86,0,3-.9,5.21-2.35,6.36,1.87-1,3.06-3.35,3.06-6.81C108.18,66,104.46,58.91,99.88,56.27Z"/><polygon class="cls-2" points="79.36 55.66 61.22 45.19 61.22 43.88 79.36 54.36 79.36 55.66"/><polygon class="cls-2" points="93.77 63.98 81.11 56.67 81.11 55.36 93.77 62.67 93.77 63.98"/><polygon class="cls-2" points="72.17 54.37 61.22 48.05 61.22 46.74 72.17 53.06 72.17 54.37"/><polygon class="cls-2" points="79.36 58.52 73.88 55.36 73.88 54.05 79.36 57.21 79.36 58.52"/><polygon class="cls-5" points="122 114.22 103.86 103.75 103.86 102.44 122 112.92 122 114.22"/><polygon class="cls-5" points="102.17 102.77 89.51 95.46 89.51 94.16 102.17 101.47 102.17 102.77"/><polygon class="cls-5" points="114.81 112.93 103.86 106.61 103.86 105.3 114.81 111.62 114.81 112.93"/><polygon class="cls-5" points="122 117.08 116.52 113.92 116.52 112.61 122 115.77 122 117.08"/><polygon class="cls-5" points="102.17 105.61 96.69 102.45 96.69 101.14 102.17 104.3 102.17 105.61"/><polygon class="cls-2" points="14.75 118.47 11.96 116.86 12.42 116.02 15.21 117.63 14.75 118.47"/><path class="cls-2" d="M9.5,115.44l.46-.84L8.9,114c-.14.29-.27.59-.41.88Z"/><polygon class="cls-2" points="20 121.5 17.21 119.89 17.67 119.05 20.46 120.66 20 121.5"/><polygon class="cls-2" points="25.26 124.54 22.47 122.92 22.93 122.08 25.72 123.69 25.26 124.54"/><polygon class="cls-2" points="30.51 127.57 27.72 125.96 28.18 125.11 30.97 126.73 30.51 127.57"/><polygon class="cls-2" points="35.76 130.6 32.97 128.99 33.43 128.15 36.22 129.76 35.76 130.6"/><polygon class="cls-2" points="41.01 133.63 38.22 132.02 38.68 131.18 41.47 132.79 41.01 133.63"/><polygon class="cls-2" points="46.27 136.66 43.48 135.05 43.94 134.21 46.73 135.82 46.27 136.66"/><polygon class="cls-2" points="51.52 139.7 48.73 138.09 49.19 137.24 51.98 138.85 51.52 139.7"/><polygon class="cls-2" points="65.18 125.64 62.34 124 62.92 123.21 65.18 124.51 65.18 125.64"/><polygon class="cls-2" points="70.52 128.73 67.69 127.09 67.69 125.96 70.52 127.6 70.52 128.73"/><polygon class="cls-2" points="75.86 131.81 73.03 130.17 73.03 129.04 75.86 130.68 75.86 131.81"/><polygon class="cls-2" points="81.21 134.89 78.37 133.25 78.37 132.13 81.21 133.77 81.21 134.89"/><polygon class="cls-2" points="86.55 137.98 83.71 136.34 83.71 135.21 86.55 136.85 86.55 137.98"/><polygon class="cls-2" points="91.89 141.06 89.05 139.42 89.05 138.3 91.89 139.94 91.89 141.06"/><polygon class="cls-5" points="87.83 94.5 77.61 88.61 77.61 87.3 87.83 93.19 87.83 94.5"/></svg>