<svg id="Ñëîé_1" data-name="Ñëîé 1" xmlns="http://www.w3.org/2000/svg" xmlns:xlink="http://www.w3.org/1999/xlink" viewBox="0 0 375.49 330.95"><defs><style>.cls-1,.cls-17{opacity:0.4;}.cls-2{fill:#b3e0ff;}.cls-3,.cls-4{fill:#fff;}.cls-4{opacity:0.5;}.cls-5{fill:#7dc3ea;}.cls-6{fill:#396caa;}.cls-7{fill:url(#Áåçûìÿííûé_ãðàäèåíò_13);}.cls-17,.cls-8{fill:#d4ecff;}.cls-9{fill:#5793ce;}.cls-10{fill:url(#Áåçûìÿííûé_ãðàäèåíò_45);}.cls-11{fill:#7db8ea;}.cls-12{fill:url(#Áåçûìÿííûé_ãðàäèåíò_13-2);}.cls-13{fill:url(#Áåçûìÿííûé_ãðàäèåíò_45-2);}.cls-14{fill:url(#Áåçûìÿííûé_ãðàäèåíò_13-3);}.cls-15{fill:#fafdff;}.cls-16{fill:#173d7a;}.cls-18{fill:url(#Áåçûìÿííûé_ãðàäèåíò_12);}.cls-19{fill:url(#Áåçûìÿííûé_ãðàäèåíò_13-4);}.cls-20{fill:url(#Áåçûìÿííûé_ãðàäèåíò_12-2);}.cls-21{fill:url(#Áåçûìÿííûé_ãðàäèåíò_70);}.cls-22{fill:url(#Áåçûìÿííûé_ãðàäèåíò_13-5);}.cls-23{fill:url(#Áåçûìÿííûé_ãðàäèåíò_45-3);}.cls-24{fill:url(#Áåçûìÿííûé_ãðàäèåíò_13-6);}.cls-25{fill:url(#Áåçûìÿííûé_ãðàäèåíò_45-4);}</style><radialGradient id="Áåçûìÿííûé_ãðàäèåíò_13" cx="210.63" cy="127.76" r="39.39" gradientUnits="userSpaceOnUse"><stop offset="0" stop-color="#699dd1"/><stop offset="0.27" stop-color="#6396cc"/><stop offset="0.64" stop-color="#5184bd"/><stop offset="1" stop-color="#396caa"/></radialGradient><linearGradient id="Áåçûìÿííûé_ãðàäèåíò_45" x1="218.06" y1="115.13" x2="279.76" y2="151.92" gradientUnits="userSpaceOnUse"><stop offset="0" stop-color="#d4ecff"/><stop offset="0.2" stop-color="#d0eafe"/><stop offset="0.39" stop-color="#c5e2f9"/><stop offset="0.57" stop-color="#b2d6f2"/><stop offset="0.74" stop-color="#98c4e7"/><stop offset="0.84" stop-color="#86b8e0"/></linearGradient><radialGradient id="Áåçûìÿííûé_ãðàäèåíò_13-2" cx="295.48" cy="176.54" r="39.39" xlink:href="#Áåçûìÿííûé_ãðàäèåíò_13"/><linearGradient id="Áåçûìÿííûé_ãðàäèåíò_45-2" x1="302.92" y1="163.91" x2="364.62" y2="200.7" xlink:href="#Áåçûìÿííûé_ãðàäèåíò_45"/><radialGradient id="Áåçûìÿííûé_ãðàäèåíò_13-3" cx="63.64" cy="60.59" r="125.65" xlink:href="#Áåçûìÿííûé_ãðàäèåíò_13"/><linearGradient id="Áåçûìÿííûé_ãðàäèåíò_12" x1="173.39" y1="74.14" x2="141.43" y2="20.12" gradientUnits="userSpaceOnUse"><stop offset="0" stop-color="#86b8e0"/><stop offset="0.12" stop-color="#98c4e7"/><stop offset="0.33" stop-color="#b2d6f2"/><stop offset="0.54" stop-color="#c5e2f9"/><stop offset="0.76" stop-color="#d0eafe"/><stop offset="1" stop-color="#d4ecff"/></linearGradient><radialGradient id="Áåçûìÿííûé_ãðàäèåíò_13-4" cx="165.84" cy="98.31" r="118.75" xlink:href="#Áåçûìÿííûé_ãðàäèåíò_13"/><linearGradient id="Áåçûìÿííûé_ãðàäèåíò_12-2" x1="253.34" y1="120.54" x2="228.14" y2="77.93" xlink:href="#Áåçûìÿííûé_ãðàäèåíò_12"/><radialGradient id="Áåçûìÿííûé_ãðàäèåíò_70" cx="263.41" cy="92.57" r="39.15" gradientUnits="userSpaceOnUse"><stop offset="0" stop-color="#173d7a"/><stop offset="1" stop-color="#274f89"/></radialGradient><radialGradient id="Áåçûìÿííûé_ãðàäèåíò_13-5" cx="35.8" cy="219.65" r="39.39" xlink:href="#Áåçûìÿííûé_ãðàäèåíò_13"/><linearGradient id="Áåçûìÿííûé_ãðàäèåíò_45-3" x1="43.23" y1="207.02" x2="104.93" y2="243.81" xlink:href="#Áåçûìÿííûé_ãðàäèåíò_45"/><radialGradient id="Áåçûìÿííûé_ãðàäèåíò_13-6" cx="120.65" cy="268.43" r="39.39" xlink:href="#Áåçûìÿííûé_ãðàäèåíò_13"/><linearGradient id="Áåçûìÿííûé_ãðàäèåíò_45-4" x1="128.09" y1="255.8" x2="189.79" y2="292.58" xlink:href="#Áåçûìÿííûé_ãðàäèåíò_45"/></defs><g class="cls-1"><path class="cls-2" d="M343.24,120,311,101.41,343.24,82.8l32.24,18.61Zm-30-18.62,30,17.3,30-17.3-30-17.29Z" transform="translate(0 -4.54)"/><path class="cls-2" d="M281,120,248.8,101.41,281,82.8l32.24,18.61Zm-30-18.62,30,17.3,30-17.3L281,84.12Z" transform="translate(0 -4.54)"/><path class="cls-2" d="M312.14,138,279.9,119.37l32.24-18.62,32.24,18.62Zm-30-18.61,30,17.3,30-17.3-30-17.3Z" transform="translate(0 -4.54)"/><path class="cls-2" d="M343.24,155.94,311,137.32l32.24-18.61,32.24,18.62Zm-30-18.62,30,17.3,30-17.29-30-17.3Z" transform="translate(0 -4.54)"/><path class="cls-2" d="M218.84,120,186.6,101.41,218.84,82.8l32.24,18.61Zm-30-18.62,30,17.3,30-17.3-30-17.29Z" transform="translate(0 -4.54)"/><path class="cls-2" d="M249.94,138,217.7,119.37l32.24-18.62,32.24,18.62Zm-30-18.61,30,17.3,30-17.3-30-17.3Z" transform="translate(0 -4.54)"/><path class="cls-2" d="M281,155.94,248.8,137.32,281,118.71l32.24,18.61Zm-30-18.62,30,17.3,30-17.3L281,120Z" transform="translate(0 -4.54)"/><path class="cls-2" d="M312.14,173.89,279.9,155.28l32.24-18.61,32.24,18.61Zm-30-18.61,30,17.3,30-17.3-30-17.3Z" transform="translate(0 -4.54)"/><path class="cls-2" d="M343.24,191.85,311,173.24l32.24-18.62,32.24,18.62Zm-30-18.61,30,17.29,30-17.29-30-17.3Z" transform="translate(0 -4.54)"/><path class="cls-2" d="M156.64,120,124.4,101.41,156.64,82.8l32.24,18.61Zm-30-18.62,30,17.3,30-17.3-30-17.29Z" transform="translate(0 -4.54)"/><path class="cls-2" d="M187.74,138,155.5,119.37l32.24-18.62L220,119.37Zm-30-18.61,30,17.29,30-17.29-30-17.3Z" transform="translate(0 -4.54)"/><path class="cls-2" d="M218.84,155.94,186.6,137.32l32.24-18.61,32.24,18.61Zm-30-18.62,30,17.3,30-17.3-30-17.29Z" transform="translate(0 -4.54)"/><path class="cls-2" d="M249.94,173.89,217.7,155.28l32.24-18.61,32.24,18.61Zm-30-18.61,30,17.3,30-17.3-30-17.3Z" transform="translate(0 -4.54)"/><path class="cls-2" d="M281,191.85,248.8,173.24,281,154.62l32.24,18.62Zm-30-18.61,30,17.29,30-17.29-30-17.3Z" transform="translate(0 -4.54)"/><path class="cls-2" d="M312.14,209.81,279.9,191.19l32.24-18.61,32.24,18.61Zm-30-18.62,30,17.3,30-17.3-30-17.3Z" transform="translate(0 -4.54)"/><path class="cls-2" d="M343.24,227.76,311,209.15l32.24-18.62,32.24,18.62Zm-30-18.61,30,17.29,30-17.29-30-17.3Z" transform="translate(0 -4.54)"/><path class="cls-2" d="M94.44,120,62.2,101.41,94.44,82.8l32.24,18.61Zm-30-18.62,30,17.3,30-17.3-30-17.29Z" transform="translate(0 -4.54)"/><path class="cls-2" d="M125.54,138,93.3,119.37l32.24-18.62,32.24,18.62Zm-30-18.61,30,17.29,30-17.29-30-17.3Z" transform="translate(0 -4.54)"/><path class="cls-2" d="M156.64,155.94,124.4,137.32l32.24-18.61,32.24,18.61Zm-30-18.62,30,17.3,30-17.3-30-17.29Z" transform="translate(0 -4.54)"/><path class="cls-2" d="M187.74,173.89,155.5,155.28l32.24-18.62L220,155.28Zm-30-18.61,30,17.3,30-17.3-30-17.3Z" transform="translate(0 -4.54)"/><path class="cls-2" d="M218.84,191.85,186.6,173.23l32.24-18.61,32.24,18.62Zm-30-18.62,30,17.3,30-17.29-30-17.3Z" transform="translate(0 -4.54)"/><path class="cls-2" d="M249.94,209.81,217.7,191.19l32.24-18.61,32.24,18.61Zm-30-18.62,30,17.3,30-17.3-30-17.3Z" transform="translate(0 -4.54)"/><path class="cls-2" d="M281,227.76,248.8,209.15,281,190.53l32.24,18.62Zm-30-18.61,30,17.29,30-17.29-30-17.3Z" transform="translate(0 -4.54)"/><path class="cls-2" d="M312.14,245.72,279.9,227.1l32.24-18.61,32.24,18.61Zm-30-18.62,30,17.3,30-17.3-30-17.29Z" transform="translate(0 -4.54)"/><path class="cls-2" d="M343.24,263.67,311,245.06l32.24-18.62,32.24,18.62Zm-30-18.61,30,17.3,30-17.3-30-17.3Z" transform="translate(0 -4.54)"/><path class="cls-2" d="M32.24,120,0,101.41,32.24,82.8l32.24,18.61Zm-30-18.62,30,17.3,30-17.3-30-17.3Z" transform="translate(0 -4.54)"/><path class="cls-2" d="M63.34,138,31.1,119.37l32.24-18.62,32.24,18.62Zm-30-18.61,30,17.29,30-17.29-30-17.3Z" transform="translate(0 -4.54)"/><path class="cls-2" d="M94.44,155.94,62.2,137.32l32.24-18.61,32.24,18.61Zm-30-18.62,30,17.3,30-17.3L94.44,120Z" transform="translate(0 -4.54)"/><path class="cls-2" d="M125.54,173.89,93.3,155.28l32.24-18.62,32.24,18.62Zm-30-18.61,30,17.3,30-17.3-30-17.3Z" transform="translate(0 -4.54)"/><path class="cls-2" d="M156.64,191.85,124.4,173.23l32.24-18.61,32.24,18.61Zm-30-18.62,30,17.3,30-17.3-30-17.29Z" transform="translate(0 -4.54)"/><path class="cls-2" d="M187.74,209.8,155.5,191.19l32.24-18.61L220,191.19Zm-30-18.61,30,17.3,30-17.3-30-17.3Z" transform="translate(0 -4.54)"/><path class="cls-2" d="M218.84,227.76,186.6,209.15l32.24-18.62,32.24,18.62Zm-30-18.61,30,17.29,30-17.29-30-17.3Z" transform="translate(0 -4.54)"/><path class="cls-2" d="M249.94,245.72,217.7,227.1l32.24-18.61,32.24,18.61ZM220,227.1l30,17.3,30-17.3-30-17.29Z" transform="translate(0 -4.54)"/><path class="cls-2" d="M281,263.67,248.8,245.06,281,226.44l32.24,18.62Zm-30-18.61,30,17.29,30-17.29-30-17.3Z" transform="translate(0 -4.54)"/><path class="cls-2" d="M312.14,281.63,279.9,263l32.24-18.61L344.38,263Zm-30-18.62,30,17.3,30-17.3-30-17.29Z" transform="translate(0 -4.54)"/><path class="cls-2" d="M343.24,299.59,311,281l32.24-18.61L375.48,281Zm-30-18.62,30,17.3,30-17.3-30-17.3Z" transform="translate(0 -4.54)"/><path class="cls-2" d="M32.24,155.94,0,137.32l32.24-18.61,32.24,18.61Zm-30-18.62,30,17.3,30-17.3L32.24,120Z" transform="translate(0 -4.54)"/><path class="cls-2" d="M63.34,173.89,31.1,155.28l32.24-18.62,32.24,18.62Zm-30-18.61,30,17.29,30-17.29-30-17.3Z" transform="translate(0 -4.54)"/><path class="cls-2" d="M94.44,191.85,62.2,173.23l32.24-18.61,32.24,18.61Zm-30-18.62,30,17.3,30-17.3-30-17.29Z" transform="translate(0 -4.54)"/><path class="cls-2" d="M125.54,209.8,93.3,191.19l32.24-18.61,32.24,18.61Zm-30-18.61,30,17.3,30-17.3-30-17.3Z" transform="translate(0 -4.54)"/><path class="cls-2" d="M156.64,227.76,124.4,209.15l32.24-18.62,32.24,18.62Zm-30-18.61,30,17.29,30-17.29-30-17.3Z" transform="translate(0 -4.54)"/><path class="cls-2" d="M187.74,245.72,155.5,227.1l32.24-18.61L220,227.1Zm-30-18.62,30,17.3,30-17.3-30-17.3Z" transform="translate(0 -4.54)"/><path class="cls-2" d="M218.84,263.67,186.6,245.06l32.24-18.62,32.24,18.62Zm-30-18.61,30,17.29,30-17.29-30-17.3Z" transform="translate(0 -4.54)"/><path class="cls-2" d="M249.94,281.63,217.7,263l32.24-18.61L282.18,263ZM220,263l30,17.3,30-17.3-30-17.29Z" transform="translate(0 -4.54)"/><path class="cls-2" d="M281,299.58,248.8,281,281,262.35,313.28,281Zm-30-18.61,30,17.3L311,281l-30-17.3Z" transform="translate(0 -4.54)"/><path class="cls-2" d="M312.14,317.54,279.9,298.92l32.24-18.61,32.24,18.62Zm-30-18.62,30,17.3,30-17.29-30-17.3Z" transform="translate(0 -4.54)"/><path class="cls-2" d="M343.24,335.5,311,316.88l32.24-18.61,32.24,18.61Zm-30-18.62,30,17.3,30-17.3-30-17.29Z" transform="translate(0 -4.54)"/><path class="cls-2" d="M32.24,191.85,0,173.23l32.24-18.61,32.24,18.61Zm-30-18.62,30,17.3,30-17.3-30-17.29Z" transform="translate(0 -4.54)"/><path class="cls-2" d="M63.34,209.8,31.1,191.19l32.24-18.62,32.24,18.62Zm-30-18.61,30,17.3,30-17.3-30-17.3Z" transform="translate(0 -4.54)"/><path class="cls-2" d="M94.44,227.76,62.2,209.14l32.24-18.61,32.24,18.62Zm-30-18.62,30,17.3,30-17.29-30-17.3Z" transform="translate(0 -4.54)"/><path class="cls-2" d="M125.54,245.72,93.3,227.1l32.24-18.61,32.24,18.61Zm-30-18.62,30,17.3,30-17.3-30-17.3Z" transform="translate(0 -4.54)"/><path class="cls-2" d="M156.64,263.67,124.4,245.06l32.24-18.62,32.24,18.62Zm-30-18.61,30,17.29,30-17.29-30-17.3Z" transform="translate(0 -4.54)"/><path class="cls-2" d="M187.74,281.63,155.5,263l32.24-18.61L220,263Zm-30-18.62,30,17.3,30-17.3-30-17.29Z" transform="translate(0 -4.54)"/><path class="cls-2" d="M218.84,299.58,186.6,281l32.24-18.62L251.08,281Zm-30-18.61,30,17.3,30-17.3-30-17.3Z" transform="translate(0 -4.54)"/><path class="cls-2" d="M249.94,317.54,217.7,298.92l32.24-18.61,32.24,18.61Zm-30-18.62,30,17.3,30-17.3-30-17.29Z" transform="translate(0 -4.54)"/><path class="cls-2" d="M281,335.5,248.8,316.88,281,298.27l32.24,18.61Zm-30-18.62,30,17.3,30-17.3-30-17.3Z" transform="translate(0 -4.54)"/><path class="cls-2" d="M32.24,227.76,0,209.14l32.24-18.61,32.24,18.61Zm-30-18.62,30,17.3,30-17.3-30-17.29Z" transform="translate(0 -4.54)"/><path class="cls-2" d="M63.34,245.72,31.1,227.1l32.24-18.61L95.58,227.1Zm-30-18.62,30,17.3,30-17.3-30-17.3Z" transform="translate(0 -4.54)"/><path class="cls-2" d="M94.44,263.67,62.2,245.06l32.24-18.62,32.24,18.62Zm-30-18.61,30,17.29,30-17.29-30-17.3Z" transform="translate(0 -4.54)"/><path class="cls-2" d="M125.54,281.63,93.3,263l32.24-18.61L157.78,263ZM95.58,263l30,17.3,30-17.3-30-17.29Z" transform="translate(0 -4.54)"/><path class="cls-2" d="M156.64,299.58,124.4,281l32.24-18.62L188.88,281Zm-30-18.61,30,17.29,30-17.29-30-17.3Z" transform="translate(0 -4.54)"/><path class="cls-2" d="M187.74,317.54,155.5,298.92l32.24-18.61L220,298.92Zm-30-18.62,30,17.3,30-17.3-30-17.29Z" transform="translate(0 -4.54)"/><path class="cls-2" d="M218.84,335.5,186.6,316.88l32.24-18.61,32.24,18.61Zm-30-18.62,30,17.3,30-17.3-30-17.3Z" transform="translate(0 -4.54)"/><path class="cls-2" d="M32.24,263.67,0,245.06l32.24-18.62,32.24,18.62Zm-30-18.61,30,17.29,30-17.29-30-17.3Z" transform="translate(0 -4.54)"/><path class="cls-2" d="M63.34,281.63,31.1,263,63.34,244.4,95.58,263ZM33.38,263l30,17.3,30-17.3-30-17.29Z" transform="translate(0 -4.54)"/><path class="cls-2" d="M94.44,299.58,62.2,281l32.24-18.62L126.68,281ZM64.48,281l30,17.29,30-17.29-30-17.3Z" transform="translate(0 -4.54)"/><path class="cls-2" d="M125.54,317.54,93.3,298.92l32.24-18.61,32.24,18.61Zm-30-18.62,30,17.3,30-17.3-30-17.29Z" transform="translate(0 -4.54)"/><path class="cls-2" d="M156.64,335.49,124.4,316.88l32.24-18.62,32.24,18.62Zm-30-18.61,30,17.3,30-17.3-30-17.3Z" transform="translate(0 -4.54)"/><path class="cls-2" d="M32.24,299.58,0,281l32.24-18.62L64.48,281ZM2.28,281l30,17.29L62.2,281l-30-17.3Z" transform="translate(0 -4.54)"/><path class="cls-2" d="M63.34,317.54,31.1,298.92l32.24-18.61,32.24,18.61Zm-30-18.62,30,17.3,30-17.3-30-17.29Z" transform="translate(0 -4.54)"/><path class="cls-2" d="M94.44,335.49,62.2,316.88l32.24-18.62,32.24,18.62Zm-30-18.61,30,17.3,30-17.3-30-17.3Z" transform="translate(0 -4.54)"/><path class="cls-2" d="M32.24,335.49,0,316.88l32.24-18.62,32.24,18.62Zm-30-18.61,30,17.29,30-17.29-30-17.3Z" transform="translate(0 -4.54)"/></g><path class="cls-2" d="M64,124.77a10.57,10.57,0,0,0-1.76,1.29c-.24-7.91-6-11-13-7-5.72,3.31-10.57,10.38-12.31,17.32a7.77,7.77,0,0,0-4.86,1.2c-5.12,3-9.27,10.16-9.27,16.07S27,162,32.12,159L64,140.59a15.17,15.17,0,0,0,6.85-11.87C70.88,124.36,67.81,122.58,64,124.77Z" transform="translate(0 -4.54)"/><path class="cls-2" d="M348.54,108.49a11,11,0,0,0-1.76,1.29c-.24-7.91-5.95-11-13-7-5.72,3.31-10.57,10.38-12.31,17.32a7.84,7.84,0,0,0-4.86,1.2c-5.12,3-9.27,10.16-9.27,16.07s4.15,8.32,9.27,5.36l31.91-18.42a15.17,15.17,0,0,0,6.85-11.87C355.39,108.08,352.32,106.31,348.54,108.49Z" transform="translate(0 -4.54)"/><path class="cls-2" d="M199.22,335.4a1.57,1.57,0,0,1-1.38-2.29,17.54,17.54,0,0,1,6.38-7,8.31,8.31,0,0,1,4.5-1.24c2,.09,4.53-1.42,6.72-4.06a15.41,15.41,0,0,1,4.06-3.52A8.2,8.2,0,0,1,224,316c2,.11,4.53-1.42,6.72-4.06a15.23,15.23,0,0,1,4.06-3.52,8.18,8.18,0,0,1,4.5-1.24c2.05.11,4.53-1.42,6.72-4.06a15.23,15.23,0,0,1,4.06-3.52c2.29-1.32,4.58-1.61,6.44-.8a1.57,1.57,0,1,1-1.25,2.87,4.16,4.16,0,0,0-3.63.64,12.22,12.22,0,0,0-3.22,2.81c-2.86,3.44-6.26,5.34-9.28,5.18a5.43,5.43,0,0,0-2.78.83,12.38,12.38,0,0,0-3.22,2.81c-2.86,3.44-6.26,5.33-9.27,5.18a5.22,5.22,0,0,0-2.79.83,12.37,12.37,0,0,0-3.21,2.81c-2.86,3.44-6.26,5.32-9.28,5.18a5.28,5.28,0,0,0-2.78.83,14.41,14.41,0,0,0-5.18,5.77A1.57,1.57,0,0,1,199.22,335.4Z" transform="translate(0 -4.54)"/><path class="cls-3" d="M20.62,201a6.65,6.65,0,0,1-3,5.21c-1.66,1-3,.18-3-1.74a6.65,6.65,0,0,1,3-5.21C19.27,198.26,20.62,199,20.62,201Z" transform="translate(0 -4.54)"/><path class="cls-3" d="M30.37,195.33a6.65,6.65,0,0,1-3,5.21c-1.66,1-3,.18-3-1.74a6.65,6.65,0,0,1,3-5.21C29,192.63,30.37,193.41,30.37,195.33Z" transform="translate(0 -4.54)"/><path class="cls-3" d="M40.12,189.7a6.65,6.65,0,0,1-3,5.21c-1.66,1-3,.18-3-1.74a6.67,6.67,0,0,1,3-5.21C38.77,187,40.12,187.78,40.12,189.7Z" transform="translate(0 -4.54)"/><path class="cls-3" d="M49.87,184.07a6.65,6.65,0,0,1-3,5.21c-1.66,1-3,.18-3-1.74a6.67,6.67,0,0,1,3-5.21C48.52,181.37,49.87,182.15,49.87,184.07Z" transform="translate(0 -4.54)"/><path class="cls-2" d="M302.7,278.72a6.42,6.42,0,0,1-2.92,5c-1.61.94-2.92.18-2.92-1.68a6.47,6.47,0,0,1,2.92-5.06C301.4,276.1,302.7,276.86,302.7,278.72Z" transform="translate(0 -4.54)"/><path class="cls-2" d="M310.75,274.07a6.47,6.47,0,0,1-2.91,5.06c-1.62.93-2.92.17-2.92-1.69a6.44,6.44,0,0,1,2.92-5.06C309.45,271.45,310.75,272.21,310.75,274.07Z" transform="translate(0 -4.54)"/><path class="cls-2" d="M302.7,269.42a6.44,6.44,0,0,1-2.92,5.06c-1.61.93-2.92.17-2.92-1.69a6.45,6.45,0,0,1,2.92-5.05C301.4,266.8,302.7,267.56,302.7,269.42Z" transform="translate(0 -4.54)"/><path class="cls-2" d="M310.75,264.77a6.46,6.46,0,0,1-2.91,5.06c-1.62.93-2.92.17-2.92-1.69a6.42,6.42,0,0,1,2.92-5.05C309.45,262.16,310.75,262.91,310.75,264.77Z" transform="translate(0 -4.54)"/><polygon class="cls-2" points="234.04 28.57 228.02 32.04 228.02 25.1 234.04 21.62 234.04 28.57"/><polygon class="cls-2" points="242.39 23.69 236.37 27.16 236.37 20.22 242.39 16.74 242.39 23.69"/><polygon class="cls-2" points="234.09 37.58 228.07 41.06 228.07 34.11 234.09 30.64 234.09 37.58"/><polygon class="cls-2" points="242.39 32.79 236.37 36.27 236.37 29.32 242.39 25.84 242.39 32.79"/><path class="cls-4" d="M86.29,284.44a11.46,11.46,0,0,0-2.85,2.46c-.13-5.63-4.17-7.87-9.13-5a16.64,16.64,0,0,0-4.4,3.84c-2.21-3.87-6.79-4.77-12.1-1.7-7.47,4.31-13.52,14.79-13.52,23.42a16,16,0,0,0,.14,2,5.13,5.13,0,0,0-3.79.77,14.3,14.3,0,0,0-6.47,11.2c0,4.13,2.9,5.8,6.47,3.74l45.65-26.36A13.75,13.75,0,0,0,92.51,288C92.51,284.07,89.73,282.46,86.29,284.44Z" transform="translate(0 -4.54)"/><path class="cls-5" d="M241.1,182.68l-31.17-18c-1.91-1.11-1.67-3,.54-4.31L240.56,143c2.21-1.27,5.55-1.41,7.46-.31l31.17,18c1.91,1.1,1.67,3-.54,4.31l-30.09,17.37C246.35,183.64,243,183.78,241.1,182.68Z" transform="translate(0 -4.54)"/><path class="cls-3" d="M244.36,175.35a8.33,8.33,0,0,1-4.15-1l-31.16-18a4,4,0,0,1-2.18-3.4,4.76,4.76,0,0,1,2.71-4l30.1-17.38c2.78-1.6,6.75-1.74,9.23-.31l31.16,18a4,4,0,0,1,2.18,3.4,4.76,4.76,0,0,1-2.71,4l-30.09,17.37A10.31,10.31,0,0,1,244.36,175.35Zm.44-41.48a7,7,0,0,0-3.35.82l-30.1,17.37c-.75.44-.93.83-.94.91a1,1,0,0,0,.41.33l31.16,18a6.58,6.58,0,0,0,5.7-.31l30.09-17.37c.75-.44.93-.84.94-.91a1.1,1.1,0,0,0-.41-.34l-31.16-18A4.88,4.88,0,0,0,244.8,133.87Z" transform="translate(0 -4.54)"/><path class="cls-6" d="M280.47,141.69h0V130.93H256.36L248,126.11c-1.91-1.11-5.25-1-7.46.31l-7.77,4.49-24.14,0V142a2.17,2.17,0,0,0,1.28,2l31.17,18c1.91,1.11,5.25,1,7.46-.31l30.09-17.37C279.93,143.53,280.54,142.57,280.47,141.69Z" transform="translate(0 -4.54)"/><path class="cls-7" d="M244.56,125.37a8.48,8.48,0,0,0-4,1l-7.77,4.49-24.14,0V142a2.17,2.17,0,0,0,1.28,2l31.17,18a6.78,6.78,0,0,0,3.46.74Z" transform="translate(0 -4.54)"/><path class="cls-8" d="M211.38,130.89h-2.73V142a2.17,2.17,0,0,0,1.28,2l1.45.84Z" transform="translate(0 -4.54)"/><path class="cls-9" d="M241.58,162.18a8.45,8.45,0,0,0,6-.07V149.55h-6Z" transform="translate(0 -4.54)"/><path class="cls-10" d="M241.1,150.92l-31.17-18c-1.91-1.1-1.67-3,.54-4.31l30.09-17.37a8.29,8.29,0,0,1,7.46-.31l31.17,18c1.91,1.11,1.67,3-.54,4.31l-30.09,17.38C246.35,151.89,243,152,241.1,150.92Z" transform="translate(0 -4.54)"/><path class="cls-3" d="M278.65,131.13,248.56,148.5c-2.21,1.27-5.55,1.41-7.46.31l-31.17-18a3,3,0,0,1-1-.85c-.66,1.06-.36,2.2,1,3l31.17,18c1.91,1.11,5.25,1,7.46-.3l30.09-17.38c1.72-1,2.24-2.37,1.49-3.46A4.22,4.22,0,0,1,278.65,131.13Z" transform="translate(0 -4.54)"/><path class="cls-8" d="M269,144.52a2.78,2.78,0,0,1-1.26,2.18c-.7.4-1.26.08-1.26-.72a2.76,2.76,0,0,1,1.26-2.18C268.44,143.4,269,143.72,269,144.52Z" transform="translate(0 -4.54)"/><path class="cls-8" d="M273.06,142.19a2.82,2.82,0,0,1-1.26,2.18c-.7.4-1.26.07-1.26-.73a2.77,2.77,0,0,1,1.26-2.18C272.49,141.06,273.06,141.38,273.06,142.19Z" transform="translate(0 -4.54)"/><path class="cls-8" d="M277.11,139.85a2.8,2.8,0,0,1-1.26,2.18c-.7.4-1.26.07-1.26-.73a2.77,2.77,0,0,1,1.26-2.18C276.54,138.72,277.11,139,277.11,139.85Z" transform="translate(0 -4.54)"/><path class="cls-9" d="M242.94,139.77l-14.58-8.42c-.9-.52-.79-1.42.25-2l14.08-8.13a3.89,3.89,0,0,1,3.49-.14l14.59,8.42c.89.52.78,1.42-.26,2l-14.08,8.13A3.86,3.86,0,0,1,242.94,139.77Z" transform="translate(0 -4.54)"/><path class="cls-8" d="M244.34,132.72l-2-1.17c-.12-.07-.11-.19,0-.27l2-1.13a.56.56,0,0,1,.49,0l2,1.17c.13.07.11.19,0,.27l-2,1.13A.54.54,0,0,1,244.34,132.72Z" transform="translate(0 -4.54)"/><path class="cls-6" d="M228.36,131.35l0,0a1.53,1.53,0,0,1,.21-.14l14.08-8.13a3.89,3.89,0,0,1,3.49-.15l14.54,8.4c.83-.59.87-1.39,0-1.87l-14.59-8.42a3.89,3.89,0,0,0-3.49.14l-14.08,8.13C227.57,129.93,227.46,130.83,228.36,131.35Z" transform="translate(0 -4.54)"/><path class="cls-11" d="M326,231.46l-31.17-18c-1.91-1.1-1.67-3,.54-4.31l30.09-17.37c2.21-1.27,5.55-1.41,7.46-.31l31.17,18c1.91,1.11,1.67,3-.54,4.31l-30.09,17.38C331.21,232.42,327.87,232.56,326,231.46Z" transform="translate(0 -4.54)"/><path class="cls-2" d="M329.21,224.13a8.42,8.42,0,0,1-4.14-1l-31.16-18a4,4,0,0,1-2.18-3.4,4.79,4.79,0,0,1,2.71-4l30.09-17.37c2.79-1.6,6.76-1.74,9.24-.31l31.16,18a4,4,0,0,1,2.18,3.41,4.77,4.77,0,0,1-2.71,4l-30.1,17.37A10.39,10.39,0,0,1,329.21,224.13Zm-2.37-4a6.6,6.6,0,0,0,5.69-.31l30.09-17.38c.76-.43.94-.83.95-.9a1.22,1.22,0,0,0-.41-.34l-31.16-18a6.55,6.55,0,0,0-5.7.31l-30.09,17.37c-.76.44-.94.83-.94.91a1.14,1.14,0,0,0,.41.33Z" transform="translate(0 -4.54)"/><path class="cls-6" d="M365.33,190.46h0V179.71H341.21l-8.33-4.82c-1.91-1.1-5.25-1-7.46.31l-7.78,4.49H293.51v11.06a2.15,2.15,0,0,0,1.28,2l31.17,18c1.91,1.11,5.25,1,7.46-.31L363.51,193C364.78,192.3,365.4,191.35,365.33,190.46Z" transform="translate(0 -4.54)"/><path class="cls-12" d="M329.42,174.14a8.72,8.72,0,0,0-4,1.05l-7.78,4.49H293.51v11.06a2.15,2.15,0,0,0,1.28,2l31.17,18a6.73,6.73,0,0,0,3.46.74Z" transform="translate(0 -4.54)"/><path class="cls-8" d="M296.24,179.67h-2.73v11.06a2.15,2.15,0,0,0,1.28,2l1.45.83Z" transform="translate(0 -4.54)"/><path class="cls-9" d="M326.44,211a8.56,8.56,0,0,0,6-.07V198.33h-6Z" transform="translate(0 -4.54)"/><path class="cls-13" d="M326,199.7l-31.17-18c-1.91-1.11-1.67-3,.54-4.31L325.42,160c2.21-1.28,5.55-1.42,7.46-.31l31.17,18c1.91,1.1,1.67,3-.54,4.31l-30.09,17.37C331.21,200.67,327.87,200.81,326,199.7Z" transform="translate(0 -4.54)"/><path class="cls-3" d="M363.51,179.9l-30.09,17.38c-2.21,1.27-5.55,1.41-7.46.31l-31.17-18a2.73,2.73,0,0,1-1-.84c-.66,1.05-.36,2.2,1,3l31.17,18c1.91,1.11,5.25,1,7.46-.31L363.51,182c1.72-1,2.24-2.38,1.49-3.46A4.21,4.21,0,0,1,363.51,179.9Z" transform="translate(0 -4.54)"/><path class="cls-8" d="M353.86,193.3a2.79,2.79,0,0,1-1.25,2.18c-.7.4-1.26.08-1.26-.73a2.79,2.79,0,0,1,1.26-2.18C353.3,192.17,353.86,192.5,353.86,193.3Z" transform="translate(0 -4.54)"/><path class="cls-8" d="M357.91,191a2.77,2.77,0,0,1-1.26,2.18c-.69.4-1.25.08-1.25-.72a2.77,2.77,0,0,1,1.25-2.18C357.35,189.83,357.91,190.16,357.91,191Z" transform="translate(0 -4.54)"/><path class="cls-8" d="M362,188.62a2.76,2.76,0,0,1-1.26,2.18c-.69.41-1.25.08-1.25-.72a2.77,2.77,0,0,1,1.25-2.18C361.4,187.5,362,187.82,362,188.62Z" transform="translate(0 -4.54)"/><path class="cls-9" d="M327.8,188.55l-14.59-8.42c-.89-.52-.78-1.42.26-2L327.55,170a3.86,3.86,0,0,1,3.49-.14l14.58,8.42c.9.51.79,1.42-.25,2l-14.08,8.13A3.89,3.89,0,0,1,327.8,188.55Z" transform="translate(0 -4.54)"/><path class="cls-8" d="M329.19,181.5l-2-1.17c-.13-.07-.11-.19,0-.28l2-1.12a.54.54,0,0,1,.48,0l2,1.16c.12.07.11.2,0,.28l-1.95,1.13A.56.56,0,0,1,329.19,181.5Z" transform="translate(0 -4.54)"/><path class="cls-6" d="M313.21,180.13l.05,0a1.1,1.1,0,0,1,.21-.14l14.08-8.13a3.86,3.86,0,0,1,3.49-.15l14.54,8.4c.83-.59.87-1.4,0-1.87L331,169.84a3.86,3.86,0,0,0-3.49.14l-14.08,8.13C312.43,178.71,312.32,179.61,313.21,180.13Z" transform="translate(0 -4.54)"/><path class="cls-11" d="M143.14,240l65.92-37.59c2.42-1.4,2.11-3.83-.67-5.44l-37.93-21.9c-2.79-1.6-7-1.78-9.41-.39l-65.93,37.6c-2.41,1.39-2.11,3.82.68,5.43l37.93,21.9C136.51,241.25,140.73,241.42,143.14,240Z" transform="translate(0 -4.54)"/><path class="cls-2" d="M139,231.64a12.74,12.74,0,0,1-6.2-1.56L94.91,208.17c-2-1.16-3.19-2.84-3.19-4.6a4.55,4.55,0,0,1,2.52-3.89l65.93-37.6c2.94-1.69,7.85-1.52,11.17.39l37.93,21.91c2,1.17,3.19,2.84,3.19,4.6a4.54,4.54,0,0,1-2.51,3.89L144,230.47A10.18,10.18,0,0,1,139,231.64Zm26.07-67.19a6.56,6.56,0,0,0-3.18.7L96,202.75c-.46.26-.74.57-.74.82s.44,1,1.42,1.54L134.61,227c2.22,1.28,5.79,1.46,7.64.39h0l65.93-37.59c.45-.26.73-.57.73-.82s-.44-1-1.42-1.54l-37.93-21.9A9.23,9.23,0,0,0,165.11,164.45Z" transform="translate(0 -4.54)"/><path class="cls-14" d="M93.51,191.69h0V48.21l57-14.93,10.51-6.06c2.41-1.39,6.62-1.22,9.41.39l9.8,5.66,30.42,0-9,138.5a2.72,2.72,0,0,1-1.61,2.52l-56.92,42.95c-2.41,1.4-6.63,1.22-9.41-.39L95.8,194.93C94.19,194,93.42,192.8,93.51,191.69Z" transform="translate(0 -4.54)"/><path class="cls-8" d="M165.41,26.29a10.78,10.78,0,0,1,5.05,1.32l9.8,5.66,30.42,0V177.11a2.73,2.73,0,0,1-1.62,2.52l-65.92,37.59a8.53,8.53,0,0,1-4.37.94L138.09,73.4Z" transform="translate(0 -4.54)"/><path class="cls-9" d="M142.53,217.52a10.71,10.71,0,0,1-7.52-.09V71.69h7.52Z" transform="translate(0 -4.54)"/><path class="cls-8" d="M143.14,73.41l65.92-37.59c2.42-1.39,2.11-3.82-.67-5.43L170.46,8.49c-2.79-1.61-7-1.78-9.41-.39L95.12,45.69c-2.41,1.39-2.11,3.83.68,5.43L133.73,73C136.51,74.63,140.73,74.81,143.14,73.41Z" transform="translate(0 -4.54)"/><path class="cls-15" d="M95.8,48.46l37.93,21.9c2.78,1.6,7,1.78,9.41.39l65.92-37.6a3.65,3.65,0,0,0,1.21-1.06c.83,1.33.45,2.78-1.21,3.73L143.14,73.41c-2.41,1.4-6.63,1.22-9.41-.39L95.8,51.12c-2.17-1.25-2.82-3-1.88-4.36A5.26,5.26,0,0,0,95.8,48.46Z" transform="translate(0 -4.54)"/><path class="cls-16" d="M141.27,58.18l43.9-25.45c1.12-.65,1-1.78-.32-2.54L167.1,19.94a4.9,4.9,0,0,0-4.4-.18L118.8,45.21c-1.13.65-1,1.79.32,2.54L136.87,58A4.9,4.9,0,0,0,141.27,58.18Z" transform="translate(0 -4.54)"/><path class="cls-8" d="M165,33.88l2.54-1.47c.16-.09.14-.25,0-.35L165,30.64a.69.69,0,0,0-.61,0l-2.54,1.47c-.16.09-.14.25,0,.35l2.46,1.42A.66.66,0,0,0,165,33.88Z" transform="translate(0 -4.54)"/><path class="cls-8" d="M156.47,38.76,159,37.3c.16-.1.14-.25,0-.36l-2.46-1.41a.64.64,0,0,0-.6,0L153.36,37c-.15.09-.13.25,0,.35l2.45,1.42A.69.69,0,0,0,156.47,38.76Z" transform="translate(0 -4.54)"/><path class="cls-8" d="M148,43.65l2.55-1.47c.15-.09.13-.25-.05-.35L148,40.41a.69.69,0,0,0-.61,0l-2.55,1.46c-.15.09-.13.25,0,.36l2.45,1.41A.66.66,0,0,0,148,43.65Z" transform="translate(0 -4.54)"/><path class="cls-8" d="M139.48,48.54,142,47.07c.16-.09.14-.25,0-.35l-2.46-1.42a.66.66,0,0,0-.61,0l-2.54,1.47c-.16.09-.14.25,0,.35l2.46,1.42A.69.69,0,0,0,139.48,48.54Z" transform="translate(0 -4.54)"/><path class="cls-9" d="M185.17,32.73l-.06,0-.26-.18L167.1,22.33a4.9,4.9,0,0,0-4.4-.18L118.85,47.57c-1-.75-1.09-1.76,0-2.36l43.9-25.45a4.9,4.9,0,0,1,4.4.18l17.75,10.25C186.15,31,186.29,32.08,185.17,32.73Z" transform="translate(0 -4.54)"/><path class="cls-16" d="M126.32,101.84,101.37,87.55a6.09,6.09,0,0,1-2.55-4.86V73.77c0-1.87,1.14-2.74,2.55-1.92l24.95,14.28A6.1,6.1,0,0,1,128.87,91v8.93C128.87,101.79,127.73,102.65,126.32,101.84Z" transform="translate(0 -4.54)"/><path class="cls-3" d="M100.13,71.58a2.49,2.49,0,0,0-.64,1.85v8.93A6.09,6.09,0,0,0,102,87.22L127,101.51a1.79,1.79,0,0,0,1.24.26,1.52,1.52,0,0,1-1.91.07L101.37,87.55a6.09,6.09,0,0,1-2.55-4.86V73.77C98.82,72.5,99.35,71.71,100.13,71.58Z" transform="translate(0 -4.54)"/><path class="cls-6" d="M118.82,92.14l-2.29-1.32a1.31,1.31,0,0,1-.56-1.06V87.32c0-.41.25-.6.56-.42l2.29,1.32a1.34,1.34,0,0,1,.55,1.06v2.45C119.37,92.13,119.12,92.32,118.82,92.14Z" transform="translate(0 -4.54)"/><path class="cls-3" d="M111.16,87.73l-2.29-1.33a1.33,1.33,0,0,1-.55-1.06V82.9c0-.41.25-.6.55-.42l2.29,1.32a1.33,1.33,0,0,1,.56,1.06v2.45C111.72,87.71,111.47,87.9,111.16,87.73Z" transform="translate(0 -4.54)"/><path class="cls-16" d="M126.32,166.33,101.37,152a6.07,6.07,0,0,1-2.55-4.86v-8.92c0-1.87,1.14-2.73,2.55-1.92l24.95,14.29a6.07,6.07,0,0,1,2.55,4.85v8.93C128.87,166.28,127.73,167.14,126.32,166.33Z" transform="translate(0 -4.54)"/><path class="cls-3" d="M100.13,136.07a2.49,2.49,0,0,0-.64,1.85v8.93a6.09,6.09,0,0,0,2.55,4.86L127,166a1.86,1.86,0,0,0,1.24.27,1.52,1.52,0,0,1-1.91.06L101.37,152a6.07,6.07,0,0,1-2.55-4.86v-8.92C98.82,137,99.35,136.2,100.13,136.07Z" transform="translate(0 -4.54)"/><path class="cls-6" d="M118.82,156.64l-2.29-1.33a1.31,1.31,0,0,1-.56-1.05v-2.45c0-.41.25-.6.56-.42l2.29,1.32a1.34,1.34,0,0,1,.55,1.06v2.45C119.37,156.63,119.12,156.81,118.82,156.64Z" transform="translate(0 -4.54)"/><path class="cls-3" d="M111.16,152.22l-2.29-1.32a1.36,1.36,0,0,1-.55-1.06v-2.45c0-.41.25-.6.55-.42l2.29,1.32a1.33,1.33,0,0,1,.56,1.06v2.45C111.72,152.21,111.47,152.39,111.16,152.22Z" transform="translate(0 -4.54)"/><path class="cls-16" d="M126.32,198.58l-24.95-14.29a6.09,6.09,0,0,1-2.55-4.86V170.5c0-1.87,1.14-2.73,2.55-1.92l24.95,14.29a6.09,6.09,0,0,1,2.55,4.86v8.92C128.87,198.53,127.73,199.39,126.32,198.58Z" transform="translate(0 -4.54)"/><path class="cls-3" d="M100.13,168.31a2.5,2.5,0,0,0-.64,1.86v8.92A6.07,6.07,0,0,0,102,184L127,198.24a1.86,1.86,0,0,0,1.24.27,1.52,1.52,0,0,1-1.91.07l-24.95-14.29a6.09,6.09,0,0,1-2.55-4.86V170.5C98.82,169.23,99.35,168.45,100.13,168.31Z" transform="translate(0 -4.54)"/><path class="cls-6" d="M118.82,188.88l-2.29-1.32a1.33,1.33,0,0,1-.56-1.06v-2.44c0-.41.25-.6.56-.42l2.29,1.32a1.34,1.34,0,0,1,.55,1.06v2.44C119.37,188.87,119.12,189.06,118.82,188.88Z" transform="translate(0 -4.54)"/><path class="cls-3" d="M111.16,184.46l-2.29-1.32a1.34,1.34,0,0,1-.55-1.06v-2.44c0-.41.25-.6.55-.42l2.29,1.32a1.33,1.33,0,0,1,.56,1.06V184C111.72,184.45,111.47,184.64,111.16,184.46Z" transform="translate(0 -4.54)"/><path class="cls-16" d="M126.32,134.09,101.37,119.8a6.09,6.09,0,0,1-2.55-4.86V106c0-1.87,1.14-2.73,2.55-1.92l24.95,14.29a6.09,6.09,0,0,1,2.55,4.86v8.92C128.87,134,127.73,134.9,126.32,134.09Z" transform="translate(0 -4.54)"/><path class="cls-3" d="M100.13,103.82a2.5,2.5,0,0,0-.64,1.86v8.92a6.07,6.07,0,0,0,2.55,4.86L127,133.75a1.86,1.86,0,0,0,1.24.27,1.52,1.52,0,0,1-1.91.07L101.37,119.8a6.09,6.09,0,0,1-2.55-4.86V106C98.82,104.74,99.35,104,100.13,103.82Z" transform="translate(0 -4.54)"/><path class="cls-6" d="M118.82,124.39l-2.29-1.32A1.33,1.33,0,0,1,116,122v-2.45c0-.4.25-.59.56-.41l2.29,1.32a1.33,1.33,0,0,1,.55,1.06V124C119.37,124.38,119.12,124.57,118.82,124.39Z" transform="translate(0 -4.54)"/><path class="cls-3" d="M111.16,120l-2.29-1.32a1.34,1.34,0,0,1-.55-1.06v-2.45c0-.4.25-.59.55-.41l2.29,1.32a1.31,1.31,0,0,1,.56,1.06v2.44C111.72,120,111.47,120.15,111.16,120Z" transform="translate(0 -4.54)"/><path class="cls-9" d="M147.94,92.7l57.58-33.24A5.6,5.6,0,0,0,207.85,55V44c0-1.71-1-2.5-2.33-1.76L147.94,75.5A5.59,5.59,0,0,0,145.61,80v11C145.61,92.66,146.65,93.45,147.94,92.7Z" transform="translate(0 -4.54)"/><path class="cls-17" d="M149.59,88.85l54.27-31.33a2.83,2.83,0,0,0,1.19-2.26V47c0-.88-.53-1.28-1.19-.9L149.59,77.44a2.85,2.85,0,0,0-1.18,2.27V88C148.41,88.83,148.94,89.23,149.59,88.85Z" transform="translate(0 -4.54)"/><path class="cls-8" d="M192.55,59.88l8.1-4.68A2.73,2.73,0,0,0,201.8,53h0c0-.85-.51-1.24-1.15-.87l-8.1,4.67A2.77,2.77,0,0,0,191.4,59h0C191.4,59.86,191.92,60.24,192.55,59.88Z" transform="translate(0 -4.54)"/><path class="cls-16" d="M185.65,62.33c0,.85.6,1.19,1.33.77a3,3,0,0,0,1.33-2.3c0-.85-.6-1.19-1.33-.77A2.94,2.94,0,0,0,185.65,62.33Z" transform="translate(0 -4.54)"/><path class="cls-16" d="M181,65c0,.85.59,1.19,1.33.77a2.93,2.93,0,0,0,1.32-2.3c0-.85-.59-1.19-1.32-.77A2.94,2.94,0,0,0,181,65Z" transform="translate(0 -4.54)"/><path class="cls-8" d="M176.28,67.74c0,.84.6,1.19,1.33.76a2.91,2.91,0,0,0,1.33-2.3c0-.84-.59-1.18-1.33-.76A2.94,2.94,0,0,0,176.28,67.74Z" transform="translate(0 -4.54)"/><path class="cls-16" d="M171.6,70.44c0,.85.6,1.19,1.33.77a3,3,0,0,0,1.33-2.3c0-.85-.6-1.19-1.33-.77A3,3,0,0,0,171.6,70.44Z" transform="translate(0 -4.54)"/><path class="cls-16" d="M151.87,84.26l2.73-1.58a1.74,1.74,0,0,0,.74-1.41V78.39c0-.55-.33-.8-.74-.56l-2.73,1.57a1.79,1.79,0,0,0-.73,1.41V83.7C151.14,84.24,151.47,84.49,151.87,84.26Z" transform="translate(0 -4.54)"/><path class="cls-9" d="M147.94,112.06l57.58-33.24a5.6,5.6,0,0,0,2.33-4.46v-11c0-1.71-1-2.5-2.33-1.76L147.94,94.86a5.59,5.59,0,0,0-2.33,4.46v11C145.61,112,146.65,112.81,147.94,112.06Z" transform="translate(0 -4.54)"/><path class="cls-17" d="M149.59,108.21l54.27-31.33a2.83,2.83,0,0,0,1.19-2.26V66.37c0-.88-.53-1.28-1.19-.9L149.59,96.8a2.85,2.85,0,0,0-1.18,2.27v8.25C148.41,108.19,148.94,108.59,149.59,108.21Z" transform="translate(0 -4.54)"/><path class="cls-8" d="M192.55,79.24l8.1-4.68a2.73,2.73,0,0,0,1.15-2.19h0c0-.85-.51-1.24-1.15-.87l-8.1,4.67a2.77,2.77,0,0,0-1.15,2.2h0C191.4,79.22,191.92,79.61,192.55,79.24Z" transform="translate(0 -4.54)"/><path class="cls-3" d="M185.65,81.69c0,.85.6,1.19,1.33.77a3,3,0,0,0,1.33-2.3c0-.85-.6-1.19-1.33-.77A2.94,2.94,0,0,0,185.65,81.69Z" transform="translate(0 -4.54)"/><path class="cls-16" d="M181,84.39c0,.85.59,1.19,1.33.77a2.93,2.93,0,0,0,1.32-2.3c0-.85-.59-1.19-1.32-.76A2.91,2.91,0,0,0,181,84.39Z" transform="translate(0 -4.54)"/><path class="cls-8" d="M176.28,87.1c0,.84.6,1.19,1.33.76a2.91,2.91,0,0,0,1.33-2.29c0-.85-.59-1.19-1.33-.77A2.94,2.94,0,0,0,176.28,87.1Z" transform="translate(0 -4.54)"/><path class="cls-16" d="M171.6,89.8c0,.85.6,1.19,1.33.77a3,3,0,0,0,1.33-2.3c0-.85-.6-1.19-1.33-.77A3,3,0,0,0,171.6,89.8Z" transform="translate(0 -4.54)"/><path class="cls-16" d="M151.87,103.62,154.6,102a1.74,1.74,0,0,0,.74-1.41V97.75c0-.55-.33-.8-.74-.56l-2.73,1.57a1.79,1.79,0,0,0-.73,1.41v2.89C151.14,103.6,151.47,103.85,151.87,103.62Z" transform="translate(0 -4.54)"/><path class="cls-9" d="M147.94,131.42l57.58-33.24a5.6,5.6,0,0,0,2.33-4.46v-11c0-1.72-1-2.51-2.33-1.77l-57.58,33.24a5.59,5.59,0,0,0-2.33,4.46v11C145.61,131.38,146.65,132.17,147.94,131.42Z" transform="translate(0 -4.54)"/><path class="cls-17" d="M149.59,127.58l54.27-31.34A2.83,2.83,0,0,0,205.05,94V85.73c0-.88-.53-1.28-1.19-.9l-54.27,31.33a2.85,2.85,0,0,0-1.18,2.27v8.25C148.41,127.55,148.94,128,149.59,127.58Z" transform="translate(0 -4.54)"/><path class="cls-8" d="M192.55,98.6l8.1-4.68a2.73,2.73,0,0,0,1.15-2.19h0c0-.85-.51-1.24-1.15-.87l-8.1,4.67a2.77,2.77,0,0,0-1.15,2.2h0C191.4,98.58,191.92,99,192.55,98.6Z" transform="translate(0 -4.54)"/><path class="cls-3" d="M185.65,101.05c0,.85.6,1.19,1.33.77a3,3,0,0,0,1.33-2.3c0-.85-.6-1.19-1.33-.77A2.94,2.94,0,0,0,185.65,101.05Z" transform="translate(0 -4.54)"/><path class="cls-16" d="M181,103.75c0,.85.59,1.19,1.33.77a2.93,2.93,0,0,0,1.32-2.3c0-.84-.59-1.19-1.32-.76A2.91,2.91,0,0,0,181,103.75Z" transform="translate(0 -4.54)"/><path class="cls-8" d="M176.28,106.46c0,.84.6,1.19,1.33.76a2.91,2.91,0,0,0,1.33-2.29c0-.85-.59-1.19-1.33-.77A2.94,2.94,0,0,0,176.28,106.46Z" transform="translate(0 -4.54)"/><path class="cls-16" d="M171.6,109.16c0,.85.6,1.19,1.33.77a2.94,2.94,0,0,0,1.33-2.3c0-.85-.6-1.19-1.33-.77A3,3,0,0,0,171.6,109.16Z" transform="translate(0 -4.54)"/><path class="cls-16" d="M151.87,123l2.73-1.58a1.74,1.74,0,0,0,.74-1.41v-2.88c0-.55-.33-.8-.74-.56l-2.73,1.57a1.79,1.79,0,0,0-.73,1.41v2.89C151.14,123,151.47,123.21,151.87,123Z" transform="translate(0 -4.54)"/><path class="cls-9" d="M147.94,150.79l57.58-33.25a5.6,5.6,0,0,0,2.33-4.46v-11c0-1.72-1-2.51-2.33-1.77l-57.58,33.24a5.59,5.59,0,0,0-2.33,4.46v11C145.61,150.74,146.65,151.53,147.94,150.79Z" transform="translate(0 -4.54)"/><path class="cls-17" d="M149.59,146.94l54.27-31.34a2.83,2.83,0,0,0,1.19-2.26v-8.25c0-.88-.53-1.28-1.19-.9l-54.27,31.33a2.85,2.85,0,0,0-1.18,2.27V146C148.41,146.91,148.94,147.31,149.59,146.94Z" transform="translate(0 -4.54)"/><path class="cls-8" d="M192.55,118l8.1-4.68a2.73,2.73,0,0,0,1.15-2.19h0c0-.85-.51-1.24-1.15-.87l-8.1,4.67a2.77,2.77,0,0,0-1.15,2.2h0C191.4,117.94,191.92,118.33,192.55,118Z" transform="translate(0 -4.54)"/><path class="cls-16" d="M185.65,120.41c0,.85.6,1.19,1.33.77a3,3,0,0,0,1.33-2.3c0-.85-.6-1.19-1.33-.77A3,3,0,0,0,185.65,120.41Z" transform="translate(0 -4.54)"/><path class="cls-16" d="M181,123.12c0,.84.59,1.18,1.33.76a2.93,2.93,0,0,0,1.32-2.3c0-.84-.59-1.19-1.32-.76A2.91,2.91,0,0,0,181,123.12Z" transform="translate(0 -4.54)"/><path class="cls-8" d="M176.28,125.82c0,.85.6,1.19,1.33.77a2.94,2.94,0,0,0,1.33-2.3c0-.85-.59-1.19-1.33-.77A2.94,2.94,0,0,0,176.28,125.82Z" transform="translate(0 -4.54)"/><path class="cls-16" d="M171.6,128.52c0,.85.6,1.19,1.33.77a2.94,2.94,0,0,0,1.33-2.3c0-.85-.6-1.19-1.33-.77A3,3,0,0,0,171.6,128.52Z" transform="translate(0 -4.54)"/><path class="cls-8" d="M151.87,142.34l2.73-1.58a1.74,1.74,0,0,0,.74-1.41v-2.88c0-.55-.33-.8-.74-.56l-2.73,1.58a1.76,1.76,0,0,0-.73,1.4v2.89C151.14,142.32,151.47,142.57,151.87,142.34Z" transform="translate(0 -4.54)"/><path class="cls-9" d="M147.94,170.15l57.58-33.25a5.6,5.6,0,0,0,2.33-4.46v-11c0-1.72-1-2.51-2.33-1.77l-57.58,33.24a5.59,5.59,0,0,0-2.33,4.46v11C145.61,170.1,146.65,170.89,147.94,170.15Z" transform="translate(0 -4.54)"/><path class="cls-17" d="M149.59,166.3,203.86,135a2.83,2.83,0,0,0,1.19-2.26v-8.25c0-.88-.53-1.28-1.19-.9l-54.27,31.34a2.83,2.83,0,0,0-1.18,2.26v8.25C148.41,166.27,148.94,166.67,149.59,166.3Z" transform="translate(0 -4.54)"/><path class="cls-8" d="M192.55,137.32l8.1-4.68a2.73,2.73,0,0,0,1.15-2.19h0c0-.85-.51-1.24-1.15-.87l-8.1,4.67a2.77,2.77,0,0,0-1.15,2.2h0C191.4,137.3,191.92,137.69,192.55,137.32Z" transform="translate(0 -4.54)"/><path class="cls-16" d="M185.65,139.77c0,.85.6,1.19,1.33.77a3,3,0,0,0,1.33-2.3c0-.85-.6-1.19-1.33-.77A3,3,0,0,0,185.65,139.77Z" transform="translate(0 -4.54)"/><path class="cls-3" d="M181,142.48c0,.84.59,1.19,1.33.76a2.93,2.93,0,0,0,1.32-2.3c0-.84-.59-1.19-1.32-.76A2.91,2.91,0,0,0,181,142.48Z" transform="translate(0 -4.54)"/><path class="cls-8" d="M176.28,145.18c0,.85.6,1.19,1.33.77a2.94,2.94,0,0,0,1.33-2.3c0-.85-.59-1.19-1.33-.77A2.94,2.94,0,0,0,176.28,145.18Z" transform="translate(0 -4.54)"/><path class="cls-3" d="M171.6,147.88c0,.85.6,1.19,1.33.77a2.94,2.94,0,0,0,1.33-2.3c0-.85-.6-1.19-1.33-.77A3,3,0,0,0,171.6,147.88Z" transform="translate(0 -4.54)"/><path class="cls-8" d="M151.87,161.7l2.73-1.58a1.74,1.74,0,0,0,.74-1.41v-2.88c0-.54-.33-.79-.74-.56l-2.73,1.58a1.76,1.76,0,0,0-.73,1.41v2.88C151.14,161.69,151.47,161.93,151.87,161.7Z" transform="translate(0 -4.54)"/><path class="cls-9" d="M147.94,189.51l57.58-33.25a5.6,5.6,0,0,0,2.33-4.45v-11c0-1.72-1-2.51-2.33-1.77L147.94,172.3a5.59,5.59,0,0,0-2.33,4.46v11C145.61,189.46,146.65,190.25,147.94,189.51Z" transform="translate(0 -4.54)"/><path class="cls-17" d="M149.59,185.66l54.27-31.34a2.81,2.81,0,0,0,1.19-2.26v-8.25c0-.87-.53-1.28-1.19-.9l-54.27,31.34a2.83,2.83,0,0,0-1.18,2.26v8.25C148.41,185.63,148.94,186,149.59,185.66Z" transform="translate(0 -4.54)"/><path class="cls-8" d="M192.55,156.68l8.1-4.68a2.73,2.73,0,0,0,1.15-2.19h0c0-.85-.51-1.24-1.15-.87l-8.1,4.67a2.77,2.77,0,0,0-1.15,2.2h0C191.4,156.66,191.92,157.05,192.55,156.68Z" transform="translate(0 -4.54)"/><path class="cls-16" d="M185.65,159.13c0,.85.6,1.19,1.33.77a2.94,2.94,0,0,0,1.33-2.3c0-.85-.6-1.19-1.33-.77A3,3,0,0,0,185.65,159.13Z" transform="translate(0 -4.54)"/><path class="cls-16" d="M181,161.84c0,.84.59,1.19,1.33.76a2.93,2.93,0,0,0,1.32-2.3c0-.84-.59-1.19-1.32-.76A2.91,2.91,0,0,0,181,161.84Z" transform="translate(0 -4.54)"/><path class="cls-8" d="M176.28,164.54c0,.85.6,1.19,1.33.77a2.94,2.94,0,0,0,1.33-2.3c0-.85-.59-1.19-1.33-.77A2.94,2.94,0,0,0,176.28,164.54Z" transform="translate(0 -4.54)"/><path class="cls-16" d="M171.6,167.24c0,.85.6,1.19,1.33.77a2.94,2.94,0,0,0,1.33-2.3c0-.85-.6-1.19-1.33-.77A3,3,0,0,0,171.6,167.24Z" transform="translate(0 -4.54)"/><path class="cls-16" d="M151.87,181.06l2.73-1.58a1.74,1.74,0,0,0,.74-1.4v-2.89c0-.54-.33-.79-.74-.56l-2.73,1.58a1.76,1.76,0,0,0-.73,1.41v2.88C151.14,181.05,151.47,181.3,151.87,181.06Z" transform="translate(0 -4.54)"/><path class="cls-9" d="M147.94,208.87l57.58-33.25a5.6,5.6,0,0,0,2.33-4.45v-11c0-1.72-1-2.51-2.33-1.77l-57.58,33.24a5.59,5.59,0,0,0-2.33,4.46v11C145.61,208.82,146.65,209.61,147.94,208.87Z" transform="translate(0 -4.54)"/><path class="cls-17" d="M149.59,205l54.27-31.34a2.81,2.81,0,0,0,1.19-2.26v-8.25c0-.87-.53-1.28-1.19-.9l-54.27,31.34a2.83,2.83,0,0,0-1.18,2.26v8.25C148.41,205,148.94,205.39,149.59,205Z" transform="translate(0 -4.54)"/><path class="cls-8" d="M192.55,176l8.1-4.68a2.73,2.73,0,0,0,1.15-2.19h0c0-.85-.51-1.24-1.15-.87l-8.1,4.67a2.77,2.77,0,0,0-1.15,2.2h0C191.4,176,191.92,176.41,192.55,176Z" transform="translate(0 -4.54)"/><path class="cls-3" d="M184.17,179.54c0,1.6,1.12,2.25,2.51,1.45a5.57,5.57,0,0,0,2.51-4.35c0-1.59-1.13-2.24-2.51-1.44A5.52,5.52,0,0,0,184.17,179.54Z" transform="translate(0 -4.54)"/><path class="cls-16" d="M174.47,185.22c0,.84.6,1.19,1.33.76a2.94,2.94,0,0,0,1.33-2.3c0-.84-.6-1.19-1.33-.76A2.94,2.94,0,0,0,174.47,185.22Z" transform="translate(0 -4.54)"/><path class="cls-8" d="M169.79,187.92c0,.85.59,1.19,1.33.77a3,3,0,0,0,1.32-2.3c0-.85-.59-1.19-1.32-.77A2.91,2.91,0,0,0,169.79,187.92Z" transform="translate(0 -4.54)"/><path class="cls-16" d="M165.1,190.62c0,.85.6,1.19,1.33.77a2.91,2.91,0,0,0,1.33-2.3c0-.85-.59-1.19-1.33-.77A3,3,0,0,0,165.1,190.62Z" transform="translate(0 -4.54)"/><path class="cls-8" d="M151.87,200.42l2.73-1.57a1.77,1.77,0,0,0,.74-1.41v-2.89c0-.54-.33-.79-.74-.56l-2.73,1.58a1.76,1.76,0,0,0-.73,1.41v2.88C151.14,200.41,151.47,200.66,151.87,200.42Z" transform="translate(0 -4.54)"/><path class="cls-18" d="M143.14,70.8l65.92-37.59c2.42-1.4,2.11-3.83-.67-5.43L170.46,5.87c-2.79-1.6-7-1.78-9.41-.39L95.12,43.08c-2.41,1.39-2.11,3.82.68,5.43l37.93,21.9C136.51,72,140.73,72.19,143.14,70.8Z" transform="translate(0 -4.54)"/><path class="cls-16" d="M171.12,28.41a3.75,3.75,0,0,0-3.42,0L135.4,47.1a1,1,0,0,0,0,2,3.81,3.81,0,0,0,3.42,0l32.3-18.7A1,1,0,0,0,171.12,28.41Z" transform="translate(0 -4.54)"/><path class="cls-11" d="M225.08,287.16,291,249.57c2.41-1.39,2.11-3.82-.68-5.43l-37.93-21.9c-2.79-1.61-7-1.78-9.41-.39l-65.93,37.59c-2.41,1.39-2.11,3.83.68,5.43l37.93,21.9C218.46,288.38,222.67,288.56,225.08,287.16Z" transform="translate(0 -4.54)"/><path class="cls-2" d="M221,278.77a12.71,12.71,0,0,1-6.2-1.56l-37.94-21.9c-2-1.17-3.18-2.85-3.18-4.6a4.56,4.56,0,0,1,2.51-3.9l65.94-37.6c2.93-1.69,7.84-1.52,11.16.4l37.94,21.9c2,1.17,3.19,2.85,3.19,4.61a4.55,4.55,0,0,1-2.52,3.89L226,277.6A10,10,0,0,1,221,278.77Zm26.06-67.18a6.52,6.52,0,0,0-3.17.7l-65.94,37.59c-.46.27-.73.58-.73.83s.43,1,1.41,1.53l37.94,21.9c2.21,1.28,5.78,1.47,7.63.4h0l65.93-37.59c.46-.27.74-.57.74-.82s-.44-1-1.42-1.54l-37.94-21.9A9.23,9.23,0,0,0,247.05,211.59Z" transform="translate(0 -4.54)"/><path class="cls-19" d="M175.45,238.82h0V95.35l57-14.93L243,74.35c2.41-1.39,6.62-1.21,9.41.39l9.8,5.66h30.42l-9,138.5a2.72,2.72,0,0,1-1.61,2.52l-56.92,43c-2.41,1.39-6.62,1.22-9.41-.39l-37.93-21.9C176.13,241.14,175.36,239.94,175.45,238.82Z" transform="translate(0 -4.54)"/><path class="cls-8" d="M247.36,73.42a10.89,10.89,0,0,1,5,1.32l9.8,5.66h30.42V224.25a2.72,2.72,0,0,1-1.61,2.52l-65.93,37.59a8.5,8.5,0,0,1-4.37.93L220,120.53Z" transform="translate(0 -4.54)"/><path class="cls-9" d="M224.47,264.66a10.71,10.71,0,0,1-7.52-.09V118.82h7.52Z" transform="translate(0 -4.54)"/><path class="cls-20" d="M225.08,120.55,291,83c2.41-1.4,2.11-3.83-.68-5.43L252.4,55.62c-2.79-1.6-7-1.78-9.41-.39l-65.93,37.6c-2.41,1.39-2.11,3.82.68,5.43l37.93,21.9C218.46,121.77,222.67,121.94,225.08,120.55Z" transform="translate(0 -4.54)"/><path class="cls-15" d="M177.74,95.59l37.93,21.9c2.79,1.61,7,1.78,9.41.39L291,80.29a3.63,3.63,0,0,0,1.2-1.07c.83,1.33.45,2.78-1.2,3.74l-65.93,37.59c-2.41,1.39-6.62,1.22-9.41-.39l-37.93-21.9c-2.16-1.25-2.82-3-1.88-4.36A5.33,5.33,0,0,0,177.74,95.59Z" transform="translate(0 -4.54)"/><path class="cls-21" d="M223.21,105.31l43.9-25.44c1.13-.65,1-1.79-.32-2.54L249,67.08a4.9,4.9,0,0,0-4.4-.18L200.75,92.34c-1.13.65-1,1.79.31,2.54l17.75,10.25A4.87,4.87,0,0,0,223.21,105.31Z" transform="translate(0 -4.54)"/><path class="cls-8" d="M246.91,81l2.54-1.47c.16-.09.14-.24,0-.35L247,77.77a.67.67,0,0,0-.6,0l-2.55,1.47c-.15.09-.13.25,0,.35L246.3,81A.69.69,0,0,0,246.91,81Z" transform="translate(0 -4.54)"/><path class="cls-8" d="M238.41,85.9,241,84.43c.15-.09.13-.25-.05-.35l-2.45-1.42a.69.69,0,0,0-.61,0L235.3,84.1c-.15.09-.13.25,0,.36l2.45,1.41A.66.66,0,0,0,238.41,85.9Z" transform="translate(0 -4.54)"/><path class="cls-8" d="M229.92,90.78l2.54-1.46c.16-.09.14-.25,0-.36L230,87.55a.66.66,0,0,0-.61,0L226.81,89c-.16.09-.14.25,0,.35l2.46,1.42A.69.69,0,0,0,229.92,90.78Z" transform="translate(0 -4.54)"/><path class="cls-8" d="M221.42,95.67,224,94.2c.16-.09.14-.25,0-.35l-2.46-1.42a.69.69,0,0,0-.61,0l-2.54,1.47c-.16.09-.14.24,0,.35l2.46,1.42A.69.69,0,0,0,221.42,95.67Z" transform="translate(0 -4.54)"/><path class="cls-9" d="M267.11,79.87l-.05,0-.27-.18L249,69.47a4.9,4.9,0,0,0-4.4-.18L200.8,94.7c-1-.74-1.1-1.76-.05-2.36L244.64,66.9a4.9,4.9,0,0,1,4.4.18l17.75,10.25C268.09,78.08,268.24,79.22,267.11,79.87Z" transform="translate(0 -4.54)"/><path class="cls-16" d="M208.27,149l-25-14.29a6.08,6.08,0,0,1-2.54-4.86V120.9c0-1.87,1.13-2.73,2.54-1.92l25,14.29a6.1,6.1,0,0,1,2.54,4.86v8.92C210.81,148.93,209.67,149.79,208.27,149Z" transform="translate(0 -4.54)"/><path class="cls-3" d="M182.07,118.71a2.5,2.5,0,0,0-.63,1.86v8.92a6.06,6.06,0,0,0,2.54,4.86l25,14.29a1.87,1.87,0,0,0,1.24.27,1.51,1.51,0,0,1-1.9.07l-25-14.29a6.08,6.08,0,0,1-2.54-4.86V120.9C180.77,119.63,181.3,118.84,182.07,118.71Z" transform="translate(0 -4.54)"/><path class="cls-6" d="M200.76,139.28,198.47,138a1.32,1.32,0,0,1-.55-1.06v-2.45c0-.4.24-.59.55-.42l2.29,1.33a1.3,1.3,0,0,1,.55,1.06v2.44C201.31,139.27,201.07,139.46,200.76,139.28Z" transform="translate(0 -4.54)"/><path class="cls-3" d="M193.1,134.86l-2.28-1.32a1.33,1.33,0,0,1-.56-1.06V130c0-.4.25-.59.56-.41l2.28,1.32a1.31,1.31,0,0,1,.56,1.06v2.44C193.66,134.85,193.41,135,193.1,134.86Z" transform="translate(0 -4.54)"/><path class="cls-16" d="M208.27,213.47l-25-14.29a6.08,6.08,0,0,1-2.54-4.86v-8.93c0-1.87,1.13-2.73,2.54-1.92l25,14.29a6.1,6.1,0,0,1,2.54,4.86v8.92C210.81,213.42,209.67,214.28,208.27,213.47Z" transform="translate(0 -4.54)"/><path class="cls-3" d="M182.07,183.2a2.5,2.5,0,0,0-.63,1.86V194a6.06,6.06,0,0,0,2.54,4.86l25,14.29a1.87,1.87,0,0,0,1.24.27,1.51,1.51,0,0,1-1.9.07l-25-14.29a6.08,6.08,0,0,1-2.54-4.86v-8.93C180.77,184.12,181.3,183.33,182.07,183.2Z" transform="translate(0 -4.54)"/><path class="cls-6" d="M200.76,203.77l-2.29-1.32a1.32,1.32,0,0,1-.55-1.06V199c0-.41.24-.6.55-.42l2.29,1.32a1.3,1.3,0,0,1,.55,1.06v2.44C201.31,203.76,201.07,204,200.76,203.77Z" transform="translate(0 -4.54)"/><path class="cls-3" d="M193.1,199.35,190.82,198a1.33,1.33,0,0,1-.56-1.06v-2.44c0-.41.25-.6.56-.42l2.28,1.32a1.33,1.33,0,0,1,.56,1.06v2.44C193.66,199.34,193.41,199.53,193.1,199.35Z" transform="translate(0 -4.54)"/><path class="cls-16" d="M208.27,245.71l-25-14.29a6.06,6.06,0,0,1-2.54-4.86v-8.92c0-1.87,1.13-2.73,2.54-1.92l25,14.29a6.09,6.09,0,0,1,2.54,4.86v8.92C210.81,245.66,209.67,246.52,208.27,245.71Z" transform="translate(0 -4.54)"/><path class="cls-3" d="M182.07,215.45a2.5,2.5,0,0,0-.63,1.86v8.92a6.08,6.08,0,0,0,2.54,4.86l25,14.29a1.87,1.87,0,0,0,1.24.27,1.51,1.51,0,0,1-1.9.06l-25-14.29a6.06,6.06,0,0,1-2.54-4.86v-8.92C180.77,216.37,181.3,215.58,182.07,215.45Z" transform="translate(0 -4.54)"/><path class="cls-6" d="M200.76,236l-2.29-1.32a1.33,1.33,0,0,1-.55-1.06v-2.45c0-.41.24-.59.55-.42l2.29,1.32a1.32,1.32,0,0,1,.55,1.06v2.45C201.31,236,201.07,236.19,200.76,236Z" transform="translate(0 -4.54)"/><path class="cls-3" d="M193.1,231.6l-2.28-1.32a1.33,1.33,0,0,1-.56-1.06v-2.45c0-.41.25-.59.56-.42l2.28,1.32a1.34,1.34,0,0,1,.56,1.06v2.45C193.66,231.59,193.41,231.77,193.1,231.6Z" transform="translate(0 -4.54)"/><path class="cls-16" d="M208.27,181.22l-25-14.29a6.06,6.06,0,0,1-2.54-4.86v-8.92c0-1.87,1.13-2.73,2.54-1.92l25,14.29a6.09,6.09,0,0,1,2.54,4.85v8.93C210.81,181.17,209.67,182,208.27,181.22Z" transform="translate(0 -4.54)"/><path class="cls-3" d="M182.07,151a2.49,2.49,0,0,0-.63,1.85v8.93A6.08,6.08,0,0,0,184,166.6l25,14.29a1.87,1.87,0,0,0,1.24.27,1.52,1.52,0,0,1-1.9.06l-25-14.29a6.06,6.06,0,0,1-2.54-4.86v-8.92C180.77,151.88,181.3,151.09,182.07,151Z" transform="translate(0 -4.54)"/><path class="cls-6" d="M200.76,171.53l-2.29-1.33a1.3,1.3,0,0,1-.55-1V166.7c0-.41.24-.6.55-.42l2.29,1.32a1.32,1.32,0,0,1,.55,1.06v2.45C201.31,171.51,201.07,171.7,200.76,171.53Z" transform="translate(0 -4.54)"/><path class="cls-3" d="M193.1,167.11l-2.28-1.33a1.31,1.31,0,0,1-.56-1.05v-2.45c0-.41.25-.6.56-.42l2.28,1.32a1.33,1.33,0,0,1,.56,1.06v2.45C193.66,167.1,193.41,167.28,193.1,167.11Z" transform="translate(0 -4.54)"/><path class="cls-9" d="M229.88,139.84l57.58-33.24a5.59,5.59,0,0,0,2.33-4.46v-11c0-1.72-1-2.51-2.33-1.76l-57.58,33.24a5.58,5.58,0,0,0-2.33,4.46v11C227.55,139.79,228.59,140.58,229.88,139.84Z" transform="translate(0 -4.54)"/><path class="cls-17" d="M231.53,136l54.28-31.33a2.85,2.85,0,0,0,1.18-2.27V94.14c0-.87-.53-1.27-1.18-.89l-54.28,31.33a2.85,2.85,0,0,0-1.18,2.26v8.25C230.35,136,230.88,136.37,231.53,136Z" transform="translate(0 -4.54)"/><path class="cls-8" d="M274.5,107l8.09-4.67a2.75,2.75,0,0,0,1.15-2.2h0c0-.85-.51-1.24-1.15-.87L274.5,104a2.73,2.73,0,0,0-1.15,2.19h0C273.35,107,273.86,107.38,274.5,107Z" transform="translate(0 -4.54)"/><path class="cls-16" d="M267.59,109.47c0,.84.6,1.19,1.33.76a2.94,2.94,0,0,0,1.33-2.3c0-.84-.6-1.19-1.33-.76A2.94,2.94,0,0,0,267.59,109.47Z" transform="translate(0 -4.54)"/><path class="cls-16" d="M262.91,112.17c0,.85.59,1.19,1.33.77a3,3,0,0,0,1.33-2.3c0-.85-.6-1.19-1.33-.77A2.91,2.91,0,0,0,262.91,112.17Z" transform="translate(0 -4.54)"/><path class="cls-8" d="M258.23,114.87c0,.85.59,1.19,1.32.77a2.91,2.91,0,0,0,1.33-2.3c0-.85-.59-1.19-1.33-.77A3,3,0,0,0,258.23,114.87Z" transform="translate(0 -4.54)"/><path class="cls-16" d="M253.54,117.58c0,.84.6,1.19,1.33.76a2.91,2.91,0,0,0,1.33-2.3c0-.84-.59-1.19-1.33-.76A2.94,2.94,0,0,0,253.54,117.58Z" transform="translate(0 -4.54)"/><path class="cls-16" d="M233.82,131.39l2.73-1.57a1.79,1.79,0,0,0,.73-1.41v-2.89c0-.54-.33-.79-.73-.56l-2.73,1.58a1.76,1.76,0,0,0-.74,1.41v2.89C233.08,131.38,233.41,131.63,233.82,131.39Z" transform="translate(0 -4.54)"/><path class="cls-9" d="M229.88,159.2,287.46,126a5.59,5.59,0,0,0,2.33-4.46v-11c0-1.72-1-2.51-2.33-1.76L229.88,142a5.58,5.58,0,0,0-2.33,4.46v11C227.55,159.15,228.59,159.94,229.88,159.2Z" transform="translate(0 -4.54)"/><path class="cls-17" d="M231.53,155.35,285.81,124a2.85,2.85,0,0,0,1.18-2.27V113.5c0-.87-.53-1.27-1.18-.89l-54.28,31.33a2.85,2.85,0,0,0-1.18,2.26v8.25C230.35,155.33,230.88,155.73,231.53,155.35Z" transform="translate(0 -4.54)"/><path class="cls-8" d="M274.5,126.37l8.09-4.67a2.75,2.75,0,0,0,1.15-2.2h0c0-.85-.51-1.23-1.15-.87l-8.09,4.68a2.73,2.73,0,0,0-1.15,2.19h0C273.35,126.35,273.86,126.74,274.5,126.37Z" transform="translate(0 -4.54)"/><path class="cls-3" d="M267.59,128.83c0,.84.6,1.19,1.33.76a2.94,2.94,0,0,0,1.33-2.3c0-.84-.6-1.19-1.33-.76A2.94,2.94,0,0,0,267.59,128.83Z" transform="translate(0 -4.54)"/><path class="cls-16" d="M262.91,131.53c0,.85.59,1.19,1.33.77a3,3,0,0,0,1.33-2.3c0-.85-.6-1.19-1.33-.77A2.91,2.91,0,0,0,262.91,131.53Z" transform="translate(0 -4.54)"/><path class="cls-8" d="M258.23,134.23c0,.85.59,1.19,1.32.77a2.91,2.91,0,0,0,1.33-2.3c0-.85-.59-1.19-1.33-.77A3,3,0,0,0,258.23,134.23Z" transform="translate(0 -4.54)"/><path class="cls-16" d="M253.54,136.94c0,.84.6,1.19,1.33.76a2.91,2.91,0,0,0,1.33-2.3c0-.84-.59-1.19-1.33-.76A2.94,2.94,0,0,0,253.54,136.94Z" transform="translate(0 -4.54)"/><path class="cls-16" d="M233.82,150.75l2.73-1.57a1.79,1.79,0,0,0,.73-1.41v-2.89c0-.54-.33-.79-.73-.56l-2.73,1.58a1.77,1.77,0,0,0-.74,1.41v2.89C233.08,150.74,233.41,151,233.82,150.75Z" transform="translate(0 -4.54)"/><path class="cls-9" d="M229.88,178.56l57.58-33.24a5.59,5.59,0,0,0,2.33-4.46v-11c0-1.72-1-2.51-2.33-1.76l-57.58,33.24a5.58,5.58,0,0,0-2.33,4.46v11C227.55,178.51,228.59,179.3,229.88,178.56Z" transform="translate(0 -4.54)"/><path class="cls-17" d="M231.53,174.71l54.28-31.33a2.85,2.85,0,0,0,1.18-2.27v-8.25c0-.87-.53-1.27-1.18-.89L231.53,163.3a2.85,2.85,0,0,0-1.18,2.26v8.26C230.35,174.69,230.88,175.09,231.53,174.71Z" transform="translate(0 -4.54)"/><path class="cls-8" d="M274.5,145.73l8.09-4.67a2.75,2.75,0,0,0,1.15-2.2h0c0-.85-.51-1.23-1.15-.87l-8.09,4.68a2.74,2.74,0,0,0-1.15,2.19h0C273.35,145.71,273.86,146.1,274.5,145.73Z" transform="translate(0 -4.54)"/><path class="cls-3" d="M267.59,148.19c0,.84.6,1.19,1.33.76a2.94,2.94,0,0,0,1.33-2.3c0-.84-.6-1.19-1.33-.76A2.94,2.94,0,0,0,267.59,148.19Z" transform="translate(0 -4.54)"/><path class="cls-16" d="M262.91,150.89c0,.85.59,1.19,1.33.77a3,3,0,0,0,1.33-2.3c0-.85-.6-1.19-1.33-.77A2.91,2.91,0,0,0,262.91,150.89Z" transform="translate(0 -4.54)"/><path class="cls-8" d="M258.23,153.59c0,.85.59,1.19,1.32.77a2.91,2.91,0,0,0,1.33-2.3c0-.85-.59-1.19-1.33-.77A3,3,0,0,0,258.23,153.59Z" transform="translate(0 -4.54)"/><path class="cls-16" d="M253.54,156.3c0,.84.6,1.19,1.33.76a2.91,2.91,0,0,0,1.33-2.3c0-.84-.59-1.19-1.33-.76A2.94,2.94,0,0,0,253.54,156.3Z" transform="translate(0 -4.54)"/><path class="cls-16" d="M233.82,170.11l2.73-1.57a1.79,1.79,0,0,0,.73-1.41v-2.89c0-.54-.33-.79-.73-.55l-2.73,1.57a1.77,1.77,0,0,0-.74,1.41v2.89C233.08,170.1,233.41,170.35,233.82,170.11Z" transform="translate(0 -4.54)"/><path class="cls-9" d="M229.88,197.92l57.58-33.24a5.59,5.59,0,0,0,2.33-4.46v-11c0-1.72-1-2.51-2.33-1.76l-57.58,33.24a5.58,5.58,0,0,0-2.33,4.46v11C227.55,197.87,228.59,198.66,229.88,197.92Z" transform="translate(0 -4.54)"/><path class="cls-17" d="M231.53,194.07l54.28-31.33a2.85,2.85,0,0,0,1.18-2.26v-8.26c0-.87-.53-1.27-1.18-.89l-54.28,31.33a2.85,2.85,0,0,0-1.18,2.26v8.26C230.35,194.05,230.88,194.45,231.53,194.07Z" transform="translate(0 -4.54)"/><path class="cls-8" d="M274.5,165.09l8.09-4.67a2.75,2.75,0,0,0,1.15-2.2h0c0-.84-.51-1.23-1.15-.87L274.5,162a2.75,2.75,0,0,0-1.15,2.2h0C273.35,165.07,273.86,165.46,274.5,165.09Z" transform="translate(0 -4.54)"/><path class="cls-16" d="M267.59,167.55c0,.84.6,1.19,1.33.76a2.94,2.94,0,0,0,1.33-2.3c0-.84-.6-1.19-1.33-.76A2.94,2.94,0,0,0,267.59,167.55Z" transform="translate(0 -4.54)"/><path class="cls-16" d="M262.91,170.25c0,.85.59,1.19,1.33.77a3,3,0,0,0,1.33-2.3c0-.85-.6-1.19-1.33-.77A2.91,2.91,0,0,0,262.91,170.25Z" transform="translate(0 -4.54)"/><path class="cls-8" d="M258.23,173c0,.85.59,1.19,1.32.77a2.91,2.91,0,0,0,1.33-2.3c0-.85-.59-1.19-1.33-.77A3,3,0,0,0,258.23,173Z" transform="translate(0 -4.54)"/><path class="cls-16" d="M253.54,175.66c0,.84.6,1.19,1.33.76a2.91,2.91,0,0,0,1.33-2.3c0-.84-.59-1.18-1.33-.76A2.94,2.94,0,0,0,253.54,175.66Z" transform="translate(0 -4.54)"/><path class="cls-8" d="M233.82,189.47l2.73-1.57a1.79,1.79,0,0,0,.73-1.41V183.6c0-.54-.33-.79-.73-.55l-2.73,1.57a1.77,1.77,0,0,0-.74,1.41v2.89C233.08,189.46,233.41,189.71,233.82,189.47Z" transform="translate(0 -4.54)"/><path class="cls-9" d="M229.88,217.28,287.46,184a5.59,5.59,0,0,0,2.33-4.46v-11c0-1.72-1-2.51-2.33-1.76l-57.58,33.24a5.58,5.58,0,0,0-2.33,4.46v11C227.55,217.23,228.59,218,229.88,217.28Z" transform="translate(0 -4.54)"/><path class="cls-17" d="M231.53,213.43l54.28-31.33a2.85,2.85,0,0,0,1.18-2.26v-8.26c0-.87-.53-1.27-1.18-.89L231.53,202a2.85,2.85,0,0,0-1.18,2.26v8.26C230.35,213.41,230.88,213.81,231.53,213.43Z" transform="translate(0 -4.54)"/><path class="cls-8" d="M274.5,184.45l8.09-4.67a2.75,2.75,0,0,0,1.15-2.2h0c0-.84-.51-1.23-1.15-.87l-8.09,4.68a2.75,2.75,0,0,0-1.15,2.2h0C273.35,184.43,273.86,184.82,274.5,184.45Z" transform="translate(0 -4.54)"/><path class="cls-16" d="M267.59,186.91c0,.84.6,1.19,1.33.76a2.94,2.94,0,0,0,1.33-2.3c0-.84-.6-1.19-1.33-.76A2.94,2.94,0,0,0,267.59,186.91Z" transform="translate(0 -4.54)"/><path class="cls-3" d="M262.91,189.61c0,.85.59,1.19,1.33.77a3,3,0,0,0,1.33-2.3c0-.85-.6-1.19-1.33-.77A2.91,2.91,0,0,0,262.91,189.61Z" transform="translate(0 -4.54)"/><path class="cls-8" d="M258.23,192.31c0,.85.59,1.19,1.32.77a2.91,2.91,0,0,0,1.33-2.3c0-.85-.59-1.19-1.33-.76A2.92,2.92,0,0,0,258.23,192.31Z" transform="translate(0 -4.54)"/><path class="cls-3" d="M253.54,195c0,.84.6,1.19,1.33.76a2.91,2.91,0,0,0,1.33-2.29c0-.85-.59-1.19-1.33-.77A2.94,2.94,0,0,0,253.54,195Z" transform="translate(0 -4.54)"/><path class="cls-8" d="M233.82,208.83l2.73-1.57a1.79,1.79,0,0,0,.73-1.41V203c0-.54-.33-.79-.73-.55L233.82,204a1.77,1.77,0,0,0-.74,1.41v2.89C233.08,208.82,233.41,209.07,233.82,208.83Z" transform="translate(0 -4.54)"/><path class="cls-9" d="M229.88,236.64l57.58-33.24a5.59,5.59,0,0,0,2.33-4.46V188c0-1.72-1-2.51-2.33-1.76l-57.58,33.24a5.58,5.58,0,0,0-2.33,4.46v11C227.55,236.6,228.59,237.38,229.88,236.64Z" transform="translate(0 -4.54)"/><path class="cls-17" d="M231.53,232.79l54.28-31.33A2.85,2.85,0,0,0,287,199.2v-8.26c0-.87-.53-1.27-1.18-.89l-54.28,31.33a2.85,2.85,0,0,0-1.18,2.26v8.26C230.35,232.77,230.88,233.17,231.53,232.79Z" transform="translate(0 -4.54)"/><path class="cls-8" d="M274.5,203.82l8.09-4.68a2.75,2.75,0,0,0,1.15-2.2h0c0-.84-.51-1.23-1.15-.87l-8.09,4.68a2.75,2.75,0,0,0-1.15,2.2h0C273.35,203.79,273.86,204.18,274.5,203.82Z" transform="translate(0 -4.54)"/><path class="cls-16" d="M267.59,206.27c0,.84.6,1.19,1.33.76a2.94,2.94,0,0,0,1.33-2.3c0-.84-.6-1.19-1.33-.76A2.94,2.94,0,0,0,267.59,206.27Z" transform="translate(0 -4.54)"/><path class="cls-16" d="M262.91,209c0,.85.59,1.19,1.33.77a3,3,0,0,0,1.33-2.3c0-.85-.6-1.19-1.33-.77A2.91,2.91,0,0,0,262.91,209Z" transform="translate(0 -4.54)"/><path class="cls-8" d="M258.23,211.67c0,.85.59,1.19,1.32.77a2.91,2.91,0,0,0,1.33-2.3c0-.84-.59-1.19-1.33-.76A2.92,2.92,0,0,0,258.23,211.67Z" transform="translate(0 -4.54)"/><path class="cls-16" d="M253.54,214.38c0,.84.6,1.19,1.33.76a2.91,2.91,0,0,0,1.33-2.29c0-.85-.59-1.19-1.33-.77A2.94,2.94,0,0,0,253.54,214.38Z" transform="translate(0 -4.54)"/><path class="cls-16" d="M233.82,228.2l2.73-1.58a1.79,1.79,0,0,0,.73-1.41v-2.89c0-.54-.33-.79-.73-.55l-2.73,1.57a1.77,1.77,0,0,0-.74,1.41v2.89C233.08,228.18,233.41,228.43,233.82,228.2Z" transform="translate(0 -4.54)"/><path class="cls-9" d="M229.88,256l57.58-33.24a5.58,5.58,0,0,0,2.33-4.46v-11c0-1.72-1-2.51-2.33-1.76L229.88,238.8a5.58,5.58,0,0,0-2.33,4.46v11C227.55,256,228.59,256.75,229.88,256Z" transform="translate(0 -4.54)"/><path class="cls-17" d="M231.53,252.15l54.28-31.33a2.85,2.85,0,0,0,1.18-2.26V210.3c0-.87-.53-1.27-1.18-.89l-54.28,31.33a2.85,2.85,0,0,0-1.18,2.26v8.26C230.35,252.13,230.88,252.53,231.53,252.15Z" transform="translate(0 -4.54)"/><path class="cls-8" d="M274.5,223.18l8.09-4.68a2.75,2.75,0,0,0,1.15-2.2h0c0-.84-.51-1.23-1.15-.87l-8.09,4.68a2.75,2.75,0,0,0-1.15,2.2h0C273.35,223.15,273.86,223.54,274.5,223.18Z" transform="translate(0 -4.54)"/><path class="cls-3" d="M266.11,226.68c0,1.59,1.13,2.24,2.51,1.44a5.52,5.52,0,0,0,2.51-4.34c0-1.6-1.12-2.25-2.51-1.45A5.57,5.57,0,0,0,266.11,226.68Z" transform="translate(0 -4.54)"/><path class="cls-16" d="M256.41,232.35c0,.85.6,1.19,1.33.77a3,3,0,0,0,1.33-2.3c0-.85-.6-1.19-1.33-.77A3,3,0,0,0,256.41,232.35Z" transform="translate(0 -4.54)"/><path class="cls-8" d="M251.73,235.05c0,.85.6,1.19,1.33.77a2.94,2.94,0,0,0,1.33-2.3c0-.84-.6-1.19-1.33-.76A2.93,2.93,0,0,0,251.73,235.05Z" transform="translate(0 -4.54)"/><path class="cls-16" d="M247.05,237.76c0,.85.59,1.19,1.33.77a3,3,0,0,0,1.32-2.3c0-.85-.59-1.19-1.32-.77A2.91,2.91,0,0,0,247.05,237.76Z" transform="translate(0 -4.54)"/><path class="cls-8" d="M233.82,247.56l2.73-1.58a1.78,1.78,0,0,0,.73-1.41v-2.89c0-.54-.33-.79-.73-.55l-2.73,1.57a1.77,1.77,0,0,0-.74,1.41V247C233.08,247.54,233.41,247.79,233.82,247.56Z" transform="translate(0 -4.54)"/><path class="cls-11" d="M63.94,274.57l-31.16-18c-1.92-1.1-1.68-3,.53-4.3l30.1-17.38a8.32,8.32,0,0,1,7.46-.31l31.16,18c1.91,1.1,1.67,3-.53,4.3L71.4,274.26A8.32,8.32,0,0,1,63.94,274.57Z" transform="translate(0 -4.54)"/><path class="cls-2" d="M69.52,267.24a8.42,8.42,0,0,1-4.14-1l-31.16-18A4,4,0,0,1,32,244.85a4.77,4.77,0,0,1,2.71-4l30.1-17.37a10,10,0,0,1,9.23-.31l31.16,18a4,4,0,0,1,2.18,3.41,4.77,4.77,0,0,1-2.71,4l-30.1,17.37A10.36,10.36,0,0,1,69.52,267.24Zm-2.37-4.06a6.52,6.52,0,0,0,5.69-.31l30.1-17.37c.75-.44.93-.83.94-.9a1,1,0,0,0-.41-.34l-31.16-18a6.56,6.56,0,0,0-5.69.3L36.52,244c-.75.43-.93.83-.94.9a1,1,0,0,0,.41.34Z" transform="translate(0 -4.54)"/><path class="cls-6" d="M105.64,233.57h0V222.82l-24.11,0L73.19,218c-1.91-1.1-5.25-1-7.46.31L58,222.79H33.82v11.06a2.17,2.17,0,0,0,1.28,2l31.17,18c1.91,1.1,5.25,1,7.46-.31l30.09-17.37C105.1,235.41,105.71,234.46,105.64,233.57Z" transform="translate(0 -4.54)"/><path class="cls-22" d="M69.73,217.25a8.72,8.72,0,0,0-4,1.05L58,222.79H33.82v11.06a2.17,2.17,0,0,0,1.28,2l31.17,18a6.78,6.78,0,0,0,3.46.74Z" transform="translate(0 -4.54)"/><path class="cls-8" d="M36.55,222.78H33.82v11.06a2.17,2.17,0,0,0,1.28,2l1.45.83Z" transform="translate(0 -4.54)"/><path class="cls-9" d="M66.75,254.06a8.5,8.5,0,0,0,6-.06V241.44h-6Z" transform="translate(0 -4.54)"/><path class="cls-23" d="M66.27,242.81l-31.17-18c-1.91-1.11-1.67-3,.54-4.31l30.09-17.37c2.21-1.28,5.55-1.42,7.46-.31l31.17,18c1.91,1.1,1.67,3-.54,4.31L73.73,242.5A8.29,8.29,0,0,1,66.27,242.81Z" transform="translate(0 -4.54)"/><path class="cls-3" d="M103.82,223,73.73,240.38c-2.21,1.28-5.55,1.42-7.46.31l-31.17-18a2.84,2.84,0,0,1-1-.85c-.66,1.06-.36,2.21,1,3l31.17,18a8.29,8.29,0,0,0,7.46-.31l30.09-17.37c1.72-1,2.24-2.38,1.49-3.46A4.21,4.21,0,0,1,103.82,223Z" transform="translate(0 -4.54)"/><path class="cls-8" d="M94.18,236.41a2.8,2.8,0,0,1-1.26,2.18c-.7.4-1.26.07-1.26-.73a2.77,2.77,0,0,1,1.26-2.18C93.61,235.28,94.18,235.61,94.18,236.41Z" transform="translate(0 -4.54)"/><path class="cls-8" d="M98.23,234.07A2.8,2.8,0,0,1,97,236.25c-.7.4-1.26.08-1.26-.73A2.77,2.77,0,0,1,97,233.34C97.66,232.94,98.23,233.27,98.23,234.07Z" transform="translate(0 -4.54)"/><path class="cls-8" d="M102.28,231.73a2.8,2.8,0,0,1-1.26,2.18c-.7.4-1.26.08-1.26-.72A2.76,2.76,0,0,1,101,231C101.71,230.6,102.28,230.93,102.28,231.73Z" transform="translate(0 -4.54)"/><path class="cls-9" d="M68.11,231.65l-14.58-8.42c-.9-.51-.79-1.41.25-2l14.08-8.13a3.89,3.89,0,0,1,3.49-.15l14.58,8.42c.9.52.79,1.42-.25,2L71.6,231.51A3.86,3.86,0,0,1,68.11,231.65Z" transform="translate(0 -4.54)"/><path class="cls-8" d="M69.51,224.6l-2-1.16c-.13-.07-.11-.2,0-.28l2-1.12a.49.49,0,0,1,.48,0l2,1.16c.13.07.11.2,0,.28l-2,1.12A.49.49,0,0,1,69.51,224.6Z" transform="translate(0 -4.54)"/><path class="cls-6" d="M53.53,223.23l0,0,.21-.15L67.86,215a3.89,3.89,0,0,1,3.49-.14l14.54,8.4c.83-.59.87-1.4,0-1.88l-14.58-8.42a3.89,3.89,0,0,0-3.49.15l-14.08,8.13C52.74,221.82,52.63,222.72,53.53,223.23Z" transform="translate(0 -4.54)"/><path class="cls-11" d="M151.12,323.34l-31.16-18c-1.91-1.11-1.67-3,.54-4.31l30.09-17.37c2.21-1.28,5.55-1.42,7.46-.31l31.16,18c1.92,1.1,1.68,3-.53,4.31L158.59,323A8.31,8.31,0,0,1,151.12,323.34Z" transform="translate(0 -4.54)"/><path class="cls-2" d="M154.38,316a8.42,8.42,0,0,1-4.14-1l-31.16-18a3.94,3.94,0,0,1-2.18-3.4,4.77,4.77,0,0,1,2.71-4l30.09-17.37c2.79-1.61,6.76-1.74,9.23-.31l31.17,18a4,4,0,0,1,2.18,3.4,4.75,4.75,0,0,1-2.72,4l-30.09,17.38A10.39,10.39,0,0,1,154.38,316ZM152,312a6.53,6.53,0,0,0,5.69-.31l30.09-17.37c.76-.44.94-.83,1-.91a1.44,1.44,0,0,0-.41-.33l-31.16-18a6.58,6.58,0,0,0-5.7.31l-30.09,17.38c-.76.43-.94.83-.94.9a1.12,1.12,0,0,0,.4.34Z" transform="translate(0 -4.54)"/><path class="cls-6" d="M190.5,282.35h0V271.6l-24.12,0-8.33-4.81a8.29,8.29,0,0,0-7.46.31l-7.78,4.49-24.13,0v11.06a2.15,2.15,0,0,0,1.28,2l31.16,18a8.34,8.34,0,0,0,7.47-.31l30.09-17.38C190,284.19,190.57,283.23,190.5,282.35Z" transform="translate(0 -4.54)"/><path class="cls-24" d="M154.59,266a8.57,8.57,0,0,0-4,1.05l-7.78,4.49-24.13,0v11.06a2.15,2.15,0,0,0,1.28,2l31.16,18a6.79,6.79,0,0,0,3.47.74Z" transform="translate(0 -4.54)"/><path class="cls-8" d="M121.41,271.56h-2.73v11.06a2.15,2.15,0,0,0,1.28,2l1.45.84Z" transform="translate(0 -4.54)"/><path class="cls-9" d="M151.6,302.84a8.47,8.47,0,0,0,6-.07V290.22h-6Z" transform="translate(0 -4.54)"/><path class="cls-25" d="M151.12,291.59l-31.16-18c-1.91-1.1-1.67-3,.54-4.3l30.09-17.38c2.21-1.27,5.55-1.41,7.46-.31l31.16,18c1.92,1.1,1.68,3-.53,4.3l-30.09,17.38A8.34,8.34,0,0,1,151.12,291.59Z" transform="translate(0 -4.54)"/><path class="cls-3" d="M188.68,271.79l-30.09,17.37a8.28,8.28,0,0,1-7.47.31l-31.16-18a2.85,2.85,0,0,1-.95-.85,2,2,0,0,0,.95,3l31.16,18a8.34,8.34,0,0,0,7.47-.31l30.09-17.38c1.71-1,2.24-2.37,1.49-3.46A4.22,4.22,0,0,1,188.68,271.79Z" transform="translate(0 -4.54)"/><path class="cls-8" d="M179,285.19a2.79,2.79,0,0,1-1.26,2.18c-.69.4-1.25.07-1.25-.73a2.79,2.79,0,0,1,1.25-2.18C178.47,284.06,179,284.38,179,285.19Z" transform="translate(0 -4.54)"/><path class="cls-8" d="M183.08,282.85a2.77,2.77,0,0,1-1.26,2.18c-.69.4-1.26.07-1.26-.73a2.8,2.8,0,0,1,1.26-2.18C182.52,281.72,183.08,282,183.08,282.85Z" transform="translate(0 -4.54)"/><path class="cls-8" d="M187.13,280.51a2.77,2.77,0,0,1-1.26,2.18c-.69.4-1.26.08-1.26-.73a2.8,2.8,0,0,1,1.26-2.18C186.57,279.38,187.13,279.71,187.13,280.51Z" transform="translate(0 -4.54)"/><path class="cls-9" d="M153,280.43,138.38,272c-.89-.51-.78-1.42.25-2l14.09-8.13a3.86,3.86,0,0,1,3.49-.15l14.58,8.42c.9.52.78,1.42-.25,2l-14.08,8.13A3.89,3.89,0,0,1,153,280.43Z" transform="translate(0 -4.54)"/><path class="cls-8" d="M154.36,273.38l-2-1.16c-.13-.07-.11-.2,0-.28l2-1.13a.54.54,0,0,1,.48,0l2,1.17c.12.07.11.19,0,.28l-1.94,1.12A.56.56,0,0,1,154.36,273.38Z" transform="translate(0 -4.54)"/><path class="cls-6" d="M138.38,272l0,0,.21-.15,14.09-8.13a3.89,3.89,0,0,1,3.49-.14L170.75,272c.82-.59.87-1.39,0-1.87l-14.58-8.42a3.86,3.86,0,0,0-3.49.15L138.63,270C137.6,270.59,137.49,271.5,138.38,272Z" transform="translate(0 -4.54)"/></svg>