<svg xmlns="http://www.w3.org/2000/svg" viewBox="0 0 436.08 408.35"><defs><style>.cls-1,.cls-7,.cls-8{fill:none;}.cls-1{stroke:#fff;stroke-width:3.89px;}.cls-1,.cls-15,.cls-7,.cls-8{stroke-linecap:round;stroke-linejoin:round;}.cls-2{fill:#4145f1;}.cls-14,.cls-3{fill:#000042;}.cls-10,.cls-3{opacity:0.2;}.cls-4{font-size:60px;fill:#030942;font-family:Poppins-ExtraBold, Poppins;font-weight:800;letter-spacing:0.03em;}.cls-5{fill:#81b5fc;}.cls-6{fill:#fff;}.cls-7,.cls-8{stroke:#06007b;}.cls-7{stroke-width:1.87px;}.cls-8{stroke-width:1.94px;}.cls-10,.cls-9{fill:#06007b;}.cls-11{fill:#ff4435;}.cls-12,.cls-15{fill:#c7ffb4;}.cls-13{fill:#4bff35;}.cls-14{opacity:0.1;}.cls-15{stroke:#4bff35;stroke-width:3.74px;}</style></defs><g id="OBJECTS"><line class="cls-1" x1="411.65" y1="29.62" x2="411.65" y2="36.61"/><line class="cls-1" x1="408.16" y1="33.11" x2="415.14" y2="33.11"/><line class="cls-1" x1="353.21" y1="19.29" x2="353.21" y2="30.1"/><line class="cls-1" x1="347.8" y1="24.7" x2="358.62" y2="24.7"/><line class="cls-1" x1="405.74" y1="90.5" x2="405.74" y2="96.2"/><line class="cls-1" x1="402.89" y1="93.35" x2="408.6" y2="93.35"/><path class="cls-1" d="M420.44,94.59a9.84,9.84,0,1,0,9.83-9.83A9.83,9.83,0,0,0,420.44,94.59Z" transform="translate(-32.35 -42.87)"/><line class="cls-1" x1="429.75" y1="135.44" x2="429.75" y2="126.68"/><line class="cls-1" x1="434.13" y1="131.06" x2="425.37" y2="131.06"/><line class="cls-1" x1="378.22" y1="119.59" x2="378.22" y2="110.84"/><line class="cls-1" x1="382.6" y1="115.21" x2="373.84" y2="115.21"/><circle class="cls-1" cx="436.88" cy="194.78" r="7.97" transform="translate(-42.12 323.09) rotate(-45)"/><line class="cls-1" x1="19.15" y1="291.37" x2="19.15" y2="307.1"/><line class="cls-1" x1="11.28" y1="299.23" x2="27.01" y2="299.23"/><line class="cls-1" x1="40.63" y1="355.18" x2="40.63" y2="365.99"/><line class="cls-1" x1="35.22" y1="360.58" x2="46.04" y2="360.58"/><path class="cls-1" d="M50.85,390a8,8,0,1,0-8,8A8,8,0,0,0,50.85,390Z" transform="translate(-32.35 -42.87)"/><path class="cls-1" d="M51.62,416.26a3.49,3.49,0,1,0-3.48,3.49A3.48,3.48,0,0,0,51.62,416.26Z" transform="translate(-32.35 -42.87)"/><line class="cls-1" x1="126.28" y1="164.35" x2="126.28" y2="171.34"/><line class="cls-1" x1="122.79" y1="167.85" x2="129.78" y2="167.85"/><line class="cls-1" x1="38.97" y1="146.46" x2="38.97" y2="157.27"/><line class="cls-1" x1="33.56" y1="151.87" x2="44.38" y2="151.87"/><line class="cls-1" x1="35.56" y1="47.56" x2="35.56" y2="58.38"/><line class="cls-1" x1="30.15" y1="52.97" x2="40.96" y2="52.97"/><circle class="cls-1" cx="58.7" cy="161.96" r="9.83" transform="translate(-67.5 -25.37) rotate(-13.09)"/><path class="cls-1" d="M89.21,70.11a9.84,9.84,0,1,0,9.84-9.84A9.83,9.83,0,0,0,89.21,70.11Z" transform="translate(-32.35 -42.87)"/><path class="cls-1" d="M169.59,232.21a9.84,9.84,0,1,0,9.84-9.83A9.84,9.84,0,0,0,169.59,232.21Z" transform="translate(-32.35 -42.87)"/><path class="cls-1" d="M120.35,84.86a4.31,4.31,0,1,0,4.3-4.3A4.3,4.3,0,0,0,120.35,84.86Z" transform="translate(-32.35 -42.87)"/><path class="cls-1" d="M92.56,145.61a3.49,3.49,0,1,0-3.49,3.48A3.49,3.49,0,0,0,92.56,145.61Z" transform="translate(-32.35 -42.87)"/><path class="cls-1" d="M172.63,58.57a3.49,3.49,0,1,0-3.49,3.48A3.49,3.49,0,0,0,172.63,58.57Z" transform="translate(-32.35 -42.87)"/><path class="cls-2" d="M358.55,124.11c.17-2.06.28-4.14.28-6.24A75,75,0,0,0,211,100.06a36.77,36.77,0,0,0-26.13-11c-19.3,0-35.2,15.15-37.47,34.69A37.72,37.72,0,0,0,150.85,199H352.28a37.72,37.72,0,0,0,6.27-74.91Z" transform="translate(-32.35 -42.87)"/><path class="cls-3" d="M352.28,188.41H150.85A37.72,37.72,0,0,1,113.5,156,37.71,37.71,0,0,0,150.85,199H352.28A37.72,37.72,0,0,0,390,161.3a38.85,38.85,0,0,0-.37-5.32A37.72,37.72,0,0,1,352.28,188.41Z" transform="translate(-32.35 -42.87)"/><text class="cls-4" transform="translate(122.61 125.92)">Cloud</text><rect class="cls-2" x="293.91" y="177.01" width="16.85" height="12.64"/><rect class="cls-2" x="365.51" y="177.01" width="16.85" height="12.64"/><rect class="cls-5" x="283.85" y="167.65" width="108.57" height="15.44"/><rect class="cls-2" x="321.4" y="172.79" width="60.96" height="4.21"/><path class="cls-6" d="M340.88,217.3a2.34,2.34,0,1,0,2.34-2.34A2.34,2.34,0,0,0,340.88,217.3Z" transform="translate(-32.35 -42.87)"/><path class="cls-6" d="M332.93,217.3a2.34,2.34,0,1,0,2.34-2.34A2.33,2.33,0,0,0,332.93,217.3Z" transform="translate(-32.35 -42.87)"/><path class="cls-6" d="M325,217.3a2.34,2.34,0,1,0,2.34-2.34A2.34,2.34,0,0,0,325,217.3Z" transform="translate(-32.35 -42.87)"/><path class="cls-7" d="M288.39,449.82h151a28.08,28.08,0,0,0,28.08-28.08v-151a28.08,28.08,0,0,0-28.08-28.08" transform="translate(-32.35 -42.87)"/><path class="cls-7" d="M467.47,325.64a28.08,28.08,0,0,0-28.08-28.07" transform="translate(-32.35 -42.87)"/><path class="cls-7" d="M467.47,380.24a28.08,28.08,0,0,0-28.08-28.08" transform="translate(-32.35 -42.87)"/><path class="cls-8" d="M440.32,406.45a18.73,18.73,0,0,1,18.73,18.74v2.26a18.74,18.74,0,0,1-18.74,18.73H307.43" transform="translate(-32.35 -42.87)"/><path class="cls-9" d="M425.08,242.11a6.7,6.7,0,0,0,6.71,6.71h4a6.7,6.7,0,0,0,6.71-6.71h0a6.7,6.7,0,0,0-6.71-6.71h-4a6.7,6.7,0,0,0-6.71,6.71Z" transform="translate(-32.35 -42.87)"/><rect class="cls-9" x="279.02" y="231.18" width="22.16" height="11.7"/><rect class="cls-9" x="363.69" y="231.18" width="22.16" height="11.7"/><rect class="cls-5" x="260.56" y="186.48" width="143.75" height="49.01" rx="6.71"/><path class="cls-10" d="M429.94,269H299.62a6.71,6.71,0,0,1-6.71-6.72v9.4a6.71,6.71,0,0,0,6.71,6.72H429.94a6.72,6.72,0,0,0,6.72-6.72v-9.4A6.72,6.72,0,0,1,429.94,269Z" transform="translate(-32.35 -42.87)"/><rect class="cls-6" x="267.94" y="194.54" width="42.3" height="23.5"/><rect class="cls-6" x="316.96" y="194.54" width="79.3" height="23.5"/><rect class="cls-11" x="336.16" y="198.56" width="15.19" height="5.37"/><rect class="cls-11" x="375.23" y="198.56" width="15.19" height="5.37"/><rect class="cls-5" x="355.54" y="198.56" width="15.19" height="5.37"/><path class="cls-9" d="M425.08,297.22a6.71,6.71,0,0,0,6.71,6.72h4a6.71,6.71,0,0,0,6.71-6.72h0a6.7,6.7,0,0,0-6.71-6.71h-4a6.7,6.7,0,0,0-6.71,6.71Z" transform="translate(-32.35 -42.87)"/><rect class="cls-9" x="279.02" y="286.29" width="22.16" height="11.7"/><rect class="cls-9" x="363.69" y="286.29" width="22.16" height="11.7"/><rect class="cls-5" x="260.56" y="241.59" width="143.75" height="49.01" rx="6.71"/><path class="cls-10" d="M429.94,324.08H299.62a6.71,6.71,0,0,1-6.71-6.72v9.4a6.71,6.71,0,0,0,6.71,6.72H429.94a6.72,6.72,0,0,0,6.72-6.72v-9.4A6.72,6.72,0,0,1,429.94,324.08Z" transform="translate(-32.35 -42.87)"/><rect class="cls-6" x="267.94" y="249.65" width="42.3" height="23.5"/><rect class="cls-6" x="316.96" y="249.65" width="79.3" height="23.5"/><rect class="cls-11" x="336.16" y="253.68" width="15.19" height="5.37"/><rect class="cls-11" x="375.23" y="253.68" width="15.19" height="5.37"/><rect class="cls-5" x="355.54" y="253.68" width="15.19" height="5.37"/><path class="cls-9" d="M425.08,352.33a6.71,6.71,0,0,0,6.71,6.72h4a6.71,6.71,0,0,0,6.71-6.72h0a6.7,6.7,0,0,0-6.71-6.71h-4a6.7,6.7,0,0,0-6.71,6.71Z" transform="translate(-32.35 -42.87)"/><rect class="cls-9" x="279.02" y="341.4" width="22.16" height="11.7"/><rect class="cls-9" x="363.69" y="341.4" width="22.16" height="11.7"/><rect class="cls-5" x="260.56" y="296.7" width="143.75" height="49.01" rx="6.71"/><path class="cls-10" d="M429.94,379.19H299.62a6.71,6.71,0,0,1-6.71-6.72v9.4a6.71,6.71,0,0,0,6.71,6.72H429.94a6.72,6.72,0,0,0,6.72-6.72v-9.4A6.72,6.72,0,0,1,429.94,379.19Z" transform="translate(-32.35 -42.87)"/><rect class="cls-6" x="267.94" y="304.76" width="42.3" height="23.5"/><rect class="cls-6" x="316.96" y="304.76" width="79.3" height="23.5"/><rect class="cls-11" x="336.16" y="308.79" width="15.19" height="5.37"/><rect class="cls-11" x="375.23" y="308.79" width="15.19" height="5.37"/><rect class="cls-5" x="355.54" y="308.79" width="15.19" height="5.37"/><path class="cls-9" d="M425.08,407.44a6.71,6.71,0,0,0,6.71,6.72h4a6.71,6.71,0,0,0,6.71-6.72h0a6.7,6.7,0,0,0-6.71-6.71h-4a6.7,6.7,0,0,0-6.71,6.71Z" transform="translate(-32.35 -42.87)"/><rect class="cls-9" x="279.02" y="396.51" width="22.16" height="11.7"/><rect class="cls-9" x="363.69" y="396.51" width="22.16" height="11.7"/><rect class="cls-5" x="260.56" y="351.81" width="143.75" height="49.01" rx="6.71"/><path class="cls-10" d="M429.94,434.3H299.62a6.71,6.71,0,0,1-6.71-6.71V437a6.71,6.71,0,0,0,6.71,6.71H429.94a6.72,6.72,0,0,0,6.72-6.71v-9.4A6.72,6.72,0,0,1,429.94,434.3Z" transform="translate(-32.35 -42.87)"/><rect class="cls-6" x="267.94" y="359.87" width="42.3" height="23.5"/><rect class="cls-6" x="316.96" y="359.87" width="79.3" height="23.5"/><rect class="cls-11" x="336.16" y="363.9" width="15.19" height="5.37"/><rect class="cls-11" x="375.23" y="363.9" width="15.19" height="5.37"/><rect class="cls-5" x="355.54" y="363.9" width="15.19" height="5.37"/><rect class="cls-5" x="232.12" y="161.63" width="16.91" height="84.56"/><polygon class="cls-5" points="219.22 176.66 240.58 139.65 261.94 176.66 219.22 176.66"/><rect class="cls-9" x="142.09" y="255.54" width="76.22" height="143.77"/><rect class="cls-2" x="59.32" y="396.56" width="241.75" height="11.8"/><rect class="cls-6" x="59.46" y="223.89" width="241.47" height="147.41" rx="9.36"/><path class="cls-2" d="M323.92,417.45H101.17a12.65,12.65,0,0,1-12.63-12.64V276.12a12.64,12.64,0,0,1,12.63-12.63H323.92a12.65,12.65,0,0,1,12.64,12.63V404.81A12.65,12.65,0,0,1,323.92,417.45ZM101.17,270a6.09,6.09,0,0,0-6.08,6.08V404.81a6.08,6.08,0,0,0,6.08,6.08H323.92a6.09,6.09,0,0,0,6.09-6.08V276.12a6.09,6.09,0,0,0-6.09-6.08Z" transform="translate(-32.35 -42.87)"/><rect class="cls-5" x="180.69" y="139.65" width="16.91" height="84.56"/><polygon class="cls-5" points="210.51 209.18 189.15 246.19 167.78 209.18 210.51 209.18"/><path class="cls-3" d="M141.71,249.65a4.54,4.54,0,0,0-2.68-3.74L92.09,225.16a4.42,4.42,0,0,0-1.17-.32l-.22,0a4.62,4.62,0,0,0-2.26.34L41.5,245.91a4.53,4.53,0,0,0-2.67,3.74c-5.74,65.74,47.37,88.61,47.91,88.83a4.49,4.49,0,0,0,1.73.35h3.59a4.51,4.51,0,0,0,1.74-.35C94.34,338.26,147.45,315.39,141.71,249.65Z" transform="translate(-32.35 -42.87)"/><path class="cls-12" d="M131.16,245.34,84.22,224.59,37.28,245.34c-5.52,63.2,45.14,84.27,45.14,84.27H86S136.68,308.54,131.16,245.34Z" transform="translate(-32.35 -42.87)"/><path class="cls-13" d="M86,334.13h-3.6a4.49,4.49,0,0,1-1.73-.35c-.54-.22-53.65-23.1-47.91-88.83a4.53,4.53,0,0,1,2.67-3.74l47-20.75a4.47,4.47,0,0,1,3.65,0L133,241.21a4.53,4.53,0,0,1,2.67,3.74c5.74,65.73-47.37,88.61-47.91,88.83A4.49,4.49,0,0,1,86,334.13Zm-2.64-9h1.68c6.27-2.91,45.18-23.19,41.8-76.72L84.22,229.52,41.58,248.38C38.21,301.91,77.11,322.19,83.38,325.1Z" transform="translate(-32.35 -42.87)"/><path class="cls-14" d="M135.66,245a4.53,4.53,0,0,0-2.67-3.74L86.05,220.46a4.52,4.52,0,0,0-2.59-.31v114H86a4.49,4.49,0,0,0,1.73-.35C88.29,333.56,141.4,310.68,135.66,245Z" transform="translate(-32.35 -42.87)"/><circle class="cls-13" cx="85.16" cy="275.48" r="25.59" transform="translate(-92.73 -16.31) rotate(-13.14)"/><polygon class="cls-6" points="46.02 252.93 33.59 231.47 39.13 228.27 46.81 241.53 66.74 216.02 71.78 219.96 46.02 252.93"/><rect class="cls-3" x="129.86" y="258.05" width="150.83" height="83.69" rx="1.87"/><rect class="cls-15" x="126.11" y="256.18" width="147.08" height="79.94"/><rect class="cls-13" x="126.11" y="256.19" width="147" height="10.18"/><path class="cls-6" d="M296.57,303.42a2.58,2.58,0,1,0,2.58-2.58A2.58,2.58,0,0,0,296.57,303.42Z" transform="translate(-32.35 -42.87)"/><path class="cls-6" d="M287.21,303.42a2.58,2.58,0,1,0,2.58-2.58A2.58,2.58,0,0,0,287.21,303.42Z" transform="translate(-32.35 -42.87)"/><path class="cls-6" d="M277.85,303.42a2.58,2.58,0,1,0,2.58-2.58A2.58,2.58,0,0,0,277.85,303.42Z" transform="translate(-32.35 -42.87)"/><rect class="cls-3" x="91.48" y="289.4" width="113.86" height="69.65" rx="1.87"/><rect class="cls-15" x="87.74" y="287.53" width="110.11" height="65.9"/><rect class="cls-13" x="87.74" y="287.55" width="110.03" height="10.18"/><path class="cls-6" d="M221.23,334.77a2.58,2.58,0,1,0,2.57-2.57A2.57,2.57,0,0,0,221.23,334.77Z" transform="translate(-32.35 -42.87)"/><path class="cls-6" d="M211.87,334.77a2.58,2.58,0,1,0,2.57-2.57A2.57,2.57,0,0,0,211.87,334.77Z" transform="translate(-32.35 -42.87)"/><path class="cls-6" d="M202.51,334.77a2.58,2.58,0,1,0,2.57-2.57A2.57,2.57,0,0,0,202.51,334.77Z" transform="translate(-32.35 -42.87)"/></g></svg>