<svg id="Ñëîé_1" data-name="Ñëîé 1" xmlns="http://www.w3.org/2000/svg" xmlns:xlink="http://www.w3.org/1999/xlink" viewBox="0 0 404.01 321.34"><defs><style>.cls-1{opacity:0.4;}.cls-2,.cls-3,.cls-4{fill:#fff;}.cls-3{opacity:0.2;}.cls-27,.cls-4{opacity:0.5;}.cls-5{fill:#7dc3ea;}.cls-6{fill:url(#Áåçûìÿííûé_ãðàäèåíò_3);}.cls-7{fill:url(#Áåçûìÿííûé_ãðàäèåíò_9);}.cls-8{fill:url(#Áåçûìÿííûé_ãðàäèåíò_4);}.cls-9{fill:url(#Áåçûìÿííûé_ãðàäèåíò_3-2);}.cls-10{fill:url(#Áåçûìÿííûé_ãðàäèåíò_9-2);}.cls-11{fill:url(#Áåçûìÿííûé_ãðàäèåíò_4-2);}.cls-12{fill:url(#Áåçûìÿííûé_ãðàäèåíò_3-3);}.cls-13{fill:url(#Áåçûìÿííûé_ãðàäèåíò_9-3);}.cls-14{fill:url(#Áåçûìÿííûé_ãðàäèåíò_4-3);}.cls-15{fill:url(#Áåçûìÿííûé_ãðàäèåíò_3-4);}.cls-16{fill:url(#Áåçûìÿííûé_ãðàäèåíò_9-4);}.cls-17{fill:url(#Áåçûìÿííûé_ãðàäèåíò_4-4);}.cls-18{fill:url(#Áåçûìÿííûé_ãðàäèåíò_18);}.cls-19{fill:url(#Áåçûìÿííûé_ãðàäèåíò_9-5);}.cls-20{fill:#5793ce;}.cls-21{fill:url(#Áåçûìÿííûé_ãðàäèåíò_441);}.cls-22,.cls-27{fill:#173d7a;}.cls-23{fill:#396caa;}.cls-24{fill:#06033e;opacity:0.3;}.cls-25{fill:#d4ecff;}.cls-26{fill:#ff2c9c;}.cls-28{fill:url(#Áåçûìÿííûé_ãðàäèåíò_13);}.cls-29{fill:url(#Áåçûìÿííûé_ãðàäèåíò_45);}.cls-30{fill:url(#Áåçûìÿííûé_ãðàäèåíò_13-2);}.cls-31{fill:url(#Áåçûìÿííûé_ãðàäèåíò_45-2);}.cls-32{fill:url(#Áåçûìÿííûé_ãðàäèåíò_13-3);}.cls-33{fill:url(#Áåçûìÿííûé_ãðàäèåíò_45-3);}</style><radialGradient id="Áåçûìÿííûé_ãðàäèåíò_3" cx="93.22" cy="260.88" r="33.67" gradientUnits="userSpaceOnUse"><stop offset="0" stop-color="#274f89"/><stop offset="1" stop-color="#173d7a"/></radialGradient><linearGradient id="Áåçûìÿííûé_ãðàäèåíò_9" x1="72.77" y1="248.66" x2="132.35" y2="248.66" gradientUnits="userSpaceOnUse"><stop offset="0" stop-color="#d4ecff"/><stop offset="0.24" stop-color="#d0eafe"/><stop offset="0.46" stop-color="#c5e2f9"/><stop offset="0.67" stop-color="#b2d6f2"/><stop offset="0.88" stop-color="#98c4e7"/><stop offset="1" stop-color="#86b8e0"/></linearGradient><radialGradient id="Áåçûìÿííûé_ãðàäèåíò_4" cx="44.82" cy="226.04" r="60.86" gradientUnits="userSpaceOnUse"><stop offset="0" stop-color="#699dd1"/><stop offset="0.27" stop-color="#6396cc"/><stop offset="0.64" stop-color="#5184bd"/><stop offset="1" stop-color="#396caa"/></radialGradient><radialGradient id="Áåçûìÿííûé_ãðàäèåíò_3-2" cx="346.17" cy="120.39" r="33.67" xlink:href="#Áåçûìÿííûé_ãðàäèåíò_3"/><linearGradient id="Áåçûìÿííûé_ãðàäèåíò_9-2" x1="325.71" y1="108.17" x2="385.29" y2="108.17" xlink:href="#Áåçûìÿííûé_ãðàäèåíò_9"/><radialGradient id="Áåçûìÿííûé_ãðàäèåíò_4-2" cx="297.76" cy="85.54" r="60.86" xlink:href="#Áåçûìÿííûé_ãðàäèåíò_4"/><radialGradient id="Áåçûìÿííûé_ãðàäèåíò_3-3" cx="346.17" cy="260.88" r="33.67" xlink:href="#Áåçûìÿííûé_ãðàäèåíò_3"/><linearGradient id="Áåçûìÿííûé_ãðàäèåíò_9-3" x1="325.71" y1="248.66" x2="385.29" y2="248.66" xlink:href="#Áåçûìÿííûé_ãðàäèåíò_9"/><radialGradient id="Áåçûìÿííûé_ãðàäèåíò_4-3" cx="297.76" cy="226.04" r="60.86" xlink:href="#Áåçûìÿííûé_ãðàäèåíò_4"/><radialGradient id="Áåçûìÿííûé_ãðàäèåíò_3-4" cx="93.22" cy="120.39" r="33.67" xlink:href="#Áåçûìÿííûé_ãðàäèåíò_3"/><linearGradient id="Áåçûìÿííûé_ãðàäèåíò_9-4" x1="72.77" y1="108.17" x2="132.35" y2="108.17" xlink:href="#Áåçûìÿííûé_ãðàäèåíò_9"/><radialGradient id="Áåçûìÿííûé_ãðàäèåíò_4-4" cx="44.82" cy="85.54" r="60.86" xlink:href="#Áåçûìÿííûé_ãðàäèåíò_4"/><radialGradient id="Áåçûìÿííûé_ãðàäèåíò_18" cx="201.28" cy="121.07" r="121.15" gradientUnits="userSpaceOnUse"><stop offset="0" stop-color="#396caa"/><stop offset="1" stop-color="#274f89"/></radialGradient><linearGradient id="Áåçûìÿííûé_ãðàäèåíò_9-5" x1="163.17" y1="35.13" x2="276.14" y2="103.95" xlink:href="#Áåçûìÿííûé_ãðàäèåíò_9"/><linearGradient id="Áåçûìÿííûé_ãðàäèåíò_441" x1="-139.53" y1="1285.05" x2="-73.14" y2="1270.01" gradientTransform="matrix(0.87, 0.5, 0, 1.15, 280.73, -1279.29)" gradientUnits="userSpaceOnUse"><stop offset="0" stop-color="#3919bb"/><stop offset="1" stop-color="#6507fa"/></linearGradient><radialGradient id="Áåçûìÿííûé_ãðàäèåíò_13" cx="187.79" cy="264.77" r="43.62" xlink:href="#Áåçûìÿííûé_ãðàäèåíò_4"/><linearGradient id="Áåçûìÿííûé_ãðàäèåíò_45" x1="196.02" y1="250.78" x2="264.35" y2="291.52" gradientUnits="userSpaceOnUse"><stop offset="0" stop-color="#d4ecff"/><stop offset="0.2" stop-color="#d0eafe"/><stop offset="0.39" stop-color="#c5e2f9"/><stop offset="0.57" stop-color="#b2d6f2"/><stop offset="0.74" stop-color="#98c4e7"/><stop offset="0.84" stop-color="#86b8e0"/></linearGradient><radialGradient id="Áåçûìÿííûé_ãðàäèåíò_13-2" cx="314.26" cy="176.85" r="43.62" xlink:href="#Áåçûìÿííûé_ãðàäèåíò_4"/><linearGradient id="Áåçûìÿííûé_ãðàäèåíò_45-2" x1="322.49" y1="162.86" x2="390.82" y2="203.6" xlink:href="#Áåçûìÿííûé_ãðàäèåíò_45"/><radialGradient id="Áåçûìÿííûé_ãðàäèåíò_13-3" cx="61.32" cy="176.85" r="43.62" xlink:href="#Áåçûìÿííûé_ãðàäèåíò_4"/><linearGradient id="Áåçûìÿííûé_ãðàäèåíò_45-3" x1="69.55" y1="162.86" x2="137.88" y2="203.6" xlink:href="#Áåçûìÿííûé_ãðàäèåíò_45"/></defs><g class="cls-1"><path class="cls-2" d="M376.25,93.88,345,75.82l31.28-18.06.28.16,31,17.9ZM347.18,75.82,376.25,92.6l29.07-16.78L376.25,59Z" transform="translate(-3.54 -5.07)"/><path class="cls-2" d="M315.9,93.88,284.61,75.82,315.9,57.76l31.28,18.06ZM286.83,75.82,315.9,92.6,345,75.82,315.9,59Z" transform="translate(-3.54 -5.07)"/><path class="cls-2" d="M346.07,111.3l-.27-.16-31-17.9,31.28-18.06,31.29,18.06ZM317,93.24,346.07,110l29.07-16.79L346.07,76.46Z" transform="translate(-3.54 -5.07)"/><path class="cls-2" d="M376.25,128.73l-.27-.16-31-17.9L376.25,92.6l.28.16,31,17.91Zm-29.07-18.06,29.07,16.78,29.07-16.78L376.25,93.88Z" transform="translate(-3.54 -5.07)"/><path class="cls-2" d="M255.54,93.88l-.27-.16-31-17.9,31.28-18.06.28.16,31,17.9ZM226.47,75.82,255.54,92.6l29.07-16.78L255.54,59Z" transform="translate(-3.54 -5.07)"/><path class="cls-2" d="M285.72,111.3,254.44,93.24l31.28-18.06L317,93.24ZM256.65,93.24,285.72,110l29.07-16.79L285.72,76.46Z" transform="translate(-3.54 -5.07)"/><path class="cls-2" d="M315.9,128.73l-.28-.16-31-17.9L315.9,92.6l.27.16,31,17.91Zm-29.07-18.06,29.07,16.78L345,110.67,315.9,93.88Z" transform="translate(-3.54 -5.07)"/><path class="cls-2" d="M346.08,146.15l-.28-.16-31-17.9L346.07,110l.28.16,31,17.9ZM317,128.09l29.07,16.78,29.07-16.78L346.07,111.3Z" transform="translate(-3.54 -5.07)"/><path class="cls-2" d="M376.25,163.57l-.27-.16-31-17.9,31.28-18.06,31.29,18.06Zm-29.07-18.06,29.07,16.78,29.07-16.78-29.07-16.78Z" transform="translate(-3.54 -5.07)"/><path class="cls-2" d="M195.19,93.88l-.28-.16-31-17.9,31.29-18.06.27.16,31,17.9ZM166.12,75.82,195.19,92.6l29.07-16.78L195.19,59Z" transform="translate(-3.54 -5.07)"/><path class="cls-2" d="M225.37,111.3l-.28-.16-31-17.9,31.29-18.06.27.16,31,17.9ZM196.3,93.24,225.37,110l29.07-16.78L225.37,76.46Z" transform="translate(-3.54 -5.07)"/><path class="cls-2" d="M255.54,128.73l-.27-.16-31-17.91L255.54,92.6l31.29,18.07Zm-29.07-18.07,29.07,16.79,29.07-16.78L255.54,93.88Z" transform="translate(-3.54 -5.07)"/><path class="cls-2" d="M285.72,146.15l-31.28-18.06L285.72,110l.28.16,31,17.9Zm-29.07-18.06,29.07,16.78,29.07-16.78L285.72,111.3Z" transform="translate(-3.54 -5.07)"/><path class="cls-2" d="M315.9,163.57l-.28-.16-31-17.9,31.29-18.06.27.16,31,17.9Zm-29.07-18.06,29.07,16.78L345,145.51,315.9,128.73Z" transform="translate(-3.54 -5.07)"/><path class="cls-2" d="M346.08,181l-.28-.16-31-17.91,31.29-18.06.27.16,31,17.9ZM317,162.93l29.07,16.79,29.07-16.79-29.07-16.78Z" transform="translate(-3.54 -5.07)"/><path class="cls-2" d="M376.25,198.42l-.27-.16-31-17.9,31.28-18.07.28.16,31,17.91Zm-29.07-18.06,29.07,16.78,29.07-16.78-29.07-16.79Z" transform="translate(-3.54 -5.07)"/><path class="cls-2" d="M134.83,93.88l-.27-.16-31-17.9,31.28-18.06.28.16,31,17.9ZM105.76,75.82,134.83,92.6,163.9,75.82,134.83,59Z" transform="translate(-3.54 -5.07)"/><path class="cls-2" d="M165,111.3,133.73,93.24,165,75.18l.28.16,31,17.9ZM135.94,93.24,165,110l29.07-16.78L165,76.46Z" transform="translate(-3.54 -5.07)"/><path class="cls-2" d="M195.19,128.73l-.28-.16-31-17.91L195.19,92.6l.28.16,31,17.9Zm-29.07-18.07,29.07,16.79,29.07-16.79L195.19,93.88Z" transform="translate(-3.54 -5.07)"/><path class="cls-2" d="M225.37,146.15l-.28-.16-31-17.9L225.37,110l.27.16,31,17.91ZM196.3,128.09l29.07,16.78,29.07-16.78L225.37,111.3Z" transform="translate(-3.54 -5.07)"/><path class="cls-2" d="M255.54,163.57l-31.28-18.06,31.28-18.06,31.29,18.06Zm-29.06-18.06,29.06,16.78,29.07-16.78-29.07-16.78Z" transform="translate(-3.54 -5.07)"/><path class="cls-2" d="M285.72,181l-.27-.16-31-17.91,31.28-18.06.28.16,31,17.9Zm-29.07-18.07,29.07,16.79,29.07-16.79-29.07-16.78Z" transform="translate(-3.54 -5.07)"/><path class="cls-2" d="M315.9,198.42l-31.29-18.06,31.29-18.07.28.16,31,17.91Zm-29.07-18.06,29.07,16.78L345,180.36,315.9,163.57Z" transform="translate(-3.54 -5.07)"/><path class="cls-2" d="M346.08,215.84l-.28-.16-31-17.9,31.29-18.06.27.16,31,17.9ZM317,197.78l29.07,16.78,29.07-16.78L346.08,181Z" transform="translate(-3.54 -5.07)"/><path class="cls-2" d="M376.26,233.26l-.28-.16-31-17.9,31.28-18.06.28.16,31,17.9ZM347.19,215.2,376.26,232l29.06-16.79-29.07-16.78Z" transform="translate(-3.54 -5.07)"/><path class="cls-2" d="M74.48,93.88l-.28-.16-31-17.9L74.48,57.76l.28.16,31,17.9ZM45.41,75.82,74.48,92.6l29.07-16.78L74.48,59Z" transform="translate(-3.54 -5.07)"/><path class="cls-2" d="M104.66,111.3l-.28-.16-31-17.9,31.29-18.06.27.16,31,17.9ZM75.59,93.24,104.66,110l29.07-16.78L104.66,76.46Z" transform="translate(-3.54 -5.07)"/><path class="cls-2" d="M134.84,128.73l-.28-.16-31-17.91L134.83,92.6l31.29,18.06Zm-29.07-18.07,29.07,16.79,29.06-16.79L134.83,93.88Z" transform="translate(-3.54 -5.07)"/><path class="cls-2" d="M165,146.15l-31.28-18.06L165,110l.28.16,31,17.91Zm-29.07-18.06L165,144.87l29.07-16.78L165,111.3Z" transform="translate(-3.54 -5.07)"/><path class="cls-2" d="M195.19,163.57l-.28-.16-31-17.9,31.28-18.06.28.16,31,17.9Zm-29.07-18.06,29.07,16.78,29.07-16.78-29.07-16.78Z" transform="translate(-3.54 -5.07)"/><path class="cls-2" d="M225.37,181l-31.29-18.07,31.29-18.06,31.28,18.06ZM196.3,162.93l29.07,16.79,29.07-16.79-29.07-16.78Z" transform="translate(-3.54 -5.07)"/><path class="cls-2" d="M255.55,198.42l-.28-.16-31-17.9,31.28-18.07.28.16,31,17.91Zm-29.07-18.06,29.07,16.78,29.06-16.78-29.07-16.79Z" transform="translate(-3.54 -5.07)"/><path class="cls-2" d="M285.72,215.84l-.27-.16-31-17.9,31.28-18.06L317,197.78Zm-29.07-18.06,29.07,16.78,29.07-16.78L285.72,181Z" transform="translate(-3.54 -5.07)"/><path class="cls-2" d="M315.9,233.26,284.62,215.2l31.28-18.06.28.16,31,17.9ZM286.83,215.2,315.9,232,345,215.2,315.9,198.42Z" transform="translate(-3.54 -5.07)"/><path class="cls-2" d="M346.08,250.69l-.28-.16-31-17.9,31.29-18.07.27.16,31,17.91ZM317,232.63l29.07,16.78,29.07-16.78-29.07-16.79Z" transform="translate(-3.54 -5.07)"/><path class="cls-2" d="M376.26,268.11,376,268l-31-17.9L376.26,232l.27.16,31,17.9Zm-29.07-18.06,29.07,16.78,29.07-16.78-29.07-16.79Z" transform="translate(-3.54 -5.07)"/><path class="cls-2" d="M74.48,128.73l-.28-.16-31-17.91L74.48,92.6l.28.16,31,17.9ZM45.41,110.66l29.07,16.79,29.07-16.79L74.48,93.88Z" transform="translate(-3.54 -5.07)"/><path class="cls-2" d="M104.66,146.15l-.28-.16-31-17.9L104.66,110l.27.16,31,17.91ZM75.59,128.09l29.07,16.78,29.07-16.78L104.66,111.3Z" transform="translate(-3.54 -5.07)"/><path class="cls-2" d="M134.84,163.57l-.28-.16-31-17.9,31.29-18.06,31.28,18.06Zm-29.07-18.06,29.07,16.78,29.07-16.78-29.07-16.78Z" transform="translate(-3.54 -5.07)"/><path class="cls-2" d="M165,181l-.27-.16-31-17.9L165,144.87l.28.16,31,17.9Zm-29.07-18.06L165,179.72l29.07-16.79L165,146.15Z" transform="translate(-3.54 -5.07)"/><path class="cls-2" d="M195.19,198.42l-31.28-18.07,31.28-18.06,31.29,18.07Zm-29.07-18.07,29.07,16.79,29.07-16.78-29.07-16.79Z" transform="translate(-3.54 -5.07)"/><path class="cls-2" d="M225.37,215.84l-31.29-18.06,31.29-18.06.27.16,31,17.9ZM196.3,197.78l29.07,16.78,29.07-16.78L225.37,181Z" transform="translate(-3.54 -5.07)"/><path class="cls-2" d="M255.55,233.26l-.28-.16-31-17.9,31.29-18.06.27.16,31,17.9ZM226.48,215.2,255.55,232l29.07-16.78-29.07-16.78Z" transform="translate(-3.54 -5.07)"/><path class="cls-2" d="M285.72,250.69l-.27-.16-31-17.91,31.28-18.06L317,232.63Zm-29.07-18.07,29.07,16.79,29.07-16.78-29.07-16.79Z" transform="translate(-3.54 -5.07)"/><path class="cls-2" d="M315.9,268.11l-.27-.16-31-17.9L315.9,232l.28.16,31,17.9Zm-29.07-18.06,29.07,16.78L345,250.05,315.9,233.26Z" transform="translate(-3.54 -5.07)"/><path class="cls-2" d="M346.08,285.53l-31.29-18.06,31.29-18.06.28.16,31,17.9ZM317,267.47l29.07,16.78,29.07-16.78-29.07-16.78Z" transform="translate(-3.54 -5.07)"/><path class="cls-2" d="M376.26,303l-.28-.16-31-17.91,31.29-18.06.27.16,31,17.9Zm-29.07-18.07,29.07,16.79,29.07-16.79-29.07-16.78Z" transform="translate(-3.54 -5.07)"/><path class="cls-2" d="M74.48,163.57,43.2,145.51l31.28-18.06.28.16,31,17.9ZM45.41,145.51l29.07,16.78,29.07-16.78L74.48,128.73Z" transform="translate(-3.54 -5.07)"/><path class="cls-2" d="M104.66,181l-.28-.16-31-17.9,31.29-18.06.28.16,31,17.9ZM75.59,162.93l29.07,16.79,29.07-16.79-29.07-16.78Z" transform="translate(-3.54 -5.07)"/><path class="cls-2" d="M134.84,198.42l-.28-.16-31-17.91,31.29-18.06.27.16,31,17.9Zm-29.07-18.07,29.07,16.79,29.07-16.79-29.07-16.78Z" transform="translate(-3.54 -5.07)"/><path class="cls-2" d="M165,215.84l-.28-.16-31-17.9L165,179.72l31.29,18.06Zm-29.08-18.06L165,214.56l29.06-16.78L165,181Z" transform="translate(-3.54 -5.07)"/><path class="cls-2" d="M195.19,233.26,163.91,215.2l31.28-18.06,31.29,18.06ZM166.12,215.2,195.19,232l29.07-16.78-29.07-16.78Z" transform="translate(-3.54 -5.07)"/><path class="cls-2" d="M225.37,250.69l-31.29-18.07,31.29-18.06.28.16,31,17.9ZM196.3,232.62l29.07,16.79,29.07-16.79-29.07-16.78Z" transform="translate(-3.54 -5.07)"/><path class="cls-2" d="M255.55,268.11l-.28-.16-31-17.9L255.55,232l.27.16,31,17.91Zm-29.07-18.06,29.07,16.78,29.07-16.78-29.07-16.79Z" transform="translate(-3.54 -5.07)"/><path class="cls-2" d="M285.73,285.53l-.28-.16-31-17.9,31.28-18.06.28.16,31,17.9Zm-29.08-18.06,29.08,16.78,29.06-16.78-29.07-16.78Z" transform="translate(-3.54 -5.07)"/><path class="cls-2" d="M315.9,303l-.27-.16-31-17.91,31.28-18.06,31.29,18.06Zm-29.07-18.07,29.07,16.79L345,284.89,315.9,268.11Z" transform="translate(-3.54 -5.07)"/><path class="cls-2" d="M74.48,198.42,43.2,180.35l31.28-18.06.28.16,31,17.9ZM45.41,180.35l29.07,16.79,29.07-16.79L74.48,163.57Z" transform="translate(-3.54 -5.07)"/><path class="cls-2" d="M104.66,215.84l-.28-.16-31-17.9,31.28-18.06.28.16,31,17.9ZM75.59,197.78l29.07,16.78,29.07-16.78L104.66,181Z" transform="translate(-3.54 -5.07)"/><path class="cls-2" d="M134.84,233.26l-.28-.16-31-17.9,31.29-18.06.27.16,31,17.9ZM105.77,215.2,134.84,232l29.07-16.78-29.07-16.78Z" transform="translate(-3.54 -5.07)"/><path class="cls-2" d="M165,250.69l-31.29-18.07L165,214.56l31.28,18.06ZM136,232.62,165,249.41l29.06-16.79L165,215.84Z" transform="translate(-3.54 -5.07)"/><path class="cls-2" d="M195.19,268.11l-.27-.16-31-17.9L195.19,232l31.29,18.07Zm-29.07-18.06,29.07,16.78,29.07-16.78-29.07-16.79Z" transform="translate(-3.54 -5.07)"/><path class="cls-2" d="M225.37,285.53l-31.28-18.06,31.28-18.06.28.16,31,17.9ZM196.3,267.47l29.07,16.78,29.07-16.78-29.07-16.78Z" transform="translate(-3.54 -5.07)"/><path class="cls-2" d="M255.55,303l-.28-.16-31-17.91,31.29-18.06.27.16,31,17.9Zm-29.07-18.07,29.07,16.79,29.07-16.79-29.07-16.78Z" transform="translate(-3.54 -5.07)"/><path class="cls-2" d="M74.48,233.26l-.27-.16-31-17.9,31.28-18.06.28.16,31,17.9ZM45.41,215.2,74.48,232l29.07-16.78L74.48,198.42Z" transform="translate(-3.54 -5.07)"/><path class="cls-2" d="M104.66,250.69,73.38,232.62l31.28-18.06.28.16,31,17.9ZM75.59,232.62l29.07,16.79,29.07-16.79-29.07-16.78Z" transform="translate(-3.54 -5.07)"/><path class="cls-2" d="M134.84,268.11l-.28-.16-31-17.9L134.84,232l31.28,18.07Zm-29.07-18.06,29.07,16.78,29.07-16.78-29.07-16.79Z" transform="translate(-3.54 -5.07)"/><path class="cls-2" d="M165,285.53l-31.29-18.06L165,249.41l.27.16,31,17.9ZM136,267.47,165,284.25l29.07-16.78L165,250.69Z" transform="translate(-3.54 -5.07)"/><path class="cls-2" d="M195.19,303l-.27-.16-31-17.9,31.28-18.06,31.29,18.06Zm-29.07-18.06,29.07,16.78,29.07-16.78-29.07-16.78Z" transform="translate(-3.54 -5.07)"/><path class="cls-2" d="M74.48,268.11l-.27-.16-31-17.9L74.48,232l31.29,18.07ZM45.41,250.05l29.07,16.78,29.07-16.78L74.48,233.26Z" transform="translate(-3.54 -5.07)"/><path class="cls-2" d="M104.66,285.53l-.27-.16-31-17.9,31.28-18.06.28.16,31,17.9ZM75.59,267.47l29.07,16.78,29.07-16.78-29.07-16.78Z" transform="translate(-3.54 -5.07)"/><path class="cls-2" d="M134.84,303l-31.28-18.06,31.28-18.06,31.28,18.06Zm-29.07-18.06,29.07,16.78,29.07-16.78-29.07-16.78Z" transform="translate(-3.54 -5.07)"/><path class="cls-2" d="M74.49,303l-.28-.16-31-17.9,31.28-18.06.28.16,31,17.9ZM45.42,284.89l29.07,16.78,29.07-16.78L74.48,268.11Z" transform="translate(-3.54 -5.07)"/></g><path class="cls-2" d="M43.5,209.55a11,11,0,0,0-1.71,1.25C41.56,203.13,36,200.08,29.2,204c-5.56,3.21-10.26,10.07-11.95,16.8A7.62,7.62,0,0,0,12.54,222c-5,2.87-9,9.86-9,15.6s4,8.06,9,5.19l31-17.87a14.68,14.68,0,0,0,6.64-11.51C50.14,209.15,47.17,207.43,43.5,209.55Z" transform="translate(-3.54 -5.07)"/><path class="cls-2" d="M283.68,256.55a6.45,6.45,0,0,1-2.92,5.06c-1.61.93-2.92.18-2.92-1.69a6.45,6.45,0,0,1,2.92-5.05C282.37,253.94,283.68,254.69,283.68,256.55Z" transform="translate(-3.54 -5.07)"/><path class="cls-2" d="M293.14,251.09a6.47,6.47,0,0,1-2.92,5.06c-1.61.93-2.92.17-2.92-1.69a6.45,6.45,0,0,1,2.92-5.05C291.83,248.48,293.14,249.23,293.14,251.09Z" transform="translate(-3.54 -5.07)"/><path class="cls-2" d="M302.6,245.63a6.45,6.45,0,0,1-2.92,5.05c-1.61.94-2.92.18-2.92-1.68a6.47,6.47,0,0,1,2.92-5.06C301.29,243,302.6,243.77,302.6,245.63Z" transform="translate(-3.54 -5.07)"/><path class="cls-2" d="M312.06,240.17a6.42,6.42,0,0,1-2.92,5.05c-1.61.93-2.92.18-2.92-1.68a6.47,6.47,0,0,1,2.92-5.06C310.76,237.55,312.06,238.3,312.06,240.17Z" transform="translate(-3.54 -5.07)"/><path class="cls-2" d="M147.4,308.73a6.47,6.47,0,0,1-2.92,5.06c-1.61.93-2.92.18-2.92-1.69a6.45,6.45,0,0,1,2.92-5.05C146.09,306.12,147.4,306.87,147.4,308.73Z" transform="translate(-3.54 -5.07)"/><path class="cls-2" d="M155.45,304.08a6.43,6.43,0,0,1-2.92,5.06c-1.61.93-2.92.18-2.92-1.69a6.45,6.45,0,0,1,2.92-5.05C154.15,301.47,155.45,302.22,155.45,304.08Z" transform="translate(-3.54 -5.07)"/><path class="cls-2" d="M147.4,299.44a6.45,6.45,0,0,1-2.92,5.05c-1.61.93-2.92.18-2.92-1.68a6.45,6.45,0,0,1,2.92-5.06C146.09,296.82,147.4,297.57,147.4,299.44Z" transform="translate(-3.54 -5.07)"/><path class="cls-2" d="M155.45,294.79a6.42,6.42,0,0,1-2.92,5c-1.61.93-2.92.18-2.92-1.68a6.47,6.47,0,0,1,2.92-5.06C154.15,292.17,155.45,292.92,155.45,294.79Z" transform="translate(-3.54 -5.07)"/><polygon class="cls-2" points="116.82 70.66 110.98 74.03 110.98 67.29 116.82 63.92 116.82 70.66"/><polygon class="cls-2" points="124.92 65.92 119.08 69.29 119.08 62.55 124.92 59.18 124.92 65.92"/><polygon class="cls-2" points="116.87 79.4 111.03 82.77 111.03 76.03 116.87 72.66 116.87 79.4"/><polygon class="cls-2" points="124.92 74.75 119.08 78.13 119.08 71.38 124.92 68.01 124.92 74.75"/><path class="cls-3" d="M358.52,8.87a11.07,11.07,0,0,0-2.85,2.45c-.14-5.62-4.17-7.87-9.14-5a16.56,16.56,0,0,0-4.39,3.83c-2.21-3.86-6.79-4.76-12.1-1.7-7.47,4.31-13.52,14.8-13.52,23.42a16.2,16.2,0,0,0,.13,2,5,5,0,0,0-3.78.76,14.28,14.28,0,0,0-6.47,11.21c0,4.12,2.89,5.79,6.47,3.73l45.65-26.36a13.72,13.72,0,0,0,6.22-10.77C364.74,8.49,362,6.89,358.52,8.87Z" transform="translate(-3.54 -5.07)"/><path class="cls-4" d="M366.66,16a11.08,11.08,0,0,0-2.86,2.45c-.13-5.62-4.16-7.87-9.13-5a16.56,16.56,0,0,0-4.39,3.83c-2.22-3.87-6.8-4.76-12.11-1.7-7.46,4.31-13.52,14.8-13.52,23.42a16.15,16.15,0,0,0,.14,2,5.07,5.07,0,0,0-3.79.76A14.3,14.3,0,0,0,314.53,53c0,4.13,2.9,5.8,6.47,3.74L366.66,30.4a13.76,13.76,0,0,0,6.22-10.77C372.88,15.66,370.09,14.05,366.66,16Z" transform="translate(-3.54 -5.07)"/><path class="cls-2" d="M374.79,23.21a10.88,10.88,0,0,0-2.85,2.45c-.13-5.63-4.17-7.87-9.14-5a16.72,16.72,0,0,0-4.39,3.83c-2.21-3.87-6.79-4.77-12.1-1.7-7.47,4.31-13.52,14.8-13.52,23.42a16,16,0,0,0,.13,2,5.1,5.1,0,0,0-3.78.77,14.28,14.28,0,0,0-6.47,11.2c0,4.13,2.89,5.8,6.47,3.74l45.65-26.36A13.73,13.73,0,0,0,381,26.8C381,22.83,378.23,21.22,374.79,23.21Z" transform="translate(-3.54 -5.07)"/><path class="cls-2" d="M109.65,224.56a1.37,1.37,0,0,1-.7-.19,1.41,1.41,0,0,1-.71-1.22V205.06a1.4,1.4,0,0,1,.71-1.22l15.66-9.05a1.42,1.42,0,0,1,2.12,1.23V214.1a1.42,1.42,0,0,1-.71,1.23l-15.66,9A1.38,1.38,0,0,1,109.65,224.56Zm1.42-18.68V220.7l12.84-7.41V198.46Zm14.25,8.22h0Z" transform="translate(-3.54 -5.07)"/><polygon class="cls-5" points="95.36 307.78 72.77 294.73 95.36 281.69 117.95 294.73 95.36 307.78"/><path class="cls-2" d="M98.9,304.77a1.76,1.76,0,0,1-.86-.23l-22.59-13a1.72,1.72,0,0,1,0-3l22.59-13a1.71,1.71,0,0,1,1.72,0l22.59,13a1.72,1.72,0,0,1,0,3l-22.59,13A1.79,1.79,0,0,1,98.9,304.77ZM79.74,290,98.9,301.07,118.05,290,98.9,279Z" transform="translate(-3.54 -5.07)"/><polygon class="cls-6" points="117.95 274.75 95.36 287.79 95.36 261.71 117.95 248.66 117.95 274.75"/><polygon class="cls-7" points="95.36 261.71 72.77 248.66 95.36 235.62 117.95 248.66 95.36 261.71"/><polygon class="cls-8" points="95.36 287.79 72.77 274.75 72.77 248.66 95.36 261.71 95.36 287.79"/><polygon class="cls-2" points="87.23 273.7 80.91 270.05 80.91 262.76 87.23 266.4 87.23 273.7"/><polygon class="cls-5" points="348.3 167.28 325.71 154.24 348.3 141.19 370.89 154.24 348.3 167.28"/><path class="cls-2" d="M351.84,164.27A1.66,1.66,0,0,1,351,164l-22.59-13a1.71,1.71,0,0,1,0-3L351,135a1.71,1.71,0,0,1,1.72,0l22.59,13a1.71,1.71,0,0,1,0,3L352.7,164A1.66,1.66,0,0,1,351.84,164.27Zm-19.16-14.76,19.16,11.06L371,149.51l-19.15-11Z" transform="translate(-3.54 -5.07)"/><polygon class="cls-9" points="370.89 134.25 348.3 147.29 348.3 121.21 370.89 108.17 370.89 134.25"/><polygon class="cls-10" points="348.3 121.21 325.71 108.17 348.3 95.13 370.89 108.17 348.3 121.21"/><polygon class="cls-11" points="348.3 147.29 325.71 134.25 325.71 108.17 348.3 121.21 348.3 147.29"/><polygon class="cls-2" points="340.17 133.2 333.85 129.56 333.85 122.26 340.17 125.91 340.17 133.2"/><polygon class="cls-2" points="341.99 108.24 348.26 104.52 354.62 108.09 348.35 111.82 341.99 108.24"/><polygon class="cls-5" points="348.3 307.78 325.71 294.73 348.3 281.69 370.89 294.73 348.3 307.78"/><path class="cls-2" d="M351.84,304.77a1.76,1.76,0,0,1-.86-.23l-22.59-13a1.72,1.72,0,0,1,0-3l22.59-13a1.71,1.71,0,0,1,1.72,0l22.59,13a1.72,1.72,0,0,1,0,3l-22.59,13A1.76,1.76,0,0,1,351.84,304.77ZM332.68,290l19.16,11.06L371,290,351.84,279Z" transform="translate(-3.54 -5.07)"/><polygon class="cls-12" points="370.89 274.75 348.3 287.79 348.3 261.71 370.89 248.66 370.89 274.75"/><polygon class="cls-13" points="348.3 261.71 325.71 248.66 348.3 235.62 370.89 248.66 348.3 261.71"/><polygon class="cls-14" points="348.3 287.79 325.71 274.75 325.71 248.66 348.3 261.71 348.3 287.79"/><polygon class="cls-2" points="340.17 273.7 333.85 270.05 333.85 262.76 340.17 266.4 340.17 273.7"/><polygon class="cls-5" points="95.36 167.28 72.77 154.24 95.36 141.19 117.95 154.24 95.36 167.28"/><path class="cls-2" d="M98.9,164.27A1.66,1.66,0,0,1,98,164L75.45,151a1.71,1.71,0,0,1,0-3L98,135a1.71,1.71,0,0,1,1.72,0l22.59,13a1.71,1.71,0,0,1,0,3L99.76,164A1.68,1.68,0,0,1,98.9,164.27ZM79.74,149.51,98.9,160.57l19.15-11.06-19.15-11Z" transform="translate(-3.54 -5.07)"/><polygon class="cls-15" points="117.95 134.25 95.36 147.29 95.36 121.21 117.95 108.17 117.95 134.25"/><polygon class="cls-16" points="95.36 121.21 72.77 108.17 95.36 95.13 117.95 108.17 95.36 121.21"/><polygon class="cls-17" points="95.36 147.29 72.77 134.25 72.77 108.17 95.36 121.21 95.36 147.29"/><polygon class="cls-2" points="87.23 133.2 80.91 129.56 80.91 122.26 87.23 125.91 87.23 133.2"/><rect class="cls-2" x="269.44" y="150.41" width="75.86" height="3.43" transform="translate(-38.42 168.95) rotate(-29.99)"/><path class="cls-5" d="M220,264.47,162.1,231c-2.12-1.23-1.86-3.37.6-4.79l61.4-35.54c2.45-1.42,6.16-1.57,8.29-.34l57.93,33.44c2.12,1.23,1.86,3.37-.59,4.79l-61.41,35.54C225.87,265.55,222.16,265.7,220,264.47Z" transform="translate(-3.54 -5.07)"/><path class="cls-2" d="M223.64,253.48a9,9,0,0,1-4.46-1L161.24,219a4.2,4.2,0,0,1-2.29-3.57,5.05,5.05,0,0,1,2.89-4.19l61.4-35.55c3-1.71,7.37-1.86,10-.34l57.94,33.45a4.15,4.15,0,0,1,2.29,3.56,5.06,5.06,0,0,1-2.88,4.2l-61.41,35.54A11.36,11.36,0,0,1,223.64,253.48Zm-2.74-4c1.59.92,4.66.76,6.56-.34l61.41-35.55c.86-.49,1.17-1,1.17-1.22s-.18-.36-.58-.59l-57.93-33.45c-1.59-.91-4.66-.75-6.57.35l-61.4,35.54c-.86.5-1.17,1-1.17,1.22s.17.36.57.59Z" transform="translate(-3.54 -5.07)"/><path class="cls-18" d="M224.22,88.41s-31.81,3-51,4.5l50.82,144.71,67.21-38.76,0,0,.12-.07h0a3.73,3.73,0,0,0,1.37-3.31V54a10.22,10.22,0,0,0-1.17-4.51Z" transform="translate(-3.54 -5.07)"/><path class="cls-19" d="M288.64,46.05,229.53,11.92a2.68,2.68,0,0,0-2.69-.23h0L159.36,50.62l3.18,11.77,16.92,48.18,3.18,1.84,109-62.93A8.35,8.35,0,0,0,288.64,46.05Z" transform="translate(-3.54 -5.07)"/><path class="cls-20" d="M221.21,237.49,162.1,203.37c-2.3-1.33-4.16-4.89-4.16-8V54c0-3.07,1.86-4.48,4.16-3.15L221.21,85c2.29,1.32,4.16,4.88,4.16,8V234.35C225.37,237.41,223.5,238.82,221.21,237.49Z" transform="translate(-3.54 -5.07)"/><path class="cls-2" d="M222.47,84.24l-59.1-34.13a2.47,2.47,0,0,0-3.28.24,3.11,3.11,0,0,1,2,.47L221.21,85c2.29,1.32,4.16,4.88,4.16,8V234.35a4.33,4.33,0,0,1-.89,2.9c1.28-.2,2.16-1.52,2.16-3.62V92.19C226.64,89.12,224.77,85.56,222.47,84.24Z" transform="translate(-3.54 -5.07)"/><path class="cls-21" d="M217.49,229l-51.67-29.84c-2-1.16-3.64-4.27-3.64-6.95V60.83c0-2.68,1.63-3.91,3.64-2.75l51.67,29.83c2,1.16,3.64,4.27,3.64,7V226.23C221.13,228.91,219.5,230.14,217.49,229Z" transform="translate(-3.54 -5.07)"/><path class="cls-21" d="M217.49,229l-51.67-29.84c-2-1.16-3.64-4.27-3.64-6.95V60.83c0-2.68,1.63-3.91,3.64-2.75l51.67,29.83c2,1.16,3.64,4.27,3.64,7V226.23C221.13,228.91,219.5,230.14,217.49,229Z" transform="translate(-3.54 -5.07)"/><path class="cls-22" d="M217.49,229l-51.67-29.84c-2-1.16-3.64-4.27-3.64-6.95V60.83c0-2.68,1.63-3.91,3.64-2.75l51.67,29.83c2,1.16,3.64,4.27,3.64,7V226.23C221.13,228.91,219.5,230.14,217.49,229Z" transform="translate(-3.54 -5.07)"/><path class="cls-23" d="M219.18,228l-51.67-29.83c-2-1.16-3.64-4.27-3.64-7V59.84a4.21,4.21,0,0,1,.52-2.2c-1.3,0-2.21,1.19-2.21,3.19V192.19c0,2.68,1.63,5.79,3.64,6.95L217.49,229c1.32.76,2.48.48,3.11-.56A2.8,2.8,0,0,1,219.18,228Z" transform="translate(-3.54 -5.07)"/><path class="cls-22" d="M217.49,168.67l-19.21-11.09-30.63,17.68,53.48,30.88V175.62C221.13,172.94,219.5,169.83,217.49,168.67Z" transform="translate(-3.54 -5.07)"/><path class="cls-22" d="M217.49,141.75l-19.21-11.09-30.63,17.68,53.48,30.88V148.7C221.13,146,219.5,142.91,217.49,141.75Z" transform="translate(-3.54 -5.07)"/><path class="cls-22" d="M217.49,114.83l-19.21-11.09-30.63,17.69,53.48,30.87V121.78C221.13,119.1,219.5,116,217.49,114.83Z" transform="translate(-3.54 -5.07)"/><path class="cls-22" d="M217.49,87.91,198.28,76.82,167.65,94.51l53.48,30.87V94.86C221.13,92.18,219.5,89.07,217.49,87.91Z" transform="translate(-3.54 -5.07)"/><path class="cls-22" d="M217.49,87.91,175,63.36l-7.32,4.23,53.48,30.87v-3.6C221.13,92.18,219.5,89.07,217.49,87.91Z" transform="translate(-3.54 -5.07)"/><polygon class="cls-20" points="217.59 93.39 164.12 62.52 164.12 79.53 217.59 110.41 217.59 93.39"/><polygon class="cls-20" points="217.59 120.31 164.12 89.44 164.12 106.45 217.59 137.32 217.59 120.31"/><polygon class="cls-20" points="217.59 147.23 164.12 116.35 164.12 133.37 217.59 164.24 217.59 147.23"/><polygon class="cls-20" points="217.59 174.15 164.12 143.27 164.12 160.29 217.59 191.16 217.59 174.15"/><polygon class="cls-20" points="217.59 201.06 164.12 170.19 164.12 187.2 217.59 218.08 217.59 201.06"/><path class="cls-22" d="M216.41,109.41,176.13,86.16a5,5,0,0,1-2.06-3.94V77.67c0-1.52.93-2.21,2.06-1.56l40.28,23.26a4.9,4.9,0,0,1,2.06,3.93v4.56C218.47,109.37,217.55,110.07,216.41,109.41Z" transform="translate(-3.54 -5.07)"/><path class="cls-24" d="M178.17,85.29a4.93,4.93,0,0,1-2.06-3.94V76.8a3.26,3.26,0,0,1,.07-.66l-.05,0c-1.13-.65-2.06,0-2.06,1.56v4.55a5,5,0,0,0,2.06,3.94l40.28,23.25a1.23,1.23,0,0,0,2-.9Z" transform="translate(-3.54 -5.07)"/><path class="cls-2" d="M203.77,96.93l-24.24-14a1.73,1.73,0,0,1-.72-1.38h0c0-.54.32-.78.72-.55l24.24,14a1.74,1.74,0,0,1,.73,1.39h0C204.5,96.91,204.17,97.16,203.77,96.93Z" transform="translate(-3.54 -5.07)"/><path class="cls-22" d="M216.41,136.17l-40.28-23.26a5,5,0,0,1-2.06-3.93v-4.56c0-1.52.93-2.21,2.06-1.56l40.28,23.26a4.92,4.92,0,0,1,2.06,3.93v4.56C218.47,136.12,217.55,136.82,216.41,136.17Z" transform="translate(-3.54 -5.07)"/><path class="cls-24" d="M178.17,112a4.93,4.93,0,0,1-2.06-3.94v-4.55a3.34,3.34,0,0,1,.07-.66l-.05,0c-1.13-.65-2.06,0-2.06,1.56V109a5,5,0,0,0,2.06,3.93l40.28,23.26a1.23,1.23,0,0,0,2-.91Z" transform="translate(-3.54 -5.07)"/><path class="cls-2" d="M203.77,123.68l-24.24-14a1.73,1.73,0,0,1-.72-1.38h0c0-.53.32-.78.72-.55l24.24,14a1.74,1.74,0,0,1,.73,1.38h0C204.5,123.66,204.17,123.91,203.77,123.68Z" transform="translate(-3.54 -5.07)"/><path class="cls-22" d="M216.41,163.17l-40.28-23.26a4.94,4.94,0,0,1-2.06-3.93v-4.56c0-1.51.93-2.21,2.06-1.55l40.28,23.25a4.93,4.93,0,0,1,2.06,3.93v4.56C218.47,163.13,217.55,163.82,216.41,163.17Z" transform="translate(-3.54 -5.07)"/><path class="cls-24" d="M178.17,139a4.93,4.93,0,0,1-2.06-3.93v-4.56a3.34,3.34,0,0,1,.07-.66l-.05,0c-1.13-.66-2.06,0-2.06,1.55V136a4.94,4.94,0,0,0,2.06,3.93l40.28,23.26a1.23,1.23,0,0,0,2-.91Z" transform="translate(-3.54 -5.07)"/><path class="cls-25" d="M203.77,150.68l-24.24-14a1.73,1.73,0,0,1-.72-1.38h0c0-.53.32-.78.72-.55l24.24,14a1.74,1.74,0,0,1,.73,1.38h0C204.5,150.66,204.17,150.91,203.77,150.68Z" transform="translate(-3.54 -5.07)"/><path class="cls-22" d="M216.41,190.42l-40.28-23.26a4.94,4.94,0,0,1-2.06-3.93v-4.56c0-1.51.93-2.21,2.06-1.55l40.28,23.25a4.93,4.93,0,0,1,2.06,3.93v4.56C218.47,190.38,217.55,191.07,216.41,190.42Z" transform="translate(-3.54 -5.07)"/><path class="cls-24" d="M178.17,166.29a4.93,4.93,0,0,1-2.06-3.93V157.8a3.16,3.16,0,0,1,.07-.65l-.05,0c-1.13-.66-2.06,0-2.06,1.55v4.56a4.94,4.94,0,0,0,2.06,3.93l40.28,23.26a1.23,1.23,0,0,0,2-.91Z" transform="translate(-3.54 -5.07)"/><path class="cls-26" d="M203.77,177.93l-24.24-14a1.76,1.76,0,0,1-.72-1.39h0c0-.53.32-.78.72-.55l24.24,14a1.74,1.74,0,0,1,.73,1.38h0C204.5,177.91,204.17,178.16,203.77,177.93Z" transform="translate(-3.54 -5.07)"/><path class="cls-22" d="M216.41,217.13l-40.28-23.26a4.93,4.93,0,0,1-2.06-3.93v-4.56c0-1.51.93-2.21,2.06-1.55l40.28,23.25a4.93,4.93,0,0,1,2.06,3.93v4.56C218.47,217.09,217.55,217.78,216.41,217.13Z" transform="translate(-3.54 -5.07)"/><path class="cls-24" d="M178.17,193a4.93,4.93,0,0,1-2.06-3.93v-4.56a3.16,3.16,0,0,1,.07-.65l-.05,0c-1.13-.66-2.06,0-2.06,1.55v4.56a4.93,4.93,0,0,0,2.06,3.93l40.28,23.26a1.23,1.23,0,0,0,2-.9Z" transform="translate(-3.54 -5.07)"/><path class="cls-25" d="M203.77,204.64l-24.24-14a1.75,1.75,0,0,1-.72-1.39h0c0-.53.32-.78.72-.55l24.24,14a1.74,1.74,0,0,1,.73,1.38h0C204.5,204.63,204.17,204.87,203.77,204.64Z" transform="translate(-3.54 -5.07)"/><polygon class="cls-27" points="164.12 62.52 168.33 64.95 168.33 81.96 164.12 79.53 164.12 62.52"/><polygon class="cls-27" points="164.12 89.44 168.33 91.87 168.33 108.88 164.12 106.45 164.12 89.44"/><polygon class="cls-27" points="164.12 116.35 168.33 118.78 168.33 135.8 164.12 133.37 164.12 116.35"/><polygon class="cls-27" points="164.12 143.27 168.33 145.7 168.33 162.72 164.12 160.29 164.12 143.27"/><polygon class="cls-27" points="164.12 170.19 168.33 172.62 168.33 189.63 164.12 187.2 164.12 170.19"/><ellipse class="cls-25" cx="207.69" cy="98.11" rx="0.7" ry="1.21" transform="matrix(0.87, -0.5, 0.5, 0.87, -24.77, 111.94)"/><path class="cls-26" d="M212.16,100.69c0,.55-.38.77-.85.49a1.87,1.87,0,0,1-.85-1.47c0-.55.38-.77.85-.49A1.87,1.87,0,0,1,212.16,100.69Z" transform="translate(-3.54 -5.07)"/><path class="cls-25" d="M215.78,102.78c0,.54-.39.76-.86.49a1.88,1.88,0,0,1-.85-1.48c0-.54.38-.76.85-.49A1.9,1.9,0,0,1,215.78,102.78Z" transform="translate(-3.54 -5.07)"/><path class="cls-26" d="M208.55,125.51c0,.54-.39.76-.86.49a1.87,1.87,0,0,1-.85-1.47c0-.55.38-.77.85-.5A1.9,1.9,0,0,1,208.55,125.51Z" transform="translate(-3.54 -5.07)"/><path class="cls-25" d="M212.16,127.6c0,.54-.38.76-.85.49a1.88,1.88,0,0,1-.85-1.48c0-.54.38-.76.85-.49A1.88,1.88,0,0,1,212.16,127.6Z" transform="translate(-3.54 -5.07)"/><path class="cls-2" d="M215.78,129.68c0,.55-.39.77-.86.5a1.91,1.91,0,0,1-.85-1.48c0-.54.38-.77.85-.49A1.89,1.89,0,0,1,215.78,129.68Z" transform="translate(-3.54 -5.07)"/><path class="cls-2" d="M208.55,152.62c0,.54-.39.76-.86.49a1.88,1.88,0,0,1-.85-1.48c0-.54.38-.76.85-.49A1.89,1.89,0,0,1,208.55,152.62Z" transform="translate(-3.54 -5.07)"/><path class="cls-26" d="M212.16,154.7c0,.55-.38.77-.85.5a1.91,1.91,0,0,1-.85-1.48c0-.54.38-.76.85-.49A1.87,1.87,0,0,1,212.16,154.7Z" transform="translate(-3.54 -5.07)"/><path class="cls-2" d="M215.78,156.79c0,.54-.39.77-.86.49a1.87,1.87,0,0,1-.85-1.47c0-.55.38-.77.85-.5A1.92,1.92,0,0,1,215.78,156.79Z" transform="translate(-3.54 -5.07)"/><path class="cls-2" d="M208.55,179.33c0,.54-.39.76-.86.49a1.87,1.87,0,0,1-.85-1.47c0-.55.38-.77.85-.5A1.92,1.92,0,0,1,208.55,179.33Z" transform="translate(-3.54 -5.07)"/><path class="cls-25" d="M212.16,181.42c0,.54-.38.76-.85.49a1.88,1.88,0,0,1-.85-1.48c0-.54.38-.76.85-.49A1.88,1.88,0,0,1,212.16,181.42Z" transform="translate(-3.54 -5.07)"/><path class="cls-25" d="M215.78,183.5c0,.55-.39.77-.86.5a1.91,1.91,0,0,1-.85-1.48c0-.54.38-.76.85-.49A1.89,1.89,0,0,1,215.78,183.5Z" transform="translate(-3.54 -5.07)"/><path class="cls-2" d="M208.55,206.41c0,.54-.39.76-.86.49a1.88,1.88,0,0,1-.85-1.48c0-.54.38-.76.85-.49A1.89,1.89,0,0,1,208.55,206.41Z" transform="translate(-3.54 -5.07)"/><path class="cls-26" d="M212.16,208.49c0,.55-.38.77-.85.5a1.91,1.91,0,0,1-.85-1.48c0-.54.38-.76.85-.49A1.87,1.87,0,0,1,212.16,208.49Z" transform="translate(-3.54 -5.07)"/><path class="cls-25" d="M215.78,210.58c0,.55-.39.77-.86.49a1.87,1.87,0,0,1-.85-1.47c0-.55.38-.77.85-.5A1.92,1.92,0,0,1,215.78,210.58Z" transform="translate(-3.54 -5.07)"/><path class="cls-22" d="M234.27,218.37V97.93l.25-.14,50.34-29.07V189.17l-.25.14Zm1-119.86V216.65l48.59-28.06V70.45Z" transform="translate(-3.54 -5.07)"/><path class="cls-22" d="M271.78,122.92l-22.57,13c-1.52.87-2.74-.06-2.74-2.08V121.36a6.58,6.58,0,0,1,2.74-5.25l22.57-13c1.52-.87,2.75,0,2.75,2.08v12.51A6.59,6.59,0,0,1,271.78,122.92Z" transform="translate(-3.54 -5.07)"/><path class="cls-20" d="M272.33,102.84a3.6,3.6,0,0,1,.2,1.25v12.52a6.57,6.57,0,0,1-2.74,5.24l-22.57,13a2.94,2.94,0,0,1-.55.25,1.6,1.6,0,0,0,2.54.82l22.57-13a6.59,6.59,0,0,0,2.75-5.25V105.16C274.53,103.38,273.58,102.45,272.33,102.84Z" transform="translate(-3.54 -5.07)"/><path class="cls-2" d="M267.66,115.38c.42-.24.75,0,.75.44v2.85a1.64,1.64,0,0,1-.75,1.3c-.42.25-.76,0-.76-.43v-2.85A1.67,1.67,0,0,1,267.66,115.38Z" transform="translate(-3.54 -5.07)"/><path class="cls-25" d="M264.42,117.6c.42-.24.76,0,.76.44v2.5a1.65,1.65,0,0,1-.76,1.3c-.42.24-.76,0-.76-.43v-2.5A1.69,1.69,0,0,1,264.42,117.6Z" transform="translate(-3.54 -5.07)"/><path class="cls-26" d="M261.18,116.69c.42-.24.76,0,.76.44v5.27a1.66,1.66,0,0,1-.76,1.31c-.42.24-.75.05-.75-.43V118A1.66,1.66,0,0,1,261.18,116.69Z" transform="translate(-3.54 -5.07)"/><path class="cls-25" d="M257.94,115.52c.42-.24.76,0,.76.44v8.31a1.66,1.66,0,0,1-.76,1.31c-.41.24-.75,0-.75-.43v-8.32A1.69,1.69,0,0,1,257.94,115.52Z" transform="translate(-3.54 -5.07)"/><path class="cls-25" d="M254.71,118.26c.41-.24.75,0,.75.44v7.44a1.69,1.69,0,0,1-.75,1.31c-.42.24-.76,0-.76-.43v-7.45A1.67,1.67,0,0,1,254.71,118.26Z" transform="translate(-3.54 -5.07)"/><path class="cls-2" d="M251.47,123.53c.42-.24.75,0,.75.44v4a1.66,1.66,0,0,1-.75,1.31c-.42.24-.76.05-.76-.44v-4A1.67,1.67,0,0,1,251.47,123.53Z" transform="translate(-3.54 -5.07)"/><path class="cls-26" d="M266.91,113.94c0,.47.34.66.75.43a1.66,1.66,0,0,0,.74-1.29c0-.47-.33-.66-.74-.43A1.67,1.67,0,0,0,266.91,113.94Z" transform="translate(-3.54 -5.07)"/><ellipse class="cls-2" cx="267.66" cy="110.83" rx="1.05" ry="0.61" transform="translate(34.3 282.13) rotate(-60)"/><rect class="cls-2" x="346.59" y="41.54" width="3.44" height="66.63"/><path class="cls-5" d="M221.53,325.58,187,305.66c-2.12-1.23-1.85-3.36.59-4.78l33.33-19.24c2.44-1.41,6.14-1.56,8.26-.34l34.51,19.93c2.12,1.22,1.85,3.36-.59,4.77l-33.33,19.24C227.35,326.65,223.65,326.8,221.53,325.58Z" transform="translate(-3.54 -5.07)"/><path class="cls-2" d="M225.14,317.47a9.22,9.22,0,0,1-4.59-1.1h0L186,296.45a4.41,4.41,0,0,1-2.41-3.77,5.28,5.28,0,0,1,3-4.4L220,269c3.08-1.78,7.47-1.93,10.22-.34l34.51,19.93a4.38,4.38,0,0,1,2.41,3.76,5.26,5.26,0,0,1-3,4.4L230.77,316A11.4,11.4,0,0,1,225.14,317.47ZM222.51,313c1.52.88,4.47.72,6.3-.34l33.33-19.24c.84-.49,1-.92,1-1a1.26,1.26,0,0,0-.45-.37l-34.51-19.93c-1.52-.87-4.47-.71-6.3.35l-33.33,19.24c-.84.48-1,.92-1,1a1.16,1.16,0,0,0,.45.37L222.51,313Z" transform="translate(-3.54 -5.07)"/><path class="cls-23" d="M265.13,280.19h0V268.28l-26.7,0-9.23-5.33c-2.12-1.22-5.82-1.07-8.26.35l-8.61,5-26.73,0v12.25a2.38,2.38,0,0,0,1.42,2.21l34.51,19.93c2.12,1.22,5.82,1.07,8.26-.34L263.12,283C264.53,282.22,265.21,281.17,265.13,280.19Z" transform="translate(-3.54 -5.07)"/><path class="cls-28" d="M225.37,262.11a9.49,9.49,0,0,0-4.43,1.17l-8.61,5-26.73,0v12.25a2.38,2.38,0,0,0,1.42,2.21l34.51,19.93a7.51,7.51,0,0,0,3.84.82Z" transform="translate(-3.54 -5.07)"/><path class="cls-25" d="M188.62,268.23h-3v12.25a2.38,2.38,0,0,0,1.42,2.21l1.6.93Z" transform="translate(-3.54 -5.07)"/><path class="cls-20" d="M222.06,302.88a9.41,9.41,0,0,0,6.61-.08V288.9h-6.61Z" transform="translate(-3.54 -5.07)"/><path class="cls-29" d="M221.53,290.42,187,270.49c-2.12-1.22-1.85-3.36.59-4.77l33.33-19.24c2.44-1.41,6.14-1.57,8.26-.34l34.51,19.92c2.12,1.23,1.85,3.36-.59,4.77l-33.33,19.24C227.35,291.49,223.65,291.64,221.53,290.42Z" transform="translate(-3.54 -5.07)"/><path class="cls-2" d="M263.12,268.49l-33.33,19.24c-2.44,1.41-6.14,1.57-8.26.34L187,268.15a3.29,3.29,0,0,1-1.06-.94c-.73,1.17-.4,2.44,1.06,3.28l34.51,19.93c2.12,1.22,5.82,1.07,8.26-.35l33.33-19.24c1.9-1.09,2.48-2.63,1.65-3.83A4.5,4.5,0,0,1,263.12,268.49Z" transform="translate(-3.54 -5.07)"/><path class="cls-25" d="M252.44,283.33a3.07,3.07,0,0,1-1.4,2.41c-.77.45-1.39.09-1.39-.8a3.09,3.09,0,0,1,1.39-2.42C251.81,282.08,252.44,282.44,252.44,283.33Z" transform="translate(-3.54 -5.07)"/><path class="cls-25" d="M256.92,280.74a3.06,3.06,0,0,1-1.39,2.41c-.77.45-1.4.09-1.4-.8a3.1,3.1,0,0,1,1.4-2.42C256.3,279.49,256.92,279.85,256.92,280.74Z" transform="translate(-3.54 -5.07)"/><path class="cls-25" d="M261.41,278.15a3.07,3.07,0,0,1-1.4,2.41c-.77.45-1.39.09-1.39-.8a3.09,3.09,0,0,1,1.39-2.42C260.78,276.9,261.41,277.26,261.41,278.15Z" transform="translate(-3.54 -5.07)"/><path class="cls-20" d="M223.57,278.06l-16.15-9.32c-1-.57-.87-1.57.28-2.23l15.59-9a4.31,4.31,0,0,1,3.87-.16l16.15,9.33c1,.57.87,1.57-.28,2.23l-15.59,9A4.28,4.28,0,0,1,223.57,278.06Z" transform="translate(-3.54 -5.07)"/><path class="cls-25" d="M225.12,270.26,222.88,269c-.13-.08-.12-.22,0-.31l2.16-1.25a.59.59,0,0,1,.53,0l2.24,1.29c.14.08.12.22,0,.31l-2.16,1.24A.56.56,0,0,1,225.12,270.26Z" transform="translate(-3.54 -5.07)"/><path class="cls-23" d="M207.42,268.74l.05,0a1.34,1.34,0,0,1,.23-.16l15.59-9a4.31,4.31,0,0,1,3.87-.16l16.1,9.3c.92-.65,1-1.54.05-2.07l-16.15-9.33a4.31,4.31,0,0,0-3.87.16l-15.59,9C206.55,267.17,206.43,268.17,207.42,268.74Z" transform="translate(-3.54 -5.07)"/><path class="cls-5" d="M348,237.66l-34.51-19.92c-2.12-1.23-1.85-3.36.6-4.77l33.32-19.24c2.45-1.42,6.15-1.57,8.26-.35l34.52,19.93c2.11,1.22,1.85,3.36-.6,4.77l-33.32,19.24C353.82,238.73,350.12,238.89,348,237.66Z" transform="translate(-3.54 -5.07)"/><path class="cls-2" d="M351.61,229.55a9.36,9.36,0,0,1-4.59-1.09h0l-34.51-19.93a4.4,4.4,0,0,1-2.41-3.77,5.28,5.28,0,0,1,3-4.39l33.32-19.24c3.09-1.79,7.48-1.93,10.22-.35l34.52,19.93a4.4,4.4,0,0,1,2.41,3.77,5.28,5.28,0,0,1-3,4.39l-33.32,19.24A11.43,11.43,0,0,1,351.61,229.55ZM349,225.06c1.53.88,4.47.72,6.31-.34l33.32-19.24c.84-.48,1-.92,1.05-1a1.35,1.35,0,0,0-.45-.38l-34.52-19.92c-1.52-.88-4.46-.72-6.3.34l-33.32,19.24c-.84.48-1,.92-1.05,1a1.23,1.23,0,0,0,.45.38L349,225.06Z" transform="translate(-3.54 -5.07)"/><path class="cls-23" d="M391.61,192.27h0V180.36l-26.71,0L355.67,175c-2.11-1.23-5.81-1.07-8.26.34l-8.61,5H312.07v12.24a2.42,2.42,0,0,0,1.42,2.22L348,214.7c2.12,1.22,5.82,1.07,8.27-.34l33.32-19.24C391,194.3,391.68,193.25,391.61,192.27Z" transform="translate(-3.54 -5.07)"/><path class="cls-30" d="M351.84,174.2a9.36,9.36,0,0,0-4.43,1.16l-8.61,5H312.07v12.24a2.42,2.42,0,0,0,1.42,2.22L348,214.7a7.44,7.44,0,0,0,3.84.82Z" transform="translate(-3.54 -5.07)"/><path class="cls-25" d="M315.1,180.32h-3v12.24a2.42,2.42,0,0,0,1.42,2.22l1.61.92Z" transform="translate(-3.54 -5.07)"/><path class="cls-20" d="M348.54,215a9.44,9.44,0,0,0,6.6-.07V201h-6.6Z" transform="translate(-3.54 -5.07)"/><path class="cls-31" d="M348,202.5l-34.51-19.93c-2.12-1.22-1.85-3.36.6-4.77l33.32-19.24c2.45-1.41,6.15-1.56,8.26-.34l34.52,19.93c2.11,1.22,1.85,3.35-.6,4.77l-33.32,19.24C353.82,203.57,350.12,203.72,348,202.5Z" transform="translate(-3.54 -5.07)"/><path class="cls-2" d="M389.59,180.57l-33.32,19.24c-2.45,1.42-6.15,1.57-8.27.35l-34.51-19.93a3,3,0,0,1-1.05-.94c-.73,1.17-.4,2.44,1.05,3.28L348,202.5c2.12,1.22,5.82,1.07,8.27-.34l33.32-19.24c1.9-1.1,2.48-2.63,1.65-3.84A4.5,4.5,0,0,1,389.59,180.57Z" transform="translate(-3.54 -5.07)"/><path class="cls-25" d="M378.91,195.41a3.06,3.06,0,0,1-1.39,2.41c-.77.45-1.4.09-1.4-.8a3.07,3.07,0,0,1,1.4-2.41C378.29,194.16,378.91,194.52,378.91,195.41Z" transform="translate(-3.54 -5.07)"/><path class="cls-25" d="M383.4,192.82a3.1,3.1,0,0,1-1.4,2.42c-.77.44-1.39.08-1.39-.81A3.06,3.06,0,0,1,382,192C382.77,191.57,383.4,191.93,383.4,192.82Z" transform="translate(-3.54 -5.07)"/><path class="cls-25" d="M387.88,190.23a3.09,3.09,0,0,1-1.39,2.42c-.77.44-1.4.08-1.4-.81a3.07,3.07,0,0,1,1.4-2.41C387.26,189,387.88,189.34,387.88,190.23Z" transform="translate(-3.54 -5.07)"/><path class="cls-20" d="M350.05,190.15l-16.15-9.33c-1-.57-.87-1.57.27-2.23l15.6-9a4.23,4.23,0,0,1,3.86-.16l16.15,9.32c1,.57.87,1.57-.27,2.23l-15.6,9A4.29,4.29,0,0,1,350.05,190.15Z" transform="translate(-3.54 -5.07)"/><path class="cls-25" d="M351.59,182.34l-2.23-1.29c-.14-.08-.12-.22,0-.31l2.15-1.25a.61.61,0,0,1,.54,0l2.23,1.29c.14.08.12.22,0,.31l-2.15,1.25A.61.61,0,0,1,351.59,182.34Z" transform="translate(-3.54 -5.07)"/><path class="cls-23" d="M333.9,180.82l0,0,.23-.16,15.6-9a4.29,4.29,0,0,1,3.86-.16l16.11,9.3c.91-.65,1-1.54,0-2.07l-16.15-9.32a4.23,4.23,0,0,0-3.86.16l-15.6,9C333,179.25,332.9,180.25,333.9,180.82Z" transform="translate(-3.54 -5.07)"/><path class="cls-5" d="M95.06,237.66,60.55,217.74c-2.12-1.23-1.85-3.36.59-4.77l33.33-19.24c2.44-1.42,6.14-1.57,8.26-.35l34.51,19.93c2.12,1.22,1.86,3.36-.59,4.77l-33.32,19.24C100.88,238.73,97.18,238.89,95.06,237.66Z" transform="translate(-3.54 -5.07)"/><path class="cls-2" d="M98.67,229.55a9.36,9.36,0,0,1-4.59-1.09h0L59.57,208.53a4.4,4.4,0,0,1-2.41-3.77,5.28,5.28,0,0,1,3-4.39l33.33-19.24c3.08-1.79,7.48-1.93,10.22-.35l34.51,19.93a4.38,4.38,0,0,1,2.41,3.77,5.26,5.26,0,0,1-3,4.39l-33.32,19.24A11.46,11.46,0,0,1,98.67,229.55ZM96,225.06c1.52.88,4.47.72,6.31-.34l33.32-19.24c.84-.48,1-.92,1-1a1.13,1.13,0,0,0-.45-.38l-34.51-19.92c-1.52-.88-4.46-.72-6.3.34L62.12,203.76c-.83.48-1,.92-1,1a1.13,1.13,0,0,0,.45.38L96,225.06Z" transform="translate(-3.54 -5.07)"/><path class="cls-23" d="M138.66,192.27h0V180.36l-26.7,0L102.73,175c-2.12-1.23-5.82-1.07-8.26.34l-8.61,5H59.13v12.24a2.4,2.4,0,0,0,1.42,2.22L95.06,214.7c2.12,1.22,5.82,1.07,8.27-.34l33.32-19.24C138.06,194.3,138.74,193.25,138.66,192.27Z" transform="translate(-3.54 -5.07)"/><path class="cls-32" d="M98.9,174.2a9.36,9.36,0,0,0-4.43,1.16l-8.61,5H59.13v12.24a2.4,2.4,0,0,0,1.42,2.22L95.06,214.7a7.41,7.41,0,0,0,3.84.82Z" transform="translate(-3.54 -5.07)"/><path class="cls-25" d="M62.16,180.32h-3v12.24a2.4,2.4,0,0,0,1.42,2.22l1.61.92Z" transform="translate(-3.54 -5.07)"/><path class="cls-20" d="M95.59,215a9.47,9.47,0,0,0,6.61-.07V201H95.59Z" transform="translate(-3.54 -5.07)"/><path class="cls-33" d="M95.06,202.5,60.55,182.57c-2.12-1.22-1.85-3.36.59-4.77l33.33-19.24c2.44-1.41,6.14-1.56,8.26-.34l34.51,19.93c2.12,1.22,1.86,3.35-.59,4.77l-33.32,19.24C100.88,203.57,97.18,203.72,95.06,202.5Z" transform="translate(-3.54 -5.07)"/><path class="cls-2" d="M136.65,180.57l-33.32,19.24c-2.45,1.42-6.15,1.57-8.27.35L60.55,180.23a3.18,3.18,0,0,1-1.06-.94c-.72,1.17-.39,2.44,1.06,3.28L95.06,202.5c2.12,1.22,5.82,1.07,8.27-.34l33.32-19.24c1.9-1.1,2.48-2.63,1.65-3.84A4.5,4.5,0,0,1,136.65,180.57Z" transform="translate(-3.54 -5.07)"/><path class="cls-25" d="M126,195.41a3.09,3.09,0,0,1-1.39,2.41c-.77.45-1.4.09-1.4-.8a3.07,3.07,0,0,1,1.4-2.41C125.34,194.16,126,194.52,126,195.41Z" transform="translate(-3.54 -5.07)"/><path class="cls-25" d="M130.45,192.82a3.09,3.09,0,0,1-1.39,2.42c-.77.44-1.39.08-1.39-.81a3.06,3.06,0,0,1,1.39-2.41C129.83,191.57,130.45,191.93,130.45,192.82Z" transform="translate(-3.54 -5.07)"/><path class="cls-25" d="M134.94,190.23a3.1,3.1,0,0,1-1.4,2.42c-.76.44-1.39.08-1.39-.81a3.09,3.09,0,0,1,1.39-2.41C134.31,189,134.94,189.34,134.94,190.23Z" transform="translate(-3.54 -5.07)"/><path class="cls-20" d="M97.1,190.15,81,180.82c-1-.57-.86-1.57.28-2.23l15.6-9a4.23,4.23,0,0,1,3.86-.16l16.15,9.32c1,.57.87,1.57-.28,2.23L101,190A4.31,4.31,0,0,1,97.1,190.15Z" transform="translate(-3.54 -5.07)"/><path class="cls-25" d="M98.65,182.34l-2.23-1.29c-.14-.08-.12-.22,0-.31l2.16-1.25a.61.61,0,0,1,.54,0l2.23,1.29c.14.08.12.22,0,.31l-2.16,1.25A.58.58,0,0,1,98.65,182.34Z" transform="translate(-3.54 -5.07)"/><path class="cls-23" d="M81,180.82l0,0a1.34,1.34,0,0,1,.23-.16l15.6-9a4.29,4.29,0,0,1,3.86-.16l16.11,9.3c.91-.65,1-1.54,0-2.07l-16.15-9.32a4.23,4.23,0,0,0-3.86.16l-15.6,9C80.09,179.25,80,180.25,81,180.82Z" transform="translate(-3.54 -5.07)"/></svg>