<svg id="Ñëîé_1" data-name="Ñëîé 1" xmlns="http://www.w3.org/2000/svg" xmlns:xlink="http://www.w3.org/1999/xlink" viewBox="0 0 268.96 213.92"><defs><style>.cls-1{opacity:0.4;}.cls-2,.cls-3,.cls-4{fill:#fff;}.cls-3{opacity:0.2;}.cls-27,.cls-4{opacity:0.5;}.cls-5{fill:#7dc3ea;}.cls-6{fill:url(#Áåçûìÿííûé_ãðàäèåíò_3);}.cls-7{fill:url(#Áåçûìÿííûé_ãðàäèåíò_9);}.cls-8{fill:url(#Áåçûìÿííûé_ãðàäèåíò_4);}.cls-9{fill:url(#Áåçûìÿííûé_ãðàäèåíò_3-2);}.cls-10{fill:url(#Áåçûìÿííûé_ãðàäèåíò_9-2);}.cls-11{fill:url(#Áåçûìÿííûé_ãðàäèåíò_4-2);}.cls-12{fill:url(#Áåçûìÿííûé_ãðàäèåíò_3-3);}.cls-13{fill:url(#Áåçûìÿííûé_ãðàäèåíò_9-3);}.cls-14{fill:url(#Áåçûìÿííûé_ãðàäèåíò_4-3);}.cls-15{fill:url(#Áåçûìÿííûé_ãðàäèåíò_3-4);}.cls-16{fill:url(#Áåçûìÿííûé_ãðàäèåíò_9-4);}.cls-17{fill:url(#Áåçûìÿííûé_ãðàäèåíò_4-4);}.cls-18{fill:url(#Áåçûìÿííûé_ãðàäèåíò_18);}.cls-19{fill:url(#Áåçûìÿííûé_ãðàäèåíò_9-5);}.cls-20{fill:#5793ce;}.cls-21{fill:url(#Áåçûìÿííûé_ãðàäèåíò_441);}.cls-22,.cls-27{fill:#173d7a;}.cls-23{fill:#396caa;}.cls-24{fill:#06033e;opacity:0.3;}.cls-25{fill:#d4ecff;}.cls-26{fill:#ff2c9c;}.cls-28{fill:url(#Áåçûìÿííûé_ãðàäèåíò_13);}.cls-29{fill:url(#Áåçûìÿííûé_ãðàäèåíò_45);}.cls-30{fill:url(#Áåçûìÿííûé_ãðàäèåíò_13-2);}.cls-31{fill:url(#Áåçûìÿííûé_ãðàäèåíò_45-2);}.cls-32{fill:url(#Áåçûìÿííûé_ãðàäèåíò_13-3);}.cls-33{fill:url(#Áåçûìÿííûé_ãðàäèåíò_45-3);}</style><radialGradient id="Áåçûìÿííûé_ãðàäèåíò_3" cx="62.06" cy="173.68" r="22.41" gradientUnits="userSpaceOnUse"><stop offset="0" stop-color="#274f89"/><stop offset="1" stop-color="#173d7a"/></radialGradient><linearGradient id="Áåçûìÿííûé_ãðàäèåíò_9" x1="48.45" y1="165.54" x2="88.11" y2="165.54" gradientUnits="userSpaceOnUse"><stop offset="0" stop-color="#d4ecff"/><stop offset="0.24" stop-color="#d0eafe"/><stop offset="0.46" stop-color="#c5e2f9"/><stop offset="0.67" stop-color="#b2d6f2"/><stop offset="0.88" stop-color="#98c4e7"/><stop offset="1" stop-color="#86b8e0"/></linearGradient><radialGradient id="Áåçûìÿííûé_ãðàäèåíò_4" cx="29.84" cy="150.48" r="40.52" gradientUnits="userSpaceOnUse"><stop offset="0" stop-color="#699dd1"/><stop offset="0.27" stop-color="#6396cc"/><stop offset="0.64" stop-color="#5184bd"/><stop offset="1" stop-color="#396caa"/></radialGradient><radialGradient id="Áåçûìÿííûé_ãðàäèåíò_3-2" cx="230.45" cy="80.14" r="22.41" xlink:href="#Áåçûìÿííûé_ãðàäèåíò_3"/><linearGradient id="Áåçûìÿííûé_ãðàäèåíò_9-2" x1="216.84" y1="72.01" x2="256.5" y2="72.01" xlink:href="#Áåçûìÿííûé_ãðàäèåíò_9"/><radialGradient id="Áåçûìÿííûé_ãðàäèåíò_4-2" cx="198.23" cy="56.95" r="40.52" xlink:href="#Áåçûìÿííûé_ãðàäèåíò_4"/><radialGradient id="Áåçûìÿííûé_ãðàäèåíò_3-3" cx="230.45" cy="173.68" r="22.41" xlink:href="#Áåçûìÿííûé_ãðàäèåíò_3"/><linearGradient id="Áåçûìÿííûé_ãðàäèåíò_9-3" x1="216.84" y1="165.54" x2="256.5" y2="165.54" xlink:href="#Áåçûìÿííûé_ãðàäèåíò_9"/><radialGradient id="Áåçûìÿííûé_ãðàäèåíò_4-3" cx="198.23" cy="150.48" r="40.52" xlink:href="#Áåçûìÿííûé_ãðàäèåíò_4"/><radialGradient id="Áåçûìÿííûé_ãðàäèåíò_3-4" cx="62.06" cy="80.14" r="22.41" xlink:href="#Áåçûìÿííûé_ãðàäèåíò_3"/><linearGradient id="Áåçûìÿííûé_ãðàäèåíò_9-4" x1="48.45" y1="72.01" x2="88.11" y2="72.01" xlink:href="#Áåçûìÿííûé_ãðàäèåíò_9"/><radialGradient id="Áåçûìÿííûé_ãðàäèåíò_4-4" cx="29.84" cy="56.95" r="40.52" xlink:href="#Áåçûìÿííûé_ãðàäèåíò_4"/><radialGradient id="Áåçûìÿííûé_ãðàäèåíò_18" cx="134.76" cy="80.1" r="80.65" gradientUnits="userSpaceOnUse"><stop offset="0" stop-color="#396caa"/><stop offset="1" stop-color="#274f89"/></radialGradient><linearGradient id="Áåçûìÿííûé_ãðàäèåíò_9-5" x1="109.39" y1="22.89" x2="184.59" y2="68.71" xlink:href="#Áåçûìÿííûé_ãðàäèåíò_9"/><linearGradient id="Áåçûìÿííûé_ãðàäèåíò_441" x1="-189.79" y1="1230.44" x2="-145.59" y2="1220.42" gradientTransform="matrix(0.87, 0.5, 0, 1.15, 271.57, -1236.66)" gradientUnits="userSpaceOnUse"><stop offset="0" stop-color="#3919bb"/><stop offset="1" stop-color="#6507fa"/></linearGradient><radialGradient id="Áåçûìÿííûé_ãðàäèåíò_13" cx="125.78" cy="175.76" r="29.04" xlink:href="#Áåçûìÿííûé_ãðàäèåíò_4"/><linearGradient id="Áåçûìÿííûé_ãðàäèåíò_45" x1="131.26" y1="166.45" x2="176.75" y2="193.57" gradientUnits="userSpaceOnUse"><stop offset="0" stop-color="#d4ecff"/><stop offset="0.2" stop-color="#d0eafe"/><stop offset="0.39" stop-color="#c5e2f9"/><stop offset="0.57" stop-color="#b2d6f2"/><stop offset="0.74" stop-color="#98c4e7"/><stop offset="0.84" stop-color="#86b8e0"/></linearGradient><radialGradient id="Áåçûìÿííûé_ãðàäèåíò_13-2" cx="209.97" cy="117.23" r="29.04" xlink:href="#Áåçûìÿííûé_ãðàäèåíò_4"/><linearGradient id="Áåçûìÿííûé_ãðàäèåíò_45-2" x1="215.45" y1="107.92" x2="260.94" y2="135.04" xlink:href="#Áåçûìÿííûé_ãðàäèåíò_45"/><radialGradient id="Áåçûìÿííûé_ãðàäèåíò_13-3" cx="41.58" cy="117.23" r="29.04" xlink:href="#Áåçûìÿííûé_ãðàäèåíò_4"/><linearGradient id="Áåçûìÿííûé_ãðàäèåíò_45-3" x1="47.06" y1="107.92" x2="92.55" y2="135.04" xlink:href="#Áåçûìÿííûé_ãðàäèåíò_45"/></defs><g class="cls-1"><path class="cls-2" d="M251.24,62,230.41,50l20.83-12,.18.11L272.07,50ZM231.89,50l19.35,11.17L270.59,50,251.24,38.8Z" transform="translate(-3.12 -2.88)"/><path class="cls-2" d="M211.06,62,190.24,50l20.82-12,20.83,12ZM191.71,50l19.35,11.17L230.41,50,211.06,38.8Z" transform="translate(-3.12 -2.88)"/><path class="cls-2" d="M231.15,73.6l-.18-.11L210.32,61.57l20.83-12,20.83,12Zm-19.35-12,19.35,11.18L250.5,61.57,231.15,50.4Z" transform="translate(-3.12 -2.88)"/><path class="cls-2" d="M251.24,85.2l-.18-.11L230.41,73.17l20.83-12,.19.11,20.64,11.91Zm-19.35-12,19.35,11.18,19.35-11.18L251.24,62Z" transform="translate(-3.12 -2.88)"/><path class="cls-2" d="M170.88,62l-.18-.11L150.06,50l20.82-12,.19.11L191.71,50ZM151.53,50l19.35,11.18L190.24,50,170.88,38.8Z" transform="translate(-3.12 -2.88)"/><path class="cls-2" d="M191,73.6l-20.82-12,20.82-12,20.83,12Zm-19.35-12L191,72.75l19.35-11.18L191,50.4Z" transform="translate(-3.12 -2.88)"/><path class="cls-2" d="M211.06,85.2l-.18-.11L190.24,73.17l20.82-12,.19.1,20.64,11.92Zm-19.35-12,19.35,11.18,19.35-11.18L211.06,62Z" transform="translate(-3.12 -2.88)"/><path class="cls-2" d="M231.15,96.8l-.18-.11L210.33,84.77l20.82-12,.19.1L252,84.77Zm-19.35-12,19.35,11.17L250.5,84.77,231.15,73.6Z" transform="translate(-3.12 -2.88)"/><path class="cls-2" d="M251.24,108.4l-.18-.11L230.42,96.37l20.82-12,20.83,12Zm-19.35-12,19.35,11.17,19.35-11.17L251.24,85.2Z" transform="translate(-3.12 -2.88)"/><path class="cls-2" d="M130.7,62l-.18-.11L109.88,50,130.7,38l.19.11L151.53,50ZM111.35,50,130.7,61.15,150.06,50,130.7,38.8Z" transform="translate(-3.12 -2.88)"/><path class="cls-2" d="M150.79,73.6l-.18-.11L130,61.57l20.82-12,.19.11,20.64,11.91Zm-19.35-12,19.35,11.18,19.36-11.18L150.79,50.4Z" transform="translate(-3.12 -2.88)"/><path class="cls-2" d="M170.88,85.2l-.18-.11L150.06,73.17l20.82-12,20.83,12Zm-19.35-12,19.35,11.18,19.36-11.18L170.88,62Z" transform="translate(-3.12 -2.88)"/><path class="cls-2" d="M191,96.8l-20.82-12,20.82-12,.19.1L211.8,84.77Zm-19.35-12L191,95.94l19.36-11.17L191,73.6Z" transform="translate(-3.12 -2.88)"/><path class="cls-2" d="M211.06,108.4l-.18-.11L190.24,96.37l20.82-12,.19.1,20.64,11.92Zm-19.35-12,19.35,11.17,19.36-11.17L211.06,85.2Z" transform="translate(-3.12 -2.88)"/><path class="cls-2" d="M231.15,120l-.18-.1L210.33,108l20.82-12,.19.11L252,108ZM211.8,108l19.35,11.17L250.51,108,231.15,96.8Z" transform="translate(-3.12 -2.88)"/><path class="cls-2" d="M251.24,131.59l-.18-.1-20.64-11.92,20.82-12,.19.11,20.64,11.92Zm-19.35-12,19.35,11.17,19.36-11.17L251.24,108.4Z" transform="translate(-3.12 -2.88)"/><path class="cls-2" d="M90.52,62l-.18-.11L69.7,50,90.52,38l.19.11L111.35,50ZM71.17,50,90.52,61.15,109.88,50,90.52,38.8Z" transform="translate(-3.12 -2.88)"/><path class="cls-2" d="M110.61,73.6l-20.82-12,20.82-12,.19.11,20.64,11.91Zm-19.35-12,19.35,11.18L130,61.57,110.61,50.4Z" transform="translate(-3.12 -2.88)"/><path class="cls-2" d="M130.7,85.2l-.18-.11L109.88,73.17l20.82-12,.19.1,20.64,11.92Zm-19.35-12L130.7,84.35l19.36-11.18L130.7,62Z" transform="translate(-3.12 -2.88)"/><path class="cls-2" d="M150.79,96.8l-.18-.11L130,84.77l20.82-12,.19.1,20.64,11.92Zm-19.35-12,19.35,11.17,19.36-11.17L150.79,73.6Z" transform="translate(-3.12 -2.88)"/><path class="cls-2" d="M170.88,108.39l-20.82-12,20.82-12,20.83,12Zm-19.35-12,19.35,11.17,19.36-11.17L170.88,85.2Z" transform="translate(-3.12 -2.88)"/><path class="cls-2" d="M191,120l-.18-.1L170.15,108l20.82-12,.19.11L211.8,108Zm-19.35-12L191,119.14,210.33,108,191,96.8Z" transform="translate(-3.12 -2.88)"/><path class="cls-2" d="M211.06,131.59l-20.82-12,20.82-12,.19.11,20.64,11.92Zm-19.35-12,19.35,11.17,19.36-11.17L211.06,108.4Z" transform="translate(-3.12 -2.88)"/><path class="cls-2" d="M231.15,143.19l-.18-.1-20.64-11.92,20.82-12,.19.11L252,131.17Zm-19.35-12,19.35,11.17,19.36-11.17L231.15,120Z" transform="translate(-3.12 -2.88)"/><path class="cls-2" d="M251.24,154.79l-.18-.11-20.64-11.91,20.82-12,.19.11,20.64,11.92Zm-19.35-12,19.35,11.17,19.36-11.17-19.36-11.18Z" transform="translate(-3.12 -2.88)"/><path class="cls-2" d="M50.34,62l-.18-.11L29.52,50,50.34,38l.19.11L71.17,50ZM31,50,50.34,61.15,69.7,50,50.34,38.8Z" transform="translate(-3.12 -2.88)"/><path class="cls-2" d="M70.43,73.6l-.18-.11L49.61,61.57l20.82-12,.19.1L91.26,61.57Zm-19.35-12L70.43,72.75,89.79,61.57,70.43,50.4Z" transform="translate(-3.12 -2.88)"/><path class="cls-2" d="M90.52,85.2l-.18-.11L69.7,73.17l20.82-12,20.83,12Zm-19.35-12L90.52,84.34l19.36-11.17L90.52,62Z" transform="translate(-3.12 -2.88)"/><path class="cls-2" d="M110.61,96.8l-20.82-12,20.82-12,.19.1,20.64,11.92Zm-19.35-12,19.35,11.17L130,84.77,110.61,73.6Z" transform="translate(-3.12 -2.88)"/><path class="cls-2" d="M130.7,108.39l-.18-.1L109.88,96.37l20.82-12,.19.1,20.64,11.92Zm-19.35-12,19.35,11.17,19.36-11.17L130.7,85.2Z" transform="translate(-3.12 -2.88)"/><path class="cls-2" d="M150.79,120,130,108l20.82-12,20.83,12Zm-19.35-12,19.35,11.17L170.15,108,150.79,96.8Z" transform="translate(-3.12 -2.88)"/><path class="cls-2" d="M170.88,131.59l-.18-.1-20.64-11.92,20.82-12,.19.11,20.64,11.92Zm-19.35-12,19.35,11.17,19.36-11.17-19.36-11.18Z" transform="translate(-3.12 -2.88)"/><path class="cls-2" d="M191,143.19l-.18-.11-20.64-11.91,20.82-12,20.83,12Zm-19.35-12L191,142.34l19.36-11.17L191,120Z" transform="translate(-3.12 -2.88)"/><path class="cls-2" d="M211.06,154.79l-20.82-12,20.82-12,.19.11,20.64,11.92Zm-19.35-12,19.35,11.17,19.36-11.17-19.36-11.18Z" transform="translate(-3.12 -2.88)"/><path class="cls-2" d="M231.15,166.39l-.18-.11-20.64-11.92,20.82-12,.19.11L252,154.36Zm-19.35-12,19.35,11.18,19.36-11.18-19.36-11.17Z" transform="translate(-3.12 -2.88)"/><path class="cls-2" d="M251.24,178l-.18-.11L230.42,166l20.82-12,.19.11L272.07,166Zm-19.35-12,19.35,11.18L270.6,166l-19.36-11.17Z" transform="translate(-3.12 -2.88)"/><path class="cls-2" d="M50.34,85.2l-.18-.11L29.52,73.17l20.82-12,.19.1L71.17,73.17ZM31,73.17,50.34,84.34,69.7,73.17,50.34,62Z" transform="translate(-3.12 -2.88)"/><path class="cls-2" d="M70.44,96.8l-.19-.11L49.61,84.77l20.82-12,.19.1L91.26,84.77Zm-19.36-12L70.44,95.94,89.79,84.77,70.43,73.6Z" transform="translate(-3.12 -2.88)"/><path class="cls-2" d="M90.53,108.39l-.19-.1L69.7,96.37l20.82-12,20.83,12Zm-19.36-12,19.36,11.17,19.35-11.17L90.52,85.2Z" transform="translate(-3.12 -2.88)"/><path class="cls-2" d="M110.62,120l-.19-.1L89.79,108l20.82-12,.19.11L131.44,108ZM91.26,108l19.36,11.17L130,108,110.61,96.8Z" transform="translate(-3.12 -2.88)"/><path class="cls-2" d="M130.71,131.59l-20.83-12,20.82-12,20.83,12Zm-19.36-12,19.36,11.17,19.35-11.17L130.7,108.39Z" transform="translate(-3.12 -2.88)"/><path class="cls-2" d="M150.79,143.19l-20.82-12,20.82-12,.19.11,20.64,11.92Zm-19.35-12,19.35,11.17,19.36-11.17L150.79,120Z" transform="translate(-3.12 -2.88)"/><path class="cls-2" d="M170.88,154.79l-.18-.11-20.64-11.91,20.82-12,.19.11,20.64,11.92Zm-19.35-12,19.35,11.17,19.36-11.17-19.36-11.18Z" transform="translate(-3.12 -2.88)"/><path class="cls-2" d="M191,166.39l-.18-.11-20.64-11.92,20.82-12,20.83,12Zm-19.35-12L191,165.54l19.36-11.18L191,143.19Z" transform="translate(-3.12 -2.88)"/><path class="cls-2" d="M211.07,178l-.19-.11L190.24,166l20.82-12,.19.11L231.89,166Zm-19.36-12,19.36,11.18L230.42,166l-19.36-11.17Z" transform="translate(-3.12 -2.88)"/><path class="cls-2" d="M231.16,189.59l-20.83-12,20.82-12,.19.1L252,177.56Zm-19.36-12,19.36,11.18,19.35-11.18-19.36-11.17Z" transform="translate(-3.12 -2.88)"/><path class="cls-2" d="M251.25,201.19l-.19-.11-20.64-11.92,20.82-12,.19.1,20.64,11.92Zm-19.36-12,19.36,11.17,19.35-11.17L251.24,178Z" transform="translate(-3.12 -2.88)"/><path class="cls-2" d="M50.35,108.39l-20.83-12,20.82-12,.19.11L71.17,96.37ZM31,96.37l19.36,11.17L69.7,96.37,50.34,85.2Z" transform="translate(-3.12 -2.88)"/><path class="cls-2" d="M70.44,120l-.19-.1L49.61,108l20.83-12,.18.11L91.26,108ZM51.08,108l19.36,11.17L89.79,108,70.44,96.8Z" transform="translate(-3.12 -2.88)"/><path class="cls-2" d="M90.53,131.59l-.19-.1L69.7,119.57l20.83-12,.18.11,20.64,11.92Zm-19.36-12,19.36,11.17,19.35-11.17L90.53,108.39Z" transform="translate(-3.12 -2.88)"/><path class="cls-2" d="M110.62,143.19l-.19-.11L89.79,131.17l20.83-12,20.82,12Zm-19.36-12,19.36,11.17L130,131.17,110.62,120Z" transform="translate(-3.12 -2.88)"/><path class="cls-2" d="M130.71,154.79l-20.83-12,20.83-12,20.82,12Zm-19.36-12,19.36,11.18,19.35-11.17-19.35-11.18Z" transform="translate(-3.12 -2.88)"/><path class="cls-2" d="M150.8,166.39l-20.83-12,20.82-12,.19.11,20.64,11.91Zm-19.36-12,19.36,11.18,19.35-11.18-19.36-11.17Z" transform="translate(-3.12 -2.88)"/><path class="cls-2" d="M170.89,178l-.19-.11L150.06,166l20.82-12,.19.1L191.71,166Zm-19.36-12,19.36,11.18L190.24,166l-19.36-11.17Z" transform="translate(-3.12 -2.88)"/><path class="cls-2" d="M191,189.59l-.19-.11-20.64-11.92,20.82-12,.19.1,20.64,11.92Zm-19.36-12L191,188.73l19.35-11.17L191,166.39Z" transform="translate(-3.12 -2.88)"/><path class="cls-2" d="M211.07,201.19l-.19-.11-20.64-11.92,20.83-12,20.82,12Zm-19.36-12,19.36,11.17,19.35-11.17L211.07,178Z" transform="translate(-3.12 -2.88)"/><path class="cls-2" d="M50.35,131.59l-20.83-12,20.83-12,.18.11,20.64,11.92ZM31,119.57l19.36,11.17L69.7,119.57,50.35,108.39Z" transform="translate(-3.12 -2.88)"/><path class="cls-2" d="M70.44,143.19l-.19-.11L49.61,131.17l20.83-12,.18.11,20.64,11.92Zm-19.36-12,19.36,11.17,19.35-11.17L70.44,120Z" transform="translate(-3.12 -2.88)"/><path class="cls-2" d="M90.53,154.79l-.19-.11L69.7,142.76l20.83-12,.18.11,20.64,11.91Zm-19.36-12,19.36,11.18,19.35-11.18L90.53,131.59Z" transform="translate(-3.12 -2.88)"/><path class="cls-2" d="M110.62,166.39l-20.83-12,20.83-12,20.82,12Zm-19.36-12,19.36,11.18L130,154.36l-19.35-11.17Z" transform="translate(-3.12 -2.88)"/><path class="cls-2" d="M130.71,178l-.19-.11L109.88,166l20.83-12,20.82,12Zm-19.36-12,19.36,11.18L150.06,166l-19.35-11.17Z" transform="translate(-3.12 -2.88)"/><path class="cls-2" d="M150.8,189.59l-20.83-12,20.83-12,.18.1,20.64,11.92Zm-19.36-12,19.36,11.17,19.35-11.17L150.8,166.39Z" transform="translate(-3.12 -2.88)"/><path class="cls-2" d="M170.89,201.19l-.19-.11-20.64-11.92,20.83-12,.18.1,20.64,11.92Zm-19.36-12,19.36,11.17,19.35-11.17L170.89,178Z" transform="translate(-3.12 -2.88)"/><path class="cls-2" d="M50.35,154.79l-.19-.11L29.52,142.76l20.83-12,.18.11,20.64,11.91ZM31,142.76l19.36,11.18L69.7,142.76,50.35,131.59Z" transform="translate(-3.12 -2.88)"/><path class="cls-2" d="M70.44,166.39l-20.83-12,20.83-12,.18.11,20.64,11.91Zm-19.36-12,19.36,11.18,19.35-11.18L70.44,143.19Z" transform="translate(-3.12 -2.88)"/><path class="cls-2" d="M90.53,178l-.19-.11L69.7,166l20.83-12,20.82,12ZM71.17,166l19.36,11.18L109.88,166,90.53,154.79Z" transform="translate(-3.12 -2.88)"/><path class="cls-2" d="M110.62,189.59l-20.83-12,20.83-12,.18.1,20.64,11.92Zm-19.36-12,19.36,11.17L130,177.56l-19.35-11.17Z" transform="translate(-3.12 -2.88)"/><path class="cls-2" d="M130.71,201.18l-.19-.1-20.64-11.92,20.83-12,20.82,12Zm-19.36-12,19.36,11.17,19.35-11.17L130.71,178Z" transform="translate(-3.12 -2.88)"/><path class="cls-2" d="M50.35,178l-.19-.11L29.52,166l20.83-12,20.82,12ZM31,166l19.36,11.17L69.7,166,50.35,154.79Z" transform="translate(-3.12 -2.88)"/><path class="cls-2" d="M70.44,189.59l-.19-.11L49.61,177.56l20.83-12,.18.1,20.64,11.92Zm-19.36-12,19.36,11.17,19.35-11.17L70.44,166.39Z" transform="translate(-3.12 -2.88)"/><path class="cls-2" d="M90.53,201.18l-20.83-12,20.83-12,20.82,12Zm-19.36-12,19.36,11.17,19.35-11.17L90.53,178Z" transform="translate(-3.12 -2.88)"/><path class="cls-2" d="M50.35,201.18l-.19-.1L29.52,189.16l20.83-12,.18.11,20.64,11.92ZM31,189.16l19.35,11.17L69.7,189.16,50.35,178Z" transform="translate(-3.12 -2.88)"/></g><path class="cls-2" d="M29.72,139a7.85,7.85,0,0,0-1.14.83c-.15-5.1-3.84-7.13-8.38-4.51-3.7,2.13-6.83,6.7-8,11.18a5,5,0,0,0-3.13.78,13.24,13.24,0,0,0-6,10.38c0,3.82,2.68,5.37,6,3.46l20.61-11.9a9.78,9.78,0,0,0,4.42-7.66C34.14,138.74,32.16,137.59,29.72,139Z" transform="translate(-3.12 -2.88)"/><path class="cls-2" d="M189.61,170.3a4.3,4.3,0,0,1-1.94,3.36c-1.07.62-1.94.12-1.94-1.12a4.31,4.31,0,0,1,1.94-3.37C188.74,168.55,189.61,169.06,189.61,170.3Z" transform="translate(-3.12 -2.88)"/><path class="cls-2" d="M195.91,166.66A4.29,4.29,0,0,1,194,170c-1.08.62-1.95.12-1.95-1.12a4.27,4.27,0,0,1,1.95-3.36C195,164.92,195.91,165.42,195.91,166.66Z" transform="translate(-3.12 -2.88)"/><path class="cls-2" d="M202.21,163a4.31,4.31,0,0,1-1.94,3.37c-1.08.62-2,.11-2-1.12a4.29,4.29,0,0,1,2-3.37C201.34,161.28,202.21,161.78,202.21,163Z" transform="translate(-3.12 -2.88)"/><path class="cls-2" d="M208.51,159.38a4.31,4.31,0,0,1-1.94,3.37c-1.08.62-1.95.12-1.95-1.12a4.29,4.29,0,0,1,1.95-3.37C207.64,157.64,208.51,158.15,208.51,159.38Z" transform="translate(-3.12 -2.88)"/><path class="cls-2" d="M98.89,205A4.31,4.31,0,0,1,97,208.4c-1.08.62-2,.11-2-1.12a4.29,4.29,0,0,1,2-3.37C98,203.29,98.89,203.79,98.89,205Z" transform="translate(-3.12 -2.88)"/><path class="cls-2" d="M104.25,201.94a4.29,4.29,0,0,1-1.94,3.36c-1.08.62-2,.12-2-1.12a4.29,4.29,0,0,1,2-3.37C103.38,200.2,104.25,200.7,104.25,201.94Z" transform="translate(-3.12 -2.88)"/><path class="cls-2" d="M98.89,198.84A4.31,4.31,0,0,1,97,202.21c-1.08.62-2,.12-2-1.12a4.29,4.29,0,0,1,2-3.37C98,197.1,98.89,197.6,98.89,198.84Z" transform="translate(-3.12 -2.88)"/><path class="cls-2" d="M104.25,195.75a4.29,4.29,0,0,1-1.94,3.36c-1.08.62-2,.12-2-1.12a4.29,4.29,0,0,1,2-3.37C103.38,194,104.25,194.51,104.25,195.75Z" transform="translate(-3.12 -2.88)"/><polygon class="cls-2" points="77.77 47.04 73.88 49.28 73.88 44.8 77.77 42.55 77.77 47.04"/><polygon class="cls-2" points="83.16 43.89 79.28 46.13 79.28 41.64 83.16 39.4 83.16 43.89"/><polygon class="cls-2" points="77.8 52.86 73.92 55.1 73.92 50.62 77.8 48.37 77.8 52.86"/><polygon class="cls-2" points="83.16 49.77 79.28 52.01 79.28 47.52 83.16 45.28 83.16 49.77"/><path class="cls-3" d="M239.44,5.4A7.47,7.47,0,0,0,237.54,7c-.09-3.75-2.78-5.24-6.08-3.33a11.09,11.09,0,0,0-2.93,2.55c-1.47-2.58-4.52-3.17-8.05-1.13-5,2.87-9,9.85-9,15.59a11.44,11.44,0,0,0,.09,1.34,3.39,3.39,0,0,0-2.52.51,9.53,9.53,0,0,0-4.3,7.46c0,2.74,1.93,3.86,4.3,2.48L239.44,15a9.17,9.17,0,0,0,4.14-7.17C243.58,5.15,241.72,4.08,239.44,5.4Z" transform="translate(-3.12 -2.88)"/><path class="cls-4" d="M244.85,10.18a7.4,7.4,0,0,0-1.9,1.63c-.08-3.74-2.77-5.24-6.08-3.33A11.05,11.05,0,0,0,234,11c-1.47-2.57-4.52-3.17-8.06-1.13-5,2.87-9,9.85-9,15.59a11.3,11.3,0,0,0,.09,1.34,3.43,3.43,0,0,0-2.52.51,9.51,9.51,0,0,0-4.31,7.46c0,2.75,1.93,3.86,4.31,2.49l30.39-17.55A9.14,9.14,0,0,0,249,12.57C249,9.93,247.14,8.86,244.85,10.18Z" transform="translate(-3.12 -2.88)"/><path class="cls-2" d="M250.27,15a7.43,7.43,0,0,0-1.9,1.63c-.09-3.74-2.77-5.24-6.08-3.33a11.09,11.09,0,0,0-2.93,2.55c-1.47-2.57-4.52-3.17-8.05-1.13-5,2.87-9,9.85-9,15.59a9.41,9.41,0,0,0,.09,1.34,3.43,3.43,0,0,0-2.52.51,9.54,9.54,0,0,0-4.31,7.46c0,2.75,1.93,3.86,4.31,2.49l30.39-17.55a9.14,9.14,0,0,0,4.14-7.17C254.41,14.7,252.56,13.63,250.27,15Z" transform="translate(-3.12 -2.88)"/><path class="cls-2" d="M73.76,149a1,1,0,0,1-.47-.12,1,1,0,0,1-.47-.82V136a.94.94,0,0,1,.47-.81l10.43-6a.93.93,0,0,1,.94,0,.94.94,0,0,1,.47.81v12a1,1,0,0,1-.47.82l-10.43,6A1,1,0,0,1,73.76,149Zm.94-12.43v9.87l8.55-4.94v-9.87ZM84.19,142h0Z" transform="translate(-3.12 -2.88)"/><polygon class="cls-5" points="63.48 204.9 48.45 196.21 63.48 187.53 78.52 196.21 63.48 204.9"/><path class="cls-2" d="M66.6,202.39a1.16,1.16,0,0,1-.57-.15l-15-8.68a1.15,1.15,0,0,1-.57-1,1.14,1.14,0,0,1,.57-1l15-8.68a1.11,1.11,0,0,1,1.14,0l15,8.68a1.14,1.14,0,0,1,.57,1,1.15,1.15,0,0,1-.57,1l-15,8.68A1.16,1.16,0,0,1,66.6,202.39Zm-12.75-9.82,12.75,7.36,12.75-7.36L66.6,185.21Z" transform="translate(-3.12 -2.88)"/><polygon class="cls-6" points="78.52 182.91 63.48 191.59 63.48 174.22 78.52 165.54 78.52 182.91"/><polygon class="cls-7" points="63.48 174.22 48.45 165.54 63.48 156.86 78.52 165.54 63.48 174.22"/><polygon class="cls-8" points="63.48 191.59 48.45 182.91 48.45 165.54 63.48 174.22 63.48 191.59"/><polygon class="cls-2" points="58.07 182.21 53.86 179.78 53.86 174.92 58.07 177.35 58.07 182.21"/><polygon class="cls-5" points="231.87 111.36 216.84 102.68 231.87 94 246.91 102.68 231.87 111.36"/><path class="cls-2" d="M235,108.86a1.13,1.13,0,0,1-.57-.15l-15-8.68a1.17,1.17,0,0,1-.57-1,1.14,1.14,0,0,1,.57-1l15-8.69a1.16,1.16,0,0,1,1.14,0l15,8.69a1.14,1.14,0,0,1,.57,1,1.17,1.17,0,0,1-.57,1l-15,8.68A1.16,1.16,0,0,1,235,108.86ZM222.24,99,235,106.4,247.74,99,235,91.67Z" transform="translate(-3.12 -2.88)"/><polygon class="cls-9" points="246.91 89.38 231.87 98.06 231.87 80.69 246.91 72.01 246.91 89.38"/><polygon class="cls-10" points="231.87 80.69 216.84 72.01 231.87 63.33 246.91 72.01 231.87 80.69"/><polygon class="cls-11" points="231.87 98.06 216.84 89.38 216.84 72.01 231.87 80.69 231.87 98.06"/><polygon class="cls-2" points="226.46 88.68 222.25 86.25 222.25 81.39 226.46 83.82 226.46 88.68"/><polygon class="cls-2" points="227.67 72.06 231.84 69.58 236.08 71.96 231.9 74.44 227.67 72.06"/><polygon class="cls-5" points="231.87 204.9 216.84 196.21 231.87 187.53 246.91 196.21 231.87 204.9"/><path class="cls-2" d="M235,202.39a1.13,1.13,0,0,1-.57-.15l-15-8.68a1.15,1.15,0,0,1-.57-1,1.14,1.14,0,0,1,.57-1l15-8.68a1.11,1.11,0,0,1,1.14,0l15,8.68a1.14,1.14,0,0,1,.57,1,1.15,1.15,0,0,1-.57,1l-15,8.68A1.16,1.16,0,0,1,235,202.39Zm-12.75-9.82L235,199.93l12.75-7.36L235,185.21Z" transform="translate(-3.12 -2.88)"/><polygon class="cls-12" points="246.91 182.91 231.87 191.59 231.87 174.22 246.91 165.54 246.91 182.91"/><polygon class="cls-13" points="231.87 174.22 216.84 165.54 231.87 156.86 246.91 165.54 231.87 174.22"/><polygon class="cls-14" points="231.87 191.59 216.84 182.91 216.84 165.54 231.87 174.22 231.87 191.59"/><polygon class="cls-2" points="226.46 182.21 222.25 179.78 222.25 174.92 226.46 177.35 226.46 182.21"/><polygon class="cls-5" points="63.48 111.36 48.45 102.68 63.48 94 78.52 102.68 63.48 111.36"/><path class="cls-2" d="M66.6,108.86a1.16,1.16,0,0,1-.57-.15L51,100a1.17,1.17,0,0,1-.57-1,1.14,1.14,0,0,1,.57-1l15-8.69a1.16,1.16,0,0,1,1.14,0l15,8.69a1.14,1.14,0,0,1,.57,1,1.17,1.17,0,0,1-.57,1l-15,8.68A1.16,1.16,0,0,1,66.6,108.86ZM53.85,99,66.6,106.4,79.35,99,66.6,91.67Z" transform="translate(-3.12 -2.88)"/><polygon class="cls-15" points="78.52 89.38 63.48 98.06 63.48 80.69 78.52 72.01 78.52 89.38"/><polygon class="cls-16" points="63.48 80.69 48.45 72.01 63.48 63.33 78.52 72.01 63.48 80.69"/><polygon class="cls-17" points="63.48 98.06 48.45 89.38 48.45 72.01 63.48 80.69 63.48 98.06"/><polygon class="cls-2" points="58.07 88.68 53.86 86.25 53.86 81.39 58.07 83.82 58.07 88.68"/><rect class="cls-2" x="180.14" y="99.63" width="50.5" height="2.29" transform="translate(-25.99 113.28) rotate(-29.99)"/><path class="cls-5" d="M147.25,175.57,108.68,153.3c-1.42-.82-1.24-2.24.39-3.18L150,126.45a6.17,6.17,0,0,1,5.52-.23L194,148.49c1.41.82,1.23,2.24-.4,3.19l-40.88,23.66A6.15,6.15,0,0,1,147.25,175.57Z" transform="translate(-3.12 -2.88)"/><path class="cls-2" d="M149.65,168.25a6,6,0,0,1-3-.7L108.1,145.28a2.76,2.76,0,0,1-1.52-2.37,3.37,3.37,0,0,1,1.92-2.79l40.88-23.66a7.28,7.28,0,0,1,6.66-.23l38.57,22.27a2.76,2.76,0,0,1,1.52,2.37,3.36,3.36,0,0,1-1.92,2.79l-40.88,23.66A7.45,7.45,0,0,1,149.65,168.25Zm-1.83-2.68a5,5,0,0,0,4.37-.23l40.88-23.66c.57-.33.78-.67.78-.81s-.12-.24-.39-.39l-38.57-22.27a5,5,0,0,0-4.37.23L109.64,142.1c-.57.33-.77.67-.77.81s.11.24.38.39Z" transform="translate(-3.12 -2.88)"/><path class="cls-18" d="M150,58.36s-21.18,2-33.93,3l33.83,96.34,44.74-25.8,0,0,.08,0h0a2.49,2.49,0,0,0,.92-2.21V35.45a6.88,6.88,0,0,0-.78-3Z" transform="translate(-3.12 -2.88)"/><path class="cls-19" d="M192.91,30.16,153.57,7.44a1.78,1.78,0,0,0-1.8-.16h0L106.85,33.2,109,41l11.26,32.08,2.12,1.23,72.56-41.9A5.43,5.43,0,0,0,192.91,30.16Z" transform="translate(-3.12 -2.88)"/><path class="cls-20" d="M148,157.6l-39.35-22.71a6.66,6.66,0,0,1-2.77-5.3V35.43c0-2,1.24-3,2.77-2.1L148,56.05a6.66,6.66,0,0,1,2.77,5.3v94.16C150.79,157.55,149.55,158.49,148,157.6Z" transform="translate(-3.12 -2.88)"/><path class="cls-2" d="M148.87,55.58,109.52,32.86a1.64,1.64,0,0,0-2.18.16,2,2,0,0,1,1.33.31L148,56.05a6.66,6.66,0,0,1,2.77,5.3v94.16a2.85,2.85,0,0,1-.59,1.93c.86-.13,1.44-1,1.44-2.4V60.87A6.62,6.62,0,0,0,148.87,55.58Z" transform="translate(-3.12 -2.88)"/><path class="cls-21" d="M145.55,151.94l-34.4-19.86a5.81,5.81,0,0,1-2.42-4.63V40c0-1.79,1.08-2.61,2.42-1.84L145.55,58A5.81,5.81,0,0,1,148,62.65V150.1C148,151.89,146.89,152.71,145.55,151.94Z" transform="translate(-3.12 -2.88)"/><path class="cls-21" d="M145.55,151.94l-34.4-19.86a5.81,5.81,0,0,1-2.42-4.63V40c0-1.79,1.08-2.61,2.42-1.84L145.55,58A5.81,5.81,0,0,1,148,62.65V150.1C148,151.89,146.89,152.71,145.55,151.94Z" transform="translate(-3.12 -2.88)"/><path class="cls-22" d="M145.55,151.94l-34.4-19.86a5.81,5.81,0,0,1-2.42-4.63V40c0-1.79,1.08-2.61,2.42-1.84L145.55,58A5.81,5.81,0,0,1,148,62.65V150.1C148,151.89,146.89,152.71,145.55,151.94Z" transform="translate(-3.12 -2.88)"/><path class="cls-23" d="M146.67,151.27l-34.4-19.86a5.81,5.81,0,0,1-2.42-4.62V39.33a2.81,2.81,0,0,1,.35-1.46c-.87,0-1.47.79-1.47,2.13v87.45a5.81,5.81,0,0,0,2.42,4.63l34.4,19.86a1.4,1.4,0,0,0,2.07-.38A1.88,1.88,0,0,1,146.67,151.27Z" transform="translate(-3.12 -2.88)"/><path class="cls-22" d="M145.55,111.79l-12.79-7.39-20.39,11.78L148,136.73V116.41A5.78,5.78,0,0,0,145.55,111.79Z" transform="translate(-3.12 -2.88)"/><path class="cls-22" d="M145.55,93.87l-12.79-7.39L112.37,98.26,148,118.81V98.49A5.78,5.78,0,0,0,145.55,93.87Z" transform="translate(-3.12 -2.88)"/><path class="cls-22" d="M145.55,76l-12.79-7.39L112.37,80.34,148,100.89V80.57A5.78,5.78,0,0,0,145.55,76Z" transform="translate(-3.12 -2.88)"/><path class="cls-22" d="M145.55,58l-12.79-7.38L112.37,62.42,148,83V62.65A5.81,5.81,0,0,0,145.55,58Z" transform="translate(-3.12 -2.88)"/><path class="cls-22" d="M145.55,58,117.24,41.68l-4.87,2.82L148,65.05v-2.4A5.81,5.81,0,0,0,145.55,58Z" transform="translate(-3.12 -2.88)"/><polygon class="cls-20" points="144.85 62.17 109.26 41.62 109.26 52.95 144.85 73.5 144.85 62.17"/><polygon class="cls-20" points="144.85 80.09 109.26 59.54 109.26 70.87 144.85 91.42 144.85 80.09"/><polygon class="cls-20" points="144.85 98.01 109.26 77.46 109.26 88.79 144.85 109.34 144.85 98.01"/><polygon class="cls-20" points="144.85 115.93 109.26 95.38 109.26 106.71 144.85 127.26 144.85 115.93"/><polygon class="cls-20" points="144.85 133.85 109.26 113.3 109.26 124.63 144.85 145.18 144.85 133.85"/><path class="cls-22" d="M144.83,72.34,118,56.86a3.28,3.28,0,0,1-1.37-2.62v-3c0-1,.61-1.48,1.37-1l26.81,15.48a3.28,3.28,0,0,1,1.37,2.62v3C146.2,72.31,145.59,72.78,144.83,72.34Z" transform="translate(-3.12 -2.88)"/><path class="cls-24" d="M119.37,56.28A3.31,3.31,0,0,1,118,53.66v-3a1.9,1.9,0,0,1,0-.44l0,0c-.76-.44-1.37,0-1.37,1v3A3.28,3.28,0,0,0,118,56.86l26.81,15.48a.82.82,0,0,0,1.32-.6Z" transform="translate(-3.12 -2.88)"/><path class="cls-2" d="M136.42,64l-16.14-9.32a1.14,1.14,0,0,1-.48-.92h0c0-.36.21-.52.48-.37l16.14,9.32a1.17,1.17,0,0,1,.48.92h0C136.9,64,136.68,64.18,136.42,64Z" transform="translate(-3.12 -2.88)"/><path class="cls-22" d="M144.83,90.15,118,74.67a3.28,3.28,0,0,1-1.37-2.62V69c0-1,.61-1.48,1.37-1l26.81,15.48a3.28,3.28,0,0,1,1.37,2.62v3C146.2,90.12,145.59,90.59,144.83,90.15Z" transform="translate(-3.12 -2.88)"/><path class="cls-24" d="M119.37,74.09A3.31,3.31,0,0,1,118,71.47v-3a1.9,1.9,0,0,1,0-.44l0,0c-.76-.44-1.37,0-1.37,1v3A3.28,3.28,0,0,0,118,74.67l26.81,15.48a.82.82,0,0,0,1.32-.6Z" transform="translate(-3.12 -2.88)"/><path class="cls-2" d="M136.42,81.84l-16.14-9.32a1.14,1.14,0,0,1-.48-.92h0c0-.36.21-.52.48-.37l16.14,9.32a1.17,1.17,0,0,1,.48.92h0C136.9,81.83,136.68,82,136.42,81.84Z" transform="translate(-3.12 -2.88)"/><path class="cls-22" d="M144.83,108.12,118,92.64A3.26,3.26,0,0,1,116.65,90V87c0-1,.61-1.47,1.37-1l26.81,15.49a3.26,3.26,0,0,1,1.37,2.61v3C146.2,108.1,145.59,108.56,144.83,108.12Z" transform="translate(-3.12 -2.88)"/><path class="cls-24" d="M119.37,92.06A3.29,3.29,0,0,1,118,89.44v-3a2,2,0,0,1,0-.44l0,0c-.76-.43-1.37,0-1.37,1v3A3.26,3.26,0,0,0,118,92.64l26.81,15.48a.82.82,0,0,0,1.32-.6Z" transform="translate(-3.12 -2.88)"/><path class="cls-25" d="M136.42,99.81l-16.14-9.32a1.13,1.13,0,0,1-.48-.92h0c0-.35.21-.51.48-.36l16.14,9.31a1.19,1.19,0,0,1,.48.93h0C136.9,99.8,136.68,100,136.42,99.81Z" transform="translate(-3.12 -2.88)"/><path class="cls-22" d="M144.83,126.27,118,110.78a3.25,3.25,0,0,1-1.37-2.61v-3c0-1,.61-1.47,1.37-1l26.81,15.48a3.26,3.26,0,0,1,1.37,2.62v3C146.2,126.24,145.59,126.7,144.83,126.27Z" transform="translate(-3.12 -2.88)"/><path class="cls-24" d="M119.37,110.2a3.29,3.29,0,0,1-1.37-2.61v-3a1.88,1.88,0,0,1,0-.43l0,0c-.76-.44-1.37,0-1.37,1v3a3.28,3.28,0,0,0,1.37,2.62l26.81,15.48a.82.82,0,0,0,1.32-.6Z" transform="translate(-3.12 -2.88)"/><path class="cls-26" d="M136.42,118l-16.14-9.31a1.16,1.16,0,0,1-.48-.92h0c0-.36.21-.52.48-.37l16.14,9.32a1.15,1.15,0,0,1,.48.92h0C136.9,117.94,136.68,118.11,136.42,118Z" transform="translate(-3.12 -2.88)"/><path class="cls-22" d="M144.83,144.05,118,128.57a3.28,3.28,0,0,1-1.37-2.62v-3c0-1,.61-1.47,1.37-1l26.81,15.48A3.28,3.28,0,0,1,146.2,140v3C146.2,144,145.59,144.48,144.83,144.05Z" transform="translate(-3.12 -2.88)"/><path class="cls-24" d="M119.37,128a3.31,3.31,0,0,1-1.37-2.62v-3a1.88,1.88,0,0,1,0-.43l0,0c-.76-.44-1.37,0-1.37,1v3a3.28,3.28,0,0,0,1.37,2.62l26.81,15.48a.82.82,0,0,0,1.32-.6Z" transform="translate(-3.12 -2.88)"/><path class="cls-25" d="M136.42,135.73l-16.14-9.31a1.16,1.16,0,0,1-.48-.92h0c0-.36.21-.52.48-.37l16.14,9.32a1.15,1.15,0,0,1,.48.92h0C136.9,135.72,136.68,135.89,136.42,135.73Z" transform="translate(-3.12 -2.88)"/><polygon class="cls-27" points="109.26 41.62 112.06 43.24 112.06 54.56 109.26 52.95 109.26 41.62"/><polygon class="cls-27" points="109.26 59.54 112.06 61.16 112.06 72.48 109.26 70.87 109.26 59.54"/><polygon class="cls-27" points="109.26 77.46 112.06 79.08 112.06 90.41 109.26 88.79 109.26 77.46"/><polygon class="cls-27" points="109.26 95.38 112.06 97 112.06 108.33 109.26 106.71 109.26 95.38"/><polygon class="cls-27" points="109.26 113.3 112.06 114.92 112.06 126.25 109.26 124.63 109.26 113.3"/><ellipse class="cls-25" cx="139.03" cy="64.82" rx="0.46" ry="0.8" transform="translate(-16.9 75.33) rotate(-30)"/><path class="cls-26" d="M142,66.53c0,.37-.25.51-.57.33a1.25,1.25,0,0,1-.56-1c0-.36.25-.51.56-.33A1.24,1.24,0,0,1,142,66.53Z" transform="translate(-3.12 -2.88)"/><path class="cls-25" d="M144.41,67.92c0,.36-.26.51-.57.33a1.26,1.26,0,0,1-.57-1c0-.36.26-.51.57-.33A1.26,1.26,0,0,1,144.41,67.92Z" transform="translate(-3.12 -2.88)"/><path class="cls-26" d="M139.6,83.06c0,.36-.26.5-.57.32a1.24,1.24,0,0,1-.57-1c0-.36.25-.51.57-.33A1.26,1.26,0,0,1,139.6,83.06Z" transform="translate(-3.12 -2.88)"/><path class="cls-25" d="M142,84.44c0,.37-.25.51-.57.33a1.25,1.25,0,0,1-.56-1c0-.36.25-.51.56-.33A1.24,1.24,0,0,1,142,84.44Z" transform="translate(-3.12 -2.88)"/><path class="cls-2" d="M144.41,85.83c0,.37-.26.51-.57.33a1.26,1.26,0,0,1-.57-1c0-.36.26-.51.57-.33A1.26,1.26,0,0,1,144.41,85.83Z" transform="translate(-3.12 -2.88)"/><path class="cls-2" d="M139.6,101.1c0,.36-.26.51-.57.33a1.24,1.24,0,0,1-.57-1c0-.37.25-.51.57-.33A1.26,1.26,0,0,1,139.6,101.1Z" transform="translate(-3.12 -2.88)"/><path class="cls-26" d="M142,102.49c0,.36-.25.51-.57.33a1.25,1.25,0,0,1-.56-1c0-.37.25-.51.56-.33A1.24,1.24,0,0,1,142,102.49Z" transform="translate(-3.12 -2.88)"/><path class="cls-2" d="M144.41,103.88c0,.36-.26.51-.57.33a1.26,1.26,0,0,1-.57-1c0-.36.26-.5.57-.32A1.26,1.26,0,0,1,144.41,103.88Z" transform="translate(-3.12 -2.88)"/><path class="cls-2" d="M139.6,118.89c0,.36-.26.5-.57.32a1.24,1.24,0,0,1-.57-1c0-.36.25-.51.57-.33A1.26,1.26,0,0,1,139.6,118.89Z" transform="translate(-3.12 -2.88)"/><path class="cls-25" d="M142,120.27c0,.37-.25.51-.57.33a1.25,1.25,0,0,1-.56-1c0-.36.25-.51.56-.33A1.24,1.24,0,0,1,142,120.27Z" transform="translate(-3.12 -2.88)"/><path class="cls-25" d="M144.41,121.66c0,.37-.26.51-.57.33a1.26,1.26,0,0,1-.57-1c0-.36.26-.51.57-.33A1.26,1.26,0,0,1,144.41,121.66Z" transform="translate(-3.12 -2.88)"/><path class="cls-2" d="M139.6,136.91c0,.36-.26.51-.57.33a1.24,1.24,0,0,1-.57-1c0-.37.25-.51.57-.33A1.26,1.26,0,0,1,139.6,136.91Z" transform="translate(-3.12 -2.88)"/><path class="cls-26" d="M142,138.3c0,.36-.25.51-.57.33a1.25,1.25,0,0,1-.56-1c0-.37.25-.51.56-.33A1.24,1.24,0,0,1,142,138.3Z" transform="translate(-3.12 -2.88)"/><path class="cls-25" d="M144.41,139.69c0,.36-.26.51-.57.33a1.26,1.26,0,0,1-.57-1c0-.36.26-.5.57-.32A1.26,1.26,0,0,1,144.41,139.69Z" transform="translate(-3.12 -2.88)"/><path class="cls-22" d="M156.72,144.88V64.69l.17-.09L190.4,45.25v80.18l-.17.1Zm.66-79.8v78.65l32.35-18.68V46.4Z" transform="translate(-3.12 -2.88)"/><path class="cls-22" d="M181.69,81.33l-15,8.67c-1,.59-1.83,0-1.83-1.38V80.29a4.38,4.38,0,0,1,1.83-3.49l15-8.68c1-.58,1.83,0,1.83,1.39v8.33A4.38,4.38,0,0,1,181.69,81.33Z" transform="translate(-3.12 -2.88)"/><path class="cls-20" d="M182.06,68a2.6,2.6,0,0,1,.13.84v8.33a4.38,4.38,0,0,1-1.83,3.49l-15,8.68a2.3,2.3,0,0,1-.37.16,1.07,1.07,0,0,0,1.7.54l15-8.67a4.38,4.38,0,0,0,1.83-3.49V69.51C183.52,68.33,182.89,67.71,182.06,68Z" transform="translate(-3.12 -2.88)"/><path class="cls-2" d="M179,76.31c.28-.16.5,0,.5.29v1.9a1.1,1.1,0,0,1-.5.87c-.28.16-.51,0-.51-.29v-1.9A1.11,1.11,0,0,1,179,76.31Z" transform="translate(-3.12 -2.88)"/><path class="cls-25" d="M176.79,77.79c.28-.16.51,0,.51.29v1.66a1.11,1.11,0,0,1-.51.87c-.28.17-.5,0-.5-.29V78.66A1.1,1.1,0,0,1,176.79,77.79Z" transform="translate(-3.12 -2.88)"/><path class="cls-26" d="M174.64,77.18c.27-.16.5,0,.5.29V81a1.13,1.13,0,0,1-.5.87c-.28.16-.51,0-.51-.29V78.06A1.11,1.11,0,0,1,174.64,77.18Z" transform="translate(-3.12 -2.88)"/><path class="cls-25" d="M172.48,76.4c.28-.16.5,0,.5.29v5.54a1.1,1.1,0,0,1-.5.87c-.28.16-.5,0-.5-.29V77.28A1.1,1.1,0,0,1,172.48,76.4Z" transform="translate(-3.12 -2.88)"/><path class="cls-25" d="M170.33,78.23c.27-.16.5,0,.5.29v5a1.13,1.13,0,0,1-.5.87c-.28.16-.51,0-.51-.29v-5A1.11,1.11,0,0,1,170.33,78.23Z" transform="translate(-3.12 -2.88)"/><path class="cls-2" d="M168.17,81.74c.28-.16.5,0,.5.29v2.69a1.1,1.1,0,0,1-.5.87c-.28.16-.5,0-.5-.29V82.61A1.1,1.1,0,0,1,168.17,81.74Z" transform="translate(-3.12 -2.88)"/><path class="cls-26" d="M178.45,75.35c0,.32.22.45.5.29a1.1,1.1,0,0,0,.49-.86c0-.31-.22-.44-.49-.28A1.07,1.07,0,0,0,178.45,75.35Z" transform="translate(-3.12 -2.88)"/><ellipse class="cls-2" cx="178.95" cy="73.28" rx="0.7" ry="0.4" transform="translate(22.89 188.73) rotate(-60)"/><rect class="cls-2" x="230.73" y="27.65" width="2.29" height="44.36"/><path class="cls-5" d="M148.24,216.25l-23-13.27c-1.41-.81-1.23-2.23.4-3.17L147.84,187a6.15,6.15,0,0,1,5.51-.23l23,13.27c1.41.81,1.23,2.23-.39,3.17L153.74,216A6.13,6.13,0,0,1,148.24,216.25Z" transform="translate(-3.12 -2.88)"/><path class="cls-2" d="M150.64,210.85a6.15,6.15,0,0,1-3-.73h0l-23-13.27a2.91,2.91,0,0,1-1.6-2.51,3.51,3.51,0,0,1,2-2.92l22.18-12.81a7.32,7.32,0,0,1,6.81-.23l23,13.27a2.91,2.91,0,0,1,1.61,2.5,3.51,3.51,0,0,1-2,2.93l-22.19,12.81A7.58,7.58,0,0,1,150.64,210.85Zm-1.75-3a4.85,4.85,0,0,0,4.2-.23l22.18-12.81c.56-.32.69-.61.7-.67a.88.88,0,0,0-.3-.24l-23-13.27a4.83,4.83,0,0,0-4.19.23l-22.19,12.81c-.56.32-.69.61-.69.66a.73.73,0,0,0,.3.25l23,13.27Z" transform="translate(-3.12 -2.88)"/><path class="cls-23" d="M177.27,186h0V178.1H159.49l-6.14-3.55a6.15,6.15,0,0,0-5.51.23l-5.73,3.31H124.32v8.15a1.61,1.61,0,0,0,.94,1.48l23,13.26a6.09,6.09,0,0,0,5.5-.23l22.19-12.8A2.2,2.2,0,0,0,177.27,186Z" transform="translate(-3.12 -2.88)"/><path class="cls-28" d="M150.79,174a6.29,6.29,0,0,0-2.95.77l-5.73,3.31H124.32v8.15a1.61,1.61,0,0,0,.94,1.48l23,13.26a5,5,0,0,0,2.55.55Z" transform="translate(-3.12 -2.88)"/><path class="cls-25" d="M126.33,178.07h-2v8.15a1.61,1.61,0,0,0,.94,1.48l1.07.61Z" transform="translate(-3.12 -2.88)"/><path class="cls-20" d="M148.59,201.14a6.24,6.24,0,0,0,4.4-.06v-9.25h-4.4Z" transform="translate(-3.12 -2.88)"/><path class="cls-29" d="M148.24,192.84l-23-13.27c-1.41-.81-1.23-2.23.4-3.17l22.18-12.81a6.15,6.15,0,0,1,5.51-.23l23,13.27c1.41.81,1.23,2.23-.39,3.17l-22.19,12.81A6.13,6.13,0,0,1,148.24,192.84Z" transform="translate(-3.12 -2.88)"/><path class="cls-2" d="M175.93,178.24l-22.19,12.81a6.13,6.13,0,0,1-5.5.23l-23-13.27a2.15,2.15,0,0,1-.7-.62,1.48,1.48,0,0,0,.7,2.18l23,13.27a6.13,6.13,0,0,0,5.5-.23l22.19-12.81c1.26-.73,1.65-1.75,1.09-2.55A3,3,0,0,1,175.93,178.24Z" transform="translate(-3.12 -2.88)"/><path class="cls-25" d="M168.81,188.12a2.06,2.06,0,0,1-.92,1.61c-.52.29-.93.05-.93-.54a2,2,0,0,1,.93-1.61C168.4,187.29,168.81,187.53,168.81,188.12Z" transform="translate(-3.12 -2.88)"/><path class="cls-25" d="M171.8,186.4a2,2,0,0,1-.93,1.6c-.51.3-.93.06-.93-.53a2.06,2.06,0,0,1,.93-1.61C171.39,185.56,171.8,185.8,171.8,186.4Z" transform="translate(-3.12 -2.88)"/><path class="cls-25" d="M174.79,184.67a2.07,2.07,0,0,1-.93,1.61c-.51.29-.93.05-.93-.54a2,2,0,0,1,.93-1.6C174.37,183.84,174.79,184.08,174.79,184.67Z" transform="translate(-3.12 -2.88)"/><path class="cls-20" d="M149.6,184.61l-10.75-6.2c-.66-.38-.58-1,.18-1.49l10.38-6a2.88,2.88,0,0,1,2.58-.11L162.74,177c.66.38.58,1-.19,1.48l-10.38,6A2.82,2.82,0,0,1,149.6,184.61Z" transform="translate(-3.12 -2.88)"/><path class="cls-25" d="M150.63,179.42l-1.49-.86c-.09-.05-.08-.15,0-.21l1.43-.83a.41.41,0,0,1,.36,0l1.49.86c.09,0,.08.14,0,.2l-1.44.83A.4.4,0,0,1,150.63,179.42Z" transform="translate(-3.12 -2.88)"/><path class="cls-23" d="M138.85,178.41h0l.15-.1,10.38-6a2.87,2.87,0,0,1,2.58-.1l10.72,6.19c.61-.44.64-1,0-1.38L152,170.82a2.88,2.88,0,0,0-2.58.11l-10.38,6C138.27,177.36,138.19,178,138.85,178.41Z" transform="translate(-3.12 -2.88)"/><path class="cls-5" d="M232.44,157.72l-23-13.27c-1.41-.81-1.23-2.23.4-3.17L232,128.47a6.13,6.13,0,0,1,5.5-.23l23,13.27c1.41.81,1.23,2.23-.4,3.17l-22.18,12.81A6.13,6.13,0,0,1,232.44,157.72Z" transform="translate(-3.12 -2.88)"/><path class="cls-2" d="M234.84,152.32a6.18,6.18,0,0,1-3.06-.73h0l-23-13.27a2.91,2.91,0,0,1-1.61-2.5,3.51,3.51,0,0,1,2-2.93l22.19-12.81a7.33,7.33,0,0,1,6.8-.23l23,13.27a2.92,2.92,0,0,1,1.6,2.51,3.49,3.49,0,0,1-2,2.92l-22.18,12.81A7.58,7.58,0,0,1,234.84,152.32Zm-1.75-3a4.85,4.85,0,0,0,4.2-.23l22.18-12.81c.56-.32.69-.61.69-.66s-.08-.13-.29-.25l-23-13.27a4.85,4.85,0,0,0-4.2.23l-22.18,12.81c-.56.32-.69.61-.7.67a1,1,0,0,0,.3.24l23,13.27Z" transform="translate(-3.12 -2.88)"/><path class="cls-23" d="M261.46,127.5h0v-7.93H243.69L237.54,116a6.13,6.13,0,0,0-5.5.23l-5.73,3.31H208.52v8.15a1.59,1.59,0,0,0,.94,1.48l23,13.26a6.09,6.09,0,0,0,5.5-.23l22.18-12.8C261.06,128.85,261.52,128.15,261.46,127.5Z" transform="translate(-3.12 -2.88)"/><path class="cls-30" d="M235,115.47a6.29,6.29,0,0,0-3,.77l-5.73,3.31H208.52v8.15a1.59,1.59,0,0,0,.94,1.48l23,13.26A5,5,0,0,0,235,143Z" transform="translate(-3.12 -2.88)"/><path class="cls-25" d="M210.53,119.54h-2v8.15a1.59,1.59,0,0,0,.94,1.48l1.07.61Z" transform="translate(-3.12 -2.88)"/><path class="cls-20" d="M232.79,142.61a6.29,6.29,0,0,0,4.4-.05V133.3h-4.4Z" transform="translate(-3.12 -2.88)"/><path class="cls-31" d="M232.44,134.31l-23-13.27c-1.41-.81-1.23-2.23.4-3.17L232,105.06a6.13,6.13,0,0,1,5.5-.23l23,13.27c1.41.81,1.23,2.23-.4,3.17l-22.18,12.81A6.13,6.13,0,0,1,232.44,134.31Z" transform="translate(-3.12 -2.88)"/><path class="cls-2" d="M260.12,119.71l-22.18,12.81a6.13,6.13,0,0,1-5.5.23l-23-13.27a2.15,2.15,0,0,1-.7-.62,1.47,1.47,0,0,0,.7,2.18l23,13.27a6.13,6.13,0,0,0,5.5-.23l22.18-12.81c1.27-.73,1.65-1.75,1.1-2.55A3,3,0,0,1,260.12,119.71Z" transform="translate(-3.12 -2.88)"/><path class="cls-25" d="M253,129.59a2,2,0,0,1-.93,1.61c-.51.29-.92.05-.92-.54a2.06,2.06,0,0,1,.92-1.61C252.6,128.76,253,129,253,129.59Z" transform="translate(-3.12 -2.88)"/><path class="cls-25" d="M256,127.87a2,2,0,0,1-.93,1.6c-.51.3-.93.06-.93-.53a2.07,2.07,0,0,1,.93-1.61C255.58,127,256,127.27,256,127.87Z" transform="translate(-3.12 -2.88)"/><path class="cls-25" d="M259,126.14a2.06,2.06,0,0,1-.92,1.61c-.52.3-.93.06-.93-.54a2,2,0,0,1,.93-1.6C258.57,125.31,259,125.55,259,126.14Z" transform="translate(-3.12 -2.88)"/><path class="cls-20" d="M233.8,126.09,223,119.88c-.66-.38-.57-1,.19-1.49l10.38-6a2.86,2.86,0,0,1,2.57-.11l10.76,6.21c.66.38.57,1-.19,1.48l-10.38,6A2.86,2.86,0,0,1,233.8,126.09Z" transform="translate(-3.12 -2.88)"/><path class="cls-25" d="M234.82,120.89l-1.48-.86c-.09,0-.08-.15,0-.21l1.44-.83a.41.41,0,0,1,.36,0l1.48.86c.09,0,.08.14,0,.2l-1.44.83A.42.42,0,0,1,234.82,120.89Z" transform="translate(-3.12 -2.88)"/><path class="cls-23" d="M223,119.88l0,0a.91.91,0,0,1,.16-.11l10.38-6a2.86,2.86,0,0,1,2.57-.11l10.73,6.19c.6-.44.64-1,0-1.38l-10.76-6.21a2.86,2.86,0,0,0-2.57.11l-10.38,6C222.47,118.83,222.38,119.5,223,119.88Z" transform="translate(-3.12 -2.88)"/><path class="cls-5" d="M64.05,157.72l-23-13.27c-1.41-.81-1.23-2.23.4-3.17l22.18-12.81a6.13,6.13,0,0,1,5.5-.23l23,13.27c1.41.81,1.23,2.23-.4,3.17L69.55,157.49A6.13,6.13,0,0,1,64.05,157.72Z" transform="translate(-3.12 -2.88)"/><path class="cls-2" d="M66.45,152.32a6.21,6.21,0,0,1-3.06-.73h0l-23-13.27a2.91,2.91,0,0,1-1.61-2.5,3.51,3.51,0,0,1,2-2.93L63,120.08a7.33,7.33,0,0,1,6.8-.23l23,13.27a2.92,2.92,0,0,1,1.6,2.51,3.5,3.5,0,0,1-2,2.92L70.2,151.36A7.58,7.58,0,0,1,66.45,152.32Zm-1.75-3a4.85,4.85,0,0,0,4.2-.23l22.18-12.81c.56-.32.69-.61.69-.66s-.08-.13-.29-.25l-23-13.27a4.85,4.85,0,0,0-4.2.23L42.12,135.15c-.56.32-.69.61-.7.67a1,1,0,0,0,.3.24l23,13.27Z" transform="translate(-3.12 -2.88)"/><path class="cls-23" d="M93.07,127.5h0v-7.93H75.3L69.15,116a6.13,6.13,0,0,0-5.5.23l-5.73,3.31H40.13v8.15a1.59,1.59,0,0,0,.94,1.48l23,13.26a6.09,6.09,0,0,0,5.5-.23l22.18-12.8C92.67,128.85,93.13,128.15,93.07,127.5Z" transform="translate(-3.12 -2.88)"/><path class="cls-32" d="M66.6,115.47a6.29,6.29,0,0,0-2.95.77l-5.73,3.31H40.13v8.15a1.59,1.59,0,0,0,.94,1.48l23,13.26a5,5,0,0,0,2.55.55Z" transform="translate(-3.12 -2.88)"/><path class="cls-25" d="M42.14,119.54h-2v8.15a1.59,1.59,0,0,0,.94,1.48l1.07.61Z" transform="translate(-3.12 -2.88)"/><path class="cls-20" d="M64.4,142.61a6.29,6.29,0,0,0,4.4-.05V133.3H64.4Z" transform="translate(-3.12 -2.88)"/><path class="cls-33" d="M64.05,134.31,41.07,121c-1.41-.81-1.23-2.23.4-3.17l22.18-12.81a6.13,6.13,0,0,1,5.5-.23l23,13.27c1.41.81,1.23,2.23-.4,3.17L69.55,134.08A6.13,6.13,0,0,1,64.05,134.31Z" transform="translate(-3.12 -2.88)"/><path class="cls-2" d="M91.73,119.71,69.55,132.52a6.13,6.13,0,0,1-5.5.23l-23-13.27a2.15,2.15,0,0,1-.7-.62,1.47,1.47,0,0,0,.7,2.18l23,13.27a6.13,6.13,0,0,0,5.5-.23l22.18-12.81c1.27-.73,1.65-1.75,1.1-2.55A3,3,0,0,1,91.73,119.71Z" transform="translate(-3.12 -2.88)"/><path class="cls-25" d="M84.62,129.59a2,2,0,0,1-.93,1.61c-.51.29-.92.05-.92-.54a2.06,2.06,0,0,1,.92-1.61C84.21,128.76,84.62,129,84.62,129.59Z" transform="translate(-3.12 -2.88)"/><path class="cls-25" d="M87.61,127.87a2,2,0,0,1-.93,1.6c-.51.3-.93.06-.93-.53a2.07,2.07,0,0,1,.93-1.61C87.19,127,87.61,127.27,87.61,127.87Z" transform="translate(-3.12 -2.88)"/><path class="cls-25" d="M90.59,126.14a2.06,2.06,0,0,1-.92,1.61c-.52.3-.93.06-.93-.54a2,2,0,0,1,.93-1.6C90.18,125.31,90.59,125.55,90.59,126.14Z" transform="translate(-3.12 -2.88)"/><path class="cls-20" d="M65.41,126.09l-10.76-6.21c-.66-.38-.57-1,.19-1.49l10.38-6a2.86,2.86,0,0,1,2.57-.11l10.76,6.21c.66.38.57,1-.19,1.48L68,126A2.86,2.86,0,0,1,65.41,126.09Z" transform="translate(-3.12 -2.88)"/><path class="cls-25" d="M66.43,120.89,65,120c-.09,0-.08-.15,0-.21l1.44-.83a.41.41,0,0,1,.36,0l1.48.86c.09,0,.08.14,0,.2l-1.44.83A.42.42,0,0,1,66.43,120.89Z" transform="translate(-3.12 -2.88)"/><path class="cls-23" d="M54.65,119.88l0,0a.91.91,0,0,1,.16-.11l10.38-6a2.86,2.86,0,0,1,2.57-.11l10.73,6.19c.6-.44.64-1,0-1.38l-10.76-6.21a2.86,2.86,0,0,0-2.57.11l-10.38,6C54.08,118.83,54,119.5,54.65,119.88Z" transform="translate(-3.12 -2.88)"/></svg>